<svg version="1.1" viewBox="0.0 0.0 326.0209973753281 165.6797900262467" fill="none" stroke="none" stroke-linecap="square" stroke-miterlimit="10" xmlns:xlink="http://www.w3.org/1999/xlink" xmlns="http://www.w3.org/2000/svg"><clipPath id="p.0"><path d="m0 0l326.021 0l0 165.6798l-326.021 0l0 -165.6798z" clip-rule="nonzero"/></clipPath><g clip-path="url(#p.0)"><path fill="#000000" fill-opacity="0.0" d="m0 0l326.021 0l0 165.6798l-326.021 0z" fill-rule="evenodd"/><path fill="#000000" fill-opacity="0.0" d="m0 0l337.66928 0l0 174.20473l-337.66928 0z" fill-rule="evenodd"/><path fill="#ff0000" d="m17.0 131.88l0 -10.0l92.875 -76.0l-88.875 0l0 -10.0l106.0 0l0 10.0l-93.375 76.0l95.375 0l0 10.0l-112.0 0z" fill-rule="nonzero"/><path fill="#000000" d="m148.875 35.880005l12.0 0l0 96.0l-12.0 0l0 -96.0zm112.0625 -2.0q11.0 0 18.53125 1.34375q7.53125 1.34375 12.40625 4.0625q4.875 2.71875 7.5 6.84375q2.625 4.125 3.84375 9.6875q1.21875 5.5625 1.4375 12.5625q0.21875 7.0 0.21875 15.5q0 8.5 -0.21875 15.5q-0.21875 7.0 -1.4375 12.5625q-1.21875 5.5625 -3.84375 9.6875q-2.625 4.125 -7.5 6.84375q-4.875 2.71875 -12.40625 4.0625q-7.53125 1.34375 -18.53125 1.34375l-36.125 0q-11.0 0 -18.53125 -1.34375q-7.53125 -1.34375 -12.40625 -4.0625q-4.875 -2.71875 -7.53125 -6.84375q-2.65625 -4.125 -3.875 -9.6875q-1.21875 -5.5625 -1.40625 -12.5625q-0.1875 -7.0 -0.1875 -15.5q0 -8.5 0.1875 -15.5q0.1875 -7.0 1.40625 -12.5625q1.21875 -5.5625 3.875 -9.6875q2.65625 -4.125 7.53125 -6.84375q4.875 -2.71875 12.40625 -4.0625q7.53125 -1.34375 18.53125 -1.34375l36.125 0zm0 90.0q7.9375 0 13.40625 -0.46875q5.46875 -0.46875 9.03125 -1.90625q3.5625 -1.4375 5.5 -4.125q1.9375 -2.6875 2.8125 -7.125q0.875 -4.4375 1.03125 -10.90625q0.15625 -6.46875 0.15625 -15.46875q0 -9.0 -0.15625 -15.46875q-0.15625 -6.46875 -1.03125 -10.90625q-0.875 -4.4375 -2.8125 -7.125q-1.9375 -2.6875 -5.46875 -4.125q-3.53125 -1.4375 -9.0 -1.90625q-5.46875 -0.46875 -13.46875 -0.46875l-36.125 0q-8.0 0 -13.46875 0.46875q-5.46875 0.46875 -9.03125 1.90625q-3.5625 1.4375 -5.5 4.125q-1.9375 2.6875 -2.8125 7.125q-0.875 4.4375 -1.0 10.90625q-0.125 6.46875 -0.125 15.46875q0 9.0 0.15625 15.46875q0.15625 6.46875 1.03125 10.90625q0.875 4.4375 2.78125 7.125q1.90625 2.6875 5.46875 4.125q3.5625 1.4375 9.03125 1.90625q5.46875 0.46875 13.46875 0.46875l36.125 0z" fill-rule="nonzero"/></g></svg>