<?xml version="1.0" encoding="UTF-8" standalone="no"?>
<!DOCTYPE svg PUBLIC "-//W3C//DTD SVG 1.1//EN" "http://www.w3.org/Graphics/SVG/1.1/DTD/svg11.dtd">
<svg width="100%" height="100%" viewBox="0 0 1070 355" version="1.1" xmlns="http://www.w3.org/2000/svg" xmlns:xlink="http://www.w3.org/1999/xlink" xml:space="preserve" xmlns:serif="http://www.serif.com/" style="fill-rule:evenodd;clip-rule:evenodd;stroke-linejoin:round;stroke-miterlimit:1.41421;">
    <g transform="matrix(1,0,0,1,0,-3636)">
        <g id="Artboard10" transform="matrix(1,0,0,0.33169,35.4533,2429.73)">
            <rect x="-35.453" y="3636.75" width="1070" height="1070" style="fill:none;"/>
            <g transform="matrix(0.587022,-3.14417e-33,1.04289e-33,1.76979,-468.218,-2559.26)">
                <g transform="matrix(4.16667,0,0,4.16667,754.255,3521.11)">
                    <path d="M244.862,83.627C243.581,83.736 241.917,84.111 239.882,84.755C237.848,85.393 235.867,86.304 233.942,87.483C232.015,88.663 230.35,90.133 228.959,91.903C227.567,93.667 226.869,95.729 226.869,98.087C226.869,101.406 227.485,103.844 228.719,105.395C229.947,106.949 232.226,107.727 235.547,107.727C236.293,107.727 237.604,107.269 239.483,106.362C241.354,105.452 243.15,103.979 244.862,101.943L244.862,83.627ZM264.145,122.989L244.864,122.989L244.864,116.717C244.864,116.717 244.765,116.773 244.733,116.799C242.967,118.325 240.842,119.587 238.355,120.58C234.343,122.186 230.3,122.989 226.227,122.989C223.659,122.989 221.192,122.454 218.839,121.383C216.481,120.314 214.393,118.733 212.574,116.644C210.75,114.556 209.306,112.037 208.235,109.093C207.162,106.148 206.627,102.746 206.627,98.89C206.627,93.214 208.101,88.555 211.046,84.913C213.992,81.272 217.498,78.381 221.569,76.236C225.64,74.094 229.817,72.569 234.102,71.659C238.381,70.749 241.917,70.241 244.703,70.132C244.487,65.527 243.604,62.178 242.051,60.091C240.499,58.003 237.578,56.958 233.299,56.958C229.867,56.958 226.713,57.438 223.82,58.402C220.927,59.366 217.605,60.922 213.858,63.061L212.574,46.837C217.393,44.482 221.89,42.715 226.069,41.535C230.247,40.356 234.424,39.765 238.598,39.765C242.24,39.765 245.642,40.356 248.802,41.535C251.96,42.715 254.665,44.586 256.915,47.155C259.163,49.725 260.932,53.077 262.216,57.2C263.501,61.322 264.145,66.276 264.145,72.06L264.145,122.989Z" style="fill:rgb(35,31,32);fill-rule:nonzero;"/>
                </g>
                <g transform="matrix(4.16667,0,0,4.16667,754.255,3521.11)">
                    <path d="M342.744,83.627C341.463,83.736 339.8,84.111 337.765,84.755C335.728,85.393 333.749,86.304 331.819,87.483C329.895,88.663 328.229,90.133 326.838,91.903C325.446,93.667 324.749,95.729 324.749,98.087C324.749,101.406 325.365,103.844 326.598,105.395C327.828,106.949 330.106,107.727 333.426,107.727C334.176,107.727 335.486,107.269 337.364,106.362C339.236,105.452 341.032,103.979 342.744,101.943L342.744,83.627ZM362.028,122.989L342.744,122.989L342.744,116.717C342.744,116.717 342.646,116.773 342.613,116.799C340.848,118.325 338.723,119.587 336.238,120.58C332.223,122.186 328.18,122.989 324.106,122.989C321.536,122.989 319.071,122.454 316.718,121.383C314.362,120.314 312.271,118.733 310.454,116.644C308.629,114.556 307.184,112.037 306.114,109.093C305.041,106.148 304.509,102.746 304.509,98.89C304.509,93.214 305.979,88.555 308.925,84.913C311.871,81.272 315.379,78.381 319.449,76.236C323.52,74.094 327.696,72.569 331.981,71.659C336.264,70.749 339.8,70.241 342.585,70.132C342.368,65.527 341.485,62.178 339.933,60.091C338.378,58.003 335.46,56.958 331.18,56.958C327.75,56.958 324.592,57.438 321.698,58.402C318.807,59.366 315.486,60.922 311.739,63.061L310.454,46.837C315.271,44.482 319.77,42.715 323.949,41.535C328.126,40.356 332.302,39.765 336.48,39.765C340.119,39.765 343.52,40.356 346.681,41.535C349.841,42.715 352.547,44.586 354.797,47.155C357.043,49.725 358.813,53.077 360.098,57.2C361.383,61.322 362.024,66.276 362.024,72.06L362.028,122.989Z" style="fill:rgb(35,31,32);fill-rule:nonzero;"/>
                </g>
                <g transform="matrix(4.16667,0,0,4.16667,754.255,3521.11)">
                    <rect x="274.982" y="0.885" width="19.121" height="122.104" style="fill:rgb(35,31,32);fill-rule:nonzero;"/>
                </g>
                <g transform="matrix(4.16667,0,0,4.16667,754.255,3521.11)">
                    <path d="M404.473,122.989C399.009,122.989 394.162,121.864 389.932,119.617C385.699,117.366 382.193,114.367 379.408,110.619C376.621,106.87 374.508,102.48 373.061,97.443C371.615,92.409 370.893,87.057 370.893,81.379C370.893,75.811 371.615,70.481 373.061,65.392C374.508,60.304 376.621,55.886 379.408,52.134C382.193,48.389 385.699,45.39 389.932,43.138C394.162,40.892 399.009,39.765 404.473,39.765C407.363,39.765 409.825,39.927 411.862,40.249C413.895,40.57 415.719,40.999 417.324,41.535C418.931,42.07 420.348,42.715 421.58,43.46C422.81,44.213 424.017,44.964 425.197,45.712L423.751,62.74C420.859,60.598 418.021,58.966 415.234,57.84C412.449,56.716 409.344,56.153 405.916,56.153C401.202,56.153 397.454,58.483 394.671,63.142C391.885,67.802 390.493,73.882 390.493,81.379C390.493,88.877 391.885,94.955 394.671,99.613C397.454,104.274 401.202,106.603 405.916,106.603C409.344,106.603 412.449,106.038 415.234,104.913C418.021,103.79 420.859,102.16 423.751,100.015L425.197,117.045C422.84,118.651 420.188,120.044 417.242,121.223C414.298,122.399 410.039,122.989 404.473,122.989Z" style="fill:rgb(35,31,32);fill-rule:nonzero;"/>
                </g>
                <g transform="matrix(4.16667,0,0,4.16667,754.255,3521.11)">
                    <path d="M115.756,122.989C110.613,122.989 105.954,122.37 101.776,121.141C97.6,119.912 94.438,118.544 92.298,117.045L93.745,100.015C95.028,100.978 96.554,101.943 98.323,102.906C100.092,103.871 101.938,104.731 103.867,105.477C105.796,106.228 107.745,106.842 109.73,107.326C111.711,107.807 113.504,108.047 115.112,108.047C117.146,108.047 118.779,107.782 120.015,107.242C121.241,106.709 122.182,106.014 122.823,105.153C123.468,104.298 123.871,103.334 124.029,102.264C124.188,101.196 124.269,100.174 124.269,99.212C124.269,95.893 123.146,93.456 120.897,91.903C118.646,90.35 115.7,88.984 112.059,87.804C109.594,86.95 107.211,86.009 104.909,84.994C102.606,83.974 100.544,82.665 98.722,81.055C96.903,79.45 95.432,77.389 94.305,74.869C93.18,72.354 92.619,69.167 92.619,65.313C92.619,62.528 92.993,59.633 93.745,56.636C94.492,53.64 95.834,50.88 97.758,48.361C99.687,45.847 102.283,43.781 105.553,42.174C108.818,40.57 112.915,39.765 117.843,39.765C120.095,39.765 122.394,39.955 124.752,40.328C127.106,40.705 129.332,41.159 131.42,41.695C133.508,42.229 135.406,42.847 137.124,43.542C138.832,44.24 140.119,44.964 140.977,45.712L139.531,62.74C138.675,61.778 137.524,60.76 136.077,59.687C134.631,58.619 133,57.681 131.178,56.877C129.356,56.072 127.43,55.406 125.394,54.869C123.359,54.334 121.433,54.066 119.609,54.066C117.042,54.066 114.603,54.734 112.304,56.072C109.996,57.414 108.847,59.687 108.847,62.901C108.847,64.83 109.301,66.413 110.213,67.641C111.12,68.873 112.304,69.891 113.748,70.695C115.192,71.495 116.851,72.194 118.726,72.781C120.6,73.373 122.555,73.987 124.593,74.629C127.162,75.488 129.597,76.477 131.901,77.6C134.203,78.726 136.184,80.229 137.846,82.1C139.506,83.974 140.844,86.278 141.863,89.01C142.879,91.742 143.389,95.195 143.389,99.373C143.389,101.836 143.12,104.459 142.587,107.242C142.048,110.031 140.819,112.572 138.89,114.878C136.961,117.18 134.176,119.108 130.535,120.658C126.894,122.213 121.968,122.989 115.756,122.989Z" style="fill:rgb(35,31,32);fill-rule:nonzero;"/>
                </g>
                <g transform="matrix(4.16667,0,0,4.16667,754.255,3521.11)">
                    <path d="M181.351,122.989C175.888,122.989 171.04,121.864 166.811,119.617C162.578,117.366 159.071,114.367 156.288,110.619C153.499,106.87 151.388,102.48 149.938,97.443C148.496,92.409 147.771,87.057 147.771,81.379C147.771,75.811 148.496,70.481 149.938,65.392C151.388,60.304 153.499,55.886 156.288,52.134C159.071,48.389 162.578,45.39 166.811,43.138C171.04,40.892 175.888,39.765 181.351,39.765C184.243,39.765 186.705,39.927 188.742,40.249C190.776,40.57 192.597,40.999 194.204,41.535C195.813,42.07 197.229,42.715 198.462,43.46C199.693,44.213 200.897,44.964 202.078,45.712L200.631,62.74C197.739,60.598 194.899,58.966 192.115,57.84C189.329,56.716 186.223,56.153 182.799,56.153C178.084,56.153 174.338,58.483 171.552,63.142C168.766,67.802 167.374,73.882 167.374,81.379C167.374,88.877 168.766,94.955 171.552,99.613C174.338,104.274 178.084,106.603 182.799,106.603C186.223,106.603 189.329,106.038 192.115,104.913C194.899,103.79 197.739,102.16 200.631,100.015L202.078,117.045C199.722,118.651 197.069,120.044 194.124,121.223C191.176,122.399 186.919,122.989 181.351,122.989Z" style="fill:rgb(35,31,32);fill-rule:nonzero;"/>
                </g>
                <g transform="matrix(4.16667,0,0,4.16667,754.255,3521.11)">
                    <path d="M0,36.885L63.655,81.444L0,126L0,103.722L31.828,81.444L0,59.165L0,36.885Z" style="fill:rgb(238,49,35);fill-rule:nonzero;"/>
                </g>
            </g>
        </g>
    </g>
</svg>
