<?xml version="1.0" encoding="utf-8"?>
<!-- Generator: Adobe Illustrator 16.2.0, SVG Export Plug-In . SVG Version: 6.00 Build 0)  -->
<!DOCTYPE svg PUBLIC "-//W3C//DTD SVG 1.1//EN" "http://www.w3.org/Graphics/SVG/1.1/DTD/svg11.dtd">
<svg version="1.1" id="Layer_1" xmlns="http://www.w3.org/2000/svg" xmlns:xlink="http://www.w3.org/1999/xlink" x="0px" y="0px"
	 width="235.197px" height="89.913px" viewBox="0 0 235.197 89.913" enable-background="new 0 0 235.197 89.913"
	 xml:space="preserve">
<g>
	<g>
		<defs>
			<path id="SVGID_1_" d="M0.786,7.071c0,3.03,1.421,5.649,5.536,8.867l1.721,1.346c3.106,2.433,3.667,4.154,3.667,5.987
				c0,1.983-1.646,4.265-5.013,4.265c-2.32,0-4.527-1.011-5.351-3.779c-0.187-0.635-0.336-1.421-0.336-1.908
				c0-0.3-0.038-0.636-0.375-0.636c-0.299,0-0.411,0.412-0.449,0.972C0.149,22.784,0,25.03,0,27.087c0,0.823,0.111,1.01,0.71,1.272
				c1.609,0.711,3.293,0.973,5.463,0.973c1.983,0,4.078-0.337,5.948-1.534c2.695-1.759,3.517-4.341,3.517-6.51
				c0-3.555-1.608-6.136-6.135-9.541l-1.048-0.785C5.35,8.605,4.489,7.295,4.489,5.574c0-2.244,1.684-3.854,4.452-3.854
				c2.432,0,3.517,1.123,4.078,1.834c0.786,0.973,0.973,2.133,0.973,2.469c0,0.448,0.113,0.674,0.374,0.674
				c0.299,0,0.412-0.299,0.412-1.123c0-2.918,0.15-4.003,0.15-4.49c0-0.262-0.188-0.374-0.524-0.448C13.431,0.374,11.86,0,9.427,0
				C4.227,0,0.786,2.955,0.786,7.071"/>
		</defs>
		<clipPath id="SVGID_2_">
			<use xlink:href="#SVGID_1_"  overflow="visible"/>
		</clipPath>
		
			<linearGradient id="SVGID_3_" gradientUnits="userSpaceOnUse" x1="-500.7212" y1="258.4141" x2="-499.7212" y2="258.4141" gradientTransform="matrix(0 -29.3328 -29.3328 0 7587.835 -14658.2246)">
			<stop  offset="0" style="stop-color:#6BB3DA"/>
			<stop  offset="1" style="stop-color:#22679B"/>
		</linearGradient>
		<rect clip-path="url(#SVGID_2_)" fill="url(#SVGID_3_)" width="15.638" height="29.332"/>
	</g>
	<g>
		<defs>
			<path id="SVGID_4_" d="M43.546,0.374c-0.299,0.075-0.898,0.149-1.61,0.224c-0.71,0.038-8.156,0.038-9.353,0.038
				c-0.523,0-1.384-0.038-2.357-0.076c-0.936,0-2.02-0.037-3.03-0.037c-0.561,0-0.824,0.075-0.824,0.337
				c0,0.262,0.225,0.337,0.637,0.337c0.524,0,1.16,0.037,1.459,0.112c1.234,0.262,1.534,0.861,1.609,2.132
				c0.075,1.197,0.075,2.246,0.075,7.933v6.584c0,3.442,0,6.398-0.188,7.97c-0.149,1.084-0.336,1.907-1.084,2.057
				c-0.338,0.075-0.787,0.15-1.347,0.15c-0.45,0-0.599,0.111-0.599,0.299c0,0.262,0.262,0.375,0.748,0.375
				c0.748,0,1.722-0.076,2.582-0.076c0.897-0.037,1.721-0.037,2.132-0.037c1.122,0,2.283,0.037,3.891,0.113
				c1.609,0.037,3.667,0.111,6.473,0.111c1.422,0,1.758,0,2.02-0.972c0.187-0.75,0.487-3.293,0.487-4.154c0-0.374,0-0.672-0.3-0.672
				c-0.262,0-0.336,0.149-0.411,0.56c-0.262,1.535-0.711,2.32-1.684,2.769C41.899,26.9,40.328,26.9,39.355,26.9
				c-3.816,0-4.415-0.562-4.489-3.143c-0.037-1.085,0-4.526,0-5.799v-2.955c0-0.224,0.037-0.375,0.224-0.375
				c0.898,0,4.602,0.038,5.313,0.113c1.385,0.149,1.909,0.71,2.095,1.459c0.112,0.487,0.112,0.972,0.15,1.347
				c0,0.186,0.075,0.336,0.337,0.336c0.336,0,0.336-0.412,0.336-0.711c0-0.261,0.113-1.758,0.15-2.506
				c0.149-1.908,0.299-2.507,0.299-2.731c0-0.225-0.112-0.3-0.262-0.3c-0.187,0-0.336,0.187-0.598,0.487
				c-0.338,0.373-0.898,0.486-1.796,0.56c-0.861,0.076-5.164,0.076-5.986,0.076c-0.225,0-0.262-0.15-0.262-0.412V2.881
				c0-0.262,0.074-0.375,0.262-0.375c0.748,0,4.676,0.075,5.312,0.15c1.872,0.225,2.246,0.674,2.507,1.347
				c0.187,0.448,0.225,1.084,0.225,1.346c0,0.338,0.075,0.524,0.336,0.524c0.262,0,0.337-0.224,0.375-0.411
				c0.074-0.449,0.149-2.095,0.187-2.469c0.112-1.721,0.299-2.171,0.299-2.433c0-0.186-0.038-0.336-0.225-0.336
				S43.733,0.336,43.546,0.374"/>
		</defs>
		<clipPath id="SVGID_5_">
			<use xlink:href="#SVGID_4_"  overflow="visible"/>
		</clipPath>
		
			<linearGradient id="SVGID_6_" gradientUnits="userSpaceOnUse" x1="-500.7275" y1="258.4277" x2="-499.7275" y2="258.4277" gradientTransform="matrix(0 -28.696 -28.696 0 7451.6528 -14339.9512)">
			<stop  offset="0" style="stop-color:#6BB3DA"/>
			<stop  offset="1" style="stop-color:#22679B"/>
		</linearGradient>
		<rect x="26.372" y="0.224" clip-path="url(#SVGID_5_)" fill="url(#SVGID_6_)" width="18.895" height="28.696"/>
	</g>
	<g>
		<defs>
			<path id="SVGID_7_" d="M62.211,0.636c-1.046,0-3.403-0.113-5.387-0.113C56.263,0.523,56,0.598,56,0.86
				c0,0.262,0.226,0.337,0.638,0.337c0.523,0,1.159,0.037,1.459,0.112c1.234,0.262,1.533,0.861,1.608,2.132
				c0.075,1.197,0.075,2.246,0.075,7.933v6.584c0,3.442,0,6.398-0.188,7.97c-0.149,1.084-0.336,1.907-1.084,2.057
				c-0.337,0.075-0.786,0.15-1.347,0.15c-0.449,0-0.599,0.111-0.599,0.299c0,0.262,0.262,0.375,0.749,0.375
				c1.497,0,3.854-0.113,4.714-0.113c0.972,0,3.33,0.113,5.799,0.113c0.412,0,0.711-0.113,0.711-0.375
				c0-0.188-0.187-0.299-0.599-0.299c-0.56,0-1.384-0.075-1.908-0.15c-1.123-0.15-1.347-0.973-1.459-2.02
				c-0.188-1.609-0.188-4.565-0.188-8.007V2.993c0-0.412,0.113-0.636,0.3-0.711c0.337-0.112,0.898-0.149,1.459-0.149
				c0.861,0,2.395,0.224,3.742,1.458c2.095,1.871,2.207,4.378,2.207,5.612c0,3.816-2.919,6.173-5.013,6.173
				c-0.786,0-1.048,0.113-1.048,0.412c0,0.262,0.262,0.299,0.449,0.337c0.187,0.038,0.599,0.038,0.786,0.038
				c5.312,0,9.203-3.743,9.203-9.054c0-1.984-1.047-3.668-1.87-4.453c-0.599-0.561-2.282-2.133-6.959-2.133
				C65.916,0.523,63.746,0.636,62.211,0.636"/>
		</defs>
		<clipPath id="SVGID_8_">
			<use xlink:href="#SVGID_7_"  overflow="visible"/>
		</clipPath>
		
			<linearGradient id="SVGID_9_" gradientUnits="userSpaceOnUse" x1="-500.749" y1="258.417" x2="-499.749" y2="258.417" gradientTransform="matrix(0 -28.2854 -28.2854 0 7375.6548 -14135.0566)">
			<stop  offset="0" style="stop-color:#6BB3DA"/>
			<stop  offset="1" style="stop-color:#22679B"/>
		</linearGradient>
		<rect x="56" y="0.523" clip-path="url(#SVGID_8_)" fill="url(#SVGID_9_)" width="20.466" height="28.286"/>
	</g>
	<g>
		<defs>
			<path id="SVGID_10_" d="M85.069,0.71c-0.075,0.299-0.786,3.704-0.786,4.303c0,0.412,0.075,0.598,0.337,0.598
				c0.225,0,0.336-0.149,0.411-0.448c0.075-0.3,0.262-0.749,0.636-1.31c0.562-0.823,1.459-1.01,3.63-1.085l5.575-0.149v15.339
				c0,3.442,0,6.398-0.188,7.97c-0.112,1.084-0.336,1.907-1.085,2.057c-0.337,0.075-0.786,0.15-1.347,0.15
				c-0.449,0-0.598,0.111-0.598,0.299c0,0.262,0.261,0.375,0.748,0.375c1.497,0,3.854-0.113,4.714-0.113
				c1.048,0,3.405,0.113,5.873,0.113c0.412,0,0.711-0.113,0.711-0.375c0-0.188-0.187-0.299-0.598-0.299
				c-0.562,0-1.384-0.075-1.908-0.15c-1.122-0.15-1.347-0.973-1.459-2.02c-0.187-1.609-0.187-4.565-0.187-8.007V2.619l4.714,0.111
				c3.33,0.076,4.34,1.123,4.415,2.096l0.037,0.412c0.037,0.56,0.112,0.748,0.412,0.748c0.224,0,0.298-0.225,0.336-0.599
				c0-0.973,0.113-3.554,0.113-4.341c0-0.56-0.038-0.784-0.299-0.784c-0.15,0-0.45,0.074-1.011,0.187
				c-0.561,0.074-1.384,0.187-2.581,0.187H90.867c-1.234,0-2.656-0.076-3.741-0.187C86.191,0.374,85.817,0,85.518,0
				C85.293,0,85.181,0.224,85.069,0.71"/>
		</defs>
		<clipPath id="SVGID_11_">
			<use xlink:href="#SVGID_10_"  overflow="visible"/>
		</clipPath>
		
			<linearGradient id="SVGID_12_" gradientUnits="userSpaceOnUse" x1="-500.7354" y1="258.415" x2="-499.7354" y2="258.415" gradientTransform="matrix(0 -28.8091 -28.8091 0 7541.6274 -14396.9219)">
			<stop  offset="0" style="stop-color:#6BB3DA"/>
			<stop  offset="1" style="stop-color:#22679B"/>
		</linearGradient>
		<rect x="84.283" clip-path="url(#SVGID_11_)" fill="url(#SVGID_12_)" width="25.292" height="28.809"/>
	</g>
	<g>
		<defs>
			<path id="SVGID_13_" d="M124.536,0.636c-1.084,0-3.442-0.113-4.863-0.113c-0.599,0-0.898,0.075-0.898,0.299
				c0,0.3,0.225,0.375,0.598,0.375c0.45,0,0.936,0.037,1.347,0.149c0.824,0.187,1.197,0.824,1.272,2.095
				c0.076,1.197,0.076,2.246,0.076,7.933v6.584c0,3.629,0,6.586-0.188,8.156c-0.112,1.084-0.336,1.721-1.085,1.871
				c-0.337,0.075-0.786,0.15-1.347,0.15c-0.448,0-0.599,0.111-0.599,0.299c0,0.262,0.262,0.375,0.749,0.375
				c1.496,0,3.854-0.113,4.714-0.113c1.01,0,3.367,0.113,5.837,0.113c0.411,0,0.71-0.113,0.71-0.375
				c0-0.188-0.186-0.299-0.598-0.299c-0.561,0-1.384-0.075-1.909-0.15c-1.122-0.15-1.384-0.823-1.495-1.833
				c-0.151-1.608-0.151-4.565-0.151-8.194v-6.584c0-5.687,0-6.736,0.075-7.933c0.076-1.308,0.374-1.945,1.384-2.132
				c0.449-0.075,0.749-0.112,1.123-0.112s0.599-0.075,0.599-0.375c0-0.224-0.3-0.299-0.786-0.299
				C127.679,0.523,125.472,0.636,124.536,0.636"/>
		</defs>
		<clipPath id="SVGID_14_">
			<use xlink:href="#SVGID_13_"  overflow="visible"/>
		</clipPath>
		
			<linearGradient id="SVGID_15_" gradientUnits="userSpaceOnUse" x1="-500.749" y1="258.417" x2="-499.749" y2="258.417" gradientTransform="matrix(0 -28.2854 -28.2854 0 7434.2642 -14135.0566)">
			<stop  offset="0" style="stop-color:#6BB3DA"/>
			<stop  offset="1" style="stop-color:#22679B"/>
		</linearGradient>
		<rect x="118.775" y="0.523" clip-path="url(#SVGID_14_)" fill="url(#SVGID_15_)" width="12.084" height="28.286"/>
	</g>
	<g>
		<defs>
			<path id="SVGID_16_" d="M167.261,0.898l-10.177,21.063L146.87,1.159C146.384,0.186,146.16,0,145.86,0
				c-0.3,0-0.524,0.336-0.636,0.973l-3.705,24.093c-0.186,1.272-0.486,2.732-1.533,2.956c-0.561,0.113-0.823,0.113-1.122,0.113
				c-0.375,0-0.599,0.074-0.599,0.261c0,0.337,0.3,0.413,0.673,0.413c1.197,0,2.994-0.113,3.705-0.113
				c0.673,0,2.357,0.113,3.928,0.113c0.561,0,0.897-0.076,0.897-0.413c0-0.187-0.262-0.261-0.56-0.261
				c-0.375,0-0.898-0.038-1.572-0.187c-0.636-0.15-1.122-0.487-1.122-1.198c0-0.598,0.037-1.085,0.112-1.758l1.945-14.592h0.151
				c1.308,2.806,3.554,7.221,3.89,8.007c0.449,1.048,3.405,6.772,4.303,8.493c0.599,1.122,0.972,1.871,1.309,1.871
				c0.337,0,0.524-0.337,1.384-2.095l8.157-16.686h0.149l2.245,16.274c0.15,1.048,0.038,1.534-0.188,1.609
				c-0.261,0.112-0.411,0.224-0.411,0.411c0,0.225,0.224,0.336,1.085,0.412c1.496,0.113,6.659,0.186,7.595,0.186
				c0.524,0,0.972-0.111,0.972-0.411c0-0.225-0.261-0.262-0.598-0.262c-0.487,0-1.235-0.037-2.32-0.374
				c-1.122-0.337-1.497-1.421-1.833-3.778l-3.405-22.898C168.645,0.374,168.42,0,168.084,0C167.747,0,167.56,0.298,167.261,0.898"/>
		</defs>
		<clipPath id="SVGID_17_">
			<use xlink:href="#SVGID_16_"  overflow="visible"/>
		</clipPath>
		
			<linearGradient id="SVGID_18_" gradientUnits="userSpaceOnUse" x1="-500.7349" y1="258.4141" x2="-499.7349" y2="258.4141" gradientTransform="matrix(0 -28.8835 -28.8835 0 7621.499 -14434.0742)">
			<stop  offset="0" style="stop-color:#6BB3DA"/>
			<stop  offset="1" style="stop-color:#22679B"/>
		</linearGradient>
		<rect x="138.265" clip-path="url(#SVGID_17_)" fill="url(#SVGID_18_)" width="38.648" height="28.882"/>
	</g>
	<g>
		<defs>
			<path id="SVGID_19_" d="M190.939,17.135l3.442-9.166c0.038-0.15,0.113-0.337,0.224-0.337c0.113,0,0.15,0.187,0.188,0.337
				l3.367,9.203c0.037,0.112,0,0.225-0.187,0.225h-6.884C190.939,17.397,190.902,17.284,190.939,17.135 M194.494,1.496
				l-9.391,23.196c-0.748,1.871-1.46,3.143-3.181,3.368c-0.299,0.037-0.823,0.075-1.159,0.075c-0.3,0-0.449,0.074-0.449,0.299
				c0,0.299,0.224,0.375,0.711,0.375c1.945,0,4.002-0.113,4.414-0.113c1.16,0,2.769,0.113,3.967,0.113
				c0.41,0,0.635-0.076,0.635-0.375c0-0.225-0.112-0.299-0.562-0.299h-0.56c-1.16,0-1.497-0.487-1.497-1.161
				c0-0.449,0.188-1.346,0.563-2.282l2.02-5.125c0.075-0.225,0.15-0.299,0.337-0.299h8.343c0.187,0,0.3,0.074,0.373,0.262
				l2.995,7.706c0.186,0.449-0.076,0.786-0.338,0.861c-0.373,0.038-0.522,0.112-0.522,0.337c0,0.262,0.448,0.262,1.122,0.299
				c2.993,0.076,5.724,0.076,7.072,0.076c1.384,0,1.721-0.076,1.721-0.375c0-0.262-0.188-0.299-0.487-0.299
				c-0.449,0-1.01-0.038-1.572-0.15c-0.785-0.187-1.87-0.711-3.292-4.078c-2.395-5.687-8.381-20.653-9.279-22.71
				C196.103,0.336,195.878,0,195.541,0C195.167,0,194.942,0.412,194.494,1.496"/>
		</defs>
		<clipPath id="SVGID_20_">
			<use xlink:href="#SVGID_19_"  overflow="visible"/>
		</clipPath>
		
			<linearGradient id="SVGID_21_" gradientUnits="userSpaceOnUse" x1="-500.7354" y1="258.415" x2="-499.7354" y2="258.415" gradientTransform="matrix(0 -28.8091 -28.8091 0 7640.4243 -14396.9219)">
			<stop  offset="0" style="stop-color:#6BB3DA"/>
			<stop  offset="1" style="stop-color:#22679B"/>
		</linearGradient>
		<rect x="180.314" clip-path="url(#SVGID_20_)" fill="url(#SVGID_21_)" width="30.792" height="28.809"/>
	</g>
	<g>
		<defs>
			<path id="SVGID_22_" d="M221.54,0.636c-1.01,0-3.367-0.113-5.125-0.113c-0.561,0-0.823,0.075-0.823,0.337
				c0,0.262,0.224,0.337,0.635,0.337c0.487,0,0.936,0.037,1.235,0.112c1.235,0.262,1.535,0.861,1.609,2.132
				c0.075,1.197,0.075,2.246,0.075,7.933v6.584c0,3.442,0,6.398-0.187,7.97c-0.149,1.084-0.337,1.907-1.085,2.057
				c-0.337,0.075-0.786,0.15-1.347,0.15c-0.449,0-0.598,0.111-0.598,0.299c0,0.262,0.261,0.375,0.748,0.375
				c0.747,0,1.72-0.076,2.581-0.076c0.898-0.037,1.721-0.037,2.133-0.037c1.534,0,2.881,0.037,4.565,0.113
				c1.683,0.037,3.628,0.111,6.322,0.111c1.946,0,2.133-0.187,2.357-1.01c0.3-1.085,0.562-3.89,0.562-4.303
				c0-0.449-0.038-0.636-0.3-0.636c-0.299,0-0.374,0.225-0.412,0.562c-0.074,0.711-0.523,1.758-0.972,2.244
				c-0.935,1.011-2.395,1.048-4.378,1.048c-2.917,0-3.89-0.262-4.527-0.823c-0.785-0.674-0.785-3.255-0.785-8.044v-6.584
				c0-5.687,0-6.736,0.074-7.933c0.076-1.308,0.375-1.945,1.384-2.132c0.45-0.075,1.048-0.112,1.46-0.112
				c0.449,0,0.673-0.075,0.673-0.337c0-0.262-0.261-0.337-0.785-0.337C225.17,0.523,222.438,0.636,221.54,0.636"/>
		</defs>
		<clipPath id="SVGID_23_">
			<use xlink:href="#SVGID_22_"  overflow="visible"/>
		</clipPath>
		
			<linearGradient id="SVGID_24_" gradientUnits="userSpaceOnUse" x1="-500.7222" y1="258.4443" x2="-499.7222" y2="258.4443" gradientTransform="matrix(0 -28.3969 -28.3969 0 7564.3896 -14190.042)">
			<stop  offset="0" style="stop-color:#6BB3DA"/>
			<stop  offset="1" style="stop-color:#22679B"/>
		</linearGradient>
		<rect x="215.592" y="0.523" clip-path="url(#SVGID_23_)" fill="url(#SVGID_24_)" width="19.605" height="28.397"/>
	</g>
	<g>
		<defs>
			<path id="SVGID_25_" d="M78.563,61.553L68.387,82.616L58.173,61.814c-0.486-0.973-0.711-1.16-1.01-1.16s-0.523,0.337-0.636,0.972
				l-3.704,24.095c-0.187,1.272-0.486,2.732-1.534,2.956c-0.561,0.112-0.823,0.112-1.122,0.112c-0.375,0-0.599,0.075-0.599,0.261
				c0,0.338,0.3,0.412,0.673,0.412c1.197,0,2.994-0.111,3.705-0.111c0.673,0,2.357,0.111,3.927,0.111
				c0.562,0,0.899-0.074,0.899-0.412c0-0.186-0.262-0.261-0.562-0.261c-0.374,0-0.897-0.037-1.57-0.187
				c-0.637-0.149-1.123-0.486-1.123-1.197c0-0.6,0.037-1.084,0.112-1.758l1.946-14.593h0.149c1.309,2.808,3.554,7.222,3.891,8.007
				c0.449,1.048,3.405,6.772,4.303,8.493c0.599,1.122,0.972,1.871,1.309,1.871c0.338,0,0.524-0.337,1.384-2.096l8.157-16.687h0.149
				l2.245,16.274c0.15,1.048,0.038,1.535-0.187,1.609c-0.262,0.112-0.412,0.225-0.412,0.412c0,0.224,0.225,0.337,1.086,0.411
				c1.497,0.111,6.659,0.187,7.595,0.187c0.524,0,0.972-0.111,0.972-0.411c0-0.224-0.262-0.262-0.599-0.262
				c-0.485,0-1.233-0.038-2.319-0.374c-1.122-0.337-1.497-1.421-1.833-3.779L80.06,61.814c-0.112-0.785-0.336-1.16-0.673-1.16
				S78.863,60.953,78.563,61.553"/>
		</defs>
		<clipPath id="SVGID_26_">
			<use xlink:href="#SVGID_25_"  overflow="visible"/>
		</clipPath>
		
			<linearGradient id="SVGID_27_" gradientUnits="userSpaceOnUse" x1="-500.7314" y1="258.416" x2="-499.7314" y2="258.416" gradientTransform="matrix(0 -28.883 -28.883 0 7532.73 -14373.0752)">
			<stop  offset="0" style="stop-color:#6BB3DA"/>
			<stop  offset="1" style="stop-color:#22679B"/>
		</linearGradient>
		<rect x="49.568" y="60.654" clip-path="url(#SVGID_26_)" fill="url(#SVGID_27_)" width="38.648" height="28.883"/>
	</g>
	<g>
		<defs>
			<path id="SVGID_28_" d="M102.616,61.29c-1.085,0-3.442-0.112-4.864-0.112c-0.598,0-0.897,0.075-0.897,0.3
				c0,0.3,0.224,0.374,0.599,0.374c0.449,0,0.935,0.037,1.346,0.149c0.823,0.188,1.197,0.823,1.272,2.095
				c0.075,1.197,0.075,2.245,0.075,7.933v6.584c0,3.63,0,6.585-0.187,8.157c-0.112,1.084-0.337,1.721-1.085,1.87
				c-0.337,0.075-0.786,0.149-1.347,0.149c-0.449,0-0.599,0.113-0.599,0.3c0,0.262,0.262,0.373,0.749,0.373
				c1.496,0,3.853-0.111,4.714-0.111c1.01,0,3.367,0.111,5.836,0.111c0.412,0,0.711-0.111,0.711-0.373c0-0.187-0.187-0.3-0.598-0.3
				c-0.562,0-1.384-0.074-1.908-0.149c-1.123-0.149-1.385-0.823-1.497-1.834c-0.15-1.608-0.15-4.563-0.15-8.193v-6.584
				c0-5.688,0-6.735,0.075-7.933c0.075-1.309,0.375-1.945,1.385-2.132c0.449-0.075,0.748-0.112,1.122-0.112s0.598-0.074,0.598-0.374
				c0-0.225-0.299-0.3-0.785-0.3C105.759,61.178,103.552,61.29,102.616,61.29"/>
		</defs>
		<clipPath id="SVGID_29_">
			<use xlink:href="#SVGID_28_"  overflow="visible"/>
		</clipPath>
		
			<linearGradient id="SVGID_30_" gradientUnits="userSpaceOnUse" x1="-500.7451" y1="258.4189" x2="-499.7451" y2="258.4189" gradientTransform="matrix(0 -28.2849 -28.2849 0 7412.2759 -14074.0566)">
			<stop  offset="0" style="stop-color:#6BB3DA"/>
			<stop  offset="1" style="stop-color:#22679B"/>
		</linearGradient>
		<rect x="96.855" y="61.178" clip-path="url(#SVGID_29_)" fill="url(#SVGID_30_)" width="12.084" height="28.284"/>
	</g>
	<g>
		<defs>
			<path id="SVGID_31_" d="M122.443,61.926l-0.337,22.038c-0.037,3.254-0.187,4.338-1.16,4.639
				c-0.524,0.149-1.197,0.187-1.684,0.187c-0.373,0-0.598,0.075-0.598,0.3c0,0.337,0.336,0.373,0.823,0.373
				c1.946,0,3.704-0.111,4.041-0.111c0.711,0,2.207,0.111,4.639,0.111c0.525,0,0.861-0.074,0.861-0.373c0-0.225-0.225-0.3-0.636-0.3
				c-0.599,0-1.309-0.037-1.946-0.262c-0.748-0.261-1.235-1.234-1.309-4.153l-0.412-15.601h0.113
				c0.673,0.71,4.826,5.274,8.904,9.314c3.891,3.855,8.68,8.756,11.037,11.001c0.411,0.411,0.861,0.824,1.272,0.824
				c0.337,0,0.486-0.338,0.486-1.161l0.412-23.606c0.038-2.098,0.337-2.883,1.384-3.182c0.449-0.112,0.748-0.112,1.123-0.112
				c0.449,0,0.673-0.112,0.673-0.337c0-0.299-0.374-0.337-0.861-0.337c-1.833,0-3.254,0.112-3.666,0.112
				c-0.786,0-2.581-0.112-4.527-0.112c-0.561,0-0.973,0.038-0.973,0.337c0,0.225,0.15,0.337,0.599,0.337
				c0.523,0,1.421,0,1.983,0.225c0.898,0.374,1.235,1.085,1.272,3.367l0.374,16.799h-0.187c-0.636-0.599-5.687-5.986-8.231-8.53
				c-5.463-5.426-11.149-11.412-11.599-11.897c-0.635-0.675-0.972-1.16-1.384-1.16C122.555,60.654,122.443,61.178,122.443,61.926"/>
		</defs>
		<clipPath id="SVGID_32_">
			<use xlink:href="#SVGID_31_"  overflow="visible"/>
		</clipPath>
		
			<linearGradient id="SVGID_33_" gradientUnits="userSpaceOnUse" x1="-500.7183" y1="258.4189" x2="-499.7183" y2="258.4189" gradientTransform="matrix(0 -29.2579 -29.2579 0 7695.2095 -14560.0547)">
			<stop  offset="0" style="stop-color:#6BB3DA"/>
			<stop  offset="1" style="stop-color:#22679B"/>
		</linearGradient>
		<rect x="118.664" y="60.654" clip-path="url(#SVGID_32_)" fill="url(#SVGID_33_)" width="31.465" height="29.259"/>
	</g>
	<g>
		<defs>
			<path id="SVGID_34_" d="M165.876,86.545c-0.299-0.413-0.373-1.908-0.411-2.844c-0.038-0.711-0.075-3.592-0.075-7.558v-4.715
				c0-2.954,0-6.211,0.037-7.481c0-0.413,0.112-0.6,0.449-0.749c0.3-0.15,1.684-0.261,2.432-0.261c2.919,0,7.184,0.447,10.625,3.74
				c1.609,1.534,3.592,4.603,3.592,9.354c0,3.854-0.748,7.258-3.143,9.316c-2.244,1.945-4.789,2.693-8.604,2.693
				C167.822,88.041,166.363,87.256,165.876,86.545 M163.145,61.29c-1.048,0-3.404-0.112-5.388-0.112
				c-0.56,0-0.822,0.075-0.822,0.337c0,0.263,0.224,0.337,0.635,0.337c0.524,0,1.16,0.037,1.46,0.112
				c1.235,0.263,1.533,0.86,1.608,2.132c0.075,1.197,0.075,2.245,0.075,7.933v6.584c0,3.443,0,6.397-0.187,7.97
				c-0.15,1.084-0.336,1.908-1.085,2.058c-0.337,0.075-0.786,0.149-1.347,0.149c-0.448,0-0.599,0.113-0.599,0.3
				c0,0.262,0.262,0.373,0.749,0.373c0.748,0,1.721-0.074,2.581-0.074c0.898-0.037,1.721-0.037,2.133-0.037
				c0.935,0,2.245,0.111,3.667,0.225c1.422,0.112,2.955,0.224,4.302,0.224c6.922,0,10.812-2.656,12.534-4.414
				c2.095-2.132,4.078-5.724,4.078-10.438c0-4.452-1.759-7.558-3.63-9.503c-4.078-4.266-10.325-4.266-15.002-4.266
				C166.663,61.178,164.305,61.29,163.145,61.29"/>
		</defs>
		<clipPath id="SVGID_35_">
			<use xlink:href="#SVGID_34_"  overflow="visible"/>
		</clipPath>
		
			<linearGradient id="SVGID_36_" gradientUnits="userSpaceOnUse" x1="-500.728" y1="258.4326" x2="-499.728" y2="258.4326" gradientTransform="matrix(0 -28.6216 -28.6216 0 7568.9839 -14241.8281)">
			<stop  offset="0" style="stop-color:#6BB3DA"/>
			<stop  offset="1" style="stop-color:#22679B"/>
		</linearGradient>
		<rect x="156.935" y="61.178" clip-path="url(#SVGID_35_)" fill="url(#SVGID_36_)" width="30.604" height="28.621"/>
	</g>
	<g>
		<defs>
			<path id="SVGID_37_" d="M107.939,38.445c-0.738,1.7,0.503,7.547,3.886,8.534c3.365,0.98,5.862,0.563,6.171,0.506
				c-0.406,0.181-11.072,6.141-6.574,7.678c3.768,1.286,6.533-7.563,6.591-7.681l0.017-0.004c0,0-4.904-10.678-8.241-10.678
				C109.081,36.8,108.444,37.281,107.939,38.445"/>
		</defs>
		<clipPath id="SVGID_38_">
			<use xlink:href="#SVGID_37_"  overflow="visible"/>
		</clipPath>
		
			<linearGradient id="SVGID_39_" gradientUnits="userSpaceOnUse" x1="-500.9189" y1="258.7451" x2="-499.9194" y2="258.7451" gradientTransform="matrix(0 -18.5041 -18.5041 0 4900.3257 -9213.7646)">
			<stop  offset="0" style="stop-color:#6BB3DA"/>
			<stop  offset="0.2243" style="stop-color:#67AFD7"/>
			<stop  offset="0.457" style="stop-color:#5BA2CC"/>
			<stop  offset="0.6937" style="stop-color:#478EBB"/>
			<stop  offset="0.9315" style="stop-color:#2B71A3"/>
			<stop  offset="1" style="stop-color:#22679B"/>
		</linearGradient>
		<rect x="106.924" y="36.8" clip-path="url(#SVGID_38_)" fill="url(#SVGID_39_)" width="11.106" height="19.649"/>
	</g>
	<g>
		<defs>
			<path id="SVGID_40_" d="M118.03,47.479l0.017,0.004c0.059,0.117,2.824,8.967,6.591,7.681c4.498-1.537-6.168-7.497-6.574-7.678
				c0.309,0.058,2.807,0.475,6.171-0.506c3.383-0.987,4.624-6.834,3.887-8.534c-0.505-1.164-1.142-1.646-1.851-1.645
				C122.934,36.801,118.03,47.479,118.03,47.479"/>
		</defs>
		<clipPath id="SVGID_41_">
			<use xlink:href="#SVGID_40_"  overflow="visible"/>
		</clipPath>
		
			<linearGradient id="SVGID_42_" gradientUnits="userSpaceOnUse" x1="-500.9189" y1="256.9658" x2="-499.9194" y2="256.9658" gradientTransform="matrix(0 -18.5041 18.5041 0 -4631.3286 -9213.7646)">
			<stop  offset="0" style="stop-color:#6BB3DA"/>
			<stop  offset="0.2243" style="stop-color:#67AFD7"/>
			<stop  offset="0.457" style="stop-color:#5BA2CC"/>
			<stop  offset="0.6937" style="stop-color:#478EBB"/>
			<stop  offset="0.9315" style="stop-color:#2B71A3"/>
			<stop  offset="1" style="stop-color:#22679B"/>
		</linearGradient>
		<rect x="118.03" y="36.8" clip-path="url(#SVGID_41_)" fill="url(#SVGID_42_)" width="11.106" height="19.649"/>
	</g>
	<g>
		<linearGradient id="SVGID_43_" gradientUnits="userSpaceOnUse" x1="138.334" y1="44.9824" x2="234.0264" y2="44.9824">
			<stop  offset="0" style="stop-color:#22679B"/>
			<stop  offset="1" style="stop-color:#6BB3DA"/>
		</linearGradient>
		<path fill="url(#SVGID_43_)" d="M233.076,45.932h-93.792c-0.525,0-0.95-0.426-0.95-0.95s0.425-0.948,0.95-0.948h93.792
			c0.525,0,0.95,0.424,0.95,0.948S233.601,45.932,233.076,45.932z"/>
	</g>
	<g>
		
			<linearGradient id="SVGID_44_" gradientUnits="userSpaceOnUse" x1="-764.7358" y1="26.7896" x2="-669.0435" y2="26.7896" gradientTransform="matrix(-1 0 0 -1 -666.709 71.7715)">
			<stop  offset="0" style="stop-color:#22679B"/>
			<stop  offset="1" style="stop-color:#6BB3DA"/>
		</linearGradient>
		<path fill="url(#SVGID_44_)" d="M97.076,45.932H3.284c-0.525,0-0.95-0.426-0.95-0.95s0.425-0.948,0.95-0.948h93.792
			c0.525,0,0.95,0.424,0.95,0.948S97.601,45.932,97.076,45.932z"/>
	</g>
</g>
</svg>
