<?xml version="1.0" encoding="UTF-8"?>
<!-- Generator: Adobe Illustrator 17.0.0, SVG Export Plug-In . SVG Version: 6.00 Build 0)  -->
<!DOCTYPE svg PUBLIC "-//W3C//DTD SVG 1.1//EN" "http://www.w3.org/Graphics/SVG/1.1/DTD/svg11.dtd">
<svg version="1.1" id="Layer_1" xmlns="http://www.w3.org/2000/svg" x="0px" y="0px" width="340.955px" height="87.765px"
     viewBox="0 0 340.955 87.765" enable-background="new 0 0 340.955 87.765" xml:space="preserve">
<path fill="#45ACB4"
      d="M31.812,21.357c-2.906-1.789-6.718-2.578-11.569-2.58c-0.099,0-0.197,0-0.297,0.001  c-5.574,0.039-10.839,0.923-15.019,3.844l-0.001-0.001c-0.002,0.002-0.003,0.004-0.006,0.005c-0.009,0.006-0.019,0.011-0.029,0.018  l0.004,0.005c-0.317,0.217-0.52,0.515-0.626,0.787c-0.112,0.287-0.146,0.557-0.147,0.807c0.006,0.328,0.048,0.609,0.201,0.93  l0.015,0.029l2.429,4.158l0.013,0.02c0.197,0.299,0.394,0.572,0.693,0.817c0.291,0.247,0.738,0.422,1.152,0.413  c0.115,0,0.227-0.01,0.334-0.028l0.002,0c0.283-0.049,0.493-0.132,0.689-0.206c0.191-0.075,0.362-0.146,0.459-0.178l0.053-0.018  l0.051-0.024c2.795-1.302,5.5-2.083,9.745-2.115l0.022,0l-0.021,0l0.154,0c1.662-0.001,2.986,0.168,4.003,0.494  c0.765,0.245,1.356,0.571,1.836,0.984c0.714,0.619,1.218,1.457,1.564,2.685c0.344,1.223,0.502,2.817,0.501,4.793v0.966  c-0.968-0.299-1.928-0.535-2.969-0.7c-1.517-0.241-3.196-0.345-5.34-0.345c-5.958,0.003-10.861,1.164-14.347,3.883  c-1.737,1.358-3.096,3.108-4,5.228C0.457,48.15,0,50.629,0,53.472c0,2.819,0.458,5.285,1.356,7.399  c1.343,3.175,3.697,5.519,6.768,7.016c3.073,1.503,6.848,2.2,11.174,2.241h0.001l0.263,0.001c5.374,0,10.109-1.503,13.532-4.345  c3.427-2.835,5.478-7.033,5.468-12.125V53.65l0.006-15.526c-0.001-3.26-0.295-6.09-0.963-8.529  C36.615,25.942,34.723,23.144,31.812,21.357z M11.286,50.042c0.521-1.321,1.345-2.194,2.693-2.836  c1.347-0.634,3.251-0.97,5.73-0.967c2.255,0,3.88,0.202,5.225,0.544c1.139,0.29,2.093,0.687,3.083,1.176v9.722  c-1.8,1.657-4.534,2.967-8.309,2.971c-1.653,0-3.053-0.143-4.198-0.43c-1.725-0.436-2.842-1.151-3.59-2.201  c-0.747-1.053-1.16-2.549-1.16-4.651C10.761,52.026,10.945,50.925,11.286,50.042z"/>
    <path fill="#19172E"
          d="M109.865,39.287c-6.695-0.984-8.762-2.363-8.762-5.415c0-3.84,2.954-5.908,8.369-5.908  c3.052,0,6.006,0.788,8.467,2.363c1.28,0.787,2.265,0.689,3.052-0.591l2.461-3.938c0.689-1.28,0.591-2.363-0.59-3.15  c-3.741-2.461-8.959-3.84-14.572-3.84c-10.83,0-17.919,6.006-17.919,15.064c0,8.959,4.136,13.488,15.655,15.26  c6.99,1.083,9.156,2.658,9.156,5.908c0,3.741-2.855,5.907-7.975,5.907c-3.938,0-7.975-1.379-11.322-3.741  c-1.181-0.887-2.265-0.789-3.052,0.492l-2.658,4.036c-0.689,1.182-0.591,2.265,0.492,3.151c4.43,3.643,9.944,5.218,17.82,5.218  c10.633,0,17.328-5.809,17.328-15.063C125.814,45.686,121.482,40.96,109.865,39.287z"/>
    <path fill="#19172E"
          d="M151.728,18.808c-12.405,0-19.199,6.597-19.199,18.707v13.882c0,12.11,6.793,18.706,19.199,18.706  c12.307,0,19.101-6.596,19.101-18.706V37.515C170.829,25.405,164.035,18.808,151.728,18.808z M160.097,50.511  c0,6.99-2.756,10.338-8.369,10.338c-5.71,0-8.467-3.348-8.467-10.338V38.302c0-6.892,2.757-10.239,8.467-10.239  c5.612,0,8.369,3.347,8.369,10.239V50.511z"/>
    <path fill="#19172E"
          d="M213.071,19.99h-5.908c-1.476,0-2.264,0.788-2.264,2.264v29.241c0,6.399-2.461,9.354-7.876,9.354  s-7.876-2.955-7.876-9.354V22.254c0-1.477-0.787-2.264-2.265-2.264h-6.202c-1.477,0-2.264,0.788-2.264,2.264v29.733  c0,11.716,6.498,18.116,18.509,18.116c11.913,0,18.411-6.4,18.411-18.116V22.254C215.335,20.777,214.548,19.99,213.071,19.99z"/>
    <path fill="#19172E"
          d="M297.834,21.565c-3.15-1.871-6.793-2.757-11.027-2.757c-11.322,0-17.13,6.399-17.13,18.509v29.34  c0,1.477,0.787,2.264,2.264,2.264h6.203c1.477,0,2.264-0.787,2.264-2.264V37.022c0-6.006,2.461-8.959,7.483-8.959  c1.871,0,3.741,0.492,5.415,1.378c1.379,0.689,2.363,0.59,3.053-0.788l2.264-4.037C299.212,23.436,299.016,22.254,297.834,21.565z"/>
    <path fill="#19172E"
          d="M322.15,18.808c-12.11,0-18.804,6.597-18.804,18.707v13.094c0,13.095,7.088,19.495,20.577,19.495  c5.612,0,10.829-1.871,14.669-5.316c1.083-0.984,1.181-2.068,0.394-3.15l-2.658-3.84c-0.887-1.279-1.969-1.279-3.151-0.295  c-2.756,2.264-5.514,3.348-8.861,3.348c-7.088,0-10.239-3.25-10.239-11.027v-3.53h23.67c1.477,0,3.211-1.046,3.208-2.651v-6.125  C340.955,25.405,334.26,18.808,322.15,18.808z M330.795,37.242h-16.639v-0.04c0-6.892,2.678-9.139,8.29-9.139  s8.349,2.285,8.349,9.177V37.242z"/>
    <circle fill="#19172E" cx="151.634" cy="81.135" r="6.629"/>
    <path fill="#45ACB4"
          d="M81.257,0h-6.202c-1.477,0-2.264,0.788-2.264,2.265v17.829c-2.412-0.856-5.208-1.29-8.368-1.29  c-0.384,0-0.768,0.01-1.142,0.02h-0.03c-11.282,0.394-17.612,6.546-18.006,17.573c-0.01,0.374-0.02,0.749-0.02,1.123V51.4  c0,1.881,0.167,3.633,0.492,5.238c0.089,0.443,0.197,0.886,0.305,1.309c1.723,6.331,6.163,10.347,12.996,11.676  c0.669,0.128,1.358,0.227,2.067,0.305c1.063,0.118,2.176,0.177,3.338,0.177c1.152,0,2.254-0.059,3.317-0.177  c0.699-0.079,1.378-0.177,2.038-0.305c6.34-1.241,10.623-4.824,12.572-10.436v-0.01c0.138-0.404,0.266-0.817,0.374-1.231v-0.01  c0.118-0.423,0.217-0.856,0.305-1.299c0.325-1.605,0.492-3.357,0.492-5.238V2.265C83.521,0.788,82.734,0,81.257,0z M72.791,50.514  c0,6.99-2.757,10.337-8.368,10.337c-5.71,0-8.467-3.347-8.467-10.337V38.307c0-6.901,2.757-10.239,8.467-10.239  c0.689,0,1.339,0.049,1.939,0.157c3.544,0.591,5.602,2.934,6.222,7.108c0.03,0.187,0.059,0.384,0.079,0.581  c0.04,0.364,0.079,0.749,0.099,1.142c0.02,0.404,0.03,0.817,0.03,1.25V50.514z"/>
    <path fill="#19172E"
          d="M253.812,21.107c-2.906-1.789-6.718-2.578-11.569-2.58c-0.099,0-0.197,0-0.297,0.001  c-5.574,0.039-10.839,0.923-15.018,3.844l-0.001-0.001c-0.002,0.001-0.003,0.004-0.006,0.005c-0.009,0.006-0.019,0.011-0.029,0.018  l0.004,0.005c-0.317,0.217-0.52,0.515-0.626,0.787c-0.112,0.287-0.146,0.557-0.147,0.807c0.006,0.328,0.048,0.609,0.201,0.93  l0.015,0.029l2.429,4.157l0.013,0.02c0.197,0.299,0.394,0.572,0.693,0.817c0.291,0.247,0.738,0.422,1.152,0.413  c0.115,0,0.227-0.01,0.335-0.028l0.002,0c0.283-0.049,0.493-0.132,0.689-0.206c0.191-0.075,0.362-0.146,0.459-0.178l0.053-0.018  l0.051-0.024c2.795-1.302,5.5-2.083,9.745-2.115l0.154,0c1.662-0.001,2.986,0.168,4.003,0.494c0.765,0.245,1.356,0.571,1.836,0.984  c0.714,0.619,1.218,1.457,1.564,2.685c0.344,1.223,0.502,2.817,0.501,4.793v0.966c-0.968-0.299-1.928-0.535-2.969-0.7  c-1.517-0.241-3.196-0.345-5.34-0.345c-5.958,0.003-10.861,1.164-14.347,3.883c-1.737,1.358-3.096,3.108-4,5.228  C222.457,47.9,222,50.379,222,53.222c0,2.819,0.458,5.285,1.356,7.399c1.343,3.175,3.697,5.519,6.768,7.016  c3.073,1.503,6.848,2.2,11.174,2.241l0.009-1l-0.009,1l0.263,0.001c5.374,0,10.109-1.503,13.532-4.345  c3.427-2.835,5.478-7.033,5.468-12.125l0-0.009l0.006-15.526c-0.001-3.26-0.295-6.09-0.963-8.529  C258.615,25.692,256.723,22.894,253.812,21.107z M233.286,49.792c0.521-1.321,1.345-2.194,2.693-2.836  c1.347-0.634,3.251-0.97,5.73-0.967c2.255,0,3.88,0.202,5.225,0.544c1.139,0.29,2.093,0.687,3.083,1.176v9.722  c-1.8,1.657-4.534,2.967-8.309,2.971c-1.653,0-3.053-0.143-4.198-0.43c-1.725-0.436-2.842-1.151-3.59-2.201  c-0.747-1.053-1.16-2.549-1.16-4.651C232.761,51.776,232.945,50.675,233.286,49.792z"/>
</svg>