<svg width="1000" height="198" viewBox="0 0 1000 198" fill="none" xmlns="http://www.w3.org/2000/svg">
<path fill-rule="evenodd" clip-rule="evenodd" d="M974.795 150.473C975.4 157.367 980.914 166.141 990.467 166.141H996.057C998.223 166.141 1000 164.365 1000 162.197V39.2689H999.975C999.862 37.198 998.151 35.5393 996.057 35.5393H978.737C976.643 35.5393 974.932 37.198 974.817 39.2689H974.795V49.2576C964.184 36.1772 947.453 30.748 930.676 30.748C892.539 30.748 861.625 61.6864 861.625 99.8532C861.625 138.022 892.539 168.961 930.676 168.961V168.965C947.453 168.965 965.736 162.451 974.792 150.457L974.795 150.473V150.473ZM930.743 144.775C906.489 144.775 886.825 124.665 886.825 99.8533C886.825 75.046 906.489 54.9345 930.743 54.9345C954.996 54.9345 974.657 75.046 974.657 99.8533C974.657 124.665 954.996 144.775 930.743 144.775V144.775Z" fill="#0D0E10"/>
<path fill-rule="evenodd" clip-rule="evenodd" d="M839.729 154.701L839.721 91.0909H839.723C839.723 55.2343 817.119 31.0449 781.075 31.0449C763.869 31.0449 749.764 41.0021 744.783 49.5555C743.706 42.8674 740.158 35.8373 729.155 35.8373H723.547C721.378 35.8373 719.606 37.6145 719.606 39.783V150.781C719.606 150.784 719.606 150.793 719.606 150.798V162.721H719.628C719.742 164.789 721.455 166.45 723.549 166.45H740.869C741.134 166.45 741.394 166.418 741.645 166.369C741.76 166.347 741.867 166.302 741.978 166.27C742.107 166.231 742.241 166.2 742.363 166.15C742.518 166.086 742.657 166 742.801 165.92C742.871 165.877 742.944 165.847 743.012 165.801C743.185 165.69 743.344 165.556 743.497 165.419C743.522 165.393 743.552 165.377 743.577 165.354C743.749 165.187 743.906 165.003 744.046 164.812C744.047 164.809 744.047 164.809 744.047 164.809C744.481 164.213 744.744 163.496 744.787 162.721H744.809V90.1048C744.809 70.8472 760.41 55.2343 779.655 55.2343C798.898 55.2343 814.499 70.8472 814.499 90.1048L814.515 150.802L814.519 150.781C814.519 150.835 814.528 150.89 814.528 150.948V162.721H814.551C814.665 164.789 816.376 166.45 818.47 166.45H835.791C836.057 166.45 836.316 166.418 836.567 166.369C836.669 166.35 836.764 166.309 836.864 166.281C837.006 166.24 837.151 166.204 837.288 166.15C837.429 166.091 837.558 166.009 837.692 165.934C837.774 165.888 837.86 165.854 837.939 165.801C838.098 165.697 838.245 165.57 838.388 165.444C838.425 165.41 838.466 165.385 838.501 165.35C838.665 165.192 838.811 165.021 838.945 164.842C838.954 164.828 838.965 164.817 838.975 164.804C839.402 164.213 839.663 163.501 839.708 162.732C839.708 162.727 839.71 162.721 839.71 162.721H839.733V154.703L839.729 154.701" fill="#0D0E10"/>
<path fill-rule="evenodd" clip-rule="evenodd" d="M659.351 150.473C659.957 157.367 665.471 166.141 675.023 166.141H680.613C682.78 166.141 684.553 164.365 684.553 162.197V39.2689H684.531C684.418 37.198 682.705 35.5393 680.613 35.5393H663.293C661.199 35.5393 659.488 37.198 659.371 39.2689H659.351V49.2576C648.738 36.1772 632.008 30.748 615.23 30.748C577.095 30.748 546.181 61.6864 546.181 99.8532C546.181 138.022 577.095 168.961 615.23 168.961V168.965C632.008 168.965 650.293 162.451 659.349 150.457L659.351 150.473V150.473ZM615.297 144.775C591.045 144.775 571.382 124.665 571.382 99.8533C571.382 75.046 591.045 54.9345 615.297 54.9345C639.552 54.9345 659.211 75.046 659.211 99.8533C659.211 124.665 639.552 144.775 615.297 144.775V144.775Z" fill="#0D0E10"/>
<path fill-rule="evenodd" clip-rule="evenodd" d="M443.756 132.867C455.318 140.883 467.939 144.776 480.067 144.776C491.621 144.776 503.566 138.782 503.566 128.348C503.566 114.418 477.538 112.251 461.184 106.688C444.828 101.126 430.741 89.6276 430.741 71.0069C430.741 42.514 456.109 30.7461 479.786 30.7461C494.788 30.7461 510.267 35.6969 520.302 42.7889C523.758 45.4096 521.653 48.4184 521.653 48.4184L512.074 62.1104C510.997 63.6526 509.115 64.985 506.412 63.3158C503.71 61.6477 494.231 54.9334 479.786 54.9334C465.34 54.9334 456.638 61.61 456.638 69.8854C456.638 79.8089 467.948 82.9301 481.195 86.3124C504.28 92.5399 529.463 100.025 529.463 128.348C529.463 153.453 505.999 168.967 480.067 168.967C460.415 168.967 443.684 163.36 429.651 153.055C426.728 150.127 428.77 147.409 428.77 147.409L438.302 133.786C440.241 131.239 442.687 132.127 443.756 132.867" fill="#0D0E10"/>
<path fill-rule="evenodd" clip-rule="evenodd" d="M377.173 150.473C377.779 157.367 383.293 166.141 392.846 166.141H398.436C400.602 166.141 402.378 164.365 402.378 162.197V39.2689H402.354C402.241 37.198 400.53 35.5393 398.436 35.5393H381.116C379.022 35.5393 377.311 37.198 377.194 39.2689H377.173V49.2576C366.562 36.1772 349.831 30.748 333.054 30.748C294.919 30.748 264.004 61.6864 264.004 99.8532C264.004 138.022 294.919 168.961 333.054 168.961V168.965C349.831 168.965 368.115 162.451 377.171 150.457L377.173 150.473V150.473ZM333.122 144.775C308.868 144.775 289.205 124.665 289.205 99.8533C289.205 75.046 308.868 54.9345 333.122 54.9345C357.375 54.9345 377.035 75.046 377.035 99.8533C377.035 124.665 357.375 144.775 333.122 144.775V144.775Z" fill="#0D0E10"/>
<path fill-rule="evenodd" clip-rule="evenodd" d="M167.197 104.554C141.533 104.554 120.729 125.359 120.729 151.024C120.729 176.688 141.533 197.493 167.197 197.493C192.861 197.493 213.665 176.688 213.665 151.024C213.665 125.359 192.861 104.554 167.197 104.554V104.554ZM46.4683 104.558C20.8048 104.558 0 125.359 0 151.024C0 176.688 20.8048 197.493 46.4683 197.493C72.1329 197.493 92.9387 176.688 92.9387 151.024C92.9387 125.359 72.1329 104.558 46.4683 104.558V104.558ZM153.3 46.4673C153.3 72.1329 132.496 92.9398 106.833 92.9398C81.1681 92.9398 60.3643 72.1329 60.3643 46.4673C60.3643 20.8068 81.1681 0 106.833 0C132.496 0 153.3 20.8068 153.3 46.4673V46.4673Z" fill="#F06A6A"/>
</svg>
