<svg xmlns="http://www.w3.org/2000/svg" viewBox="0 0 1005.62 238.86">
    <path d="M.93 227.76a5.25 5.25 0 01.74-3.3c.07-.18.23-.05.3-.24a3.17 3.17 0 00.22-1.14 10.37 10.37 0 00-.36-1.93 9.32 9.32 0 01-.2-4.35 6.18 6.18 0 000-2.64 8.9 8.9 0 00-.93-2.84 9 9 0 01-.65-1.59 3.88 3.88 0 010-1 7.87 7.87 0 011.07-1.28c.2-.18.48.09.63-.22.29-.59-.15-1.29-.12-2v-.41a11.06 11.06 0 00-.38-3.25c-.15-.44-.14-1.38.17-1.52s.3-.85.09-1.65c-.15-.58-.28-1.17-.4-1.8a7.74 7.74 0 01-.33-2.1c.06-.19.19.08.27.08s.17-.11.23-.43.21-1.35.42-1.38c.37-.07.4-2.4.74-3a8.44 8.44 0 00.39-4.05c-.11-2.24-.12-2.23.32-3.6a3.09 3.09 0 00.15-.6c.12-.84.35-1 .64-.91a.79.79 0 00.4 0c.37-.09.44-.58.16-1.35A23.52 23.52 0 003.36 177a6.1 6.1 0 01-.63-1.54 9.7 9.7 0 01-.1-2.13.3.3 0 01.39-.23c.18.1.38.77.49-.13a2.19 2.19 0 00-.27-1.49c0-.08-.06-.2-.1-.3-.37-1.23-.36-1.83.1-2.33a3.62 3.62 0 00.51-2.57c0-.82 0-1.7-.1-2.44-.15-1 0-1 .22-1a.53.53 0 00.37-.42A6.76 6.76 0 004 161c-.11-.5-.28-.9-.4-1.39a4 4 0 010-.77c.07.09.14.2.21.28.22.24.46.61.68.67s.4-.4.39-.62a6 6 0 00-.26-1.72c-.59-.72-.69-2.36-.76-3.67-.08-1.6-.34-2.48-.77-2.89s-.25-.79-.07-1.15a5.46 5.46 0 00.31-3c-.07-.63-.14-1.6.22-1.74s.44-1.18.27-2.1c-.27-1.4 0-1.07.26-1.11s.38-.07.46-.38a6.72 6.72 0 00-.43-2.95 8.65 8.65 0 01-.81-1.13 6.16 6.16 0 01-.19-1.18c.1 0 .22-.17.3 0 .53.85.85-.46 1.27-.72a2.55 2.55 0 00.07-.88 11 11 0 00-.27-1.39c-.19-.79-.48-1.43 0-2.05a2.23 2.23 0 00-.14-2 7.08 7.08 0 01-.54-1.25 8.49 8.49 0 01-.2-1.18c.13-.14.26-.34.39-.4s.32.1.46 0a.87.87 0 00.34-.63 5.1 5.1 0 00-.12-1.48c-.64-1-.53-2.7-.4-3.94a4.26 4.26 0 00-.2-2.22 6.43 6.43 0 01-.15-1 .59.59 0 01.33.09c.08.07.16.3.24.37s.11-.29.11-.31c-.24-.94-.15-2.44-.69-2.91s-.67-1.77-.65-3 .3-1.61.59-1.67c.54-.11.65-1 .64-2.5s.11-1.78.62-1.79.64-.44.3-2a5.49 5.49 0 00-.35-1 2.13 2.13 0 01-.12-1.5A4.46 4.46 0 004.76 98c-.14-.34-.27-.72-.39-1.11s-.15-.67-.21-1a2.45 2.45 0 01.08-1.26c.17-.29.35-.54.51-.86a1.94 1.94 0 00.13-1v-.72a8.35 8.35 0 01-.08-2.34 13.68 13.68 0 01.2-1.94 1.06 1.06 0 00-.1-.77l-.12-.29c.15-.46.15-1.33.41-1.49a.7.7 0 00.12-.22 2.11 2.11 0 00.16-1.17c-.06-.64-.13-1.27-.19-1.91a6.76 6.76 0 00.1-1.27 2.24 2.24 0 000-.84v-.36c0-.56-.06-1.1-.1-1.49a16 16 0 01-.1-1.83c0-1.27 1.38-3 1.11-3.91-.12-.43-.27-.8-.38-1.25-.3-1.18-.28-1.21.11-1.84a1.85 1.85 0 00.25-.91A5 5 0 006 66.87c-.37-.94-.78-1.75-1.16-2.64-.23-.54 1-2.13 1.06-3.05a14.16 14.16 0 00-.17-3.86c-.42-1-.23-.84-.65-1.9 0 0 1.31-2.74 1.18-3.6a4.68 4.68 0 01.36-.7 1.3 1.3 0 00.19-.46 1.64 1.64 0 00-.49-1.84s-1.85-3.5.19-4.18l.49-.85.28-1.16a9.56 9.56 0 011-2.62l.24-.24c.16-.14.54-.16.74-.22a1.23 1.23 0 00.46-.18 2.75 2.75 0 01.91-.4A1.82 1.82 0 0112 39a1.4 1.4 0 00.35.1s1.15.19 2.67.59c54.84 14.55 245.7-1.47 373.77-37.2 3.27-.91 8.64-2.17 9.75-2.45s.36.96-.84 1.96c-.79.66-4.77 1.34-5 1.53s-.34.37-.3.47c.82 1.89 5.84-.07 7.84-.32s1.87.64.73 1.37c-1.76 1.12-2.2 2.61-1.42 3.35.16.16.53.11.68.28s.58.69.5.92a3.17 3.17 0 01-.88 1.32 2.49 2.49 0 00-.52 3.18 1.63 1.63 0 010 2c-.52.83-6.22 3.07-7.15 3.46a8.47 8.47 0 00-2 1c-.16.13-.33.73-.24.79.78.49 6.74-2.13 7.57-1.76.44.2 7.51-2.11 4.4.13-.68.49-2.92 2.48-2.86 3a1.57 1.57 0 01-.05.3c-.12.84-.1 1.67-.92 2.3a.68.68 0 00.36 1.19c1 .3.66.74.17 1.26-1 1.1-4.35 2.59-5.33 3.71-.1.12-.08.33-.12.5.19 0 .48.13.56.05.53-.59 1.23-.28 1.92-.57 1.54-.67 5.46-2.1 6-2.6 1-.94 2.49-.41 1.48 1.21-.32.53-.63.17-.94 1.11a6.06 6.06 0 01-1.07 1.28c-.67.72-1.24 1.5-.48 2.1 1.13.9 1.05 2 .83 3.15-.31 1.63-.33 1.63.65 2.8a1.74 1.74 0 01.35.5 1.37 1.37 0 001.43.89 4 4 0 01.91.11c.83.18 1 .58.34 1a21.26 21.26 0 01-2.52 1.28 4.07 4.07 0 00-1.47.93c-.29.38-.68 1.23-.26 1.56.67.54 3.07-.63 3.38-.64s.86-.45 1.11.26-5.24 2.3-5.65 2.52a1.37 1.37 0 00-.23.19c-.88.79.78 1 1.92 1.27 1 .21 4.05-1 3.46-.34-.22.25-2 1.11-2.17 1.7-.28.86-1 .57-1 .85a6.84 6.84 0 01-.28 1.79c-.35.7 0 .73.49.83.32.06-.06.69-.07.82a1.89 1.89 0 01-.47 1c-.28.34-.67.58-.95.91-.1.11 0 .38 0 .58.16 0 4-1.14 4.19-1.17a7.4 7.4 0 011.77-.35c.32 0 1.52-.18.82.71-.27.35-.1.19-1.37.76s-1.15.48-4.78 3a19 19 0 00-2.39 1.73c-.44.38.1 1.06 1 .64 2.59-1.17 8.1-2.61 7.69-1.7-.5 1.1-1.52 1.86-1.87 2.91-.43 1.3-1.31.89-1.73 1.18a.94.94 0 00.44 1.54c1 .27.4 1.13 0 1.76-.63 1 .05.8.59.92.36.08 3.32-.5 3.5-.24.33.49-2.18 1.72-3 2a5.61 5.61 0 00-2.46 1.47c-.12.36-.64 1.14-.44 1.16a18.32 18.32 0 002.36-.27c2.25-.2 2.45-1.14 3.62-1 .9.11-1.64.74-2.29 2-.49 1-.88.77-1.13 1-.46.52-1.12.91 0 1.53.69.38 1.75.87 1 1.22a1.2 1.2 0 00-.57 1.21c0 .34.73 0 1.48.42a13.12 13.12 0 001.44.22 8.82 8.82 0 01.89.2c.3.12 1.32.15 1.36.39s-1.41 1.09-1.63 1.18c-1.1.42-2.89 1.63-2.82 2.72 0 .32 3.44-1.57 4.22-1.12s-1.24.36-1.7 1.53c-.55 1.38-2.58 1.15-2.67 1.4a1.38 1.38 0 01-.55.63c-.19.14-.24.49-.34.74a4.47 4.47 0 00.73 0c.2 0 .37-.18.57-.2s.25.25.24.27c-.56.62-2 1.33-1.64 1.94.14.24 1.41-.48 2.34-.69 1.46-.32 1.26-.77 2-.81s1.38-.65 1.12 0a1.26 1.26 0 01-1 .61c-.59.09-.88.7-.75.7.59 0 1.52.18 1.52.44 0 .45.63.22.88.45s2-1 1.91.16a4.78 4.78 0 01-2.57 2.5c-.59.28-2.32 1-2.35 1.85 0 1.19 5.09-.07 6.26.11s1.46.55.65 1.58a2.77 2.77 0 01-.82.66c-.49.28-.61.54-.29 1.08.48.81.1 1.41-.63 1.89a10.51 10.51 0 00-1.5 1.24c-.17.18-.17.52-.26.79a2.69 2.69 0 00.86.15 10.5 10.5 0 011.71-.38c1 0 1 .24.67 1.2a3.77 3.77 0 00-.25 1.32 2.94 2.94 0 01-1.11 2.22c-.29.28-.63.51-.89.8-.7.79-.67.81.23 1.42.25.17.57.52.54.76a1.45 1.45 0 01-.56 1c-.86.57 3.1-.46 4 2.54.1 1 3.38 1.55 2.76 2-1 .64-2.14 1-3.1 1.64a4.49 4.49 0 00-1.15 1.67 5.64 5.64 0 00.83.64c.15.13.36.24.43.41a2.26 2.26 0 002.19 1.32 5.68 5.68 0 011.44.59 7.47 7.47 0 01-1.28 1.18c-.55.3-1.26.33-1.83.62s.62.45.33.91a2.19 2.19 0 00-.07 1.44c0 .1.68.06 1 .13s.54.12.59.27a1 1 0 01-.06.81c-.25.3-2.35.6-2.63.89-.59.62-.52 1.19.29 1.49 1.93.72 4.35 2 3.4 3.58-.43.73-.06.6.31.7s.51 0 .75.11c.71.19.75.42.2 1-.35.36-2.47 1.13-2.79 1.52-.07.09-7.24 3.42.14 1.16.12 0 .92-.34 1.57-.61.5-.21 1.37-.32 1.95-.55.32-.13.79.26.9.62s-.12.85-.69 1a1.28 1.28 0 00-.82.52c-.37.89-1.31 1.48-1.26 2.64 0 .35-.67.83-1.13 1.07a2.37 2.37 0 00-.55.39c0 .19-.09.37-.12.56a.77.77 0 00.28.24c1 .55.75 1.24.62 2-.1.59 2.49-.64 3.35-.41a.83.83 0 01.43 1.44c-.6.71-.3.71.36.81.4.06 1.08.33 1.09.52a4.09 4.09 0 01-.42 1.69c-.1.22-.49.34-.77.44-.61.23-1.24.39-1.84.63a.55.55 0 00-.24.47c0 .11.32.31.39.28 1-.54 1.72.22 2.51.6.42.2-2.49 1.23-1.38 1.7.88.38.91-.26 1.44-.24 1.19 0-.32 1-2.23 1.08-1.08.06-1.51 1.23-1.75 1.42-.43.34-.32 1.14 1.91.26 1-.41 4.22 1.21 3.14 1.61-.1 0-1.67 1-1.72 1.1-.35.45-1 .46-.34 1.1.42.19.15.7.58.87.18.07 1.12.05 1.28.14.32.18 1.73-1.5 2.12-.62.15.34-2.21 2.08-2.52 2.3-.68.48-2.39 1.24-3 2-.19.25 1.55-.33 1.76-.48a1.26 1.26 0 011.69.12c.05.21-2.71 1-3.45 2-.27.38-.29.83-.72 1.16s-.65.57.12.77c.25.07 4.05-1.18 5.44-1s.09.9-.14 1.13-.29 1.86-.47 2c-.37.32-1.45 1-1.64 1.42-.47 1.08 7.18 2 5.95 2.58C204 271.93 5.59 230.18.86 228.21a.86.86 0 00.07-.45z"
          fill="#f5f200"></path>
    <g fill="#333">
        <path d="M859.91 169.81c2.41-1.89 4.84-3.76 7.28-5.64 22.46-17.29 45.68-35.18 45.68-61.32 0-20.48-14.78-34.78-35.94-34.78-18.58 0-38.59 12.44-38.59 39.75a29.55 29.55 0 00.22 3.7l15.16-5.85c0-15 11.18-22.88 22.22-22.88 10.73 0 21.55 6.82 21.55 22 0 19.73-20.14 35.17-48 56.55-4 3.05-8.11 6.22-12.38 9.55l-.25.2v14.55H916v-15.83zM482.57 118.75l-1.37-.55c-12.47-5-21.3-9.44-21.3-20.61 0-11 8.76-16.75 17.41-16.75 7 0 15.83 3.71 19.28 11.83L511.27 87l-.22-.55c-5.78-14.35-21-20.78-33.57-20.78-16.43 0-34.12 10.36-34.12 33.12 0 22.22 17 29.15 30.7 34.71l1.68.69c14 5.76 23.13 10.39 23.13 21.77 0 11.8-9.91 17.08-19.73 17.08s-21.31-5.18-24.73-19.72l-.15-.64-15.57 5.91c4.69 18.16 20.18 29.83 39.78 29.83 9.86 0 19-3 25.84-8.47 7.69-6.17 11.76-15 11.76-25.48 0-22.37-17.8-29.47-33.5-35.72zM647.4 98.27c-24.28 0-41.91 18.81-41.91 44.72s17.63 44.73 41.91 44.73 41.91-18.81 41.91-44.73-17.63-44.72-41.91-44.72zM673.93 143c0 19.81-13.26 30.17-26.36 30.17-13.27 0-26.7-10.36-26.7-30.17 0-17.38 11.23-30 26.7-30 15.27 0 26.36 12.61 26.36 30zM753.53 149.45c0 15.73-11.53 24.21-22.38 24.21-8.26 0-17.09-4.92-17.09-18.74v-54.5H699v54.5c0 24.21 15.7 32.8 29.14 32.8 10.82 0 20.35-5.18 25.29-13.62l2.87 11.63h12.26v-85.31h-15.03zM807.79 76.1l-15 5.8v18.52h-14.3v13.73h14.25v46.74c0 23.34 13.28 26.83 21.2 26.83a40.24 40.24 0 0011.11-1.72l.47-.13V171l-1 .64a14.27 14.27 0 01-7.27 2.38c-6 0-9.46-4.35-9.46-11.94v-47.9h17.73v-13.76h-17.73zM985.73 141.64v-34.6l-15.37 5.94v28.66h-34.51l42.08-71.75h-17.07l-44.52 75.7v11.6h54.02v28.5h15.37v-28.5h19.89v-15.55h-19.89zM587.45 159.84A24.6 24.6 0 01565.63 173c-12.79 0-25.7-9.33-25.7-30.17 0-14.38 7.73-29.84 24.7-29.84a22.5 22.5 0 0120 11.91l14.37-5.49-.26-.55c-6-12.7-19-20.59-34.06-20.59a38.86 38.86 0 00-27.68 11.1c-8.15 8.08-12.46 19.71-12.46 33.62 0 30.73 21 44.73 40.42 44.73 15.12 0 28.53-8.25 35.86-22.06l.29-.54-.12-.06z"></path>
    </g>
    <g fill="#333">
        <path d="M96.94 67.69h-15.8l-50.93 118h18.64L61 156.5h56.16l12.1 29.19h18.65zm13.88 73.63H67.09L89 88.46zM204.47 100v49.21c0 15.64-11.47 24.09-22.26 24.09-8.2 0-17-4.89-17-18.62V100h-15.3v54.68c0 10.44 3.09 19.06 9 24.92a28.41 28.41 0 0020.35 8.05c10.75 0 20.23-5.09 25.26-13.4l2.81 11.41h12.52V100zM277.6 114.05V100h-17.75V75.62l-15.34 5.92V100h-14.26v14h14.26v46.63c0 23.49 13.38 27 21.35 27A40.59 40.59 0 00277 186l.57-.17v-15.32l-1.22.79a14.2 14.2 0 01-7.2 2.36c-5.93 0-9.33-4.31-9.33-11.82v-47.79zM325.78 97.87c-12.38 0-23 4.58-30.75 13.24-7.31 8.18-11.33 19.42-11.33 31.66s4 23.57 11.33 31.73c7.73 8.62 18.36 13.18 30.75 13.18 24.38 0 42.08-18.89 42.08-44.91s-17.7-44.9-42.08-44.9zm.17 75c-13.21 0-26.58-10.32-26.58-30.06 0-17.32 11.18-29.89 26.58-29.89 15.2 0 26.24 12.57 26.24 29.89 0 19.7-13.19 30.02-26.19 30.02z"></path>
    </g>
</svg>
