<svg width="116" height="36" fill="none" xmlns="http://www.w3.org/2000/svg"><path d="M114.388 16.038c.792 0 1.44-.648 1.44-1.44v-1.764h-4.464V8.946h-2.466c-.792 0-1.44.648-1.44 1.44v2.466h-.72c-.792 0-1.44.648-1.44 1.44v1.764h2.16v5.706c0 .918.018 1.764.036 2.484.018.738.216 1.458.594 2.16.414.756 1.026 1.296 1.836 1.638.81.342 1.728.522 2.754.54 1.026.018 2.07-.072 3.15-.27V26.64a1.44 1.44 0 00-1.476-1.44c-.36.018-.702 0-1.026-.018-.756-.054-1.296-.342-1.656-.882-.18-.288-.288-.666-.288-1.152-.018-.486-.018-1.026-.018-1.62v-5.49h3.024zM53.406 7.704h-4.14l-7.434 20.61H45c.594 0 1.134-.378 1.35-.936l1.242-3.366h9.197l1.242 3.366c.216.558.738.936 1.35.936h3.15L55.656 9.288a2.412 2.412 0 00-2.25-1.584zm-4.5 12.78l3.276-8.838 3.276 8.838h-6.552zm34.144-8.028c-3.275 0-5.381 1.458-6.479 4.302l2.358.828a1.44 1.44 0 001.584-.45c.504-.63 1.08-1.152 2.502-1.152 1.782 0 2.52.63 2.664 2.322l-4.77.828c-4.41.72-4.95 3.438-4.95 4.932 0 1.494 1.134 4.698 5.4 4.698 2.16 0 3.708-.792 4.716-1.764a1.433 1.433 0 001.422 1.332h1.962V18.36c0-4.158-2.628-5.904-6.408-5.904zm-1.097 13.23c-1.494 0-2.232-.504-2.232-1.458s.702-1.962 3.096-2.376c1.314-.234 2.358-.432 3.042-.558v.972c0 2.016-1.998 3.42-3.906 3.42zm-8.91-12.816a1.46 1.46 0 00-1.35.936l-3.51 9.522-3.51-9.522a1.443 1.443 0 00-1.35-.936h-2.988l5.904 15.462h3.888l5.904-15.462h-2.988zm31.445 10.962a4.582 4.582 0 00-1.998-3.78c-.036-.036-.09-.054-.126-.09a.136.136 0 00-.072-.036 3.537 3.537 0 00-.45-.234c-.558-.27-1.17-.504-1.17-.504-.252-.09-.522-.198-.792-.288-2.646-.882-3.924-1.098-3.924-1.98 0-.792.936-1.188 1.926-1.188.63 0 1.53.198 2.25 1.098l.018.018.054.054.018.018c.252.27.612.432 1.008.432.162 0 .306-.036.45-.072h.018l2.16-.738c-.738-2.484-3.042-4.104-6.12-4.104-1.188 0-2.178.18-2.951.504a4.151 4.151 0 00-2.7 3.906c0 1.692 1.007 3.132 2.447 3.798.703.36 1.548.666 2.538.954 2.772.828 3.438 1.368 3.438 2.34 0 .126-.018.234-.036.342a1.346 1.346 0 01-.288.522c-.396.414-1.116.612-2.07.612-1.188 0-2.25-.486-2.97-1.71a1.408 1.408 0 00-1.692-.594l-2.16.756c.9 2.61 2.7 4.896 6.804 4.896 1.872 0 3.366-.414 4.428-1.134a4.654 4.654 0 001.962-3.798z" fill="#04121A"/><path d="M32.62 28.497c0-9.616-.85-26.917-14.339-27.09-13.05-.17-15.863 17.244-14.949 27.02a18.204 18.204 0 001.727 2.079c3.243 3.357 12.816 2.963 12.816 2.963s10.689.01 14.017-4.025c.252-.306.495-.621.727-.947z" fill="#fff"/><path d="M15.441 4.486a4.543 4.543 0 016.675 1.806l10.503 22.207A17.906 17.906 0 0036 18.129C36.07 8.185 28.067.07 18.125 0 8.183-.07.07 7.933 0 17.875a17.904 17.904 0 003.332 10.552l.422-.092 6.854-1.512c.193-.043.295.218.126.319L5.06 30.506A17.935 17.935 0 0017.875 36c5.64.04 10.689-2.52 14.017-6.556L14.714 11.36a4.541 4.541 0 01.727-6.874zM18.665 24.9l-11.06.96a1.953 1.953 0 11.28-3.85l10.805 2.546c.193.047.171.326-.025.344zm-5.12-9.726l13.411 10.849c.153.124.015.367-.17.297l-16.131-6.113a2.939 2.939 0 112.89-5.033z" fill="#FF7800"/></svg>