<?xml version="1.0" encoding="UTF-8"?>
<svg width="173px" height="20px" viewBox="0 0 173 20" version="1.1" xmlns="http://www.w3.org/2000/svg" xmlns:xlink="http://www.w3.org/1999/xlink">
    <title>Cellular</title>
    <g id="Page-1" stroke="none" stroke-width="1" fill="none" fill-rule="evenodd">
        <g id="Desktop-HD" transform="translate(-105.000000, -93.000000)" fill="#263238">
            <path d="M115.04854,93 C117.806046,93 119.862492,93.8412731 121.778725,95.5705567 C122.012412,95.8042437 122.012412,96.1314054 121.825462,96.3650924 L119.675542,98.6084874 C119.488592,98.7954369 119.161431,98.7954369 118.974481,98.6084874 C117.852784,97.6270021 116.590874,97.2063655 115.235489,97.2063655 C112.104084,97.2063655 109.767214,99.8236596 109.767214,102.908328 C109.767214,105.992996 112.104084,108.563552 115.235489,108.563552 C116.777823,108.563552 117.946258,108.096178 118.974481,107.208168 C119.161431,107.021218 119.53533,107.021218 119.675542,107.254905 L121.825462,109.545038 C122.012412,109.731987 122.012412,110.105886 121.778725,110.292836 C119.909229,112.115594 117.478884,113.003605 115.04854,113.003605 C109.48679,113.003605 105,108.563552 105,103.04854 C105,97.4867899 109.48679,93 115.04854,93 Z M197.21288,93.2804244 C197.540041,93.2804244 197.726991,93.5141113 197.726991,93.7945357 L197.726991,105.38541 C197.726991,107.395118 199.17585,108.563552 201.138821,108.563552 C203.148529,108.563552 204.597388,107.441855 204.597388,105.38541 L204.597388,93.8412731 C204.597388,93.5608487 204.831075,93.3271618 205.111499,93.3271618 L208.523329,93.3271618 C208.803754,93.3271618 209.037441,93.5608487 209.037441,93.8412731 L209.037441,105.619097 C209.037441,109.825462 205.485399,113.003605 201.092083,113.003605 C196.745506,113.003605 193.193464,109.825462 193.193464,105.619097 L193.193464,93.8412731 C193.193464,93.5608487 193.427151,93.3271618 193.707575,93.3271618 L197.21288,93.3271618 L197.21288,93.2804244 Z M271.525337,93.2804244 C275.077379,93.2804244 277.601199,95.9911933 277.601199,99.2628109 C277.601199,101.646418 276.292551,103.609389 274.002419,104.637611 L274.002419,104.637611 L277.92836,111.928645 C278.11531,112.302544 277.92836,112.723181 277.460986,112.723181 L277.460986,112.723181 L273.768732,112.723181 C273.535045,112.723181 273.394833,112.582968 273.301358,112.489494 L273.301358,112.489494 L269.609104,105.151723 L267.038547,105.151723 L267.038547,112.255807 C267.038547,112.536231 266.80486,112.769918 266.524436,112.769918 L266.524436,112.769918 L263.206081,112.769918 C262.878919,112.769918 262.69197,112.536231 262.69197,112.255807 L262.69197,112.255807 L262.69197,93.8412731 C262.69197,93.5608487 262.925657,93.3271618 263.206081,93.3271618 L263.206081,93.3271618 L271.525337,93.3271618 L271.525337,93.2804244 Z M143.137714,93.2804244 C143.464876,93.2804244 143.651825,93.5141113 143.651825,93.7945357 L143.651825,96.8324664 C143.651825,97.1128907 143.418138,97.3465777 143.137714,97.3465777 L135.426044,97.3465777 L135.426044,100.805145 L141.78233,100.805145 C142.062754,100.805145 142.296441,101.038832 142.296441,101.319256 L142.296441,104.357187 C142.296441,104.684349 142.062754,104.871298 141.78233,104.871298 L135.426044,104.871298 L135.426044,108.61029 L143.137714,108.61029 C143.464876,108.61029 143.651825,108.843977 143.651825,109.124401 L143.651825,112.162332 C143.651825,112.442756 143.418138,112.676443 143.137714,112.676443 L131.640315,112.676443 C131.313153,112.676443 131.126204,112.442756 131.126204,112.162332 L131.126204,93.8412731 C131.126204,93.5608487 131.359891,93.3271618 131.640315,93.3271618 L143.137714,93.3271618 L143.137714,93.2804244 Z M157.112195,93.2804244 C157.392619,93.2804244 157.626306,93.5141113 157.626306,93.7945357 L157.626306,108.657027 L164.263016,108.657027 C164.590178,108.657027 164.777128,108.890714 164.777128,109.171139 L164.777128,112.209069 C164.777128,112.489494 164.543441,112.723181 164.263016,112.723181 L153.79384,112.723181 C153.466678,112.723181 153.279729,112.489494 153.279729,112.209069 L153.279729,93.8412731 C153.279729,93.5608487 153.513416,93.3271618 153.79384,93.3271618 L157.112195,93.3271618 L157.112195,93.2804244 Z M177.396224,93.2804244 C177.676649,93.2804244 177.910336,93.5141113 177.910336,93.7945357 L177.910336,108.657027 L184.547046,108.657027 C184.874207,108.657027 185.061157,108.890714 185.061157,109.171139 L185.061157,112.209069 C185.061157,112.489494 184.82747,112.723181 184.547046,112.723181 L174.077869,112.723181 C173.750708,112.723181 173.563758,112.489494 173.563758,112.209069 L173.563758,93.8412731 C173.563758,93.5608487 173.797445,93.3271618 174.077869,93.3271618 L177.396224,93.3271618 L177.396224,93.2804244 Z M222.731497,93.2804244 C223.011922,93.2804244 223.245609,93.5141113 223.245609,93.7945357 L223.245609,108.657027 L229.835581,108.657027 C230.162743,108.657027 230.349693,108.890714 230.349693,109.171139 L230.349693,112.209069 C230.349693,112.489494 230.116006,112.723181 229.835581,112.723181 L219.366405,112.723181 C219.039243,112.723181 218.852293,112.489494 218.852293,112.209069 L218.852293,93.8412731 C218.852293,93.5608487 219.08598,93.3271618 219.366405,93.3271618 L222.731497,93.3271618 L222.731497,93.2804244 Z M246.89473,93 C247.08168,93 247.268629,93.1402122 247.362104,93.3271618 L256.05526,112.02212 C256.242209,112.396019 256.008522,112.723181 255.587886,112.723181 L252.503218,112.723181 C251.989106,112.723181 251.802157,112.536231 251.521732,112.02212 L250.540247,109.825462 L242.968789,109.825462 L241.987304,112.068857 C241.847092,112.396019 241.51993,112.723181 241.005818,112.723181 L237.967888,112.723181 C237.547251,112.723181 237.313564,112.349281 237.500514,112.02212 L246.193669,93.3271618 C246.287144,93.1402122 246.474094,93 246.661043,93 L246.89473,93 Z M246.754518,101.506206 L246.754518,101.506206 L244.651335,106.086471 L248.857701,106.086471 L246.754518,101.506206 Z M271.151438,97.2531029 L267.038547,97.2531029 L267.038547,101.599681 L271.151438,101.599681 C272.273136,101.599681 273.254621,100.664933 273.254621,99.3562857 C273.301358,98.094376 272.319873,97.2531029 271.151438,97.2531029 L271.151438,97.2531029 Z" id="Wortmarke"></path>
        </g>
    </g>
</svg>