<?xml version="1.0" encoding="utf-8"?>
<!-- Generator: Adobe Illustrator 24.1.2, SVG Export Plug-In . SVG Version: 6.00 Build 0)  -->
<svg version="1.1" id="Ebene_1" xmlns="http://www.w3.org/2000/svg" xmlns:xlink="http://www.w3.org/1999/xlink" x="0px" y="0px"
	 viewBox="0 0 1314.5 358.7" style="enable-background:new 0 0 1314.5 358.7;" xml:space="preserve">
<style type="text/css">
	.st0{fill:#5AFFC0;}
</style>
<path class="st0" d="M101.3,117H70.1C53,116.9,39,130.7,38.9,147.8c0,0.1,0,0.2,0,0.3v58.1c0,17.2,14,31.1,31.2,31.2h31.2
	c17.2-0.1,31.1-14,31.2-31.2v-3.9h38.9v3.9c0,38.6-31.2,70.6-70.1,70.6H70.1c-38.6,0-70.1-32-70.1-70.6v-58.1C0,109.4,31.3,78,70,78
	c0,0,0.1,0,0.1,0h31.2c38.6-0.1,70,31,70.1,69.6c0,0.2,0,0.4,0,0.6v3.9h-38.9v-3.9c0.2-17-13.4-31-30.4-31.2
	C101.8,117,101.5,117,101.3,117"/>
<path class="st0" d="M366.2,207v-58.9c0.2-17-13.4-31-30.4-31.2c-0.3,0-0.5,0-0.8,0h-31.2c-17-0.2-30.9,13.4-31.2,30.4
	c0,0.3,0,0.5,0,0.8V207c0,17.5,13.6,30.4,31.2,30.8H335C352.5,237.8,366.2,224.6,366.2,207 M303.9,276.8
	c-38.9,0-70.1-30.8-70.1-69.8v-58.9c-0.2-38.6,30.9-70,69.5-70.2c0.2,0,0.4,0,0.6,0H335c38.6-0.1,70,31,70.1,69.6c0,0.2,0,0.4,0,0.6
	V207c0,39-31.2,69.8-70.1,69.8H303.9z"/>
<path class="st0" d="M599.9,207.8V147l-44.4-30h-17.9c-17.2,0.1-31.1,14-31.2,31.2v58.5c0,17.2,14,31.1,31.2,31.2h17.9L599.9,207.8z
	 M638.9,0v276.8h-38.9V255l-32.3,21.8h-30c-38.7-0.1-70-31.5-70.1-70.2v-58.5c0-38.7,31.3-70.1,70-70.2c0,0,0.1,0,0.1,0h30
	l32.3,21.8V0L638.9,0z"/>
<path class="st0" d="M833.7,148.1c0.2-17-13.4-31-30.4-31.2c-0.3,0-0.5,0-0.8,0h-31.2c-17.1-0.1-31.1,13.7-31.2,30.9
	c0,0.1,0,0.2,0,0.3v7h93.5V148.1z M872.6,152v34.3H740.2v19.9c0,17.2,14,31.1,31.2,31.2h31.2c17.2-0.1,31.1-14,31.2-31.2v-3.9h38.9
	v3.9c0,38.6-31.2,70.6-70.1,70.6h-31.2c-38.6,0-70.1-32-70.1-70.6v-58.1c0-38.7,31.3-70.1,70-70.2c0,0,0.1,0,0.1,0h31.2
	c37.3-0.2,68.2,29,70.1,66.3V152z"/>
<path class="st0" d="M1067.4,148.2c0-17.2-14-31.1-31.2-31.2h-17.9l-44.4,30v60.8l44.4,30h17.9c17.2-0.1,31.1-14,31.2-31.2V148.2z
	 M1106.3,148.2v58.5c0,38.7-31.3,70.1-70,70.2c0,0-0.1,0-0.1,0h-30L973.9,255v103.7H935V78h38.9v21.8l32.3-21.8h30
	C1074.9,78.1,1106.2,109.5,1106.3,148.2"/>
<path class="st0" d="M1242.4,117v89.7c-0.2,17,13.4,31,30.4,31.2c0.3,0,0.5,0,0.8,0h40.9v39h-40.9c-38.6,0.1-70-31-70.1-69.6
	c0-0.2,0-0.4,0-0.6V117h-60.4V78h60.4V27.3h39V78h72.1v39L1242.4,117z"/>
</svg>
