<?xml version="1.0" encoding="utf-8"?>
<!-- Generator: Adobe Illustrator 26.0.2, SVG Export Plug-In . SVG Version: 6.00 Build 0)  -->
<svg version="1.1" id="Layer_1" xmlns="http://www.w3.org/2000/svg" xmlns:xlink="http://www.w3.org/1999/xlink" x="0px" y="0px"
	 viewBox="0 0 613.1 139.1" style="enable-background:new 0 0 613.1 139.1;" xml:space="preserve">
<style type="text/css">
	.st0{fill:#3CC48F;}
	.st1{fill:#AEFFDC;}
</style>
<g>
	<g>
		<path class="st0" d="M201.6,99.4c-5.1-2.8-9-6.8-11.8-12c-2.7-5.1-4.1-11.1-4.1-17.9c0-6.8,1.4-12.7,4.1-17.8
			c2.7-5.1,6.7-9.1,11.8-11.9c5.1-2.8,11.1-4.2,18-4.2c4.3,0,8.5,0.7,12.6,2s7.4,3.1,9.9,5.3L236.8,55c-5.5-3.8-11.1-5.7-16.8-5.7
			c-5.4,0-9.5,1.7-12.4,5.1c-2.9,3.4-4.3,8.4-4.3,15.2c0,6.7,1.4,11.8,4.3,15.2c2.9,3.4,7,5.1,12.4,5.1c5.7,0,11.3-1.9,16.8-5.7
			l5.4,12.2c-2.6,2.2-5.9,4-9.9,5.3s-8.2,2-12.6,2C212.7,103.6,206.7,102.2,201.6,99.4z"/>
		<path class="st0" d="M257.4,100.5c-3.9-2-6.8-4.8-8.9-8.4c-2.1-3.6-3.2-7.9-3.2-12.8c0-4.9,1.1-9.2,3.2-12.8
			c2.1-3.6,5.1-6.4,8.9-8.3c3.8-1.9,8.3-2.9,13.5-2.9c5.1,0,9.6,1,13.5,2.9c3.8,1.9,6.8,4.7,8.9,8.3c2.1,3.6,3.2,7.9,3.2,12.8
			c0,4.9-1.1,9.2-3.2,12.8c-2.1,3.6-5.1,6.5-8.9,8.4c-3.8,2-8.3,3-13.5,3C265.7,103.5,261.2,102.5,257.4,100.5z M279.7,79.3
			c0-7.8-3-11.7-8.9-11.7c-6,0-8.9,3.9-8.9,11.7c0,7.8,3,11.7,8.9,11.7C276.7,91,279.7,87.1,279.7,79.3z"/>
		<path class="st0" d="M338.9,69l-9.1,0.9c-3.6,0.4-6.2,1.4-7.6,2.9c-1.4,1.6-2.2,3.8-2.2,6.7v23.3h-16.8V56.4h15.9v8
			c1.1-2.8,2.8-5,5.3-6.5c2.4-1.5,5.4-2.3,8.9-2.5l4.6-0.4L338.9,69z"/>
		<path class="st0" d="M380.9,60.3c3.5,3.4,5.2,8.6,5.2,15.7v26.7h-15.7v-6.5c-0.9,2.3-2.4,4-4.4,5.3c-2.1,1.3-4.6,1.9-7.4,1.9
			c-3.2,0-6.1-0.6-8.7-1.9c-2.6-1.3-4.6-3.1-6.1-5.4c-1.5-2.3-2.2-4.9-2.2-7.8c0-3.3,0.9-6,2.6-8c1.7-2,4.5-3.4,8.2-4.3
			c3.8-0.9,8.9-1.3,15.3-1.3h2.5v-1.1c0-2.3-0.5-3.9-1.6-4.8c-1.1-0.9-3-1.4-5.7-1.4c-2.1,0-4.6,0.4-7.4,1.3
			c-2.8,0.8-5.4,1.9-7.9,3.2l-4.2-11c2.7-1.6,6.1-3,10.1-4.1c4.1-1.1,7.8-1.6,11.2-1.6C372,55.3,377.4,57,380.9,60.3z M368,89.9
			c1.4-1.6,2.2-3.7,2.2-6.2v-1.1h-1.5c-4,0-6.9,0.4-8.6,1.1s-2.5,1.9-2.5,3.6c0,1.4,0.5,2.6,1.4,3.6c0.9,0.9,2.1,1.4,3.5,1.4
			C364.7,92.3,366.6,91.5,368,89.9z"/>
		<path class="st0" d="M393.9,102.8V36.4h16.8v66.4H393.9z"/>
		<path class="st0" d="M429.7,100.5c-3.9-2-6.8-4.8-8.9-8.4c-2.1-3.6-3.2-7.9-3.2-12.8c0-4.9,1.1-9.2,3.2-12.8
			c2.1-3.6,5.1-6.4,8.9-8.3c3.8-1.9,8.3-2.9,13.5-2.9c5.1,0,9.6,1,13.5,2.9c3.8,1.9,6.8,4.7,8.9,8.3c2.1,3.6,3.2,7.9,3.2,12.8
			c0,4.9-1.1,9.2-3.2,12.8c-2.1,3.6-5.1,6.5-8.9,8.4c-3.8,2-8.3,3-13.5,3C438,103.5,433.5,102.5,429.7,100.5z M452,79.3
			c0-7.8-3-11.7-8.9-11.7c-6,0-8.9,3.9-8.9,11.7c0,7.8,3,11.7,8.9,11.7C449.1,91,452,87.1,452,79.3z"/>
		<path class="st0" d="M526.2,56.4v40.7c0,7.7-2.3,13.5-6.8,17.4c-4.6,4-11.3,5.9-20.2,5.9c-4.2,0-8.3-0.5-12.2-1.5
			c-4-1-7.4-2.3-10.3-4.1l4.2-11.4c2.9,1.5,5.9,2.7,9,3.5c3.1,0.8,6,1.2,8.8,1.2c3.7,0,6.5-0.8,8.2-2.4c1.8-1.6,2.7-4.1,2.7-7.6
			v-3.6c-1.4,2.1-3.4,3.7-5.9,4.9c-2.6,1.2-5.4,1.8-8.4,1.8c-4,0-7.6-0.9-10.7-2.8c-3.1-1.9-5.6-4.6-7.3-8.1
			c-1.8-3.5-2.6-7.5-2.6-12.1c0-4.6,0.9-8.6,2.6-12.1c1.8-3.5,4.2-6.2,7.3-8.1c3.1-1.9,6.7-2.9,10.7-2.9c3.1,0,5.9,0.6,8.5,1.9
			c2.6,1.3,4.6,3,5.9,5.2v-5.9H526.2z M507.3,86.1c1.6-1.9,2.4-4.4,2.4-7.7c0-3.3-0.8-5.9-2.4-7.8c-1.6-1.9-3.9-2.8-6.9-2.8
			c-2.9,0-5.1,0.9-6.8,2.8c-1.6,1.9-2.4,4.5-2.4,7.9c0,3.3,0.8,5.8,2.5,7.7c1.7,1.9,3.9,2.8,6.7,2.8C503.4,88.9,505.7,88,507.3,86.1
			z"/>
		<path class="st0" d="M533.7,33.3h17.5v15.2h-17.5V33.3z M534.1,102.8V56.4h16.8v46.3H534.1z"/>
		<path class="st0" d="M593.4,78.8l19.7,23.9h-19.6l-9.7-12.2l-9.7,12.2h-19.5l19.7-23.9l-18.6-22.4h19.7l8.4,10.9l8.5-10.9h19.7
			L593.4,78.8z"/>
	</g>
	<circle class="st0" cx="69.6" cy="69.6" r="62.6"/>
	<path class="st1" d="M69.6,139.1C31.2,139.1,0,107.9,0,69.6C0,31.2,31.2,0,69.6,0s69.6,31.2,69.6,69.6
		C139.1,107.9,107.9,139.1,69.6,139.1z M69.6,13.8c-30.7,0-55.7,25-55.7,55.7c0,30.7,25,55.7,55.7,55.7s55.7-25,55.7-55.7
		C125.3,38.8,100.3,13.8,69.6,13.8z"/>
</g>
</svg>
