<?xml version="1.0" encoding="UTF-8"?> <svg xmlns="http://www.w3.org/2000/svg" xmlns:xlink="http://www.w3.org/1999/xlink" width="140px" height="93px" viewBox="0 0 140 93" version="1.1"><title>Untitled</title><g id="Page-1" stroke="none" stroke-width="1" fill="none" fill-rule="evenodd"><g id="main_logo" fill-rule="nonzero"><path d="M51.3333333,37.8618517 C43.3097717,37.8618517 36.8053138,31.3573938 36.8053138,23.3333333 L28,23.3333333 C28,36.2200224 38.4466443,46.6666667 51.3333333,46.6666667 L51.3333333,37.8618517 M112,23.3333333 C112,10.4468677 101.553356,0 88.6666667,0 L88.6666667,8.80500321 C96.6902283,8.80500321 103.194686,15.3096002 103.194686,23.3333333 L112,23.3333333 M74.3405018,23.3330839 L74.3424696,23.3330839 C74.3424696,10.446756 64.0409727,0 51.3333333,0 L51.3333333,8.80490908 C59.2459062,8.80490908 65.6599902,15.3094365 65.6599902,23.3330839 L65.6575304,23.3330839 C65.6575304,36.2199107 75.9590273,46.6666667 88.6666667,46.6666667 L88.6666667,37.8617576 C80.7545857,37.8617576 74.3405018,31.3572302 74.3405018,23.3330839" id="Shape" fill="#FF5000"></path><path d="M33.8333333,61.8333333 L33.6181093,64.7848953 C31.5846647,64.7848953 30.157625,65.6929202 30.157625,67.0362007 L30.157625,72.3333333 L26.8333333,72.3333333 L26.8333333,62.0223449 L30.0403205,62.0223449 L30.0989728,63.2708791 C30.9588748,62.3628542 32.2497219,61.8333333 33.8333333,61.8333333 M42,61.8333333 L41.784776,64.7848953 C39.7513314,64.7848953 38.3242917,65.6929202 38.3242917,67.0362007 L38.3242917,72.3333333 L35,72.3333333 L35,62.0223449 L38.2069871,62.0223449 L38.2656394,63.2708791 C39.1255414,62.3628542 40.4163886,61.8333333 42,61.8333333 M140,72.1410475 L136.787759,72.1410475 L136.728644,70.855075 C135.999728,71.7955187 134.915622,72.3333333 133.457288,72.3333333 C130.619776,72.3333333 128.333333,70.2020841 128.333333,66.9576268 C128.333333,63.6941361 130.619776,61.4862653 133.457288,61.4862653 C134.856507,61.4862653 135.920574,62.0045586 136.649991,62.8874141 L136.649991,57.1666667 L140,57.1666667 L140,72.1410475 Z M136.649991,66.9000386 C136.649991,65.3451588 135.684115,64.2700175 134.225782,64.2700175 C132.767448,64.2700175 131.802073,65.3451588 131.802073,66.919072 C131.802073,68.4744398 132.767448,69.5300597 134.225782,69.5300597 C135.684115,69.5300597 136.649991,68.4934732 136.649991,66.9000386 L136.649991,66.9000386 Z M52.4249009,68.1887954 L45.3871122,68.1887954 C45.5755774,69.229536 46.1400164,69.8616335 47.363127,69.8616335 C48.2284406,69.8616335 48.9435561,69.5082636 49.432896,68.932384 L51.9164275,70.1214644 C51.0324587,71.4409325 49.3951073,72.3333333 47.4004373,72.3333333 C44.1640016,72.3333333 42,70.2887009 42,67.185376 C42,63.9889844 44.0889026,61.8333333 47.2502392,61.8333333 C50.3924423,61.8333333 52.5,63.859069 52.5,66.9250727 C52.5,67.3526126 52.4622113,67.8358979 52.4249009,68.1887954 Z M45.3871122,66.0704655 L49.1506765,66.0704655 C48.9435561,64.9366583 48.3226732,64.3050331 47.2502392,64.3050331 C46.1964603,64.3050331 45.6128878,64.9366583 45.3871122,66.0704655 L45.3871122,66.0704655 Z M93.7585485,64.5280152 C92.173238,64.5280152 91.1442777,65.549859 91.1442777,67.0738849 C91.1442777,68.5979109 92.1528262,69.6197546 93.7585485,69.6197546 C94.7262736,69.6197546 95.4673761,69.3783482 96.0237264,68.8019962 L98,70.9023741 C96.9087579,71.8684724 95.343859,72.3333333 93.6146197,72.3333333 C89.9499302,72.3333333 87.5,70.2329554 87.5,67.0738849 C87.5,63.9332388 89.9703419,61.8333333 93.69679,61.8333333 C95.1999302,61.8333333 96.5795534,62.2977219 97.6294487,63.0413105 L95.6526518,65.1785371 C95.1795185,64.7878461 94.5823447,64.5280152 93.7585485,64.5280152 M71.5920932,64.5280152 C70.0068617,64.5280152 68.9774294,65.549859 68.9774294,67.0738849 C68.9774294,68.5979109 69.986451,69.6197546 71.5920932,69.6197546 C72.5597701,69.6197546 73.3008357,69.3783482 73.8566349,68.8019962 L75.8333333,70.9023741 C74.7421456,71.8684724 73.1773248,72.3333333 71.4481716,72.3333333 C67.7836648,72.3333333 65.3333333,70.2329554 65.3333333,67.0738849 C65.3333333,63.9332388 67.8040755,61.8333333 71.5303378,61.8333333 C73.0334031,61.8333333 74.4124342,62.2977219 75.4628005,63.0413105 L73.4861021,65.1785371 C73.0124691,64.7878461 72.4158484,64.5280152 71.5920932,64.5280152" id="Shape" fill="#FFFFFE"></path><polygon id="Path" fill="#FFFFFE" points="99.167 72.333 102.667 72.333 102.667 57.167 99.167 57.167"></polygon><path d="M87.5,71.3834531 C87.5,74.7688031 85.0344969,77 81.2955465,77 C79.5853154,77 78.0737602,76.5497808 77,75.6886432 L77.7360616,73.0858289 C78.8295378,73.8882639 79.9629514,74.1623752 81.2161772,74.1623752 C82.9264083,74.1623752 84.0795378,73.0858289 84.1194752,71.4615574 C83.3237602,72.3032932 82.2302841,72.6948098 81.1165864,72.6948098 C78.7102311,72.6948098 77.0995908,71.0312374 77.0995908,68.5065274 L77.0995908,61.8333333 L80.4801156,61.8333333 L80.4801156,68.0175047 C80.4801156,69.1134527 81.1959557,69.8372858 82.3096533,69.8372858 C83.4036351,69.8372858 84.1194752,69.1134527 84.1194752,68.0175047 L84.1194752,61.8333333 L87.5,61.8333333 L87.5,71.3834531 M103.833333,67.0738849 C103.833333,63.9332388 106.178192,61.8333333 109.695977,61.8333333 C113.155141,61.8333333 115.5,63.9332388 115.5,67.0738849 C115.5,70.2329554 113.155141,72.3333333 109.695977,72.3333333 C106.178192,72.3333333 103.833333,70.2329554 103.833333,67.0738849 Z M112.060708,67.0738849 C112.060708,65.549859 111.102893,64.5280152 109.676603,64.5280152 C108.230441,64.5280152 107.272625,65.549859 107.272625,67.0738849 C107.272625,68.5979109 108.230441,69.6197546 109.676603,69.6197546 C111.102893,69.6197546 112.060708,68.5979109 112.060708,67.0738849 L112.060708,67.0738849 Z M127.166667,61.8333333 L127.166667,68.3791814 C127.166667,70.7438816 125.062388,72.3333333 121.916412,72.3333333 C118.770436,72.3333333 116.666667,70.5361227 116.666667,67.8116918 L116.666667,61.8333333 L120.072939,61.8333333 L120.072939,67.8116918 C120.072939,68.871166 120.814607,69.5709095 121.916412,69.5709095 C123.018726,69.5709095 123.759885,68.871166 123.759885,67.8116918 L123.759885,61.8333333 L127.166667,61.8333333 M25.6666667,61.8333333 L25.6666667,68.3791814 C25.6666667,70.7438816 23.5623878,72.3333333 20.416412,72.3333333 C17.2704361,72.3333333 15.1666667,70.5361227 15.1666667,67.8116918 L15.1666667,61.8333333 L18.5729394,61.8333333 L18.5729394,67.8116918 C18.5729394,68.871166 19.3140979,69.5709095 20.416412,69.5709095 C21.518726,69.5709095 22.2598845,68.871166 22.2598845,67.8116918 L22.2598845,61.8333333 L25.6666667,61.8333333 M64.1666667,65.8631749 L64.1666667,72.3333333 L60.9031663,72.3333333 L60.9031663,66.355182 C60.9031663,65.2764215 60.1160811,64.5766459 58.925938,64.5766459 C57.7167643,64.5766459 56.929679,65.2764215 56.929679,66.355182 L56.929679,72.3333333 L53.6666667,72.3333333 L53.6666667,62.0223449 L56.8145196,62.0223449 L56.8530687,63.1766138 C57.6782151,62.2685889 58.8493277,61.8333333 60.07802,61.8333333 C62.5349165,61.8333333 64.1666667,63.4416148 64.1666667,65.8631749 M11.5800814,67.1654465 C10.7680153,68.4023889 9.35168781,69.222472 7.73952598,69.222472 C5.21857793,69.222472 3.17500599,67.2199889 3.17500599,64.75 C3.17500599,62.2800111 5.21857793,60.278015 7.73952598,60.278015 C9.38951401,60.278015 10.8355279,61.1365699 11.6370601,62.4222108 L14,60.2940855 C12.5927699,58.3992262 10.3136222,57.1666667 7.73952598,57.1666667 C3.46516639,57.1666667 0,60.5619274 0,64.75 C0,68.9380726 3.46516639,72.3333333 7.73952598,72.3333333 C10.2959062,72.3333333 12.5621259,71.1178183 13.9717501,69.2453603 L11.5800814,67.1654465" id="Shape" fill="#FFFFFE"></path><path d="M19.1058874,89.1022222 L19.1058874,89.090681 C19.4014943,88.9878136 19.6261753,88.8187097 19.7794346,88.5823656 C19.9321978,88.3460215 20.0090755,88.0795699 20.0090755,87.782509 C20.0090755,87.5436559 19.9659248,87.3344086 19.8806154,87.1542652 C19.7948101,86.9746237 19.6713099,86.8286022 19.5106109,86.7172043 C19.3494159,86.6053047 19.1584618,86.5220072 18.9362607,86.46681 C18.7145556,86.4121147 18.4630914,86.3845161 18.18286,86.3845161 L16.3333333,86.3845161 L16.3333333,92.1154839 L18.3971254,92.1154839 C18.7110837,92.1154839 18.9893311,92.0778495 19.2323635,92.0015771 C19.4749,91.9253047 19.6727979,91.8184229 19.8260571,91.6804301 C19.9793164,91.5424373 20.0943848,91.3798566 20.1722544,91.1921864 C20.250124,91.0040143 20.2893068,90.794767 20.2893068,90.5639427 C20.2893068,90.3587097 20.2580598,90.1715412 20.1960617,90.0024373 C20.1335676,89.8328315 20.0477623,89.6888172 19.9386456,89.5688889 C19.830025,89.4494624 19.7050369,89.3506093 19.5651692,89.271828 C19.4248056,89.1930466 19.2715463,89.1363441 19.1058874,89.1022222 Z M17.0267199,87.0303226 L18.0390245,87.0303226 C18.2592417,87.0303226 18.4506917,87.0513978 18.6133747,87.0935484 C18.7755617,87.1351971 18.9060056,87.195914 19.0042106,87.2746953 C19.1029115,87.3534767 19.1763173,87.4458065 19.2244278,87.5521864 C19.2725383,87.6585663 19.2963455,87.7815054 19.2963455,87.9205018 C19.2963455,88.0519713 19.2750182,88.1713978 19.2323635,88.2787814 C19.1892129,88.3866667 19.1316786,88.4744803 19.0587689,88.542724 C18.9863551,88.6109677 18.9010458,88.6691756 18.8038328,88.7163441 C18.7066198,88.7635125 18.6054389,88.7971326 18.5002902,88.8167025 C18.3951415,88.8362724 18.2865208,88.8463082 18.1749243,88.8463082 L17.0267199,88.8463082 L17.0267199,87.0303226 Z M18.2022034,91.4696774 L17.0267199,91.4696774 L17.0267199,89.4765591 L18.2334505,89.4765591 C18.5191376,89.4765591 18.7616741,89.5177061 18.9615559,89.6005018 C19.1614377,89.6832975 19.3112251,89.8007168 19.411414,89.9532616 C19.5111069,90.1053047 19.5612013,90.287957 19.5612013,90.5007168 C19.5612013,90.8183513 19.4391891,91.0592115 19.1951647,91.2232975 C18.9511402,91.3873835 18.6203185,91.4696774 18.2022034,91.4696774 Z M26.8541594,92.1154839 L27.5862327,92.1154839 L25.4291956,86.3845161 L24.7323371,86.3845161 L22.5906755,92.1154839 L23.3187809,92.1154839 L23.8212134,90.7215054 L26.3477591,90.7215054 L26.8541594,92.1154839 Z M24.0429185,90.10681 L25.0745665,87.2430824 L25.090438,87.2430824 L26.126054,90.10681 L24.0429185,90.10681 Z M32.5311995,92.1591398 C33.0033769,92.1591398 33.4234759,92.0617921 33.7905045,91.8675986 C34.1580291,91.673405 34.4739714,91.4094624 34.7388272,91.0757706 L34.2210192,90.6346953 C33.7642173,91.2042294 33.2007788,91.4892473 32.5311995,91.4892473 C32.292135,91.4892473 32.0664619,91.4566308 31.8536845,91.3908961 C31.6409071,91.3251613 31.4479691,91.2288172 31.2753664,91.101362 C31.1027638,90.9739068 30.9534724,90.8218638 30.8274923,90.6442294 C30.7020082,90.4670968 30.6042992,90.2618638 30.5358534,90.0280287 C30.4669115,89.7941935 30.4326886,89.5432975 30.4326886,89.2758423 C30.4326886,88.8342652 30.5170059,88.4423656 30.6856407,88.0996416 C30.8542755,87.7569176 31.0982999,87.4884588 31.417714,87.2942652 C31.7366322,87.1000717 32.1081247,87.002724 32.5311995,87.002724 C32.8555735,87.002724 33.16358,87.077491 33.4557149,87.2275269 C33.7478499,87.3770609 34.002786,87.5898208 34.2210192,87.8653047 L34.7388272,87.4282437 C34.5389453,87.178853 34.3142643,86.9706093 34.06528,86.8040143 C33.8157997,86.6369176 33.5648315,86.5169892 33.3118794,86.4432258 C33.0584312,86.3699642 32.7985353,86.3333333 32.5311995,86.3333333 C32.1755786,86.3333333 31.8457488,86.3830108 31.5422062,86.4828674 C31.2386636,86.582724 30.9747998,86.7217204 30.7516067,86.9003584 C30.5284136,87.0789964 30.3379555,87.2902509 30.1792404,87.5346237 C30.0210213,87.7789964 29.902977,88.0484588 29.8251074,88.3440143 C29.7472378,88.6395699 29.708551,88.9501792 29.708551,89.2758423 C29.708551,89.6406452 29.7571575,89.9793548 29.8543705,90.2919713 C29.9515835,90.6045878 30.0874832,90.8740502 30.2610779,91.101362 C30.4351685,91.3286738 30.6400101,91.5223656 30.8765948,91.6824373 C31.1126835,91.842509 31.3705955,91.9619355 31.6513228,92.0407168 C31.9315541,92.1194982 32.224681,92.1591398 32.5311995,92.1591398 Z M38.9948713,89.5593548 L40.8364623,92.1154839 L41.7044354,92.1154839 L39.4541531,88.9958423 L41.6459092,86.3845161 L40.7585927,86.3845161 L38.1849284,89.5317563 L38.1690569,89.5317563 L38.1690569,86.3845161 L37.4761664,86.3845161 L37.4761664,92.1154839 L38.1690569,92.1154839 L38.1690569,90.5283154 L38.9829677,89.5593548 L38.9948713,89.5593548 Z M44.4144954,92.1154839 L45.1118498,92.1154839 L45.1118498,86.3845161 L44.4144954,86.3845161 L44.4144954,92.1154839 Z M52.1979823,86.3845161 L52.1979823,90.9498208 L52.1826068,90.9498208 L48.9899537,86.3845161 L48.3045029,86.3845161 L48.3045029,92.1154839 L48.9978894,92.1154839 L48.9978894,87.5973477 L49.013265,87.5973477 L52.1865746,92.1154839 L52.8913688,92.1154839 L52.8913688,86.3845161 L52.1979823,86.3845161 Z M58.4905394,89.1614337 L58.4905394,89.8072401 L60.1332405,89.8072401 L60.1332405,91.0637276 C59.7414126,91.3552688 59.2379882,91.5012903 58.6229673,91.5012903 C58.2073321,91.5012903 57.8393115,91.4049462 57.5189055,91.2117563 C57.1984994,91.0185663 56.951995,90.7521147 56.7793924,90.4118996 C56.6067897,90.0721864 56.5204884,89.6878136 56.5204884,89.2597849 C56.5204884,88.9235842 56.5725668,88.6139785 56.6777155,88.3304659 C56.7828643,88.0464516 56.9271958,87.8081004 57.1102141,87.6154122 C57.2932324,87.4222222 57.5124577,87.2716846 57.7678897,87.1643011 C58.0238178,87.0564158 58.2995853,87.002724 58.5956881,87.002724 C59.2598115,87.002724 59.8168023,87.2235125 60.2656684,87.6645878 L60.760165,87.2310394 C60.471998,86.9264516 60.1411762,86.7006452 59.7672038,86.5536201 C59.3937274,86.406595 59.0043794,86.3333333 58.59916,86.3333333 C58.1815409,86.3333333 57.7966569,86.4060932 57.4450037,86.5516129 C57.0933506,86.6976344 56.7972478,86.8998566 56.5571912,87.1582796 C56.3171347,87.4172043 56.1301485,87.72681 55.9967286,88.0881004 C55.8628128,88.4488889 55.7958548,88.8397849 55.7958548,89.2597849 C55.7958548,89.6958423 55.8672766,90.0957706 56.0101202,90.4590681 C56.1529638,90.8228674 56.3493737,91.1289606 56.5998459,91.3773477 C56.8503182,91.625233 57.1489009,91.8174194 57.4955942,91.9544086 C57.8422874,92.0908961 58.2177478,92.1591398 58.6229673,92.1591398 C59.0564578,92.1591398 59.4651492,92.0949104 59.8490413,91.9659498 C60.2334294,91.837491 60.5592913,91.6573477 60.826627,91.4265233 L60.826627,89.1614337 L58.4905394,89.1614337 Z M70.8028619,86.3845161 L69.3387153,88.8503226 L69.3233398,88.8503226 L67.8591931,86.3845161 L67.0611539,86.3845161 L68.9806144,89.5553405 L68.9806144,92.1154839 L69.6735049,92.1154839 L69.6735049,89.5553405 L71.608837,86.3845161 L70.8028619,86.3845161 Z M76.3593778,92.1666667 C76.7536856,92.1666667 77.1246821,92.095914 77.4728633,91.9544086 C77.8205485,91.8124014 78.1196273,91.6151971 78.3700995,91.3632975 C78.6205718,91.1113978 78.8184696,90.8027957 78.9637931,90.437491 C79.1091166,90.0726882 79.1820264,89.6762724 79.1820264,89.2482437 C79.1820264,88.8202151 79.1091166,88.4232975 78.9637931,88.0584946 C78.8184696,87.69319 78.6205718,87.3855914 78.3700995,87.1346953 C78.1196273,86.8837993 77.8205485,86.6875986 77.4728633,86.5455914 C77.1246821,86.404086 76.7536856,86.3333333 76.3593778,86.3333333 C75.9437427,86.3333333 75.5583626,86.4081004 75.2027416,86.5576344 C74.8471207,86.7071685 74.546554,86.9113978 74.3015376,87.1703226 C74.0560252,87.4287455 73.8640791,87.7373477 73.7252034,88.0956272 C73.5863277,88.4544086 73.5168899,88.8382796 73.5168899,89.2482437 C73.5168899,89.6577061 73.5863277,90.0415771 73.7252034,90.4003584 C73.8640791,90.758638 74.0560252,91.0677419 74.3015376,91.3276703 C74.546554,91.5881004 74.8471207,91.7928315 75.2027416,91.9423656 C75.5583626,92.0918996 75.9437427,92.1666667 76.3593778,92.1666667 Z M76.3593778,91.497276 C76.0503794,91.497276 75.7627083,91.4380645 75.4968605,91.3201434 C75.2305168,91.2017204 75.0063317,91.0416487 74.8233134,90.8394265 C74.6402951,90.6372043 74.4969555,90.398853 74.3927987,90.1243728 C74.2891379,89.8498925 74.2370595,89.5578495 74.2370595,89.2482437 C74.2370595,89.001362 74.2702905,88.7650179 74.3362565,88.5392115 C74.4027184,88.313405 74.4979475,88.1076703 74.6224396,87.922509 C74.7474277,87.7373477 74.8952312,87.5757706 75.0663459,87.4377778 C75.2379565,87.3002867 75.4343665,87.1929032 75.6565676,87.1171326 C75.8782727,87.0408602 76.1123775,87.002724 76.3593778,87.002724 C76.6500248,87.002724 76.9243043,87.0579211 77.1827123,87.1683154 C77.4411203,87.2787097 77.6643134,87.4312545 77.8522916,87.6269534 C78.0402697,87.8226523 78.1890651,88.0610036 78.2981817,88.3420072 C78.4072984,88.6230108 78.4618567,88.9250896 78.4618567,89.2482437 C78.4618567,89.5708961 78.4072984,89.8729749 78.2981817,90.1539785 C78.1890651,90.4349821 78.0402697,90.6733333 77.8522916,90.8690323 C77.6643134,91.0647312 77.4411203,91.2182796 77.1827123,91.3296774 C76.9243043,91.4415771 76.6500248,91.497276 76.3593778,91.497276 Z M84.1929591,92.1666667 C84.8679942,92.1666667 85.4036576,91.953405 85.7994534,91.5268817 C86.1952491,91.0998566 86.393147,90.5192832 86.393147,89.7836559 L86.393147,86.3845161 L85.6997604,86.3845161 L85.6997604,89.7324731 C85.6997604,90.2789247 85.5608848,90.7094624 85.2836293,91.0245878 C85.0058779,91.3397133 84.6423212,91.497276 84.1929591,91.497276 C83.7391332,91.497276 83.3760724,91.3362007 83.1047688,91.014552 C82.8339612,90.6929032 82.6980614,90.2658781 82.6980614,89.7324731 L82.6980614,86.3845161 L82.0051709,86.3845161 L82.0051709,89.7836559 C82.0051709,90.1564875 82.0582413,90.4936918 82.164878,90.7942652 C82.2710187,91.0948387 82.42031,91.3447312 82.6122561,91.5444444 C82.8046981,91.7441577 83.034835,91.8977061 83.3036587,92.0055914 C83.5719864,92.1129749 83.8685852,92.1666667 84.1929591,92.1666667 Z M93.5030867,92.1154839 L91.9962854,89.8744803 L91.9997573,89.8664516 C92.4258081,89.7746237 92.7571258,89.5859498 92.9947025,89.3014337 C93.2322791,89.0164158 93.3508194,88.6360573 93.3508194,88.1608602 C93.3508194,87.9009319 93.3141166,87.6645878 93.2402149,87.451828 C93.1663131,87.2390681 93.0547166,87.0524014 92.9054252,86.8923297 C92.7561339,86.7322581 92.5607159,86.6073118 92.3191714,86.5179928 C92.0776269,86.4291756 91.7973956,86.3845161 91.4784774,86.3845161 L89.4692437,86.3845161 L89.4692437,92.1154839 L90.1621342,92.1154839 L90.1621342,89.9296774 L91.2210614,89.9296774 L92.6658646,92.1154839 L93.5030867,92.1154839 Z M90.1621342,87.0303226 L91.3887042,87.0303226 C91.7805321,87.0303226 92.0855626,87.1261649 92.3037959,87.3178495 C92.5215331,87.5095341 92.6306497,87.7855197 92.6306497,88.1453047 C92.6306497,88.4915412 92.5195492,88.7680287 92.297844,88.9742652 C92.0761389,89.1805018 91.7403573,89.2833692 91.2914912,89.2833692 L90.1621342,89.2833692 L90.1621342,87.0303226 Z M102.914891,89.1022222 L102.914891,89.090681 C103.210498,88.9878136 103.435179,88.8187097 103.588438,88.5823656 C103.741202,88.3460215 103.818079,88.0795699 103.818079,87.782509 C103.818079,87.5436559 103.774929,87.3344086 103.689619,87.1542652 C103.603814,86.9746237 103.480314,86.8286022 103.319615,86.7172043 C103.15842,86.6053047 102.96697,86.5220072 102.745264,86.46681 C102.523559,86.4121147 102.272095,86.3845161 101.991864,86.3845161 L100.142337,86.3845161 L100.142337,92.1154839 L102.206129,92.1154839 C102.520087,92.1154839 102.798335,92.0778495 103.041367,92.0015771 C103.283904,91.9253047 103.481802,91.8184229 103.635061,91.6804301 C103.78832,91.5424373 103.903389,91.3798566 103.981258,91.1921864 C104.059128,91.0040143 104.09831,90.794767 104.09831,90.5639427 C104.09831,90.3587097 104.067063,90.1715412 104.005065,90.0024373 C103.942571,89.8328315 103.856766,89.6888172 103.747649,89.5688889 C103.639029,89.4494624 103.514041,89.3506093 103.374173,89.271828 C103.233809,89.1930466 103.08055,89.1363441 102.914891,89.1022222 Z M100.835724,87.0303226 L101.848028,87.0303226 C102.068245,87.0303226 102.259695,87.0513978 102.421882,87.0935484 C102.584565,87.1351971 102.715009,87.195914 102.813214,87.2746953 C102.911915,87.3534767 102.985321,87.4458065 103.033431,87.5521864 C103.081542,87.6585663 103.105349,87.7815054 103.105349,87.9205018 C103.105349,88.0519713 103.084022,88.1713978 103.041367,88.2787814 C102.998217,88.3866667 102.940682,88.4744803 102.867773,88.542724 C102.795359,88.6109677 102.710049,88.6691756 102.612837,88.7163441 C102.515624,88.7635125 102.414443,88.7971326 102.309294,88.8167025 C102.204145,88.8362724 102.095525,88.8463082 101.983928,88.8463082 L100.835724,88.8463082 L100.835724,87.0303226 Z M102.011207,91.4696774 L100.835724,91.4696774 L100.835724,89.4765591 L102.042454,89.4765591 C102.328141,89.4765591 102.570678,89.5177061 102.77056,89.6005018 C102.970441,89.6832975 103.120229,89.8007168 103.220418,89.9532616 C103.320111,90.1053047 103.370205,90.287957 103.370205,90.5007168 C103.370205,90.8183513 103.248193,91.0592115 103.004168,91.2232975 C102.760144,91.3873835 102.429322,91.4696774 102.011207,91.4696774 Z M109.444529,92.1666667 C109.838837,92.1666667 110.210329,92.095914 110.558014,91.9544086 C110.9057,91.8124014 111.204778,91.6151971 111.455251,91.3632975 C111.705723,91.1113978 111.903621,90.8027957 112.048944,90.437491 C112.194268,90.0726882 112.267177,89.6762724 112.267177,89.2482437 C112.267177,88.8202151 112.194268,88.4232975 112.048944,88.0584946 C111.903621,87.69319 111.705723,87.3855914 111.455251,87.1346953 C111.204778,86.8837993 110.9057,86.6875986 110.558014,86.5455914 C110.210329,86.404086 109.838837,86.3333333 109.444529,86.3333333 C109.028894,86.3333333 108.643514,86.4081004 108.287893,86.5576344 C107.932272,86.7071685 107.631705,86.9113978 107.386689,87.1703226 C107.141176,87.4287455 106.94923,87.7373477 106.810354,88.0956272 C106.671479,88.4544086 106.602041,88.8382796 106.602041,89.2482437 C106.602041,89.6577061 106.671479,90.0415771 106.810354,90.4003584 C106.94923,90.758638 107.141176,91.0677419 107.386689,91.3276703 C107.631705,91.5881004 107.932272,91.7928315 108.287893,91.9423656 C108.643514,92.0918996 109.028894,92.1666667 109.444529,92.1666667 Z M109.444529,91.497276 C109.13553,91.497276 108.847859,91.4380645 108.582012,91.3201434 C108.315668,91.2017204 108.091483,91.0416487 107.908464,90.8394265 C107.725446,90.6372043 107.582107,90.398853 107.47795,90.1243728 C107.374289,89.8498925 107.322211,89.5578495 107.322211,89.2482437 C107.322211,89.001362 107.355442,88.7650179 107.421904,88.5392115 C107.487869,88.313405 107.583099,88.1076703 107.708087,87.922509 C107.832579,87.7373477 107.980382,87.5757706 108.151497,87.4377778 C108.323108,87.3002867 108.519518,87.1929032 108.741719,87.1171326 C108.963424,87.0408602 109.198025,87.002724 109.444529,87.002724 C109.735176,87.002724 110.009455,87.0579211 110.267863,87.1683154 C110.526271,87.2787097 110.749464,87.4312545 110.937443,87.6269534 C111.125917,87.8226523 111.274216,88.0610036 111.383333,88.3420072 C111.492449,88.6230108 111.547008,88.9250896 111.547008,89.2482437 C111.547008,89.5708961 111.492449,89.8729749 111.383333,90.1539785 C111.274216,90.4349821 111.125917,90.6733333 110.937443,90.8690323 C110.749464,91.0647312 110.526271,91.2182796 110.267863,91.3296774 C110.009455,91.4415771 109.735176,91.497276 109.444529,91.497276 Z M115.172159,92.1154839 L118.668355,92.1154839 L118.668355,91.4696774 L115.86505,91.4696774 L115.86505,86.3845161 L115.172159,86.3845161 L115.172159,92.1154839 Z M121.367008,92.1154839 L123.084106,92.1154839 C123.976879,92.1154839 124.686137,91.8530466 125.21188,91.3276703 C125.737624,90.8027957 126,90.1133333 126,89.2597849 C126,88.8397849 125.930562,88.4524014 125.791686,88.0976344 C125.652811,87.7433692 125.457889,87.4397849 125.205929,87.1878853 C124.953968,86.9359857 124.643978,86.7387814 124.275461,86.5967742 C123.906945,86.4552688 123.501725,86.3845161 123.060795,86.3845161 L121.367008,86.3845161 L121.367008,92.1154839 Z M122.059898,91.4777061 L122.059898,87.0222939 L123.072203,87.0222939 C123.505693,87.0222939 123.890577,87.1176344 124.226855,87.3078136 C124.562637,87.4984946 124.823028,87.7629391 125.007535,88.1016487 C125.191545,88.4403584 125.283798,88.8267384 125.283798,89.2597849 C125.283798,89.4725448 125.259991,89.6762724 125.21188,89.8704659 C125.16377,90.0646595 125.094828,90.2432975 125.005551,90.4063799 C124.915778,90.5689606 124.804677,90.717491 124.672745,90.8514695 C124.540317,90.9849462 124.391522,91.0978495 124.226855,91.1901792 C124.061692,91.2820072 123.878674,91.3527599 123.6778,91.4029391 C123.47643,91.4526165 123.264149,91.4777061 123.040956,91.4777061 L122.059898,91.4777061 L122.059898,91.4777061 Z" id="Shape" fill="#FF5000"></path></g></g></svg> 