<?xml version="1.0" encoding="utf-8"?>
<!-- Generator: Adobe Illustrator 19.2.1, SVG Export Plug-In . SVG Version: 6.00 Build 0)  -->
<svg version="1.1" id="layer" xmlns="http://www.w3.org/2000/svg" xmlns:xlink="http://www.w3.org/1999/xlink" x="0px" y="0px"
	 viewBox="0 0 652 652" style="enable-background:new 0 0 652 652;" xml:space="preserve">
<style type="text/css">
	.st0{fill:#02A3D5;}
	.st1{fill:#0C2A31;}
</style>
<g>
	<path class="st0" d="M75.6,307.7c-0.1-1.7-0.2-2.5-0.5-3.6c-1.7-5.9-7.2-10.2-13.6-10.2H34.1v55.4h13.9V363H20.2v-83h41.3
		c14,0,25.5,10.2,27.5,23.6c0.2,1.3,0.3,2.6,0.3,4.1L75.6,307.7z"/>
	<path class="st0" d="M89.4,321.5v13.7c0,15.3-12.9,27.8-28.2,27.8h0.6v-13.8H61c7.8,0,14.5-6.4,14.5-14.2v-13.5H89.4z"/>
	<path class="st1" d="M204.4,314.4c0-6-4.6-9.4-10.6-9.4h-10.6v32.4h10.6c5.9,0,10.6-3.4,10.6-9.4V314.4z M172.4,347.3V295h21.5
		c13.7,0,21.5,7.8,21.5,19.3V328c0,11.6-7.8,19.3-21.5,19.3H172.4z"/>
	<path class="st1" d="M259.5,313.6c0-6.1-4.6-9.4-10.6-9.4c-5.9,0-10.6,3.4-10.6,9.4v15.1c0,6,4.6,9.4,10.6,9.4
		c5.9,0,10.6-3.4,10.6-9.4V313.6z M249,348c-13.7,0-21.5-7.8-21.5-19.3v-15.1c0-11.6,7.8-19.4,21.5-19.4c13.7,0,21.5,7.8,21.5,19.4
		v15.1C270.4,340.3,262.6,348,249,348"/>
	<polygon class="st1" points="312.1,318 302.9,347.3 291.1,347.3 280.7,295 291.6,295 298.2,330.4 308.8,295 315.5,295 326.1,330.4 
		332.7,295 343.6,295 333.1,347.3 321.4,347.3 	"/>
	<path class="st1" d="M396.4,295h10.9v37.3c0,10.4-6.3,15.7-16.9,15.7c-10.6,0-16.9-5.3-16.9-15.7h11c0.3,3.7,2.4,5.7,5.9,5.7
		c4.2,0,6-2.6,6-6V295z"/>
	<path class="st1" d="M452.6,313.6c0-6.1-4.6-9.4-10.6-9.4c-5.9,0-10.6,3.4-10.6,9.4v15.1c0,6,4.6,9.4,10.6,9.4
		c5.9,0,10.6-3.4,10.6-9.4V313.6z M442,348c-13.7,0-21.5-7.8-21.5-19.3v-15.1c0-11.6,7.8-19.4,21.5-19.4c13.7,0,21.5,7.8,21.5,19.4
		v15.1C463.5,340.3,455.7,348,442,348"/>
	<polygon class="st1" points="519.7,347.3 508.8,347.3 487.7,313.6 487.7,347.3 476.8,347.3 476.8,295 487.7,295 508.8,328.7 
		508.8,295 519.7,295 	"/>
	<polygon class="st1" points="545,315.9 566.2,315.9 566.2,325.9 545,325.9 545,337.4 568.7,337.4 568.7,347.3 534.1,347.3 
		534.1,295 568.7,295 568.7,305 545,305 	"/>
	<path class="st1" d="M580.2,330.8h11.2c0.6,4.4,4.4,7.3,9.8,7.3c4.8,0,8.1-1.6,8.1-5.2c0-2.9-1.9-4.6-5.9-5.5l-9.6-2.4
		c-8.7-2.2-13-7.8-13-15.5c0-10.5,8.9-15.2,18.9-15.2c11.4,0,18.4,6.1,19.7,15h-11.2c-1-3.5-5-5.1-8.6-5.1c-4.6,0-7.8,1.6-7.8,5.3
		c0,3.1,2.6,4.4,5.7,5.2l9.3,2.3c8.8,2.2,13.5,7.1,13.5,15.9c0,9.4-6.7,15.2-19,15.2C588.8,348,580.7,341.2,580.2,330.8"/>
</g>
</svg>
