<?xml version="1.0" encoding="UTF-8"?>
<svg width="56px" height="50px" viewBox="0 0 56 50" version="1.1" xmlns="http://www.w3.org/2000/svg" xmlns:xlink="http://www.w3.org/1999/xlink">
    <!-- Generator: Sketch 64 (93537) - https://sketch.com -->
    <title>Combined Shape</title>
    <desc>Created with Sketch.</desc>
    <g id="Development" stroke="none" stroke-width="1" fill="none" fill-rule="evenodd">
        <g id="vacancy-landing+prototype-copy-3" transform="translate(-1009.000000, -55.000000)" fill="#FFFFFE">
            <g id="map-job-category">
                <path d="M1014.174,64.698076 C1018.31949,58.9358878 1025.82473,53.782817 1033.21051,55.2539745 C1040.98547,56.7993392 1042.42765,61.2560992 1043.70048,65.1878434 C1044.67528,68.2018921 1045.5965,71.0495929 1049.23766,74.1564005 C1055.86417,79.8054228 1056.78047,86.8278963 1051.96068,95.0277907 C1049.08803,99.9130972 1044.25901,103.169556 1037.99889,104.442209 C1036.17923,104.812008 1034.27275,105 1032.33116,105 C1026.69053,105 1021.36826,103.446596 1017.72956,100.739889 C1006.74265,92.5597833 1006.7913,74.9652589 1014.174,64.698076 Z M1030.59456,61 C1026.20988,61 1021.64647,64.6174907 1019.06896,68.2024477 C1013.42885,76.0474349 1013.18224,89.8648478 1021.31704,95.921736 C1024.91085,98.6026332 1031.29327,99.6862537 1036.83935,98.556961 C1040.0097,97.9112933 1044.31156,96.2483237 1046.80624,91.9995552 C1050.11733,86.3643531 1049.70757,82.5647992 1045.39139,78.8847438 C1040.35657,74.5859236 1038.98904,70.3578015 1037.88866,66.9599129 C1036.75155,63.4400231 1036.28138,61.983517 1032.02374,61.1395193 C1031.56291,61.0469235 1031.08403,61 1030.59456,61 Z M1059.5218,56.4273503 C1062.27806,56.4273503 1064.52121,58.6696457 1064.52121,61.4273503 C1064.52121,64.1850549 1062.27806,66.4273503 1059.5218,66.4273503 C1056.76377,66.4273503 1054.52121,64.1850549 1054.52121,61.4273503 C1054.52121,58.6696457 1056.76377,56.4273503 1059.5218,56.4273503 Z" id="Combined-Shape"></path>
            </g>
        </g>
    </g>
</svg>