<svg version="1.1" xmlns="http://www.w3.org/2000/svg" x="0" y="0" viewBox="0 0 184 177" xml:space="preserve" width="80" height="77"><style>.st1{fill:#52d4b3}.st2{fill:#7ad98c}.st3{fill:#29ccd9}</style><path d="M51.79 160.81l-2.26-12.27-1.5-9.86h-.15l-1.5 9.86-2.26 12.27h7.67zm1.81-30.95l9.34 45.18h-8.66l-1.36-6.78h-9.94l-1.35 6.78h-8.66l9.34-45.18H53.6zm-42.77 45.18H2.17v-45.18h8.66v45.18zm68.3 0h-8.66v-45.18h8.66v45.18zm-50.46 0h-9.71l-7.68-22.82 7.91-22.36h8.96l-8.58 22.36 9.1 22.82zm84.34 0h-25v-6.11l14.91-31.47H89.14v-7.61h23.87v6.17l-14.91 31.4h14.91v7.62zm30.27-19.2h-11.59v11.6h13.1v7.61h-21.76v-45.18h21.76v7.61h-13.1v10.92h11.59v7.44zm30.95-25.98h7.6v45.18h-7l-12.42-28.7.98 8.81v19.88h-7.61v-45.18h7.53l11.9 28.69-.98-8.81v-19.87z" fill="#1a171b"/><path class="st1" d="M92.42 12.95c7.91 0 14.34 6.43 14.34 14.34a14.3 14.3 0 01-9.84 13.55 25.09 25.09 0 01-5.93 11.71c.48.02.94.07 1.43.07a25.37 25.37 0 0025.33-25.33A25.36 25.36 0 0092.42 1.96a25.25 25.25 0 00-18.86 8.48c4.49.25 8.77 1.65 12.46 4.09a14.12 14.12 0 016.4-1.58zM92.42 99.05a14.3 14.3 0 01-4.5-27.88 25.04 25.04 0 015.93-11.71c-.48-.03-.94-.07-1.43-.07a25.35 25.35 0 00-25.33 25.33 25.36 25.36 0 0025.33 25.33c7.49 0 14.22-3.29 18.86-8.49a25.06 25.06 0 01-12.46-4.08 14.24 14.24 0 01-6.4 1.57z"/><path class="st2" d="M61.97 25.56a14.35 14.35 0 0120.28-.01 14.31 14.31 0 012.62 16.54 25.1 25.1 0 014.09 12.47c.35-.31.71-.61 1.06-.96a25.36 25.36 0 000-35.82 25.37 25.37 0 00-35.82 0 25.27 25.27 0 00-7.34 19.33c3.36-3 7.37-5.03 11.7-5.92.69-2.05 1.78-4 3.41-5.63z"/><path class="st3" d="M122.86 86.44a14.36 14.36 0 01-20.28 0 14.33 14.33 0 01-2.62-16.54 25 25 0 01-4.09-12.47c-.36.32-.72.62-1.06.96a25.37 25.37 0 000 35.82 25.37 25.37 0 0035.82 0 25.19 25.19 0 007.33-19.33 25.1 25.1 0 01-11.69 5.92 14.06 14.06 0 01-3.41 5.64z"/><path d="M49.37 56.01c0-7.91 6.44-14.35 14.34-14.35a14.3 14.3 0 0113.55 9.84c4.34.89 8.36 2.92 11.72 5.92.02-.47.07-.94.07-1.43A25.38 25.38 0 0063.7 30.67 25.37 25.37 0 0038.37 56c0 7.49 3.29 14.22 8.48 18.86a25.23 25.23 0 014.08-12.47 14.28 14.28 0 01-1.56-6.38z" fill="#a3de66"/><path d="M135.47 56c0 7.91-6.43 14.33-14.34 14.34a14.3 14.3 0 01-13.54-9.84 24.86 24.86 0 01-11.71-5.93c-.03.47-.07.94-.07 1.43a25.37 25.37 0 0025.33 25.33A25.36 25.36 0 00146.47 56c0-7.49-3.29-14.22-8.49-18.86a25.06 25.06 0 01-4.08 12.45c.97 1.94 1.57 4.1 1.57 6.41z" fill="#00c7ff"/><path class="st2" d="M61.98 86.45a14.37 14.37 0 01-.01-20.28 14.3 14.3 0 0116.54-2.62 25.25 25.25 0 0112.47-4.1c-.31-.35-.61-.71-.96-1.06a25.37 25.37 0 00-35.82 0 25.38 25.38 0 000 35.83 25.26 25.26 0 0019.33 7.33c-3-3.35-5.03-7.36-5.93-11.7a14.1 14.1 0 01-5.62-3.4z"/><path class="st3" d="M122.86 25.56a14.36 14.36 0 010 20.28 14.33 14.33 0 01-16.54 2.62 24.9 24.9 0 01-12.47 4.09c.31.36.61.72.96 1.06a25.37 25.37 0 0035.82 0 25.36 25.36 0 000-35.82 25.17 25.17 0 00-19.33-7.33 25.1 25.1 0 015.92 11.69c2.06.68 4.01 1.78 5.64 3.41z"/></svg>
