<svg width="131" height="42" viewBox="0 0 131 42" fill="none" xmlns="http://www.w3.org/2000/svg">
<path d="M8.98553 41.1153C4.02255 41.1153 0 37.1403 0 32.231V8.88888C0 3.97959 4.02255 0 8.98553 0C13.9485 0 17.9711 3.97959 17.9711 8.88888V32.231C17.9711 37.1403 13.9485 41.1153 8.98553 41.1153Z" fill="#2D8EF0"/>
<path d="M32.1332 41.1205C37.0958 41.1205 41.1188 37.0975 41.1188 32.1349C41.1188 27.1724 37.0958 23.1494 32.1332 23.1494C27.1707 23.1494 23.1477 27.1724 23.1477 32.1349C23.1477 37.0975 27.1707 41.1205 32.1332 41.1205Z" fill="#2D8EF0"/>
<path d="M32.1332 17.9711C37.0958 17.9711 41.1188 13.9481 41.1188 8.98553C41.1188 4.02296 37.0958 0 32.1332 0C27.1707 0 23.1477 4.02296 23.1477 8.98553C23.1477 13.9481 27.1707 17.9711 32.1332 17.9711Z" fill="#2D8EF0"/>
<path fill-rule="evenodd" clip-rule="evenodd" d="M108.32 29.322C108.875 29.5516 109.469 29.6696 110.07 29.6692C110.671 29.6692 111.266 29.5506 111.822 29.3202C112.377 29.0898 112.881 28.7521 113.306 28.3265C113.731 27.9009 114.067 27.3956 114.296 26.8398C114.525 26.2839 114.642 25.6883 114.641 25.0871V23.509C114.64 22.779 114.42 22.066 114.012 21.4612C113.603 20.8564 113.023 20.3873 112.346 20.1139L109.057 18.726C108.851 18.6395 108.676 18.4944 108.553 18.3089C108.43 18.1234 108.364 17.9057 108.364 17.683V16.7405C108.364 16.2881 108.544 15.8542 108.864 15.5344C109.184 15.2145 109.617 15.0348 110.07 15.0348C110.522 15.0355 110.955 15.2155 111.274 15.5353C111.593 15.8551 111.773 16.2886 111.773 16.7405V16.9822C111.773 17.0542 111.801 17.1233 111.852 17.1743C111.903 17.2252 111.972 17.2538 112.044 17.2538H114.369C114.441 17.2538 114.511 17.2252 114.561 17.1743C114.612 17.1233 114.641 17.0542 114.641 16.9822V16.7568C114.641 15.5444 114.159 14.3817 113.302 13.5244C112.445 12.6672 111.282 12.1855 110.07 12.1855C109.469 12.1852 108.875 12.3032 108.32 12.5327C107.765 12.7623 107.26 13.099 106.836 13.5235C106.411 13.948 106.074 14.452 105.844 15.0068C105.614 15.5616 105.496 16.1562 105.496 16.7568V17.7319C105.496 18.4704 105.714 19.1925 106.122 19.808C106.53 20.4234 107.111 20.9049 107.791 21.1922L111.08 22.5801C111.282 22.6525 111.457 22.7851 111.58 22.96C111.704 23.1349 111.771 23.3436 111.773 23.5579V25.1034C111.773 25.5553 111.593 25.9888 111.274 26.3086C110.955 26.6284 110.522 26.8084 110.07 26.8091C109.617 26.8091 109.184 26.6294 108.864 26.3095C108.544 25.9896 108.364 25.5558 108.364 25.1034V24.859C108.364 24.7869 108.335 24.7178 108.284 24.6669C108.234 24.616 108.164 24.5873 108.092 24.5873H105.767C105.695 24.5873 105.626 24.616 105.575 24.6669C105.524 24.7178 105.496 24.7869 105.496 24.859V25.098C105.496 25.6985 105.614 26.2931 105.844 26.8479C106.074 27.4027 106.411 27.9068 106.836 28.3313C107.26 28.7558 107.765 29.0924 108.32 29.322ZM98.5358 12.3153C98.4916 12.3008 98.4448 12.2963 98.3987 12.302L96.1688 12.2911C96.1221 12.2847 96.0746 12.2893 96.03 12.3044C95.9854 12.3195 95.9449 12.3448 95.9117 12.3783C95.8785 12.4117 95.8536 12.4524 95.8388 12.4971C95.824 12.5419 95.8198 12.5894 95.8266 12.6361V21.7323H95.6989L92.4396 12.5627C92.4175 12.4793 92.3668 12.4063 92.2962 12.3567C92.2257 12.307 92.1399 12.2838 92.0539 12.2911H89.9353C89.8891 12.2869 89.8425 12.2929 89.7989 12.3088C89.7552 12.3247 89.7156 12.35 89.6829 12.383C89.6502 12.4159 89.6252 12.4557 89.6097 12.4995C89.5942 12.5432 89.5885 12.5899 89.5931 12.6361V29.2125C89.5885 29.2587 89.5942 29.3054 89.6097 29.3491C89.6252 29.3929 89.6502 29.4327 89.6829 29.4656C89.7156 29.4986 89.7552 29.5239 89.7989 29.5398C89.8425 29.5557 89.8891 29.5617 89.9353 29.5575H92.1625C92.2091 29.5633 92.2564 29.5583 92.3007 29.543C92.3451 29.5277 92.3853 29.5024 92.4184 29.4691C92.4514 29.4358 92.4764 29.3953 92.4914 29.3508C92.5064 29.3064 92.5109 29.259 92.5048 29.2125V20.0619H92.627L95.9053 29.2777C95.9279 29.3608 95.9788 29.4335 96.0492 29.4831C96.1196 29.5327 96.2052 29.5561 96.291 29.5493H98.4096C98.4558 29.5535 98.5024 29.5475 98.5461 29.5316C98.5897 29.5157 98.6293 29.4904 98.662 29.4575C98.6947 29.4245 98.7197 29.3847 98.7352 29.341C98.7508 29.2972 98.7564 29.2506 98.7518 29.2044V12.6361C98.755 12.5897 98.7479 12.5432 98.731 12.5C98.714 12.4567 98.6878 12.4177 98.654 12.3858C98.6203 12.3539 98.5799 12.3298 98.5358 12.3153ZM82.8136 14.8086C82.8136 15.0259 82.7294 15.178 82.4714 15.178H76.5204V19.4912H81.2084C81.2563 19.4879 81.3044 19.4953 81.3491 19.513C81.3938 19.5306 81.434 19.558 81.4668 19.5931C81.4995 19.6282 81.5241 19.6702 81.5386 19.716C81.5531 19.7618 81.5572 19.8103 81.5506 19.8578V21.9954C81.5572 22.043 81.5531 22.0915 81.5386 22.1373C81.5241 22.1831 81.4995 22.2251 81.4668 22.2602C81.434 22.2953 81.3938 22.3227 81.3491 22.3403C81.3044 22.3579 81.2563 22.3654 81.2084 22.3621H76.5204V26.7079H82.4714C82.743 26.7079 82.8136 26.8165 82.8136 27.0528V29.2122C82.8136 29.4267 82.7294 29.5571 82.4714 29.5571H73.9917C73.947 29.559 73.9024 29.5511 73.861 29.5341C73.8196 29.5171 73.7824 29.4913 73.7519 29.4585C73.7215 29.4257 73.6985 29.3867 73.6845 29.3442C73.6706 29.3017 73.666 29.2566 73.6712 29.2122V12.6357C73.666 12.5912 73.6706 12.5462 73.6845 12.5037C73.6985 12.4611 73.7215 12.4221 73.7519 12.3894C73.7824 12.3566 73.8196 12.3308 73.861 12.3138C73.9024 12.2967 73.947 12.2889 73.9917 12.2908H82.4714C82.743 12.2908 82.8136 12.4184 82.8136 12.6357V14.8086ZM64.352 29.5629C64.2456 29.572 64.1393 29.5451 64.0502 29.4865C63.961 29.4279 63.8941 29.3409 63.8604 29.2397L61.1633 22.8296L60.6499 24.3615V29.131C60.6574 29.1893 60.6514 29.2485 60.6325 29.3041C60.6137 29.3597 60.5823 29.4102 60.5409 29.4519C60.4995 29.4935 60.4492 29.5252 60.3937 29.5444C60.3382 29.5637 60.2791 29.57 60.2208 29.5629H58.1674C58.1091 29.57 58.0499 29.5637 57.9945 29.5444C57.939 29.5252 57.8886 29.4935 57.8472 29.4519C57.8058 29.4102 57.7745 29.3597 57.7556 29.3041C57.7367 29.2485 57.7308 29.1893 57.7382 29.131V12.7338C57.7308 12.6756 57.7367 12.6164 57.7556 12.5608C57.7745 12.5052 57.8058 12.4546 57.8472 12.413C57.8886 12.3713 57.939 12.3397 57.9945 12.3204C58.0499 12.3012 58.1091 12.2949 58.1674 12.302H60.2208C60.2791 12.2949 60.3382 12.3012 60.3937 12.3204C60.4492 12.3397 60.4995 12.3713 60.5409 12.413C60.5823 12.4546 60.6137 12.5052 60.6325 12.5608C60.6514 12.6164 60.6574 12.6756 60.6499 12.7338V19.4263L63.6675 12.636C63.7061 12.538 63.7741 12.4544 63.8621 12.3965C63.9501 12.3386 64.0539 12.3094 64.1591 12.3128H66.4081C66.7313 12.3128 66.859 12.5274 66.7096 12.8316L63.07 20.3498L66.9459 29.0658C67.0953 29.3374 66.9649 29.5629 66.6227 29.5629H64.352ZM130.112 12.3013C130.168 12.3017 130.224 12.3131 130.276 12.335C130.328 12.3569 130.375 12.3888 130.414 12.4289C130.454 12.469 130.485 12.5165 130.507 12.5687C130.528 12.6209 130.539 12.6768 130.538 12.7332V25.0969C130.539 25.6973 130.421 26.2919 130.191 26.8467C129.961 27.4015 129.625 27.9055 129.2 28.3301C128.776 28.7546 128.272 29.0913 127.717 29.3209C127.162 29.5505 126.567 29.6685 125.967 29.6682C125.367 29.6685 124.772 29.5505 124.217 29.3209C123.662 29.0913 123.158 28.7546 122.734 28.3301C122.309 27.9055 121.973 27.4015 121.743 26.8467C121.513 26.2919 121.395 25.6973 121.396 25.0969V12.7332C121.396 12.6191 121.441 12.5097 121.521 12.4287C121.602 12.3478 121.711 12.302 121.825 12.3013H123.878C123.992 12.302 124.102 12.3478 124.182 12.4287C124.262 12.5097 124.307 12.6191 124.307 12.7332V25.0833C124.307 25.535 124.487 25.9682 124.806 26.2876C125.126 26.6069 125.559 26.7864 126.01 26.7864C126.462 26.7864 126.895 26.6069 127.215 26.2876C127.534 25.9682 127.713 25.535 127.713 25.0833V12.7332C127.713 12.6768 127.724 12.6209 127.745 12.5687C127.766 12.5165 127.798 12.469 127.837 12.4289C127.877 12.3888 127.924 12.3569 127.976 12.335C128.028 12.3131 128.084 12.3017 128.14 12.3013H130.112Z" fill="#002A54"/>
</svg>
