<svg width="128" height="37" viewBox="0 0 128 37" fill="none" xmlns="http://www.w3.org/2000/svg">
<path d="M0 32.6069V2.02734H5.22654V32.6069H0Z" fill="#00D586"/>
<path d="M14.2098 24.3973C14.9432 27.1014 16.7306 28.5683 19.2946 28.5683C20.9895 28.5683 22.5488 27.9736 23.6089 26.8734C23.837 26.69 24.159 26.1846 24.6629 25.4512L29.0635 27.2848C27.78 29.4851 27.3686 29.9443 26.0835 30.9982C24.1417 32.4954 21.7558 33.3017 19.3038 33.2895C13.3901 33.2895 8.85229 28.5683 8.85229 22.4265C8.85229 16.3756 13.3901 11.6083 19.1205 11.6083C23.5673 11.6083 27.3255 14.4958 28.6552 18.8965C29.0342 20.207 29.2175 21.5663 29.1991 22.9304C29.1991 23.2509 29.1991 23.6176 29.1529 24.3973H14.2098ZM23.9741 20.5005C23.0496 17.6129 21.498 16.2385 19.1143 16.2385C16.6397 16.2385 14.897 17.7963 14.2098 20.5005H23.9741Z" fill="#00D586"/>
<path d="M47.6721 32.6069V31.3234C45.7923 32.7456 44.3254 33.2941 42.2175 33.2941C36.2575 33.2941 31.5364 28.4821 31.5364 22.4312C31.5364 16.4219 36.2575 11.6129 42.2175 11.6129C44.3254 11.6129 45.7923 12.163 47.6721 13.5837V12.2955H52.8986V32.6069H47.6721ZM36.8076 22.4373C36.8076 26.0583 39.0541 28.5791 42.3084 28.5791C45.5627 28.5791 47.7645 26.0583 47.7645 22.4373C47.7645 18.7701 45.5642 16.3402 42.2175 16.3402C39.0603 16.3294 36.8076 18.8503 36.8076 22.4265V22.4373Z" fill="#00D586"/>
<path d="M77.8342 22.197C77.8342 30.3111 72.6539 33.2911 67.2024 33.2911C60.324 33.2895 56.4719 28.2926 56.4719 22.2432C56.4719 16.0552 60.7863 11.6114 66.8772 11.6114C70.5891 11.6114 72.6076 13.5821 72.6076 13.5821V2.02582H77.8326L77.8342 22.197ZM61.7447 22.4266C61.7447 26.0476 63.9019 28.5684 67.2455 28.5684C70.7293 28.5684 72.5629 25.8642 72.5629 22.2509C72.5629 18.6746 70.4535 16.3372 67.3364 16.3372C63.9912 16.3295 61.7447 18.8056 61.7447 22.4266V22.4266Z" fill="#00D586"/>
<path d="M88.5214 5.37405C88.5152 6.24326 88.1641 7.07444 87.5451 7.68473C86.9262 8.29502 86.0901 8.63444 85.2209 8.62831C84.3517 8.62218 83.5205 8.27101 82.9102 7.65205C82.2999 7.03309 81.9605 6.19704 81.9666 5.32782C81.9666 3.58667 83.4335 2.16602 85.3133 2.16602C86.1609 2.17641 86.9709 2.51773 87.5703 3.11712C88.1697 3.7165 88.511 4.52645 88.5214 5.37405V5.37405ZM87.8265 32.6069H82.6015V12.2955H87.8265V32.6069Z" fill="#00D586"/>
<path d="M112.428 27.4466C109.825 28.4834 106.939 28.5592 104.286 27.6603C101.633 26.7614 99.3872 24.9467 97.9513 22.5416C96.5154 20.1366 95.9833 17.2986 96.4506 14.5367C96.9179 11.7749 98.3539 9.2699 100.501 7.4711C102.648 5.6723 105.366 4.6974 108.167 4.72127C110.968 4.74514 113.669 5.76622 115.785 7.60136C117.901 9.43649 119.295 11.9656 119.715 14.735C120.135 17.5044 119.555 20.3329 118.078 22.7131L121.543 26.1785C123.91 22.8677 124.973 18.8012 124.531 14.7558C124.089 10.7103 122.173 6.96945 119.148 4.24757C116.122 1.5257 112.2 0.0136029 108.131 9.13359e-05C104.061 -0.0134202 100.13 1.4726 97.0864 4.17432C94.0431 6.87605 92.1017 10.6041 91.6329 14.6466C91.1642 18.689 92.2009 22.7624 94.5452 26.0889C96.8894 29.4153 100.377 31.7617 104.341 32.6798C108.306 33.5979 112.47 33.0234 116.038 31.0661L112.428 27.4466Z" fill="#00D586"/>
<path d="M121.669 25.9674C120.218 28.0628 118.304 29.7966 116.076 31.0352L121.985 36.9444L127.273 31.5715L121.669 25.9674Z" fill="#00D586"/>
</svg>
