<?xml version="1.0" encoding="UTF-8" standalone="no"?>
<!-- Created with Inkscape (http://www.inkscape.org/) -->

<svg
   xmlns:dc="http://purl.org/dc/elements/1.1/"
   xmlns:cc="http://creativecommons.org/ns#"
   xmlns:rdf="http://www.w3.org/1999/02/22-rdf-syntax-ns#"
   xmlns:svg="http://www.w3.org/2000/svg"
   xmlns="http://www.w3.org/2000/svg"
   xmlns:sodipodi="http://sodipodi.sourceforge.net/DTD/sodipodi-0.dtd"
   xmlns:inkscape="http://www.inkscape.org/namespaces/inkscape"
   width="174"
   height="123"
   viewBox="0 0 46.037491 32.543753"
   version="1.1"
   id="svg3885"
   inkscape:version="0.92.2 (5c3e80d, 2017-08-06)"
   sodipodi:docname="Logo.svg">
  <defs
     id="defs3879" />
  <sodipodi:namedview
     id="base"
     pagecolor="#ffffff"
     bordercolor="#666666"
     borderopacity="1.0"
     inkscape:pageopacity="0.0"
     inkscape:pageshadow="2"
     inkscape:zoom="1.16"
     inkscape:cx="119.16935"
     inkscape:cy="42.844828"
     inkscape:document-units="mm"
     inkscape:current-layer="layer1"
     showgrid="false"
     units="px"
     inkscape:window-width="1130"
     inkscape:window-height="681"
     inkscape:window-x="491"
     inkscape:window-y="23"
     inkscape:window-maximized="0" />
  <metadata
     id="metadata3882">
    <rdf:RDF>
      <cc:Work
         rdf:about="">
        <dc:format>image/svg+xml</dc:format>
        <dc:type
           rdf:resource="http://purl.org/dc/dcmitype/StillImage" />
        <dc:title></dc:title>
      </cc:Work>
    </rdf:RDF>
  </metadata>
  <g
     inkscape:label="Ebene 1"
     inkscape:groupmode="layer"
     id="layer1"
     transform="translate(0,-264.45622)">
    <g
       style="clip-rule:evenodd;fill-rule:evenodd;image-rendering:optimizeQuality;shape-rendering:geometricPrecision;text-rendering:geometricPrecision"
       id="_334883624"
       transform="matrix(0.02540025,0,0,0.02540025,-53.849899,195.64075)">
      <path
         class="fil3"
         d="m 3589,3346 c 0,-267 -216,-483 -483,-483 v -123 c 335,0 606,271 606,606 3,2 -127,-1 -123,0 z"
         id="path3830"
         inkscape:connector-curvature="0"
         style="fill:#d8cd9a;fill-rule:nonzero" />
    </g>
    <g
       style="clip-rule:evenodd;fill-rule:evenodd;image-rendering:optimizeQuality;shape-rendering:geometricPrecision;text-rendering:geometricPrecision"
       id="_334884272"
       transform="matrix(0.02540025,0,0,0.02540025,-53.849899,195.64075)">
      <path
         class="fil3"
         d="m 3412,3345 c 0,-267 216,-483 483,-483 v -123 c -335,0 -606,271 -606,606 -3,2 127,-1 123,0 z"
         id="path3833"
         inkscape:connector-curvature="0"
         style="fill:#d8cd9a;fill-rule:nonzero" />
    </g>
    <g
       style="clip-rule:evenodd;fill-rule:evenodd;image-rendering:optimizeQuality;shape-rendering:geometricPrecision;text-rendering:geometricPrecision"
       id="_334883936"
       transform="matrix(0.02540025,0,0,0.02540025,-53.849899,195.64075)">
      <path
         class="fil4"
         d="m 3412,3333 c 0,267 216,483 483,483 v 123 c -335,0 -606,-271 -606,-606 -3,-2 127,1 123,0 z"
         id="path3839"
         inkscape:connector-curvature="0"
         style="fill:#4d318c;fill-rule:nonzero" />
    </g>
    <g
       style="clip-rule:evenodd;fill-rule:evenodd;image-rendering:optimizeQuality;shape-rendering:geometricPrecision;text-rendering:geometricPrecision"
       id="_334884584"
       transform="matrix(0.02540025,0,0,0.02540025,-53.849899,195.64075)">
      <path
         class="fil5"
         d="m 2656,3345 c 0,-267 -216,-483 -483,-483 v -123 c 335,0 606,271 606,606 3,2 -127,-1 -123,0 z"
         id="path3842"
         inkscape:connector-curvature="0"
         style="fill:#086433;fill-rule:nonzero" />
    </g>
    <g
       style="clip-rule:evenodd;fill-rule:evenodd;image-rendering:optimizeQuality;shape-rendering:geometricPrecision;text-rendering:geometricPrecision"
       id="_334884128"
       transform="matrix(0.02540025,0,0,0.02540025,-53.849899,195.64075)">
      <path
         class="fil5"
         d="m 2480,3345 c 0,-267 216,-483 483,-483 v -123 c -335,0 -606,271 -606,606 -3,2 127,-1 123,0 z"
         id="path3845"
         inkscape:connector-curvature="0"
         style="fill:#086433;fill-rule:nonzero" />
    </g>
    <path
       class="fil6"
       d="m 13.638568,280.29999 c -0.0254,6.78187 -5.4864528,12.26832 -12.2683159,12.29372 v 3.12423 c 8.5090792,0 15.3925469,-6.90886 15.3925469,-15.41795 0.0762,-0.0508 -3.225832,0.0254 -3.124231,0 z"
       id="path3848"
       inkscape:connector-curvature="0"
       style="clip-rule:evenodd;fill:#a5a3a3;fill-rule:nonzero;stroke-width:0.02540025;image-rendering:optimizeQuality;shape-rendering:geometricPrecision;text-rendering:geometricPrecision" />
    <path
       class="fil6"
       d="m 9.1427246,280.29999 c 0,6.78187 5.4864524,12.26832 12.2683214,12.26832 v 3.12423 c -8.509086,0 -15.3925506,-6.88346 -15.3925506,-15.39255 -0.0762,-0.0508 3.2258302,0.0254 3.1242292,0 z"
       id="path3850"
       inkscape:connector-curvature="0"
       style="clip-rule:evenodd;fill:#a5a3a3;fill-rule:nonzero;stroke-width:0.02540025;image-rendering:optimizeQuality;shape-rendering:geometricPrecision;text-rendering:geometricPrecision" />
    <g
       transform="matrix(0.02540025,0,0,0.02540025,-53.849899,195.97095)"
       style="clip-rule:evenodd;fill-rule:evenodd;image-rendering:optimizeQuality;shape-rendering:geometricPrecision;text-rendering:geometricPrecision"
       id="_334884104">
      <path
         class="fil4"
         d="m 3589,3333 c 0,267 -216,483 -483,484 v 123 c 335,0 606,-272 606,-607 3,-2 -127,1 -123,0 z"
         id="path3836"
         inkscape:connector-curvature="0"
         style="fill:#4d318c;fill-rule:nonzero" />
    </g>
  </g>
</svg>
