<svg xmlns="http://www.w3.org/2000/svg" viewBox="0 0 673 114" width="337" height="57"><style>tspan { white-space:pre }</style><path fill="#390261" d="M63.26 91C64.34 91 65.45 90.4 65.52 89.08C66.18 85.6 73.58 29.2 74.19 17.44C74.58 10.12 73.12 5.8 62.68 5.8L56.08 5.8C54.64 5.8 54.02 6.28 53.99 6.88C53.24 21.04 52.47 42.76 51.47 61.72C47.14 50.56 45.31 46.48 35.1 16.84C33.13 11.08 31.36 5.8 20.68 5.8L11.08 5.8C9.64 5.8 9.14 6.28 9.07 7.6C8.43 15.28 7.62 21.52 4.43 45.76C2.42 61.12 0.43 76.36 0.22 80.32C-0.15 87.28 3.14 91 12.14 91L18.74 91C20.18 91 20.7 90.28 20.75 89.2C21.41 72.04 21.84 54.76 22.62 37.6C29.23 53.44 35.5 68.92 42.88 85.96C44.17 88.84 46.94 91 53.42 91ZM112.5 23.8C99.3 23.8 84.72 29.56 83.86 46C82.69 68.32 109.17 64.36 108.7 73.48C108.52 76.84 104.77 77.44 100.81 77.44C90.25 77.44 89.16 73 85.2 73C80.52 73 77.91 79.36 77.76 82.12C77.37 89.68 93.68 92.2 102.68 92.2C118.88 92.2 127.58 84.04 128.19 72.52C129.31 51.04 100.56 54.76 101.08 44.8C101.25 41.56 104.37 39.16 108.81 39.16C115.41 39.16 115.38 44.32 115.35 47.2C115.28 48.52 115.87 48.88 118.15 48.88C126.43 48.88 131.19 45.04 131.55 38.08C131.99 29.8 125.94 23.8 112.5 23.8ZM173.9 91C181.1 91 182.83 87.76 183.44 82.96L184.29 75.88C184.35 74.8 183.42 74.2 182.46 74.2L160.86 74.2L167.76 18.16C167.79 17.44 167.95 16.72 167.99 16C168.34 9.28 165.52 5.8 156.64 5.8L150.04 5.8C148.72 5.8 148.1 6.28 148.03 7.6C147.6 15.76 139.66 71.08 139.15 80.8C138.81 87.28 142.22 91 151.1 91ZM217.4 92.2C247.52 92.2 254.6 67 255.39 51.88C256.32 34.12 248.82 23.8 228.66 23.8C201.18 23.8 191.66 42.88 190.65 62.2C189.77 78.88 195.44 92.2 217.4 92.2ZM225.78 39.76C232.86 39.76 235.37 44.68 234.95 52.6C234.56 60.04 231.31 76.24 220.03 76.24C213.79 76.24 210.56 71.44 211.12 60.88C211.48 54.04 213.66 39.76 225.78 39.76ZM289.16 92.2C319.28 92.2 326.36 67 327.15 51.88C328.08 34.12 320.58 23.8 300.42 23.8C272.94 23.8 263.42 42.88 262.41 62.2C261.53 78.88 267.2 92.2 289.16 92.2ZM297.54 39.76C304.62 39.76 307.13 44.68 306.71 52.6C306.32 60.04 303.07 76.24 291.79 76.24C285.55 76.24 282.32 71.44 282.88 60.88C283.24 54.04 285.42 39.76 297.54 39.76ZM391.61 81.28C391.71 79.36 380.63 68.68 367.97 53.8C383.18 47.44 391.01 42.4 391.24 37.84C391.44 34.12 386.45 23.92 382.97 23.92C382.37 23.92 381.03 24.28 379.53 25.6L359.41 43.12C361.27 28.24 362.88 15.76 363.04 12.64C363.33 7.12 360.95 2.2 351.11 2.2L346.43 2.2C345.35 2.2 344.87 2.2 344.49 2.56C344.11 2.92 343.95 3.76 343.73 5.68C336.41 69.76 334.9 73.36 334.59 79.24C334.19 86.92 336.26 91 346.22 91L350.54 91C352.58 91 353.08 90.52 353.3 88.6C354.3 81.04 355.46 72.64 356.5 64.24C364.19 80.08 371.96 92.2 380.48 92.2C387.8 92.2 391.52 82.96 391.61 81.28ZM424.62 35.2C424.96 28.84 422.76 25 412.8 25L408.96 25C406.68 25 405.79 25.84 405.4 28.72C404.51 34.24 400.4 67 400.07 73.24C399.52 83.8 406.16 92.2 418.4 92.2C424.76 92.2 432.21 89.56 437.45 81.16C437.54 86.32 439.82 91 449.42 91L454.1 91C456.38 91 456.38 90.88 456.8 87.52C461.17 52.24 462.82 41.32 463.08 36.4C463.46 29.08 461.28 25 451.44 25L447.12 25C445.32 25 444.54 26.08 444.35 27.4C442.13 42.4 440.84 76.12 427.88 76.12C422.96 76.12 420.13 72.76 420.42 67.24C420.69 62.2 424.28 41.8 424.62 35.2ZM515.82 23.8C507.18 23.8 501.38 26.8 497.28 34.12C497.54 29.2 493.92 25 485.4 25L480.72 25C479.64 25 479.16 25 478.78 25.36C478.4 25.72 478.24 26.56 478.01 28.48C476.82 37.6 469.03 96.88 468.77 101.8C468.39 109.12 470.57 113.2 480.41 113.2L484.73 113.2C486.77 113.2 487.28 112.72 487.5 110.8C490.58 88.6 489.08 98.92 491.55 81.64C493.96 88.24 498.2 92.2 506.6 92.2C522.56 92.2 535.68 77.68 536.98 52.72C538.03 32.8 530.7 23.8 515.82 23.8ZM506.22 39.76C514.38 39.76 515.67 47.32 515.25 55.36C514.5 69.64 508.87 76.24 502.03 76.24C494.23 76.24 492.88 67.72 493.31 59.44C493.95 47.32 498.18 39.76 506.22 39.76ZM554.82 69.64C545.82 69.64 542.72 76 542.39 82.36C542.1 87.88 543.92 92.2 551.24 92.2C561.08 92.2 563.43 83.92 563.69 79C564 73.12 561.54 69.64 554.82 69.64ZM591.02 91C593.06 91 593.56 90.52 593.78 88.6C598.35 54.16 600.14 40.6 600.38 35.92C600.74 29.08 598.56 25 588.72 25L584.04 25C582.96 25 582.48 25 582.1 25.36C581.72 25.72 581.56 26.56 581.33 28.48C576.97 63.76 575.31 74.68 575.06 79.6C574.67 86.92 576.86 91 586.7 91ZM582.38 10.84C582.11 16 585.34 18.52 591.7 18.52C600.1 18.52 604.89 14.08 605.2 8.2C605.44 3.52 602.6 0.52 595.76 0.52C587.96 0.52 582.71 4.48 582.38 10.84ZM634.88 92.2C665 92.2 672.08 67 672.87 51.88C673.8 34.12 666.3 23.8 646.14 23.8C618.66 23.8 609.14 42.88 608.13 62.2C607.25 78.88 612.92 92.2 634.88 92.2ZM643.26 39.76C650.34 39.76 652.85 44.68 652.43 52.6C652.04 60.04 648.79 76.24 637.51 76.24C631.27 76.24 628.04 71.44 628.6 60.88C628.96 54.04 631.14 39.76 643.26 39.76Z" /></svg>