<svg width="78" height="78" viewBox="0 0 78 78" fill="none" xmlns="http://www.w3.org/2000/svg">
<path d="M0 27.1573L2.07433e-05 0L72.6918 0L0 27.1573Z" fill="black"/>
<path d="M50.8438 77.9999L78.0011 77.9999V5.30811L50.8438 77.9999Z" fill="#FECC00"/>
<path d="M74.1211 4.08301L40.3074 77.9999H0V37.9786L74.1211 4.08301Z" fill="#FECC00"/>
<path d="M25.9823 34.1865C25.9823 36.107 25.477 37.7073 24.4662 38.9876C23.4802 40.2679 22.2352 41.1666 20.7314 41.6836C19.2523 42.176 17.539 42.4222 15.5914 42.4222H12.4483V52.2829H6.125V26.1355H15.7394C18.8455 26.1355 21.3231 26.7756 23.172 28.0559C25.0456 29.3116 25.9823 31.3551 25.9823 34.1865ZM19.6591 34.2235C19.6591 32.2292 18.1799 31.232 15.2217 31.232H12.4483V37.3996H15.1107C18.1429 37.3996 19.6591 36.3409 19.6591 34.2235Z" fill="black"/>
<path d="M36.1384 52.2829H29.7781V26.1355H36.1384V52.2829Z" fill="black"/>
<path d="M71.4659 52.2829H65.2906L65.4385 33.7803H65.3275L58.5235 52.2829H54.0861L47.467 33.7803H47.3561L47.504 52.2829H41.5505V26.1355H50.5362L56.4897 42.9023H56.6376L62.3323 26.1355H71.4659V52.2829Z" fill="black"/>
<path d="M11.3933 60.4904L10.717 61.0293C10.3215 60.4748 9.74402 60.1975 8.98462 60.1975C8.5179 60.1975 8.1026 60.3342 7.73872 60.6075C7.37484 60.8809 7.1929 61.2636 7.1929 61.7556C7.1929 61.9586 7.2285 62.1422 7.2997 62.3062C7.3788 62.4702 7.46186 62.5991 7.54888 62.6928C7.63589 62.7865 7.77828 62.8841 7.97604 62.9856C8.18171 63.0872 8.33992 63.1575 8.45066 63.1965C8.56932 63.2356 8.75917 63.298 9.02022 63.3839C9.28917 63.4699 9.4632 63.5284 9.5423 63.5597C9.62932 63.5831 9.78753 63.6417 10.0169 63.7354C10.2542 63.8291 10.4164 63.9111 10.5034 63.9814C10.5983 64.0439 10.7249 64.1415 10.8831 64.2743C11.0492 64.407 11.1639 64.5398 11.2272 64.6726C11.2984 64.8053 11.3617 64.9693 11.4171 65.1646C11.4804 65.3598 11.512 65.5746 11.512 65.8089C11.512 66.5821 11.2391 67.1756 10.6933 67.5896C10.1475 67.9957 9.50671 68.1987 8.77104 68.1987C8.24104 68.1987 7.73872 68.0933 7.2641 67.8824C6.79738 67.6716 6.41769 67.367 6.125 66.9687L6.86067 66.4298C7.05843 66.7422 7.32343 66.996 7.65567 67.1913C7.9879 67.3787 8.36365 67.4724 8.7829 67.4724C9.26544 67.4724 9.69655 67.3318 10.0763 67.0507C10.456 66.7617 10.6458 66.3673 10.6458 65.8675C10.6458 65.641 10.6023 65.4418 10.5153 65.27C10.4362 65.0904 10.3452 64.9459 10.2424 64.8366C10.1395 64.7272 9.97738 64.6218 9.75588 64.5203C9.5423 64.4109 9.36432 64.3328 9.22193 64.286C9.08745 64.2391 8.87782 64.1727 8.59305 64.0868C8.26081 63.9853 7.97999 63.8838 7.75059 63.7822C7.5291 63.6807 7.2997 63.5441 7.06238 63.3722C6.82507 63.2004 6.64313 62.9817 6.51657 62.7162C6.39791 62.4429 6.33858 62.1266 6.33858 61.7673C6.33858 61.2597 6.47702 60.8301 6.75388 60.4787C7.03866 60.1194 7.37485 59.8656 7.76246 59.7172C8.15798 59.561 8.57723 59.4829 9.02022 59.4829C9.55021 59.4829 10.0248 59.5805 10.4441 59.7758C10.8633 59.9632 11.1798 60.2014 11.3933 60.4904Z" fill="black"/>
<path d="M20.4047 60.7247C21.2353 61.5447 21.6506 62.5834 21.6506 63.8408C21.6506 65.0982 21.2353 66.1408 20.4047 66.9687C19.5741 67.7887 18.53 68.1987 17.2722 68.1987C16.0145 68.1987 14.9703 67.7887 14.1397 66.9687C13.3091 66.1408 12.8938 65.0982 12.8938 63.8408C12.8938 62.5834 13.3091 61.5447 14.1397 60.7247C14.9703 59.8968 16.0145 59.4829 17.2722 59.4829C18.53 59.4829 19.5741 59.8968 20.4047 60.7247ZM19.7877 66.4064C20.4285 65.7035 20.7488 64.8483 20.7488 63.8408C20.7488 62.8334 20.4285 61.9782 19.7877 61.2753C19.1549 60.5724 18.3164 60.221 17.2722 60.221C16.228 60.221 15.3856 60.5724 14.7448 61.2753C14.112 61.9782 13.7956 62.8334 13.7956 63.8408C13.7956 64.8483 14.112 65.7035 14.7448 66.4064C15.3856 67.1014 16.228 67.449 17.2722 67.449C18.3164 67.449 19.1549 67.1014 19.7877 66.4064Z" fill="black"/>
<path d="M24.2802 59.6938V67.2381H28.1958V67.9879H23.4258V59.6938H24.2802Z" fill="black"/>
<path d="M33.5633 67.9879C33.1915 68.1284 32.7643 68.1987 32.2818 68.1987C31.7992 68.1987 31.3681 68.1284 30.9884 67.9879C30.6166 67.8395 30.316 67.6559 30.0866 67.4373C29.8572 67.2186 29.6674 66.957 29.5171 66.6524C29.3747 66.3478 29.2758 66.0549 29.2205 65.7738C29.1651 65.4848 29.1374 65.1919 29.1374 64.8952V59.6938H29.9917V64.8014C29.9917 65.5512 30.1737 66.1799 30.5375 66.6875C30.9093 67.1952 31.4907 67.449 32.2818 67.449C33.0728 67.449 33.6503 67.1952 34.0142 66.6875C34.386 66.1799 34.5719 65.5512 34.5719 64.8014V59.6938H35.4262V64.8952C35.4262 65.1919 35.3985 65.4848 35.3431 65.7738C35.2877 66.0549 35.1849 66.3478 35.0346 66.6524C34.8922 66.957 34.7063 67.2186 34.4769 67.4373C34.2475 67.6559 33.943 67.8395 33.5633 67.9879Z" fill="black"/>
<path d="M40.3025 60.4435V67.9879H39.4482V60.4435H36.636V59.6938H43.1147V60.4435H40.3025Z" fill="black"/>
<path d="M45.2304 59.6938V67.9879H44.3761V59.6938H45.2304Z" fill="black"/>
<path d="M54.5185 60.7247C55.349 61.5447 55.7644 62.5834 55.7644 63.8408C55.7644 65.0982 55.349 66.1408 54.5185 66.9687C53.6879 67.7887 52.6437 68.1987 51.3859 68.1987C50.1282 68.1987 49.084 67.7887 48.2534 66.9687C47.4228 66.1408 47.0075 65.0982 47.0075 63.8408C47.0075 62.5834 47.4228 61.5447 48.2534 60.7247C49.084 59.8968 50.1282 59.4829 51.3859 59.4829C52.6437 59.4829 53.6879 59.8968 54.5185 60.7247ZM53.9014 66.4064C54.5422 65.7035 54.8626 64.8483 54.8626 63.8408C54.8626 62.8334 54.5422 61.9782 53.9014 61.2753C53.2686 60.5724 52.4301 60.221 51.3859 60.221C50.3418 60.221 49.4993 60.5724 48.8585 61.2753C48.2257 61.9782 47.9093 62.8334 47.9093 63.8408C47.9093 64.8483 48.2257 65.7035 48.8585 66.4064C49.4993 67.1014 50.3418 67.449 51.3859 67.449C52.4301 67.449 53.2686 67.1014 53.9014 66.4064Z" fill="black"/>
<path d="M58.6075 59.6938L63.4961 66.7578H63.5199V59.6938H64.3742V67.9879H63.3063L58.4176 60.8536H58.3939V67.9879H57.5396V59.6938H58.6075Z" fill="black"/>
<path d="M71.3473 60.4904L70.6709 61.0293C70.2754 60.4748 69.698 60.1975 68.9385 60.1975C68.4718 60.1975 68.0565 60.3342 67.6927 60.6075C67.3288 60.8809 67.1468 61.2636 67.1468 61.7556C67.1468 61.9586 67.1824 62.1422 67.2536 62.3062C67.3327 62.4702 67.4158 62.5991 67.5028 62.6928C67.5898 62.7865 67.7322 62.8841 67.93 62.9856C68.1356 63.0872 68.2938 63.1575 68.4046 63.1965C68.5232 63.2356 68.7131 63.298 68.9741 63.3839C69.2431 63.4699 69.4171 63.5284 69.4962 63.5597C69.5832 63.5831 69.7415 63.6417 69.9709 63.7354C70.2082 63.8291 70.3703 63.9111 70.4574 63.9814C70.5523 64.0439 70.6788 64.1415 70.837 64.2743C71.0032 64.407 71.1179 64.5398 71.1812 64.6726C71.2524 64.8053 71.3156 64.9693 71.371 65.1646C71.4343 65.3598 71.4659 65.5746 71.4659 65.8089C71.4659 66.5821 71.193 67.1756 70.6472 67.5896C70.1014 67.9957 69.4606 68.1987 68.725 68.1987C68.195 68.1987 67.6927 68.0933 67.218 67.8824C66.7513 67.6716 66.3716 67.367 66.0789 66.9687L66.8146 66.4298C67.0124 66.7422 67.2774 66.996 67.6096 67.1913C67.9418 67.3787 68.3176 67.4724 68.7368 67.4724C69.2194 67.4724 69.6505 67.3318 70.0302 67.0507C70.4099 66.7617 70.5997 66.3673 70.5997 65.8675C70.5997 65.641 70.5562 65.4418 70.4692 65.27C70.3901 65.0904 70.2991 64.9459 70.1963 64.8366C70.0935 64.7272 69.9313 64.6218 69.7098 64.5203C69.4962 64.4109 69.3183 64.3328 69.1759 64.286C69.0414 64.2391 68.8318 64.1727 68.547 64.0868C68.2147 63.9853 67.9339 63.8838 67.7045 63.7822C67.483 63.6807 67.2536 63.5441 67.0163 63.3722C66.779 63.2004 66.5971 62.9817 66.4705 62.7162C66.3518 62.4429 66.2925 62.1266 66.2925 61.7673C66.2925 61.2597 66.4309 60.8301 66.7078 60.4787C66.9926 60.1194 67.3288 59.8656 67.7164 59.7172C68.1119 59.561 68.5312 59.4829 68.9741 59.4829C69.5041 59.4829 69.9788 59.5805 70.398 59.7758C70.8173 59.9632 71.1337 60.2014 71.3473 60.4904Z" fill="black"/>
</svg>
