<svg version="1.2" baseProfile="tiny-ps" xmlns="http://www.w3.org/2000/svg" viewBox="0 0 2244 876" width="200" height="78">
	<title>logo-white-orange-transparent</title>
	<style>
		tspan { white-space:pre }
		.shp0 { fill: #f26101 } 
		.shp1 { fill: #ffffff } 
	</style>
	<path id="Path 1" class="shp0" d="M328.01 800.97C334.67 802.99 341.63 805.09 348.72 807.23C355.82 809.3 363.33 810.26 370.61 811.86C377.96 813.12 385.13 815.17 392.25 815.79C406.48 816.95 419.63 819.04 430.34 819.34C441.06 819.46 449.23 819.74 453.33 820.18C477.91 821.99 507.07 820.34 539.66 813.84C572.08 806.78 607.67 793.58 643.21 772C644.08 773.49 659.19 766.13 673.07 756.64C694.12 742.71 715.98 722.71 735.79 701C740.54 695.38 745.29 689.77 749.99 684.2C754.79 678.7 758.57 672.49 762.82 666.82C771.48 655.55 778.04 643.53 784.65 632.79C780.68 640.21 776.5 647.53 772.25 654.81C767.48 661.74 762.48 668.54 757.57 675.4C748.38 689.65 779.51 649.52 770.35 663.73C765.44 670.65 760.29 678.76 753.93 686.6C747.33 694.23 740.66 702.53 733.39 710.27C725.77 717.68 718.33 725.27 710.94 732.13C703.21 738.6 695.88 744.74 689.37 750.2L690.45 751.58C700.09 743.16 709.52 736.1 717.44 728.17C725.22 720.12 733.28 713.06 740.15 704.9C746.89 696.65 754.37 688.97 760.88 679.87C764.16 675.32 767.51 670.68 770.98 665.87C772.72 663.46 774.49 661.01 776.29 658.52C777.88 655.89 779.51 653.22 781.17 650.48C795.37 629.16 802.83 613.74 807.66 606.54C810.04 602.92 811.25 601.1 811.57 601.24C811.96 601.42 811.46 603.55 809.66 607.47C796.33 639.33 775.2 672.54 749.86 702.02C724.48 731.53 694.56 756.91 665.71 775.98C679.77 765.95 680.29 766.67 680.81 767.38C684.33 764.84 688.82 761.78 693.58 758.18C698.14 754.33 703.12 750.12 708.1 745.92C718.36 737.85 727.23 728.24 733.46 722.18C696.86 759.28 656.78 786.67 613.47 806.64C570.08 826.36 523.23 839.26 471.19 842.51L471.3 844.27L506.02 840.71C506.15 841.58 506.42 843.33 506.55 844.19C495.61 845.4 483.04 846.78 469.48 848.26C455.88 849.15 441.2 848.66 426.21 848.92C411.28 847.76 395.96 846.46 381.05 844.58C373.67 843.16 366.36 841.75 359.2 840.37C352.08 838.87 344.95 838.03 338.41 835.79C325.25 831.76 312.72 828.76 302.18 824.97C291.73 820.92 282.73 817.55 275.8 815.1C268.77 812.85 264.19 810.69 262.07 810.22C259.94 809.74 260.38 810.73 263.98 813.51C263.98 813.51 265.89 814.69 268.97 815.99C272.06 817.28 276.18 818.99 280.3 820.7C288.54 824.12 296.78 827.54 296.78 827.54C296.47 828.36 295.84 830.01 295.84 830.01C329.31 842.72 368.64 854.25 409.21 857.16L424.34 858.76C429.41 858.82 434.46 858.88 439.5 858.93C449.57 858.88 459.61 859.44 469.46 858.87C489.08 856.84 508.37 856.17 526.03 852.11C526.03 852.11 526.37 853.84 526.54 854.71C508.8 858.97 490.56 859.82 472.47 861.89C486.05 860.51 497.38 859.51 507.03 858.76C516.63 857.6 524.47 856.09 531.27 855.24C538.04 854.19 543.8 853.77 548.84 852.7C553.9 851.59 558.4 850.6 562.83 849.62C589.84 844.39 633.94 828.63 678.64 799.84C723.38 771.2 766.94 728.66 798.68 683.3C804.23 675.91 806.77 672.05 808.46 670.39C810.13 668.7 810.69 669.05 811.06 669.29C830.93 637.89 843.67 607.79 855.1 577.41C857.6 569.67 860.11 561.92 862.64 554.11C865.37 546.35 866.68 538.12 868.8 529.95C873.27 513.61 875.04 496.18 877.81 477.72C874.4 514.9 866.5 551.63 854.2 586.93C841.66 622.17 824.01 655.42 803.06 686.31C782.28 717.41 756.39 744.85 728.23 769.3C720.95 775.15 714.24 781.72 706.46 786.93L683.59 803.15C667.57 812.75 651.78 822.85 634.68 830.45C618.1 839.16 600.32 845.13 582.88 851.77C564.93 856.92 547.12 862.66 528.66 865.67C510.47 870.02 491.75 870.94 473.22 873.06C468.59 873.7 463.92 873.83 459.25 873.76L445.24 873.82L431.22 873.86C426.55 873.92 421.87 873.92 417.23 873.32C342.75 868.2 268.93 845.6 205.94 804.6C190.35 794.19 185.9 792.36 181.97 789.76C177.92 787.34 173.83 784.92 159.18 773.03C151.62 767.37 145.21 760.4 138.39 753.87C131.79 747.11 124.58 740.93 118.55 733.67C123.94 741.51 123.76 741.72 119.81 738.92C116.27 735.75 109.79 728.78 103.68 721.49L93.21 709.23C89.76 705.1 86.88 700.5 83.69 696.11C77.56 687.17 70.93 678.45 65.2 669.11C59.82 659.55 54.41 649.95 48.98 640.32C46.11 635.58 43.87 630.51 41.69 625.42L35 610.17L28.35 594.86C26.44 589.64 24.85 584.29 23.1 579.01C19.85 568.37 15.89 557.89 13.34 547.06C11.04 536.18 8.73 525.29 6.44 514.44C5.9 511.72 5.27 509.02 4.8 506.29L3.9 498.03L2.14 481.53L0.45 465.09C-0.25 459.63 0.2 454.1 0.03 448.63C0.03 437.66 -0.08 426.74 0.14 415.9C2.45 394.33 3.63 372.84 8.78 352.35C12.3 331.53 19.21 311.99 25.36 292.79C28.67 283.28 33.08 274.31 36.87 265.27C38.84 260.79 40.81 256.33 42.76 251.91C44.75 247.51 47.34 243.44 49.58 239.25C56.71 226.89 62.73 213.9 71.43 202.18C79.75 190.26 87.48 177.56 97.77 166.02C102.67 160.08 107.68 154.03 112.8 147.84C117.95 141.67 124.1 136.15 129.94 130.06C136 124.2 141.73 117.64 148.55 111.89C155.4 106.16 162.43 100.26 169.7 94.17C169.15 93.48 169.15 93.48 168.59 92.79C169.23 93.59 176.13 87 186.08 80.47C195.86 73.75 207.3 65.13 215.73 60.68C216.18 61.44 216.18 61.44 216.64 62.2C217.1 62.95 233.56 53.8 250.18 44.74C250.57 45.53 250.57 45.53 250.96 46.32C284.79 29.9 320.67 17.8 357.31 9.54C357.48 10.41 357.48 10.41 357.66 11.28C362.21 10.11 367.95 8.88 374.28 7.61C380.58 6.17 387.67 6 394.65 5.13C401.65 4.37 408.63 3.61 415.05 2.91C421.47 2.28 427.35 2.21 432.04 1.58C432.06 2.47 432.06 2.47 432.09 3.35C432.06 2.48 432.03 1.57 450.85 1.22C479.01 2.17 497.8 3.65 509.4 5.65C521.06 7.16 525.76 7.78 525.76 7.78C553.44 13.23 594.68 24.32 626.27 40.29C630.27 42.14 634.26 43.76 637.93 45.67C641.55 47.67 645.05 49.61 648.38 51.45C655 55.16 660.95 58.5 665.94 61.3C670.95 64.06 674.57 66.99 677.25 68.73C679.86 70.56 681.27 71.62 681.21 71.71C689.12 76.76 696.22 80.94 702.2 85.69C708.07 90.51 713.52 94.98 718.97 99.46C721.67 101.71 724.37 103.96 727.12 106.25C729.73 108.73 732.38 111.25 735.13 113.87C740.65 119.11 746.66 124.67 753.68 130.89C751.71 132.66 722.82 109.51 748.68 135.88C754.8 142.77 761.54 151.05 768.8 159.88C776.07 168.72 782.43 179.32 789.48 189.52C796.34 199.88 801.82 211.38 807.74 221.99C813.31 232.82 817.4 243.97 821.65 253.79C836.19 294.54 840.06 320.29 830.04 296.24C827.91 292.33 823.46 283.43 817.86 272.12C816.42 269.31 815.11 266.26 813.37 263.27C811.59 260.31 809.73 257.24 807.83 254.1C804.05 247.84 800.11 241.29 796.16 234.75C791.67 228.57 787.19 222.39 782.9 216.48C778.67 210.56 774.6 204.98 770.3 200.41C762.06 191 755.68 183.69 752.64 180.6C749.73 177.42 745.03 172.94 739.6 168.07C734.13 163.25 728.26 157.75 721.79 153.68C709.22 145.17 698.38 138.43 697.06 140.02C683.74 129.77 670.73 119.19 669.98 120.26C669.55 120.87 673.37 124.51 679.57 130.11C685.68 135.82 695.03 142.48 703.68 151.51C708.18 155.83 712.86 160.32 717.54 164.81C722.15 169.36 726.22 174.44 730.42 179.02C734.51 183.71 738.63 188.03 742.02 192.28C745.24 196.66 748.16 200.63 750.63 203.97C759.29 218.14 746.35 207.08 735.08 195.38C735.08 195.38 724.97 187.88 709.55 174.95C701.13 169.22 691.89 161.52 680.81 153.88C675.18 150.16 669.33 146.17 663.33 141.9C657.43 137.48 650.5 134.02 643.94 129.62C617.08 113.1 586.76 97.93 553.56 88.51C520.52 78.73 485.31 73.23 449.92 72.62C414.44 71.65 379.15 77.81 345.81 86.1C337.57 88.6 329.38 91.08 321.27 93.55C313.13 95.93 305.63 99.83 297.87 102.78C282.14 108.37 268.33 117.1 254.17 124.11C247.12 127.72 237.22 134.29 226.92 140.35C221.65 143.24 216.96 146.92 212.6 150.24C208.21 153.54 204.21 156.53 201.02 158.92C197.93 161.45 194.69 163.83 191.69 166.48L183.08 174.91C177.37 180.59 171.4 186.08 165.79 191.96C155.64 204.62 144.02 216.38 135.32 230.46C115.71 257.12 101.32 287.73 89.59 319.37C87.03 327.44 84.46 335.52 81.89 343.62C79.38 351.75 78.21 360.23 76.26 368.54L73.59 381.09C72.69 385.28 72.58 389.59 72.02 393.84C71.09 402.37 70.16 410.92 69.23 419.48L69.02 445.37L68.95 458.35L70.22 471.3L72.76 497.26L77.9 522.91C78.82 527.17 79.43 531.52 80.59 535.72L84.46 548.23C87.17 556.54 89.28 565.06 92.42 573.23C99.38 589.26 105.35 605.82 114.45 620.88C122.14 636.71 132.67 650.82 142.39 665.46C147.58 672.53 153.51 679.04 159 685.9L167.41 696.05L176.77 705.33C225.61 756.02 289.11 791.47 356.11 809.16C348.06 807.61 340.43 804.58 332.58 802.4C324.83 799.9 316.83 798.07 309.4 794.56C314.96 797.16 321.33 799.03 328.01 800.97Z" />
	<path id="Path 2" fill-rule="evenodd" class="shp1" d="M231.85 386.66L277.91 386.66C305.12 386.66 322.3 402.17 322.3 425.7L322.3 426.04C322.3 452.23 301.27 465.92 275.57 465.92L252.38 465.92L252.38 503.47L231.85 503.47L231.85 386.66ZM276.25 447.4C291.77 447.4 301.44 438.72 301.44 426.54L301.44 426.2C301.44 412.53 291.59 405.35 276.25 405.35L252.38 405.35L252.38 447.4L276.25 447.4ZM426.77 386.66L472.83 386.66C500.03 386.66 517.22 402.17 517.22 425.7L517.22 426.04C517.22 452.23 496.18 465.92 470.49 465.92L447.3 465.92L447.3 503.47L426.77 503.47L426.77 386.66ZM471.15 447.4C486.68 447.4 496.36 438.72 496.36 426.54L496.36 426.2C496.36 412.53 486.51 405.35 471.15 405.35L447.3 405.35L447.3 447.4L471.15 447.4ZM616.52 445.4L616.52 445.07C616.52 411.86 641.39 384.66 676.77 384.66C698.28 384.66 711.3 392.16 722.48 402.84L709.29 418.03C699.95 409.35 689.94 403.51 676.59 403.51C654.23 403.51 638.04 421.87 638.04 444.73L638.04 445.07C638.04 467.92 654.23 486.61 676.59 486.61C690.95 486.61 700.12 480.77 710.12 471.43L723.32 484.78C711.13 497.46 697.78 505.47 675.92 505.47C641.89 505.47 616.52 478.93 616.52 445.4ZM953.97 486.45L966.31 471.76C977.49 481.44 988.68 486.94 1003.19 486.94C1015.88 486.94 1023.89 481.11 1023.89 472.26L1023.89 471.93C1023.89 463.58 1019.21 459.08 997.52 454.07C972.66 448.07 958.64 440.72 958.64 419.2L958.64 418.86C958.64 398.84 975.33 385 998.53 385C1015.53 385 1029.06 390.16 1040.92 399.68L1029.89 415.19C1019.38 407.35 1008.87 403.18 998.19 403.18C986.16 403.18 979.16 409.35 979.16 417.03L979.16 417.36C979.16 426.38 984.5 430.38 1006.86 435.72C1031.55 441.72 1044.42 450.57 1044.42 469.93L1044.42 470.26C1044.42 492.12 1027.22 505.14 1002.68 505.14C984.85 505.14 967.98 498.96 953.97 486.45ZM1190.93 385.83L1209.95 385.83L1261.36 503.47L1239.67 503.47L1227.81 475.27L1172.57 475.27L1160.57 503.47L1139.54 503.47L1190.93 385.83ZM1220.3 457.08L1200.12 410.36L1180.09 457.08L1220.3 457.08ZM1364.84 386.66L1386.7 386.66L1422.24 441.89L1457.79 386.66L1479.64 386.66L1479.64 503.47L1459.11 503.47L1459.11 419.7L1422.24 474.76L1421.58 474.76L1385.03 420.03L1385.03 503.47L1364.84 503.47L1364.84 386.66ZM1591.29 453.91L1591.29 386.66L1611.82 386.66L1611.82 453.08C1611.82 474.76 1623 486.45 1641.36 486.45C1659.55 486.45 1670.73 475.43 1670.73 453.91L1670.73 386.66L1691.25 386.66L1691.25 452.9C1691.25 487.79 1671.57 505.3 1641.03 505.3C1610.66 505.3 1591.29 487.79 1591.29 453.91ZM1802.91 386.66L1854.97 386.66C1869.66 386.66 1881.16 390.99 1888.69 398.34C1894.86 404.68 1898.36 413.36 1898.36 423.54L1898.36 423.87C1898.36 443.06 1886.86 454.58 1870.48 459.25L1902.04 503.47L1877.84 503.47L1849.13 462.75L1823.44 462.75L1823.44 503.47L1802.91 503.47L1802.91 386.66ZM1853.48 444.56C1868.17 444.56 1877.51 436.88 1877.51 425.04L1877.51 424.7C1877.51 412.19 1868.5 405.35 1853.3 405.35L1823.44 405.35L1823.44 444.56L1853.48 444.56ZM2048.4 385.83L2067.43 385.83L2118.82 503.47L2097.13 503.47L2085.28 475.27L2030.06 475.27L2018.03 503.47L1997.01 503.47L2048.4 385.83ZM2077.77 457.08L2057.59 410.36L2037.57 457.08L2077.77 457.08ZM2223.47 386.66L2244 386.66L2244 503.47L2223.47 503.47L2223.47 386.66Z" />
</svg>