<?xml version="1.0" encoding="UTF-8"?> <!-- Generator: Adobe Illustrator 24.1.0, SVG Export Plug-In . SVG Version: 6.00 Build 0) --> <svg xmlns="http://www.w3.org/2000/svg" xmlns:xlink="http://www.w3.org/1999/xlink" version="1.1" id="Ebene_1" x="0px" y="0px" viewBox="0 0 519 102" style="enable-background:new 0 0 519 102;" xml:space="preserve"> <style type="text/css"> .st0{fill:#12306B;} .st1{fill:#BE1622;} .st2{display:none;} .st3{display:inline;} .st4{fill:#0093D3;} .st5{fill:none;} </style> <g id="Ebene_1_1_"> <path class="st0" d="M102,51c0-28.2-22.8-51-51-51S0,22.8,0,51s22.8,51,51,51c12,0,23-4.1,31.7-11.1L71.2,79.4 c-5.7,4.1-12.7,6.5-20.2,6.5c-19.3,0-35-15.7-35-35s15.7-35,35-35s35,15.7,35,35c0,7.6-2.4,14.5-6.5,20.3L91,82.7 C97.8,74,102,63,102,51"></path> <path class="st1" d="M51,27.1c-13.2,0-23.9,10.7-23.9,23.9S37.8,74.9,51,74.9S74.9,64.2,74.9,51C74.8,37.8,64.1,27.1,51,27.1"></path> <path class="st0" d="M519,37.7v-10h-41.6v10h15.1v36.6h11.4V37.7H519z M469.2,27.7h-11.4v27.8l-23.6-27.8h-9.5v46.6h11.5v-27 l23.6,27h9.5V27.7H469.2z M416.2,64.4h-24.8v-8.8H414v-9.3h-22.6v-8.8H416v-9.9h-36.1v46.6h36.3V64.4z M339.6,64.3V37.6h6.5 c4.4,0,7.8,1.2,10.5,3.6c2.6,2.4,3.9,5.7,3.9,9.7s-1.3,7.3-3.9,9.7c-2.6,2.4-6.1,3.6-10.5,3.6h-6.5V64.3z M328.2,27.7v46.6h18.4 c7.6,0,13.8-2.1,18.5-6.4s7-9.9,7-16.9s-2.3-12.6-7-16.9s-10.8-6.4-18.5-6.4C346.6,27.7,328.2,27.7,328.2,27.7z M318.7,27.7h-11.5 v46.6h11.5V27.7z M284.5,74.2L263.3,51l19.8-23.3h-13.7l-15.8,18.5h-1.7V27.7h-11.5v46.6h11.5V56.8h2.4l15.2,17.5L284.5,74.2 L284.5,74.2z M212.4,26.6c-5.5,0-10,1.3-13.3,4c-3.4,2.6-5.1,6.2-5.1,10.7c0,7.1,4.2,11.6,12.5,13.5l9.7,2.1 c1.6,0.3,2.7,0.8,3.4,1.5c0.6,0.6,0.9,1.5,0.9,2.6c0,1.4-0.6,2.6-1.8,3.5c-1.2,0.9-2.9,1.3-5,1.3c-5,0-8.1-2.3-9.2-6.9l-11.8,2.3 c0.6,4.4,2.8,7.9,6.6,10.4s8.4,3.7,13.8,3.7c5.5,0,10-1.3,13.7-4c3.7-2.6,5.5-6.3,5.5-11.1c0-7.1-4.3-11.7-12.8-13.6l-9.7-2.2 c-2.5-0.6-3.8-1.9-3.8-3.9c0-1.3,0.6-2.5,1.7-3.4s2.7-1.4,4.5-1.4c1.9,0,3.7,0.6,5.2,1.7s2.5,2.7,2.9,4.8l11.3-2.3 c-0.9-4.2-3-7.5-6.5-9.9C221.7,27.8,217.5,26.6,212.4,26.6 M184.7,27.7h-11.5v46.6h11.5V27.7z M136.1,48.7V37.5h10.8 c2,0,3.7,0.5,4.9,1.5s1.8,2.4,1.8,4c0,1.7-0.6,3.1-1.8,4.1s-2.9,1.5-4.9,1.5h-10.8V48.7z M167.3,74.2l-14.6-16.5 c3.8-0.8,6.8-2.6,9-5.2s3.3-5.8,3.3-9.6c0-4.5-1.5-8.2-4.6-11s-7.1-4.2-12.2-4.2h-23.6v46.6h11.5v-16h3.3l14,16h13.9V74.2z"></path> </g> <g id="Schutzraum" class="st2"> <g class="st3"> <polygon class="st4" points="71.7,112 71.7,102 30.2,102 30.2,112 45.3,112 45.3,148.5 56.7,148.5 56.7,112 "></polygon> <polygon class="st4" points="-10,71.3 0,71.3 0,29.7 -10,29.7 -10,44.8 -46.6,44.8 -46.6,56.2 -10,56.2 "></polygon> <polygon class="st4" points="529.1,29.7 519,29.7 519,71.3 529.1,71.3 529.1,56.2 565.6,56.2 565.6,44.8 529.1,44.8 "></polygon> <polygon class="st4" points="71.7,-36.6 71.7,-46.6 30.2,-46.6 30.2,-36.6 45.3,-36.6 45.3,0 56.7,0 56.7,-36.6 "></polygon> </g> </g> <rect class="st5" width="519" height="102"></rect> </svg> 