<svg width="140" height="37" viewBox="0 0 140 37" fill="none" xmlns="http://www.w3.org/2000/svg">
<path d="M119.644 8.47011C119.644 6.51506 121.213 4.93018 123.149 4.93018H129.247C132.519 4.93018 135.065 5.74436 136.888 7.37273C138.734 8.97752 139.657 11.1959 139.657 14.0278C139.657 15.5146 139.306 16.8952 138.605 18.1695C137.904 19.4203 136.911 20.4233 135.626 21.1785L139.312 27.1075C140.59 29.1623 139.127 31.8337 136.725 31.8337C135.379 31.8337 134.141 31.0883 133.5 29.8921L129.878 23.1255C129.738 23.1255 129.551 23.1255 129.317 23.1255C129.107 23.1255 128.897 23.1373 128.686 23.1609C128.5 23.1609 128.371 23.1609 128.301 23.1609H126.373V28.4354C126.373 30.3122 124.867 31.8337 123.009 31.8337C121.15 31.8337 119.644 30.3122 119.644 28.4354V8.47011ZM126.373 17.7801H128.301C131.385 17.7801 132.927 16.5176 132.927 13.9924C132.927 12.7416 132.554 11.8212 131.806 11.2313C131.058 10.6177 129.913 10.3109 128.371 10.3109H126.373V17.7801Z" fill="#FFD5AF"/>
<path d="M98.6975 8.70744C98.6975 6.26669 100.147 4.93018 102.501 4.93018H114.4C115.948 4.93018 117.203 6.19808 117.203 7.76213C117.203 9.32616 115.948 10.5941 114.4 10.5941H105.392V15.4084H112.998C114.527 15.4084 115.766 16.6605 115.766 18.2049C115.766 19.7494 114.527 21.0015 112.998 21.0015H105.392V26.1698H114.89C116.439 26.1698 117.694 27.4377 117.694 29.0017C117.694 30.5658 116.439 31.8337 114.89 31.8337H102.501C99.9027 31.8337 98.6975 30.128 98.6975 28.5385V8.70744Z" fill="#FFD5AF"/>
<path d="M75.0098 8.45241C75.0098 6.50713 76.5708 4.93018 78.4971 4.93018C80.4231 4.93018 81.9845 6.50714 81.9845 8.45242V15.7978L89.8106 6.46477C90.6263 5.49145 91.8254 4.93018 93.0881 4.93018C95.5661 4.93018 96.8743 7.89303 95.2186 9.75498L88.0831 17.7801L95.9459 26.6113C97.7391 28.6257 96.3236 31.8337 93.6414 31.8337C92.2728 31.8337 90.9733 31.2241 90.0901 30.1675L81.9845 20.4705V28.3115C81.9845 30.2567 80.4231 31.8337 78.4971 31.8337C76.5708 31.8337 75.0098 30.2567 75.0098 28.3115V8.45241Z" fill="#FFD5AF"/>
<path d="M64.2063 31.8344C60.3033 31.8344 57.0972 30.5786 54.5881 28.0669C52.079 25.5553 50.8245 22.3184 50.8245 18.3563C50.8245 14.4297 52.079 11.2105 54.5881 8.69888C57.0972 6.18722 60.3033 4.9314 64.2063 4.9314C67.3184 4.9314 69.8791 5.6804 71.8886 7.17842C73.3957 8.3019 73.1585 10.5323 71.7934 11.8346C70.7703 12.8106 69.154 12.5506 67.9561 11.816C66.9903 11.2237 65.8449 10.9275 64.52 10.9275C62.4988 10.9275 60.8434 11.6173 59.5541 12.997C58.2995 14.3412 57.6722 16.1277 57.6722 18.3563C57.6722 20.585 58.2995 22.3891 59.5541 23.7688C60.8434 25.1484 62.4988 25.8383 64.52 25.8383C65.8284 25.8383 66.974 25.5314 67.9568 24.9177C69.1508 24.1721 70.7554 23.9299 71.7861 24.9006L72.029 25.1292C73.2596 26.2882 73.4828 28.2764 72.173 29.3391C70.1227 31.0026 67.4671 31.8344 64.2063 31.8344Z" fill="#FFD5AF"/>
<path d="M35.2928 25.822C36.5572 25.822 37.6907 25.5163 38.6934 24.9048C39.6962 24.2934 40.4919 23.4328 41.0804 22.3232C41.669 21.1909 41.9632 19.8888 41.9632 18.4169C41.9632 17.0128 41.6906 15.7447 41.1458 14.6124C40.6009 13.4801 39.8161 12.5856 38.7915 11.9289C37.7888 11.2722 36.6226 10.9438 35.2928 10.9438C34.0285 10.9438 32.8949 11.2495 31.8922 11.861C30.8894 12.4724 30.0938 13.3442 29.5052 14.4765C28.9166 15.5861 28.6223 16.8769 28.6223 18.3489C28.6223 19.753 28.8948 21.0211 29.4398 22.1534C29.9848 23.2857 30.7586 24.1802 31.7614 24.8369C32.7859 25.4936 33.9631 25.822 35.2928 25.822ZM35.2928 31.8344C32.7859 31.8344 30.5188 31.2796 28.4915 30.1699C26.4642 29.0603 24.8511 27.4864 23.6522 25.4483C22.4532 23.3876 21.8538 21.0324 21.8538 18.3829C21.8538 15.9598 22.4096 13.7292 23.5214 11.6911C24.6549 9.65301 26.2463 8.02252 28.2953 6.79966C30.3663 5.55415 32.6988 4.9314 35.2928 4.9314C37.7997 4.9314 40.0668 5.48622 42.094 6.59585C44.1213 7.70548 45.7346 9.29069 46.9334 11.3514C48.1322 13.3895 48.7318 15.7334 48.7318 18.3829C48.7318 20.806 48.1649 23.0366 47.0315 25.0747C45.9197 27.1128 44.3286 28.7546 42.2575 30.0001C40.2085 31.223 37.8869 31.8344 35.2928 31.8344Z" fill="#FFD5AF"/>
<path d="M0 8.47011C0 6.51506 1.5692 4.93018 3.50491 4.93018H9.60345C12.8747 4.93018 15.4216 5.74436 17.2442 7.37273C19.0901 8.97752 20.013 11.1959 20.013 14.0278C20.013 15.5146 19.6625 16.8952 18.9616 18.1695C18.2606 19.4203 17.2675 20.4233 15.9824 21.1785L19.6685 27.1075C20.9459 29.1623 19.4836 31.8337 17.0813 31.8337C15.7349 31.8337 14.4968 31.0883 13.8565 29.8921L10.2343 23.1255C10.0941 23.1255 9.9072 23.1255 9.67355 23.1255C9.46326 23.1255 9.25296 23.1373 9.04267 23.1609C8.85572 23.1609 8.72723 23.1609 8.65713 23.1609H6.72943V28.4354C6.72943 30.3122 5.22297 31.8337 3.36471 31.8337C1.50643 31.8337 0 30.3122 0 28.4354V8.47011ZM6.72943 17.7801H8.65713C11.7414 17.7801 13.2836 16.5176 13.2836 13.9924C13.2836 12.7416 12.9098 11.8212 12.162 11.2313C11.4143 10.6177 10.2694 10.3109 8.72723 10.3109H6.72943V17.7801Z" fill="#FFD5AF"/>
</svg>
