<?xml version="1.0" encoding="utf-8"?>
<!-- Generator: Adobe Illustrator 18.1.1, SVG Export Plug-In . SVG Version: 6.00 Build 0)  -->
<svg version="1.1" baseProfile="tiny" xmlns="http://www.w3.org/2000/svg" xmlns:xlink="http://www.w3.org/1999/xlink" x="0px"
	 y="0px" viewBox="0 0 465.4 129.7" xml:space="preserve">
<g id="Layer_2">
	<g>
		<path d="M135.7,129.7c-5.5,0-10.4-0.7-14.8-2c-4.4-1.3-7.8-2.8-10.1-4.4l1.5-18.1c1.4,1,3,2,4.9,3.1c1.9,1,3.8,1.9,5.9,2.7
			c2,0.8,4.1,1.5,6.2,2c2.1,0.5,4,0.8,5.7,0.8c2.2,0,3.9-0.3,5.2-0.9c1.3-0.6,2.3-1.3,3-2.2c0.7-0.9,1.1-1.9,1.3-3.1
			c0.2-1.1,0.3-2.2,0.3-3.2c0-3.5-1.2-6.1-3.6-7.8c-2.4-1.6-5.5-3.1-9.4-4.4c-2.6-0.9-5.1-1.9-7.6-3c-2.4-1.1-4.6-2.5-6.6-4.2
			c-1.9-1.7-3.5-3.9-4.7-6.6c-1.2-2.7-1.8-6.1-1.8-10.2c0-3,0.4-6,1.2-9.2c0.8-3.2,2.2-6.1,4.3-8.8c2-2.7,4.8-4.9,8.3-6.6
			c3.5-1.7,7.8-2.6,13.1-2.6c2.4,0,4.8,0.2,7.3,0.6c2.5,0.4,4.9,0.9,7.1,1.5c2.2,0.6,4.2,1.2,6.1,2c1.8,0.7,3.2,1.5,4.1,2.3
			l-1.5,18.1c-0.9-1-2.1-2.1-3.7-3.2c-1.5-1.1-3.3-2.1-5.2-3c-1.9-0.9-4-1.6-6.1-2.1c-2.2-0.6-4.2-0.9-6.1-0.9
			c-2.7,0-5.3,0.7-7.8,2.1c-2.4,1.4-3.7,3.8-3.7,7.3c0,2,0.5,3.7,1.5,5c1,1.3,2.2,2.4,3.8,3.2c1.5,0.9,3.3,1.6,5.3,2.2
			c2,0.6,4.1,1.3,6.2,2c2.7,0.9,5.3,2,7.8,3.2c2.4,1.2,4.5,2.8,6.3,4.8c1.8,2,3.2,4.4,4.3,7.3c1.1,2.9,1.6,6.6,1.6,11
			c0,2.6-0.3,5.4-0.9,8.4c-0.6,3-1.9,5.7-3.9,8.1c-2,2.4-5,4.5-8.9,6.1C147.5,128.9,142.3,129.7,135.7,129.7z"/>
		<path d="M205.4,129.7c-5.8,0-11-1.2-15.4-3.6c-4.5-2.4-8.2-5.6-11.2-9.6c-3-4-5.2-8.6-6.7-14c-1.5-5.3-2.3-11-2.3-17.1
			c0-5.9,0.8-11.6,2.3-17c1.5-5.4,3.8-10.1,6.7-14.1c3-4,6.7-7.2,11.2-9.6c4.5-2.4,9.6-3.6,15.4-3.6c3.1,0,5.7,0.2,7.9,0.5
			c2.2,0.3,4.1,0.8,5.8,1.4c1.7,0.6,3.2,1.3,4.5,2c1.3,0.8,2.6,1.6,3.8,2.4l-1.5,18.1c-3.1-2.3-6.1-4-9-5.2c-3-1.2-6.3-1.8-9.9-1.8
			c-5,0-9,2.5-11.9,7.4c-3,4.9-4.4,11.4-4.4,19.4c0,8,1.5,14.4,4.4,19.4c3,4.9,6.9,7.4,11.9,7.4c3.6,0,6.9-0.6,9.9-1.8
			c3-1.2,6-2.9,9-5.2l1.5,18.1c-2.5,1.7-5.3,3.2-8.4,4.4C215.8,129.1,211.3,129.7,205.4,129.7z"/>
		<path d="M299,129.7h-9c-3.1,0-6.1-0.9-9-2.7c-3-1.8-5.1-4.2-6.5-7.2c-2.3,3.2-5.5,5.6-9.8,7.3c-4.3,1.7-8.6,2.6-12.9,2.6
			c-2.7,0-5.3-0.6-7.9-1.7c-2.5-1.1-4.7-2.8-6.7-5c-1.9-2.2-3.5-4.9-4.6-8c-1.1-3.1-1.7-6.7-1.7-10.8c0-6,1.6-11,4.7-14.8
			c3.1-3.9,6.9-6.9,11.2-9.2c4.3-2.3,8.8-3.9,13.3-4.9c4.5-1,8.3-1.5,11.3-1.6c-0.2-4.9-1.2-8.4-2.8-10.7c-1.7-2.2-4.8-3.3-9.3-3.3
			c-3.6,0-7,0.5-10.1,1.5c-3.1,1-6.6,2.7-10.6,4.9l-1.4-17.2c5.1-2.5,9.9-4.4,14.3-5.6c4.4-1.3,8.9-1.9,13.3-1.9
			c3.9,0,7.5,0.6,10.8,1.9c3.4,1.3,6.2,3.2,8.6,6c2.4,2.7,4.3,6.3,5.6,10.7c1.4,4.4,2,9.6,2,15.8v23c0,3.2,0.1,5.7,0.3,7.5
			c0.2,1.8,0.5,3.2,0.9,4.1c0.5,0.9,1.1,1.5,1.8,1.7c0.7,0.2,1.6,0.3,2.6,0.3h2.7L299,129.7z M271.5,87.9c-1.4,0.1-3.1,0.5-5.3,1.2
			c-2.2,0.7-4.3,1.7-6.3,2.9c-2,1.3-3.8,2.8-5.3,4.7c-1.5,1.9-2.2,4.1-2.2,6.6c0,3.5,0.7,6.1,2,7.8c1.3,1.7,3.7,2.5,7.3,2.5
			c0.8,0,2.2-0.5,4.2-1.5c2-1,3.9-2.5,5.7-4.7V87.9z"/>
		<path d="M332.2,129.7h-7.7c-3.2,0-5.9-0.6-8.3-1.8c-2.3-1.2-4.3-2.8-5.8-4.8c-1.5-2-2.7-4.4-3.5-7.1c-0.8-2.7-1.2-5.6-1.2-8.7V0
			h20.3v98.6c0,3.4,0.1,6.1,0.3,7.9c0.2,1.9,0.7,3.2,1.3,4.1c0.6,0.9,1.4,1.3,2.4,1.5c1,0.1,2.2,0.2,3.7,0.2L332.2,129.7z"/>
		<path d="M405.3,129.7h-9c-3.1,0-6.1-0.9-9-2.7c-3-1.8-5.1-4.2-6.5-7.2c-2.3,3.2-5.5,5.6-9.8,7.3c-4.3,1.7-8.6,2.6-12.9,2.6
			c-2.7,0-5.3-0.6-7.9-1.7c-2.5-1.1-4.7-2.8-6.7-5c-1.9-2.2-3.5-4.9-4.6-8c-1.1-3.1-1.7-6.7-1.7-10.8c0-6,1.6-11,4.7-14.8
			c3.1-3.9,6.9-6.9,11.2-9.2c4.3-2.3,8.8-3.9,13.3-4.9c4.5-1,8.3-1.5,11.3-1.6c-0.2-4.9-1.2-8.4-2.8-10.7c-1.7-2.2-4.8-3.3-9.3-3.3
			c-3.6,0-7,0.5-10.1,1.5c-3.1,1-6.6,2.7-10.6,4.9l-1.4-17.2c5.1-2.5,9.9-4.4,14.3-5.6c4.4-1.3,8.9-1.9,13.3-1.9
			c3.9,0,7.5,0.6,10.8,1.9c3.4,1.3,6.2,3.2,8.6,6c2.4,2.7,4.3,6.3,5.6,10.7c1.4,4.4,2,9.6,2,15.8v23c0,3.2,0.1,5.7,0.3,7.5
			c0.2,1.8,0.5,3.2,0.9,4.1c0.5,0.9,1.1,1.5,1.8,1.7c0.7,0.2,1.6,0.3,2.6,0.3h2.7L405.3,129.7z M377.8,87.9
			c-1.4,0.1-3.1,0.5-5.3,1.2c-2.2,0.7-4.3,1.7-6.3,2.9c-2,1.3-3.8,2.8-5.3,4.7c-1.5,1.9-2.2,4.1-2.2,6.6c0,3.5,0.7,6.1,2,7.8
			c1.3,1.7,3.7,2.5,7.3,2.5c0.8,0,2.2-0.5,4.2-1.5c2-1,3.9-2.5,5.7-4.7V87.9z"/>
		<path d="M443.4,129.7c-5.8,0-11-1.2-15.4-3.6c-4.5-2.4-8.2-5.6-11.2-9.6c-3-4-5.2-8.6-6.7-14c-1.5-5.3-2.3-11-2.3-17.1
			c0-5.9,0.8-11.6,2.3-17c1.5-5.4,3.8-10.1,6.7-14.1c3-4,6.7-7.2,11.2-9.6c4.5-2.4,9.6-3.6,15.4-3.6c3.1,0,5.7,0.2,7.9,0.5
			c2.2,0.3,4.1,0.8,5.8,1.4c1.7,0.6,3.2,1.3,4.5,2c1.3,0.8,2.6,1.6,3.8,2.4l-1.5,18.1c-3.1-2.3-6.1-4-9-5.2c-3-1.2-6.3-1.8-9.9-1.8
			c-5,0-9,2.5-11.9,7.4c-3,4.9-4.4,11.4-4.4,19.4c0,8,1.5,14.4,4.4,19.4c3,4.9,6.9,7.4,11.9,7.4c3.6,0,6.9-0.6,9.9-1.8
			c3-1.2,6-2.9,9-5.2l1.5,18.1c-2.5,1.7-5.3,3.2-8.4,4.4C453.8,129.1,449.3,129.7,443.4,129.7z"/>
	</g>
</g>
<g id="Layer_4">
	<polygon fill="#FF0000" points="0,41.1 0,65 30.6,85.4 0,105.7 0,129.7 66.5,85.4 	"/>
</g>
</svg>
