<svg xmlns="http://www.w3.org/2000/svg" viewBox="0 0 567.24 95.88"><defs><style>.cls-1,.cls-2{fill:#231f20;}.cls-1,.cls-4{fill-rule:evenodd;}.cls-3,.cls-4{fill:#6b0aea;}</style></defs><g id="Layer_2" data-name="Layer 2"><g id="ART"><polygon class="cls-1" points="386.69 78.16 386.69 17.24 396.03 13.32 396.03 78.16 386.69 78.16"/><path class="cls-1" d="M381.75,54.59q0-9.72-6.15-15.76t-16-6q-9.88,0-16.11,6.27T337.23,55.8q0,10.46,6.15,16.77t16,6.32A22.14,22.14,0,0,0,372.73,75a20,20,0,0,0,7.46-10.09H370.1q-3.11,6.24-10.74,6.24a12.25,12.25,0,0,1-8.73-3.28A12.7,12.7,0,0,1,346.82,59h34.6A27.23,27.23,0,0,0,381.75,54.59Zm-34.85-2a13.24,13.24,0,0,1,4-8.79,12.16,12.16,0,0,1,8.65-3.28,12.59,12.59,0,0,1,8.77,3.28A11.52,11.52,0,0,1,372,52.64Z"/><path class="cls-1" d="M300.73,33.53v7q4.5-7.77,14.43-7.77a16.93,16.93,0,0,1,12.58,5q5,5,5,14V78.16h-9.26V53.21q0-6-3-9.19a10.83,10.83,0,0,0-8.28-3.2A11,11,0,0,0,303.8,44q-3.07,3.19-3.07,9.19V78.16h-9.35V33.53Z"/><rect class="cls-2" x="273.98" y="33.53" width="9.35" height="44.63"/><path class="cls-1" d="M267.21,41.06h-11v24.7a4.72,4.72,0,0,0,1.19,3.61c.79.73,2.14,1.09,4.06,1.09h5.74v7.7h-7.38q-13,0-13-12.4V26.34l9.43-3.91v11.1h11Z"/><path class="cls-1" d="M210.52,33.53v7Q215,32.8,225,32.8a17,17,0,0,1,12.59,5q5,5,5,14V78.16h-9.27V53.21q0-6-3-9.19a10.83,10.83,0,0,0-8.28-3.2A11,11,0,0,0,213.6,44q-3.07,3.19-3.08,9.19V78.16h-9.34V33.53Z"/><path class="cls-1" d="M196.24,54.59q0-9.72-6.15-15.76t-16-6q-9.87,0-16.11,6.27T151.72,55.8q0,10.46,6.15,16.77t16,6.32A22.13,22.13,0,0,0,187.22,75a20,20,0,0,0,7.46-10.09H184.6q-3.12,6.24-10.74,6.24a12.21,12.21,0,0,1-8.73-3.28A12.66,12.66,0,0,1,161.31,59h34.6A27.23,27.23,0,0,0,196.24,54.59Zm-34.84-2a13.19,13.19,0,0,1,4-8.79A12.16,12.16,0,0,1,174,40.57a12.59,12.59,0,0,1,8.77,3.28,11.52,11.52,0,0,1,3.69,8.79Z"/><path class="cls-1" d="M127.27,28.67a10.54,10.54,0,0,0-6.8,2.1,7.39,7.39,0,0,0-2.63,6.12A6.91,6.91,0,0,0,121,43a21.56,21.56,0,0,0,7.54,3.08q4.42,1,8.85,2.23A15.94,15.94,0,0,1,144.9,53q3.1,3.39,3.11,9.64t-5.33,11.17q-5.33,4.95-14.26,5t-14.51-4.14a13.41,13.41,0,0,1-5.58-11.42h10a8.6,8.6,0,0,0,2.79,5.92q2.46,2.18,7.22,2.18a10.91,10.91,0,0,0,7.5-2.43,8,8,0,0,0,1.06-10.93,10.27,10.27,0,0,0-4.34-2.8,56,56,0,0,0-5.86-1.66q-3.2-.72-6.44-1.7a27.57,27.57,0,0,1-5.9-2.51,11.71,11.71,0,0,1-4.35-4.5,14.44,14.44,0,0,1-1.68-7.24,14.72,14.72,0,0,1,5.37-11.87q5.37-4.5,13.94-4.5T141.33,25q5.13,3.89,5.7,11.26H136.7a8.14,8.14,0,0,0-2.79-5.43A9.61,9.61,0,0,0,127.27,28.67Z"/><path class="cls-1" d="M544,71.44a18.65,18.65,0,0,1-11.3,3.34,19.39,19.39,0,0,1-8.72-2,15.58,15.58,0,0,1-6.47-6.1,20.14,20.14,0,0,1-2.58-10.24h38.24a24.11,24.11,0,0,0,.41-4.26,19.05,19.05,0,0,0-2.42-9.35A18.26,18.26,0,0,0,544,35.79a22.19,22.19,0,0,0-11.18-2.69,22.74,22.74,0,0,0-11.17,2.69A19.31,19.31,0,0,0,514,43.54a24.2,24.2,0,0,0-2.78,11.88,24.4,24.4,0,0,0,2.78,12,19.25,19.25,0,0,0,7.66,7.75,22.74,22.74,0,0,0,11.17,2.69q8.45,0,13.88-4.26a17.64,17.64,0,0,0,6.68-11.24h-3.85A13.63,13.63,0,0,1,544,71.44ZM517.51,44.18a15.82,15.82,0,0,1,6.51-6.1,20.28,20.28,0,0,1,17.52,0,14.78,14.78,0,0,1,6.39,6.1A18.2,18.2,0,0,1,550,54.3H514.93A19.76,19.76,0,0,1,517.51,44.18Z"/><path class="cls-1" d="M487.15,32.78q7.86,0,12.78,4.82t4.91,14.21V77.27h-3.68V52c0-5.24-1.34-9.25-4-12s-6.33-4.14-11-4.14a15.24,15.24,0,0,0-11.59,4.62q-4.38,4.62-4.38,13.61V77.27h-3.68V33.66h3.68V45.15a15.57,15.57,0,0,1,6.27-9.24A18.56,18.56,0,0,1,487.15,32.78Z"/><path class="cls-1" d="M455.9,35A25.62,25.62,0,0,0,446,24.81a29.73,29.73,0,0,0-28.58,0,25.85,25.85,0,0,0-10,10.23A30.63,30.63,0,0,0,403.86,50a30.63,30.63,0,0,0,3.6,14.94,26.21,26.21,0,0,0,10,10.27,29.45,29.45,0,0,0,28.58,0,26,26,0,0,0,9.91-10.27A31,31,0,0,0,459.46,50,31,31,0,0,0,455.9,35Zm-3.36,28.43a22.27,22.27,0,0,1-8.64,8.91,25.42,25.42,0,0,1-24.44,0,22.37,22.37,0,0,1-8.6-8.91A27.75,27.75,0,0,1,407.71,50a27.75,27.75,0,0,1,3.15-13.49,22.31,22.31,0,0,1,8.6-8.91,25.35,25.35,0,0,1,24.44,0,22.2,22.2,0,0,1,8.64,8.91A27.75,27.75,0,0,1,455.69,50,27.75,27.75,0,0,1,452.54,63.47Z"/><rect class="cls-3" x="32.08" width="12.92" height="77.25"/><path class="cls-4" d="M48.13,95.88l12.91-8V21a32.21,32.21,0,0,0-12.91-5.72Z"/><path class="cls-4" d="M16,87.92l12.92,8V15.32A32.19,32.19,0,0,0,16,21Z"/><path class="cls-4" d="M64.17,3.67V86.48l6-3.72a15.3,15.3,0,0,0,6.89-13V30.65C77.09,19.37,64.17,3.67,64.17,3.67Z"/><path class="cls-4" d="M0,69.73a15.27,15.27,0,0,0,6.89,13l6,3.72V3.67S0,19.37,0,30.65Z"/><path class="cls-2" d="M563.47,39.55l-1-1.51h-.82v1.51h-1V34.82h2.16c1.12,0,1.79.59,1.79,1.56v0a1.47,1.47,0,0,1-1,1.46l1.16,1.69Zm0-3.11c0-.45-.31-.68-.82-.68h-1v1.36h1.05c.51,0,.8-.27.8-.67Z"/><path class="cls-2" d="M562.4,42.16a4.85,4.85,0,1,1,4.84-4.84A4.85,4.85,0,0,1,562.4,42.16Zm0-8.63a3.79,3.79,0,1,0,3.79,3.79A3.79,3.79,0,0,0,562.4,33.53Z"/></g></g></svg>