<?xml version="1.0" encoding="utf-8"?>
<svg id="Logo_Teads.tv_-_Fond_blanc" data-name="Logo Dark Teads" xmlns="http://www.w3.org/2000/svg" viewBox="0 0 579.91 256.28"><title>Teads_logo_Black</title><path d="M262,5c-2-1.4-5.3.78-5.35.81-1.72,1-10.83,6-30.48,10-19.62,3.4-41.93,5.69-41.93,5.69q-15.84,1.24-30.56,3c1.46-6.44,2-13.65-1.15-17.77-3.4-4.45-6.64-6.7-9.64-6.7-2,0-4.83,1.05-6.7,6.06-2.51,6.76-6.64,14-13,22.65C46.68,41.14.42,63.11,0,83.08c-.52,24.85,40.89,41.41,40.89,41.41,1.74.58,2.3.33,2.53-.14.59-1.18-1-2.45-1-2.45C19.15,103.78,20.7,90.84,20.7,90.84,21.94,75.57,58.52,66,99.87,60.26A479.58,479.58,0,0,0,75,101.42C52.69,143.22,42,179.41,43.18,209c0,1.47,1.13,36.29,15.22,45.53a10.23,10.23,0,0,0,5.09,1.77h0A4.67,4.67,0,0,0,67,254.82c1.55-1.67,2.17-4.6,1.88-9-.09-1.26-.21-2.65-.34-4.18-1.39-16.06-4-45.95,19.64-91.91,13.4-26,27.62-51,39.05-71,4.92-8.6,9.35-16.37,13-23,32.08-2.74,61.08-3.56,72.58-3.37,31,.53,51.14-33,50.62-43.35C263.3,7.2,262.94,5.68,262,5Z" style="fill:#1d1d1b"/><path d="M579.91,205a31.1,31.1,0,0,0-4.65-15.55c-3.07-4.69-9.8-13.48-21.89-22.4-17.69-13.06-19.32-26.39-16.88-32.65s9.53-15.24.55-20.14-24.69,11.48-25.27,27.07a66.32,66.32,0,0,1-7,25.3c-6.4,11.9-31.94,57.09-48,52.12,0,0-7.83-3.53-2.71-19.32,4.92-15.23,51.7-121.36,13.88-139,0,0-22.86-8.71-28.3,4.08,0,0,18.5-2.18,5.71,52,0,0-62.31-6-90.61,61.23,0,0-21.77,41.08-39.45,41.62,0,0-7.08-1.36-3.27-22,0,0,8.43-41.09,23.4-68.57,0,0-46.53-40.82-104.49,21.76,0,0-13.87,13.07-20.68,43,0,0-25.85,30.2-53.87,24.21,0,0-24.49-2.44-12-46.8,0,0,70.75,4.63,69.39-34.56,0,0-1.09-25.57-38.1-19.86,0,0-40.9,3.93-64.44,54.13-1.66,3.92-11.72,28.76-7.32,43.28,2.75,9.43,11.94,30,39.94,29.12,36.27-1.09,59.85-26.12,64.57-33,0,0,.37,31.92,26.12,33.36,0,0,21.58.69,39.58-34.57h0s.71-1.48,1.32-1.34a.88.88,0,0,1,.66,1h0c-.73,6-3.12,36.55,23.36,35.24,0,0,23.22,3.64,49.34-40.62,0,0-1.09,41.71,25.4,40.25,0,0,24.07.7,41.45-35.68h0s.58-1.08,1.23-.7h0a1.42,1.42,0,0,1,.42,1.46c-1.18,5.94-5.35,34.5,22,35l0,0s6.88.38,10.91-1.08h0c11.36-3.31,35.6-17.49,62.53-76.75.16-.41,1.64-4.09,2.24-4.09.35,0,.56.35.82,1h0s7,16,16.93,28.09c0,0,1.49,1.69,2.19,2.45h0c9.12,10.94,13,19.13.55,24.3-2.27.75-25.16,8-27.17-3.42,0,0-12.36,4.06-14.89,12.3-1.16,3.79-1.13,10.79,4.84,14a8,8,0,0,0,1,.6l.22.1a24.23,24.23,0,0,0,6.24,1.94c7.3,1.53,21,2.37,41.65-4.08,1.81-.52,3.51-1.09,5.15-1.68l.57-.2h0c13.26-5,20.65-12,24-19.28h0c2.23-4.37,2.66-9.83,2.75-11.82h0c0-.16,0-.32,0-.49V205ZM174.33,128.64c16.06-6.8,13.88,4.35,13.88,4.35-1.63,23.67-38.91,27.21-38.91,27.21S158.28,135.44,174.33,128.64Zm102.59,54.42c-12,35.1-24.76,29.38-24.76,29.38-18-8.16,1.36-47.34,1.36-47.34C278,119.11,302,126.73,302,126.73,296.24,134.35,288.89,148,276.92,183.06Zm117.55,29.66c-21.53-2.88-2.45-44.09-2.45-44.09,23.67-47.88,50.06-42.17,50.06-42.17C417.59,208.91,394.47,212.72,394.47,212.72Z" style="fill:#1d1d1b"/></svg>