<svg xmlns="http://www.w3.org/2000/svg" viewBox="0 0 640 204.93"><path fill="#2b2936" d="M288.16 46.48A16.51 16.51 0 11304.67 63a16.52 16.52 0 01-16.51-16.51m218.47 76.56s36.91-43.95 37.06-44.11a3.51 3.51 0 00-2.69-5.82h-23.1c-2.82 0-4.12.87-5.21 2.17l-32.87 41.31V32.79c0-2-1.09-2.83-3.26-2.83h-23.69a4.38 4.38 0 00-4.11 5.91 38.51 38.51 0 012.62 12.3v124c0 2 1.08 2.82 3.25 2.82h25.19v-45.37l32.41 42.1a8.9 8.9 0 006.29 3.26h31.29zM294.14 175c-2.17 0-3.26-.87-3.26-2.82V89a25.72 25.72 0 00-2.52-10.29 4.39 4.39 0 014-6.16h23.68c2.18 0 3.26.87 3.26 2.82V175zm101.7-105.09c-14.17 0-26 7-31.94 16V75.34c0-2-1.09-2.82-3.26-2.82H339.8a4.38 4.38 0 00-4.12 5.89 38.23 38.23 0 012.63 12.35v81.4c0 2 1.09 2.82 3.26 2.82h25.18v-65.29a6.93 6.93 0 011.4-4.23c4.67-6.07 12.65-11 20.09-11 11.94 0 16.06 5.86 16.06 19.32v58.4c0 2 1.09 2.82 3.26 2.82h25.62v-66.66c0-24.32-12.38-38.43-37.34-38.43M275.3 157.12a6.38 6.38 0 00-7.39-4.36 35 35 0 01-6.53.73c-10.42 0-12.81-4.56-12.81-13.89V94.88h23.32V75.12a2.59 2.59 0 00-2.59-2.6h-20.73V49.3c0-1.95-1.08-2.82-3.25-2.82h-9.88a3.49 3.49 0 00-3.37 2.52c-4.92 32.13-22.33 26.06-25.64 29.37-.61.56-1.45 1.49-1.45 4.36v9.77c0 2 .87 2.39 3 2.39h12.15V147c0 23.44 14.29 29.74 32.09 29.74a67.76 67.76 0 0027.35-5.43z"/><path fill="#2b2936" d="M612 146.32a3.45 3.45 0 01-1.16 2.6c-3.36 2.94-10.21 6.52-19.25 6.52-10 0-15.63-4.77-15.63-13.46 0-8.9 6.73-14.32 19.1-14.32a89 89 0 0114 1.2 3.51 3.51 0 012.92 3.48zm-18.24-76.41c-15 0-29.36 4.22-37.54 8.9-2.94 1.69-3.49 4.27-1.51 7.17s4.82 7.12 6.3 9.19 2.85 2.63 4.62 1.78a58.65 58.65 0 0124.88-5.76c13.49 0 21.49 4.55 21.49 16.28v4.34a161.75 161.75 0 00-20-1.52c-26.26 0-43.84 10-43.84 33.65 0 18.88 11.93 32.78 33.86 32.78 16.93 0 26.7-6.95 30.39-13.46v8.9c0 2 1.09 2.82 3.26 2.82H640v-67.51c0-22.36-12.81-37.56-46.24-37.56"/><path fill="#86bbe6" d="M76.87 0a76.87 76.87 0 00-74 97.78 1.73 1.73 0 003.26.16 76.88 76.88 0 01141.43 0 1.73 1.73 0 003.26-.16A76.9 76.9 0 0076.87 0"/><path fill="#ffde80" d="M76.87 204.93a76.9 76.9 0 0074-97.78 1.73 1.73 0 00-3.26-.16A76.88 76.88 0 016.16 107a1.73 1.73 0 00-3.26.16 76.87 76.87 0 0074 97.78"/></svg>
