<svg width="76" height="41" viewBox="0 0 76 41" fill="none" xmlns="http://www.w3.org/2000/svg">
<path d="M15.2255 33.6559H9.67157C7.30042 33.6559 6.41522 31.5548 6.41522 28.6583L6.41124 13.5508H0V28.6583C0 35.1496 4.5195 40.0423 10.513 40.0423H21.6466V13.5508H15.2255V33.6559Z" fill="black"/>
<path d="M32.6749 19.9372H38.2288C40.5999 19.9372 41.4851 22.0384 41.4851 24.9348L41.4871 40.0423H47.8983V24.9348C47.8983 18.4435 43.3789 13.5508 37.3853 13.5508H26.2517V40.0423H32.6729V19.9372H32.6749Z" fill="black"/>
<path d="M52.5093 40.0452H59.0319V11.4229L52.5093 14.1254V40.0452Z" fill="black"/>
<path d="M75.6578 34.5935L75.612 34.5954C75.1287 34.6588 74.6055 34.6884 74.0604 34.6884C72.6382 34.6884 71.6276 34.2987 71.0547 33.531C70.46 32.7317 70.1576 31.3468 70.1576 29.4139V18.8192H75.9979V13.2914H70.1576V6.55078L63.637 9.25336V29.4633C63.637 31.145 63.7862 32.6625 64.0806 33.9762C64.3789 35.3156 64.9041 36.475 65.6401 37.4207C66.3801 38.3763 67.3946 39.1162 68.6538 39.6168C69.895 40.1114 71.4566 40.3607 73.2906 40.3607C74.142 40.3607 74.9536 40.3073 75.7055 40.2044L75.9999 40.1628V34.5935H75.6578Z" fill="black"/>
<path d="M52.5093 0V9.10685L59.0319 6.40427V0H52.5093Z" fill="black"/>
</svg>
