<?xml version="1.0" encoding="utf-8"?>
<!-- Generator: Adobe Illustrator 18.0.0, SVG Export Plug-In . SVG Version: 6.00 Build 0)  -->
<!DOCTYPE svg PUBLIC "-//W3C//DTD SVG 1.1//EN" "http://www.w3.org/Graphics/SVG/1.1/DTD/svg11.dtd">
<svg version="1.1" xmlns="http://www.w3.org/2000/svg" xmlns:xlink="http://www.w3.org/1999/xlink" x="0px" y="0px" width="317.5px"
	 height="107.3px" viewBox="0 0 317.5 107.3" enable-background="new 0 0 317.5 107.3" xml:space="preserve">
<g id="Layer_1">
	<path fill="#FFFFFF" d="M311.5,57.8c-1.4-1-3-1.7-4.8-2.3c0.9-0.5,1.8-1,2.6-1.6c2.1-1.5,3.8-3.3,5.1-5.5c1.5-2.5,2.3-5.3,2.3-8.3
		c0-1.5-0.3-2.9-0.8-4.2c0.5-1.4,0.8-3,0.8-4.7c0-2.9-0.6-5.7-1.7-8.3c-1.1-2.6-2.7-4.8-4.8-6.7c-1.9-1.7-4.2-3.1-6.7-4
		c-2.5-0.9-5.1-1.4-7.9-1.4c-2.9,0-5.7,0.4-8.3,1.3c-0.6,0.2-1.1,0.4-1.7,0.6c-0.2-3.5-1.9-6.7-4.8-9c-2.6-2.1-5.9-3.1-9.8-3.1
		c-3.9,0-7.2,1-9.8,3.1c-0.4,0.3-0.8,0.7-1.2,1.1C258.8,4,257,3.4,255,3.4c-0.9,0-1.8,0.1-2.7,0.4l-0.2,0.1
		c-0.3,0.1-0.7,0.2-1.1,0.4l-8.4,3.2c-0.1,0.1-0.3,0.1-0.4,0.2c-2.5,1.1-4.3,3.1-5.3,5.6c0,0-0.1,0.1-0.1,0.1
		c-3.4-1.6-7.6-2.4-12.7-2.4c-1.3,0-2.7,0.1-4.1,0.2c-1.4,0.1-2.7,0.3-4,0.5c-1.3,0.2-2.5,0.4-3.6,0.7c-1.3,0.3-2.5,0.7-3.6,1.1
		c-1,0.4-1.8,0.8-2.6,1.3c-1.9-1.3-4.1-2.3-6.6-2.9c-2.1-0.5-4.5-0.8-6.9-0.8c-3.3,0-6,0.3-8.5,0.9c-1.8,0.4-3.5,1-4.9,1.6
		c-1.6-1.1-3.6-1.7-5.7-1.7h-8.2l-0.2,0V10c0-5.7-4.3-10-10-10h-8.9c-5.7,0-10,4.3-10,10v2.1c-0.5-0.2-1-0.3-1.4-0.4
		c-2.1-0.5-4.5-0.8-6.9-0.8c-1.9,0-3.7,0.1-5.3,0.3c-0.7-4.8-4.7-8.3-9.8-8.3h-8.3c-3,0-5.1,1.1-6.3,2L98,4.8
		c-1.2-0.9-3.3-1.9-6.2-1.9H81.7c-5.7,0-9.9,4.3-9.9,9.9c0,0.9,0.1,1.9,0.4,2.8c0.1,0.4,0.2,0.8,0.4,1.2l11.2,33.4l0,0.1
		c0.7,2,1.9,3.7,3.4,4.9c1.1,0.9,3,1.9,5.7,2.1c-1,0.5-1.9,1.2-2.8,1.9c-0.7-0.6-1.5-1.2-2.4-1.7c-1.7-1-3.7-1.7-5.9-2.2
		c-2.1-0.5-4.5-0.8-7.1-0.8c-2.5,0-4.9,0.3-7.1,0.8c-0.6,0.1-1.2,0.3-1.8,0.5c0-0.2-0.1-0.3-0.1-0.5c0.7-0.4,1.5-0.8,2.2-1.3
		c2.1-1.5,3.8-3.4,5.1-5.5c1.5-2.5,2.3-5.3,2.3-8.3c0-1.5-0.3-2.9-0.8-4.2c0.5-1.4,0.8-3,0.8-4.7c0-2.9-0.6-5.7-1.7-8.3
		c-1.1-2.6-2.7-4.8-4.8-6.7c-1.9-1.7-4.2-3.1-6.7-4c-2.5-0.9-5.1-1.4-7.9-1.4c-2.9,0-5.7,0.4-8.3,1.3c-0.6,0.2-1.1,0.4-1.6,0.6v-2.5
		c0-5.6-4.3-9.9-9.9-9.9h-8.4c-5.7,0-9.9,4.3-9.9,9.9v2.8c-1.5,0.3-2.9,0.8-4.3,1.4c-2.6,1.3-4.9,3-6.8,5.3c-1.7,2.1-3,4.6-3.9,7.4
		C0.4,29.9,0,32.7,0,35.8c0,3,0.4,5.7,1.3,8.3c0.7,2.2,1.8,4.3,3.2,6c-0.3,0.3-0.7,0.6-0.9,1c-1.1,1.3-2.4,3.4-2.4,6.6v32.5
		c0,3.2,1.3,5.4,2.4,6.6c1.2,1.4,2.9,2.5,4.8,3.2c0.7,0.2,1.4,0.4,2.4,0.6c0.9,0.2,1.9,0.3,3,0.4c0.9,0.1,2,0.2,3.1,0.3
		c1.2,0.1,2.5,0.1,3.8,0.1c4.6,0,8.6-0.6,12.1-1.8c2.1-0.8,4.1-1.7,5.9-2.9c1.8,2.6,4.7,4.2,8.2,4.2h9c2.3,0,4.3-0.7,6-1.9
		c1.4,0.7,2.9,1.3,4.6,1.7c2.4,0.6,5.1,1,8,1c2.9,0,5.5-0.4,7.9-1.1c2.6-0.8,4.8-1.9,6.7-3.3c0.2-0.2,0.4-0.4,0.7-0.6
		c1.7,1.4,3.7,2.6,5.8,3.4c2.7,1,5.6,1.6,8.6,1.6c2.4,0,4.8-0.4,7.1-1.1c2.4-0.8,4.6-1.9,6.5-3.3c0.1-0.1,0.2-0.2,0.3-0.2
		c0.5,1.3,1.3,2.4,2.3,3.3c1.1,0.9,2.4,1.6,3.8,1.9c0.8,1.1,2,2,3.3,2.6c1.3,0.6,2.7,0.9,4.2,0.7c1.1,0.8,2.5,1.4,3.9,1.6
		c0.4,0.1,0.8,0.1,1.2,0.1c1,0,2-0.2,3-0.5c1.3,0.5,2.8,0.7,4.2,0.5c1.4-0.2,2.8-0.8,3.9-1.6c1.4,0.1,2.8-0.1,4.2-0.7
		c1.3-0.6,2.4-1.5,3.3-2.7c1.4-0.3,2.7-0.9,3.8-1.9c1.1-0.9,1.9-2.1,2.4-3.5c0.2-0.1,0.4-0.2,0.5-0.3c0.1,0.1,0.1,0.1,0.2,0.2
		c1.5,1.3,3.3,2.3,5.2,3c1.5,0.6,3,1,4.5,1.3c1.4,0.3,2.9,0.5,4.2,0.5c1.2,0.1,2.2,0.1,3.1,0.1c1.5,0,2.9-0.1,4.4-0.2
		c1.5-0.1,2.9-0.3,4.2-0.6c1.3-0.3,2.4-0.5,3.5-0.8c1-0.3,1.8-0.6,2.6-1c1.6,1.2,3.7,1.9,6,1.9h9c1.4,0,2.7-0.2,3.8-0.7
		c1.2,0.5,2.5,0.7,3.8,0.7h9c2.7,0,5-0.9,6.7-2.5c0.1,0.1,0.2,0.2,0.3,0.3c1.9,1.3,4.1,2.2,6.4,2.6c1.7,0.3,3.4,0.5,4.9,0.5
		c1.6,0,3.1-0.2,4.6-0.4c1.6-0.3,3.1-0.8,4.4-1.5c0.9-0.4,1.7-0.9,2.4-1.5c1.3,0.8,2.6,1.4,4.1,1.9c2.7,0.9,5.7,1.4,8.8,1.4
		c2.4,0,4.7-0.3,7-1c1.6-0.5,3.2-1.2,4.6-2c1.7,1.4,3.9,2.2,6.4,2.2h9c5.7,0,10-4.3,10-10v-8.2c3.5-0.1,6.6-1.5,8.9-3.9
		c1.6-1.7,3.4-4.7,3.4-9.5C317.5,64.6,315.4,60.6,311.5,57.8z M270.4,10.1c0.3-0.3,0.6-0.4,0.9-0.5c0.2,0.1,0.5,0.2,0.9,0.5
		c0.4,0.3,0.8,0.9,1.1,1.6h-4C269.5,11,269.9,10.4,270.4,10.1z"/>
</g>
<g id="Layer_3">
	<g>
		<g>
			<path fill="#0574B9" d="M114.2,12.8c0,0.2,0,0.4-0.1,0.6c-0.1,0.2-0.1,0.4-0.2,0.6l-11.3,33.6c-0.2,0.5-0.4,0.8-0.6,1
				c-0.2,0.2-0.6,0.3-1.2,0.3h-7.2c-0.5,0-0.9-0.1-1.2-0.3c-0.2-0.2-0.5-0.5-0.6-1L80.5,13.9c-0.1-0.2-0.1-0.4-0.2-0.6
				c-0.1-0.2-0.1-0.4-0.1-0.6c0-1,0.5-1.4,1.4-1.4h10.1c0.5,0,0.9,0.1,1.2,0.3c0.3,0.2,0.5,0.5,0.6,1l3.4,14.6
				c0.2,0.7,0.3,1.6,0.5,2.5c0.1,0.9,0.2,1.7,0.3,2.2c0.1,0.5,0.1,0.9,0.1,0.9h0.1c0-0.1,0-0.4,0.1-0.9c0.1-0.5,0.2-1.3,0.4-2.2
				c0.2-0.9,0.3-1.8,0.5-2.5l3.8-14.6c0.1-0.5,0.3-0.8,0.6-1c0.2-0.2,0.6-0.3,1.2-0.3h8.3C113.7,11.4,114.2,11.9,114.2,12.8z"/>
			<path fill="#0574B9" d="M139.4,45.8c-0.3,0.7-0.9,1.4-1.9,1.9c-0.4,0.3-1.1,0.5-1.8,0.7c-0.8,0.2-1.6,0.4-2.6,0.6
				c-0.9,0.2-1.9,0.3-3,0.4c-1.1,0.1-2.1,0.2-3.2,0.2c-1.7,0-3.4-0.1-5.1-0.3c-1.7-0.2-3.3-0.6-4.7-1.2c-1.4-0.6-2.6-1.4-3.5-2.5
				c-0.9-1.1-1.4-2.5-1.4-4.3c0-2,0.5-3.5,1.6-4.8c1.1-1.2,2.4-2.2,4-3c1.6-0.7,3.4-1.3,5.3-1.7c1.9-0.4,3.7-0.8,5.4-1.1v-3.3
				c0-0.8-0.2-1.3-0.6-1.7c-0.4-0.4-0.9-0.6-1.5-0.6c-0.7,0-1.2,0.2-1.7,0.7c-0.5,0.5-0.8,1-1,1.6c-0.3,1-0.9,1.7-1.8,2.2
				c-0.9,0.5-2,0.8-3.3,0.8c-1.4,0-2.6-0.4-3.6-1.1c-1-0.7-1.5-1.8-1.5-3.2c0-0.8,0.3-1.6,0.8-2.5c0.5-0.8,1.4-1.6,2.5-2.3
				c1.2-0.7,2.7-1.2,4.5-1.6c1.8-0.4,4-0.6,6.6-0.6c1.7,0,3.3,0.2,4.8,0.6c1.5,0.4,2.7,0.9,3.8,1.7c1.1,0.8,1.9,1.7,2.5,2.9
				c0.6,1.2,0.9,2.6,0.9,4.3V43C139.8,44.1,139.7,45.1,139.4,45.8z M128.4,35.7c-0.6,0.1-1.2,0.2-1.8,0.4c-0.6,0.2-1.1,0.5-1.6,0.8
				c-0.5,0.4-0.9,0.8-1.2,1.4c-0.3,0.6-0.4,1.3-0.4,2.1c0,1.1,0.3,1.9,0.8,2.4c0.6,0.6,1.3,0.8,2.1,0.8c0.6,0,1.1-0.2,1.5-0.5
				c0.4-0.3,0.6-0.8,0.6-1.4V35.7z"/>
			<path fill="#0574B9" d="M175.8,47.3c0,1-0.5,1.5-1.5,1.5h-9.6c-0.6,0-1.1-0.1-1.4-0.3c-0.3-0.2-0.6-0.6-0.9-1.2L158,39
				c-0.4-0.8-0.9-2-1.4-3.5h-0.1v11.8c0,1-0.5,1.5-1.5,1.5h-8.9c-1,0-1.5-0.5-1.5-1.5V10c0-1,0.5-1.5,1.5-1.5h8.9
				c1,0,1.5,0.5,1.5,1.5v21.2h0.1l6.3-9.5c0.4-0.5,0.7-0.9,1-1.1c0.3-0.2,0.7-0.4,1.4-0.4h8.2c1,0,1.5,0.5,1.5,1.5
				c0,0.4-0.2,0.8-0.5,1.2l-7.7,9.3l8.7,14C175.7,46.6,175.8,47,175.8,47.3z"/>
			<path fill="#0574B9" d="M204.2,45.8c-0.3,0.7-0.9,1.4-1.9,1.9c-0.4,0.3-1.1,0.5-1.8,0.7c-0.8,0.2-1.6,0.4-2.6,0.6
				c-0.9,0.2-1.9,0.3-3,0.4c-1.1,0.1-2.1,0.2-3.2,0.2c-1.7,0-3.4-0.1-5.1-0.3c-1.7-0.2-3.3-0.6-4.7-1.2c-1.4-0.6-2.6-1.4-3.5-2.5
				c-0.9-1.1-1.4-2.5-1.4-4.3c0-2,0.5-3.5,1.6-4.8c1.1-1.2,2.4-2.2,4-3c1.6-0.7,3.4-1.3,5.3-1.7c1.9-0.4,3.7-0.8,5.4-1.1v-3.3
				c0-0.8-0.2-1.3-0.6-1.7c-0.4-0.4-0.9-0.6-1.5-0.6c-0.7,0-1.2,0.2-1.7,0.7c-0.5,0.5-0.8,1-1,1.6c-0.3,1-0.9,1.7-1.8,2.2
				c-0.9,0.5-2,0.8-3.3,0.8c-1.4,0-2.6-0.4-3.6-1.1c-1-0.7-1.5-1.8-1.5-3.2c0-0.8,0.3-1.6,0.8-2.5c0.5-0.8,1.4-1.6,2.5-2.3
				c1.2-0.7,2.7-1.2,4.5-1.6c1.8-0.4,4-0.6,6.6-0.6c1.7,0,3.3,0.2,4.8,0.6c1.5,0.4,2.7,0.9,3.8,1.7c1.1,0.8,1.9,1.7,2.5,2.9
				c0.6,1.2,0.9,2.6,0.9,4.3V43C204.7,44.1,204.5,45.1,204.2,45.8z M193.3,35.7c-0.6,0.1-1.2,0.2-1.8,0.4c-0.6,0.2-1.1,0.5-1.6,0.8
				c-0.5,0.4-0.9,0.8-1.2,1.4c-0.3,0.6-0.4,1.3-0.4,2.1c0,1.1,0.3,1.9,0.8,2.4c0.6,0.6,1.3,0.8,2.1,0.8c0.6,0,1.1-0.2,1.5-0.5
				c0.4-0.3,0.6-0.8,0.6-1.4V35.7z"/>
			<path fill="#0574B9" d="M236.5,48.8h-9c-1,0-1.5-0.5-1.5-1.5V28.4c0-0.8-0.2-1.5-0.5-2c-0.3-0.5-0.9-0.8-1.8-0.8
				c-0.9,0-1.5,0.3-1.8,0.8c-0.3,0.5-0.5,1.2-0.5,2v18.9c0,1-0.5,1.5-1.5,1.5h-9c-1,0-1.5-0.5-1.5-1.5V24.9c0-1.1,0.2-1.9,0.5-2.4
				c0.3-0.5,1-0.9,2-1.4c0.6-0.3,1.3-0.5,2.2-0.7c0.9-0.2,1.9-0.4,3-0.6c1.1-0.2,2.2-0.3,3.4-0.4c1.2-0.1,2.3-0.1,3.5-0.1
				c4.6,0,8.1,0.8,10.5,2.3c2.4,1.5,3.5,3.6,3.5,6.2v19.4C238,48.3,237.5,48.8,236.5,48.8z"/>
			<path fill="#0574B9" d="M262,45.9c0,0.6-0.2,1.1-0.6,1.5c-0.4,0.5-0.9,0.9-1.6,1.2c-0.7,0.3-1.5,0.6-2.4,0.8s-1.9,0.3-2.8,0.3
				c-1.1,0-2.2-0.1-3.4-0.3c-1.2-0.2-2.3-0.7-3.2-1.3c-1-0.7-1.8-1.6-2.4-2.8c-0.6-1.2-1-2.8-1-4.8V26.5h-2.3c-1,0-1.5-0.5-1.5-1.5
				v-3.3c0-1,0.5-1.5,1.5-1.5h2.3v-3c0-0.9,0.3-1.5,1-1.8l8.4-3.2c0.2-0.1,0.3-0.1,0.5-0.2c0.1,0,0.3-0.1,0.5-0.1
				c1,0,1.5,0.5,1.5,1.5v6.7h3.7c1,0,1.5,0.5,1.5,1.5V25c0,1-0.5,1.5-1.5,1.5h-3.7v14.3c0,1.2,0.3,2,0.8,2.5c0.5,0.4,1.2,0.6,2,0.6
				h0.7C261.4,43.9,262,44.6,262,45.9z"/>
			<path fill="#0574B9" d="M277.3,13.6c0,1.2-0.5,2.3-1.6,3.1c-1.1,0.9-2.6,1.3-4.5,1.3s-3.4-0.4-4.5-1.3c-1.1-0.9-1.6-1.9-1.6-3.1
				c0-1.2,0.5-2.2,1.6-3.1c1.1-0.8,2.6-1.3,4.5-1.3s3.4,0.4,4.5,1.3C276.8,11.3,277.3,12.4,277.3,13.6z M275.7,48.8h-9
				c-1,0-1.5-0.5-1.5-1.5V21.7c0-1,0.5-1.5,1.5-1.5h9c1,0,1.5,0.5,1.5,1.5v25.7C277.2,48.3,276.7,48.8,275.7,48.8z"/>
			<path fill="#0574B9" d="M308.3,40.1c0,1.4-0.4,2.7-1,3.9c-0.7,1.2-1.6,2.2-2.8,3c-1.2,0.8-2.5,1.5-4,1.9c-1.5,0.4-3,0.7-4.5,0.7
				c-2.2,0-4.2-0.3-6.1-0.9c-1.8-0.6-3.4-1.6-4.7-2.9s-2.3-2.9-3.1-4.8c-0.7-1.9-1.1-4.2-1.1-6.8c0-2.5,0.4-4.7,1.2-6.6
				c0.8-1.8,1.8-3.4,3.2-4.6c1.3-1.2,2.9-2.1,4.7-2.7c1.8-0.6,3.7-0.9,5.7-0.9c1.7,0,3.4,0.3,4.9,0.9c1.5,0.6,2.8,1.4,4,2.4
				c1.1,1,2,2.3,2.7,3.8c0.6,1.5,1,3.1,1,4.9c0,1.2-0.2,2-0.7,2.5c-0.4,0.5-1.1,0.8-2,0.9l-13.5,2.2c0.4,1.2,1.1,2.1,2.1,2.8
				c0.9,0.7,2.3,1.1,4,1.1c1.3,0,2.4-0.3,3.4-0.8c1-0.5,1.7-1,2.1-1.3c0.3-0.3,0.6-0.5,1-0.7c0.4-0.2,0.8-0.3,1.3-0.3
				c0.7,0,1.2,0.2,1.7,0.7C308.1,38.7,308.3,39.4,308.3,40.1z M297.3,28.5c-0.1-0.6-0.2-1.1-0.5-1.5c-0.2-0.4-0.5-0.8-0.9-1.1
				c-0.4-0.3-0.9-0.4-1.5-0.4c-0.7,0-1.2,0.2-1.6,0.6c-0.4,0.4-0.8,0.8-1,1.4c-0.3,0.6-0.4,1.2-0.5,1.9c-0.1,0.7-0.1,1.3-0.1,1.9
				l6.3-1.1C297.5,29.6,297.4,29.1,297.3,28.5z"/>
		</g>
		<path fill="#0574B9" d="M41.1,73.9c0,2.9-0.4,5.5-1.1,7.8c-0.8,2.3-2,4.3-3.6,6c-1.7,1.6-3.8,2.9-6.3,3.8
			c-2.6,0.9-5.7,1.4-9.3,1.4c-1.1,0-2.2,0-3.2-0.1c-1-0.1-1.9-0.1-2.8-0.2c-0.9-0.1-1.6-0.2-2.2-0.3c-0.6-0.1-1.1-0.2-1.4-0.3
			c-0.5-0.2-0.9-0.4-1.1-0.6c-0.2-0.2-0.3-0.6-0.3-1.1V57.7c0-0.5,0.1-0.9,0.3-1.1c0.2-0.2,0.6-0.5,1.1-0.6c0.3-0.1,0.8-0.2,1.4-0.3
			c0.6-0.1,1.4-0.2,2.2-0.3c0.9-0.1,1.8-0.2,2.8-0.2c1-0.1,2-0.1,3.1-0.1c3.7,0,6.8,0.5,9.4,1.4c2.6,0.9,4.7,2.2,6.3,3.8
			c1.7,1.7,2.9,3.6,3.6,6C40.7,68.5,41.1,71.1,41.1,73.9z M28.6,73.7c0-3.9-0.4-6.9-1.3-8.8c-0.9-1.9-2.4-2.9-4.7-2.9
			c-0.2,0-0.3,0-0.5,0c-0.1,0-0.2,0-0.4,0.1v23.2c0.2,0,0.3,0.1,0.4,0.1c0.1,0,0.3,0,0.5,0c2.3,0,3.8-0.9,4.7-2.8
			C28.2,80.5,28.6,77.6,28.6,73.7z"/>
		<path fill="#0574B9" d="M57.4,57.1c0,1.2-0.5,2.3-1.6,3.1c-1.1,0.9-2.6,1.3-4.5,1.3c-1.9,0-3.4-0.4-4.5-1.3
			c-1.1-0.9-1.6-1.9-1.6-3.1c0-1.2,0.5-2.2,1.6-3.1c1.1-0.8,2.6-1.3,4.5-1.3c1.9,0,3.4,0.4,4.5,1.3C56.9,54.9,57.4,55.9,57.4,57.1z
			 M55.8,92.4h-9c-1,0-1.5-0.5-1.5-1.5V65.2c0-1,0.5-1.5,1.5-1.5h9c1,0,1.5,0.5,1.5,1.5v25.7C57.3,91.9,56.8,92.4,55.8,92.4z"/>
		<path fill="#0574B9" d="M87.4,83.8c0,1.3-0.3,2.6-0.9,3.7c-0.6,1.2-1.4,2.2-2.5,3c-1.1,0.8-2.5,1.5-4.1,2
			c-1.6,0.5-3.4,0.7-5.5,0.7c-2.2,0-4.1-0.2-5.8-0.7c-1.7-0.4-3-1-4.1-1.7c-1.1-0.7-1.9-1.5-2.4-2.4c-0.5-0.9-0.8-1.8-0.8-2.7
			c0-1.3,0.4-2.3,1.2-3.1c0.8-0.8,2-1.1,3.4-1.1c1.2,0,2.2,0.3,3.1,0.8c0.9,0.5,1.5,1.2,2,2c0.4,0.8,0.8,1.4,1.3,1.8
			c0.5,0.4,1.1,0.6,1.8,0.6c0.5,0,1-0.2,1.3-0.5c0.4-0.3,0.6-0.7,0.6-1.3c0-0.8-0.4-1.5-1.1-2.1c-0.7-0.5-1.6-1-2.6-1.5
			c-1.1-0.4-2.2-0.9-3.4-1.3c-1.2-0.4-2.4-1-3.4-1.7c-1.1-0.7-1.9-1.6-2.6-2.6c-0.7-1-1.1-2.4-1.1-4c0-1.5,0.3-2.8,0.9-3.9
			c0.6-1.1,1.5-2,2.7-2.8c1.1-0.7,2.5-1.3,4.1-1.7c1.6-0.4,3.3-0.6,5.1-0.6c1.9,0,3.6,0.2,5.1,0.5c1.5,0.4,2.7,0.8,3.7,1.4
			c1,0.6,1.8,1.3,2.3,2c0.5,0.8,0.8,1.6,0.8,2.5c0,1.2-0.4,2.2-1.2,2.8c-0.8,0.7-1.8,1-3.1,1c-1.1,0-2-0.3-2.9-0.8
			c-0.8-0.5-1.5-1.2-1.9-2.1c-0.4-0.7-0.8-1.3-1.2-1.6c-0.4-0.3-1-0.5-1.6-0.5c-0.6,0-1.1,0.2-1.4,0.6c-0.3,0.4-0.5,0.8-0.5,1.3
			c0,0.9,0.4,1.6,1.1,2.1c0.7,0.5,1.6,1,2.7,1.4c1.1,0.4,2.3,0.9,3.5,1.3c1.3,0.4,2.5,1,3.5,1.7c1.1,0.7,2,1.6,2.7,2.7
			C87.1,80.6,87.4,82,87.4,83.8z"/>
		<path fill="#0574B9" d="M116.5,83.4c0,1.5-0.3,2.8-1,4c-0.7,1.2-1.6,2.2-2.7,3.1c-1.1,0.8-2.4,1.5-3.9,2c-1.5,0.5-3,0.7-4.6,0.7
			c-2,0-3.8-0.3-5.6-1c-1.7-0.7-3.2-1.6-4.4-2.9C93,88,92,86.4,91.3,84.6c-0.7-1.9-1.1-4-1.1-6.3c0-2.2,0.3-4.2,0.9-6.1
			c0.6-1.9,1.4-3.5,2.6-4.8c1.2-1.4,2.6-2.4,4.5-3.2c1.8-0.8,3.9-1.2,6.4-1.2c1.9,0,3.6,0.2,5.1,0.7c1.5,0.4,2.7,1,3.7,1.7
			c1,0.7,1.8,1.5,2.3,2.4c0.5,0.9,0.8,1.8,0.8,2.6c0,1.4-0.4,2.5-1.2,3.4c-0.8,0.9-2.2,1.3-4,1.3c-1.4,0-2.5-0.4-3.2-1.1
			c-0.7-0.8-1.2-1.6-1.5-2.6c-0.2-0.6-0.4-1.1-0.8-1.5c-0.3-0.5-0.9-0.7-1.6-0.7c-0.8,0-1.4,0.5-2,1.5c-0.5,1-0.8,2.5-0.8,4.3
			c0,1.2,0.1,2.3,0.3,3.4c0.2,1.1,0.6,2,1.1,2.8c0.5,0.8,1.1,1.5,1.8,2c0.7,0.5,1.6,0.7,2.6,0.7c1.2,0,2.1-0.2,2.7-0.6
			c0.6-0.4,1.2-0.9,1.7-1.4c0.4-0.4,0.8-0.7,1.2-0.9c0.4-0.2,0.8-0.3,1.3-0.3c0.7,0,1.3,0.2,1.7,0.7
			C116.3,81.9,116.5,82.6,116.5,83.4z"/>
		<path fill="#0574B9" d="M192.7,89.2c-0.3,0.7-0.9,1.3-1.8,1.9c-0.5,0.3-1.1,0.6-1.9,0.8c-0.8,0.2-1.7,0.5-2.7,0.7
			c-1,0.2-2.1,0.4-3.3,0.5c-1.2,0.1-2.4,0.2-3.6,0.2c-0.8,0-1.7,0-2.7-0.1c-1-0.1-2-0.2-3.1-0.4c-1.1-0.2-2.1-0.5-3.1-0.9
			c-1-0.4-1.9-0.9-2.7-1.6c-0.8-0.7-1.5-1.5-1.9-2.5c-0.5-1-0.7-2.2-0.7-3.7V65.2c0-1,0.5-1.5,1.5-1.5h9c1,0,1.5,0.5,1.5,1.5V84
			c0,0.7,0.2,1.2,0.6,1.6c0.4,0.4,0.9,0.5,1.5,0.5c0.6,0,1.1-0.2,1.5-0.5c0.4-0.4,0.6-0.9,0.6-1.6V65.2c0-1,0.5-1.5,1.5-1.5h9
			c1,0,1.5,0.5,1.5,1.5v21.4C193.1,87.6,193,88.5,192.7,89.2z"/>
		<path fill="#0574B9" d="M225.5,92.4h-9c-1,0-1.5-0.5-1.5-1.5V72c0-0.8-0.2-1.5-0.5-2c-0.3-0.5-0.9-0.8-1.8-0.8
			c-0.9,0-1.5,0.3-1.8,0.8c-0.3,0.5-0.5,1.2-0.5,2v18.9c0,1-0.5,1.5-1.5,1.5h-9c-1,0-1.5-0.5-1.5-1.5V68.5c0-1.1,0.2-1.9,0.5-2.4
			c0.3-0.5,1-0.9,2-1.4c0.6-0.3,1.3-0.5,2.2-0.7c0.9-0.2,1.9-0.4,3-0.6c1.1-0.2,2.2-0.3,3.4-0.4c1.2-0.1,2.3-0.1,3.5-0.1
			c4.6,0,8.1,0.8,10.5,2.3c2.4,1.5,3.5,3.6,3.5,6.2v19.4C227,91.9,226.5,92.4,225.5,92.4z"/>
		<path fill="#0574B9" d="M251.4,89.5c0,0.6-0.2,1.1-0.6,1.5c-0.4,0.5-0.9,0.9-1.6,1.2c-0.7,0.3-1.5,0.6-2.4,0.8
			c-0.9,0.2-1.9,0.3-2.9,0.3c-1.1,0-2.2-0.1-3.4-0.3c-1.2-0.2-2.3-0.7-3.2-1.3c-1-0.7-1.8-1.6-2.4-2.8c-0.6-1.2-1-2.8-1-4.8V70h-2.3
			c-1,0-1.5-0.5-1.5-1.5v-3.3c0-1,0.5-1.5,1.5-1.5h2.3v-3c0-0.9,0.3-1.5,1-1.8l8.4-3.2c0.2-0.1,0.3-0.1,0.5-0.2
			c0.1,0,0.3-0.1,0.5-0.1c1,0,1.5,0.5,1.5,1.5v6.8h3.7c1,0,1.5,0.5,1.5,1.5v3.3c0,1-0.5,1.5-1.5,1.5h-3.7v14.3c0,1.2,0.3,2,0.8,2.5
			c0.5,0.4,1.2,0.6,2,0.6h0.7C250.7,87.5,251.4,88.1,251.4,89.5z"/>
		<path fill="#0574B9" d="M280.6,83.7c0,1.4-0.4,2.7-1.1,3.9c-0.7,1.2-1.6,2.2-2.8,3c-1.2,0.8-2.5,1.5-4,1.9c-1.5,0.4-3,0.7-4.5,0.7
			c-2.2,0-4.2-0.3-6.1-0.9c-1.8-0.6-3.4-1.6-4.7-2.9s-2.3-2.9-3.1-4.8c-0.7-1.9-1.1-4.2-1.1-6.8c0-2.5,0.4-4.7,1.2-6.6
			c0.8-1.8,1.8-3.4,3.2-4.6c1.3-1.2,2.9-2.1,4.7-2.7c1.8-0.6,3.7-0.9,5.7-0.9c1.7,0,3.4,0.3,4.9,0.9c1.5,0.6,2.8,1.4,4,2.4
			c1.1,1,2,2.3,2.7,3.8c0.6,1.5,1,3.1,1,4.9c0,1.2-0.2,2-0.7,2.5c-0.4,0.5-1.1,0.8-2,0.9l-13.5,2.2c0.4,1.2,1.1,2.1,2.1,2.8
			c0.9,0.7,2.3,1.1,4,1.1c1.3,0,2.4-0.3,3.4-0.8c1-0.5,1.7-1,2.1-1.3c0.3-0.3,0.6-0.5,1-0.7c0.4-0.2,0.8-0.3,1.3-0.3
			c0.7,0,1.2,0.2,1.7,0.7C280.4,82.3,280.6,82.9,280.6,83.7z M269.6,72.1c-0.1-0.6-0.2-1.1-0.5-1.5c-0.2-0.4-0.5-0.8-0.9-1.1
			c-0.4-0.3-0.9-0.4-1.5-0.4c-0.7,0-1.2,0.2-1.6,0.6c-0.4,0.4-0.8,0.8-1,1.4c-0.3,0.6-0.4,1.2-0.5,1.9c-0.1,0.7-0.1,1.3-0.1,1.9
			l6.3-1.1C269.8,73.2,269.7,72.6,269.6,72.1z"/>
		<path fill="#0574B9" d="M309,69.2c0,1.7-0.4,2.9-1.2,3.7c-0.8,0.8-1.9,1.2-3.3,1.2c-1.3,0-2.2-0.3-2.8-0.8c-0.6-0.5-1-1.1-1.3-1.7
			c-0.3-0.6-0.6-1.2-0.9-1.7c-0.3-0.5-0.8-0.8-1.5-0.8c-0.4,0-0.8,0.1-1.1,0.4c-0.3,0.3-0.4,0.7-0.4,1.1v20.2c0,1-0.5,1.5-1.5,1.5
			h-9c-1,0-1.5-0.5-1.5-1.5V68.5c0-1.1,0.2-1.9,0.5-2.4c0.3-0.5,1-0.9,2-1.4c1.1-0.5,2.6-0.9,4.6-1.2c2-0.4,4.3-0.5,6.7-0.5
			c3.7,0,6.3,0.6,8,1.7C308.2,65.9,309,67.4,309,69.2z"/>
		<g>
			<polygon fill="#E9217A" points="160.8,78.1 157.7,80.7 159.9,84 156.2,85.6 157.4,89.4 153.4,89.9 153.5,93.9 149.6,93.3 
				148.5,97.1 144.9,95.4 142.8,98.8 139.8,96.1 136.8,98.8 134.7,95.4 131.1,97.1 130.1,93.3 126.1,93.9 126.2,89.9 122.2,89.4 
				123.4,85.6 119.7,84 121.9,80.7 118.9,78.1 121.9,75.5 119.7,72.2 123.4,70.6 122.2,66.8 126.2,66.3 126.1,62.3 130.1,62.9 
				131.1,59 134.7,60.8 136.8,57.3 139.8,60 142.8,57.3 144.9,60.8 148.5,59 149.6,62.9 153.5,62.3 153.4,66.3 157.4,66.8 
				156.2,70.6 159.9,72.2 157.7,75.5 			"/>
		</g>
		<path fill="#0574B9" d="M35.4,45.9c-0.3,0.6-0.9,1.2-1.8,1.7c-0.4,0.2-0.9,0.5-1.7,0.7c-0.7,0.2-1.6,0.4-2.5,0.6
			c-0.9,0.2-1.9,0.3-3,0.4c-1,0.1-2.1,0.2-3,0.2c-2.7,0-5-0.3-6.8-1c-1.9-0.7-3.4-1.6-4.6-2.8c-1.2-1.2-2.1-2.6-2.7-4.3
			c-0.6-1.7-0.8-3.6-0.8-5.6c0-2.2,0.3-4.2,0.9-6c0.6-1.8,1.4-3.3,2.4-4.6c1-1.3,2.3-2.3,3.8-3c1.5-0.7,3.2-1.1,5-1.1
			c1.1,0,2,0.1,2.6,0.3c0.7,0.2,1.1,0.4,1.5,0.6V10.3c0-0.9,0.5-1.4,1.4-1.4h8.4c0.9,0,1.4,0.5,1.4,1.4v33.1
			C35.9,44.5,35.7,45.3,35.4,45.9z M24.7,27c-0.2-0.1-0.4-0.1-0.5-0.2c-0.2-0.1-0.5-0.1-0.9-0.1c-0.9,0-1.7,0.6-2.4,1.8
			c-0.7,1.2-1,3.2-1,6c0,2.5,0.3,4.6,1,6.2c0.6,1.6,1.5,2.4,2.5,2.4c0.9,0,1.4-0.5,1.4-1.4V27z"/>
		<path fill="#0574B9" d="M66.8,40.1c0,1.4-0.4,2.7-1.1,3.9c-0.7,1.2-1.6,2.2-2.8,3c-1.2,0.8-2.5,1.5-4,1.9c-1.5,0.4-3,0.7-4.5,0.7
			c-2.2,0-4.2-0.3-6.1-0.9c-1.8-0.6-3.4-1.6-4.7-2.9c-1.3-1.3-2.3-2.9-3.1-4.8c-0.7-1.9-1.1-4.2-1.1-6.8c0-2.5,0.4-4.7,1.2-6.6
			c0.8-1.8,1.8-3.4,3.2-4.6c1.3-1.2,2.9-2.1,4.7-2.7c1.8-0.6,3.7-0.9,5.7-0.9c1.7,0,3.4,0.3,4.9,0.9c1.5,0.6,2.8,1.4,4,2.4
			c1.1,1,2,2.3,2.7,3.8c0.6,1.5,1,3.1,1,4.9c0,1.2-0.2,2-0.7,2.5c-0.4,0.5-1.1,0.8-2,0.9l-13.5,2.2c0.4,1.2,1.1,2.1,2.1,2.8
			c0.9,0.7,2.3,1.1,4,1.1c1.3,0,2.4-0.3,3.4-0.8c1-0.5,1.7-1,2.1-1.3c0.3-0.3,0.6-0.5,1-0.7c0.4-0.2,0.8-0.3,1.3-0.3
			c0.7,0,1.2,0.2,1.7,0.7C66.6,38.7,66.8,39.4,66.8,40.1z M55.9,28.5c-0.1-0.6-0.2-1.1-0.5-1.5c-0.2-0.4-0.5-0.8-0.9-1.1
			c-0.4-0.3-0.9-0.4-1.5-0.4c-0.7,0-1.2,0.2-1.6,0.6c-0.4,0.4-0.8,0.8-1,1.4c-0.3,0.6-0.4,1.2-0.5,1.9c-0.1,0.7-0.1,1.3-0.1,1.9
			l6.3-1.1C56,29.6,55.9,29.1,55.9,28.5z"/>
	</g>
</g>
</svg>
