<svg xmlns="http://www.w3.org/2000/svg" viewBox="0 0 205 30.64" data-ph-id="ph-page-element-short-header-npd0m4-6KQbqj">
    <title data-ph-id="ph-page-element-short-header-npd0m4-WdX11f">testpage001</title>
    <path class="a"
          d="M15.95,30.32H20.5V18.87a2.26,2.26,0,0,0-.67-1.62l-6.75-6.75a2.25,2.25,0,0,0-1.62-.67H0v4.56H12.53a3.42,3.42,0,0,1,3.42,3.42Z"
          transform="translate(0 -0.18)" data-ph-id="ph-page-element-short-header-npd0m4-uZH7cb"></path>
    <path class="a"
          d="M27.28,30.32H22.72V18.87a2.26,2.26,0,0,1,.67-1.62l6.75-6.75a2.25,2.25,0,0,1,1.62-.67H43.22v4.56H30.69a3.42,3.42,0,0,0-3.42,3.42Z"
          transform="translate(0 -0.18)" data-ph-id="ph-page-element-short-header-npd0m4-wQD80M"></path>
    <path class="a"
          d="M63.8,9.82h3.52V13h.08a6.24,6.24,0,0,1,5.34-3.66,10.69,10.69,0,0,1,2.49.28V13a5.6,5.6,0,0,0-2.09-.36c-3.38,0-5.59,3.22-5.59,8.37v9.33H63.8Z"
          transform="translate(0 -0.18)" data-ph-id="ph-page-element-short-header-npd0m4-bbDmFd"></path>
    <path class="a"
          d="M179.24,22.35c0,3.09-2,5.44-5.7,5.44-1.72,0-3.81-1.18-3.81-3.36,0-3.65,5.06-4,7.1-4,.8,0,1.6.08,2.41.08Zm-11-7.87a9.52,9.52,0,0,1,5.94-2.13c3.77,0,5.05,1.84,5.05,5.38-1.48-.08-2.53-.08-4-.08-3.89,0-9.52,1.6-9.52,6.75,0,4.5,3.1,6.42,7.51,6.42a7.6,7.6,0,0,0,6.34-3.11h.08v2.61H183V17.79c0-5.6-2.36-8.47-8.21-8.47A13.1,13.1,0,0,0,168,11.24Z"
          transform="translate(0 -0.18)" data-ph-id="ph-page-element-short-header-npd0m4-qfVorN"></path>
    <path class="a"
          d="M88,22.35c0,3.09-2,5.44-5.7,5.44-1.73,0-3.81-1.18-3.81-3.36,0-3.65,5.06-4,7.1-4,.8,0,1.6.08,2.41.08ZM77,14.48A9.52,9.52,0,0,1,83,12.35c3.77,0,5.06,1.84,5.06,5.38-1.48-.08-2.53-.08-4-.08-3.89,0-9.52,1.6-9.52,6.75,0,4.5,3.1,6.42,7.51,6.42a7.6,7.6,0,0,0,6.34-3.11h.08v2.61H91.8V17.79c0-5.6-2.36-8.47-8.21-8.47a13.1,13.1,0,0,0-6.74,1.92Z"
          transform="translate(0 -0.18)" data-ph-id="ph-page-element-short-header-npd0m4-CD0UbY"></path>
    <path class="a"
          d="M94.88,9.82h3.64V13h.08a7.39,7.39,0,0,1,6.73-3.72c5.31,0,7.66,3.28,7.66,8.79V30.32h-3.76V19.69c0-4.79-1-7.13-4.35-7.33-4.31,0-6.24,3.47-6.24,8.48v9.48H94.88Z"
          transform="translate(0 -0.18)" data-ph-id="ph-page-element-short-header-npd0m4-UsuPSj"></path>
    <path class="a"
          d="M137.55,26.33a10.06,10.06,0,0,0,4.7,1.45c1.72,0,3.85-.73,3.85-2.95,0-3.76-8.87-3.43-8.87-9.21,0-4.27,3.18-6.31,7.23-6.31a15.49,15.49,0,0,1,4.7.81l-.32,3.27a11,11,0,0,0-4-1.05c-1.92,0-3.61.81-3.61,2.51,0,4.2,8.87,3,8.87,9.58,0,4.39-3.5,6.39-7.15,6.39a11.84,11.84,0,0,1-5.62-1.12Z"
          transform="translate(0 -0.18)" data-ph-id="ph-page-element-short-header-npd0m4-i5dZ4K"></path>
    <path class="a"
          d="M164.48,12.85h-5.43V24.11c0,2.38,1.45,3.67,3.17,3.67a4.65,4.65,0,0,0,2.57-.73v3.2a11.94,11.94,0,0,1-3.21.56c-3.89,0-6.29-1.83-6.29-5.94v-12h-4.62v-3h4.62V5.08l3.76-1.2V9.82h5.43Z"
          transform="translate(0 -0.18)" data-ph-id="ph-page-element-short-header-npd0m4-Onx8ub"></path>
    <path class="a"
          d="M189.56,20c-.08-3.76,1.53-7.64,5.62-7.64s6.06,3.92,6.06,7.76c0,3.43-1.77,7.68-6,7.68C191.17,27.79,189.48,23.22,189.56,20ZM201.4,30.32H205V.18h-3.76V12.6h-.08C200,10.72,198,9.32,194.38,9.32c-5.94,0-8.84,4.85-8.84,10.37s2.61,11.13,8.8,11.13a8.22,8.22,0,0,0,7-3.36h.08Z"
          transform="translate(0 -0.18)" data-ph-id="ph-page-element-short-header-npd0m4-B3STWe"></path>
    <path class="a"
          d="M119.57,20c-.08-3.76,1.53-7.64,5.62-7.64s6.06,3.92,6.06,7.76c0,3.43-1.77,7.68-6,7.68C121.17,27.79,119.48,23.22,119.57,20Zm11.84,10.33H135V.18h-3.76V12.6h-.08C130,10.72,128,9.32,124.38,9.32c-5.94,0-8.84,4.85-8.84,10.37s2.61,11.13,8.8,11.13a8.22,8.22,0,0,0,7-3.36h.08Z"
          transform="translate(0 -0.18)" data-ph-id="ph-page-element-short-header-npd0m4-nDE1nV"></path>
</svg>