<svg version="1.1" viewBox="0.0 0.0 747.5643044619422 326.37007874015745" fill="none" stroke="none" stroke-linecap="square" stroke-miterlimit="10" xmlns:xlink="http://www.w3.org/1999/xlink" xmlns="http://www.w3.org/2000/svg"><clipPath id="p.0"><path d="m0 0l747.56433 0l0 326.3701l-747.56433 0l0 -326.3701z" clip-rule="nonzero"/></clipPath><g clip-path="url(#p.0)"><path fill="#000000" fill-opacity="0.0" d="m0 0l747.56433 0l0 326.3701l-747.56433 0z" fill-rule="evenodd"/><path fill="#f9cb9c" d="m27.574802 65.05249l183.02362 0l0 180.8189l-183.02362 0zm22.602364 22.602364l0 135.61417l137.8189 0l0 -135.61417z" fill-rule="evenodd"/><path stroke="#000000" stroke-width="3.0" stroke-linejoin="round" stroke-linecap="butt" d="m27.574802 65.05249l183.02362 0l0 180.8189l-183.02362 0zm22.602364 22.602364l0 135.61417l137.8189 0l0 -135.61417z" fill-rule="evenodd"/><path fill="#f9cb9c" d="m552.4094 65.05249l183.02362 0l0 180.8189l-183.02362 0zm22.602417 22.602364l0 135.61417l137.81885 0l0 -135.61417z" fill-rule="evenodd"/><path stroke="#000000" stroke-width="3.0" stroke-linejoin="round" stroke-linecap="butt" d="m552.4094 65.05249l183.02362 0l0 180.8189l-183.02362 0zm22.602417 22.602364l0 135.61417l137.81885 0l0 -135.61417z" fill-rule="evenodd"/><path fill="#b6d7a8" d="m45.19685 203.98163l20.976376 0l0 0c9.648033 0 18.90091 3.832672 25.723099 10.654861c6.8221893 6.8221893 10.654854 16.075058 10.654854 25.723083l0 36.377945c0 4.5776367E-4 -3.4332275E-4 7.9345703E-4 -7.7819824E-4 7.9345703E-4l-93.73151 -7.9345703E-4l0 0c-4.310608E-4 0 -7.8105927E-4 -3.3569336E-4 -7.8105927E-4 -7.6293945E-4l7.8105927E-4 -36.377182l0 0c0 -20.090988 16.286964 -36.377945 36.377953 -36.377945z" fill-rule="evenodd"/><path stroke="#000000" stroke-width="3.0" stroke-linejoin="round" stroke-linecap="butt" d="m45.19685 203.98163l20.976376 0l0 0c9.648033 0 18.90091 3.832672 25.723099 10.654861c6.8221893 6.8221893 10.654854 16.075058 10.654854 25.723083l0 36.377945c0 4.5776367E-4 -3.4332275E-4 7.9345703E-4 -7.7819824E-4 7.9345703E-4l-93.73151 -7.9345703E-4l0 0c-4.310608E-4 0 -7.8105927E-4 -3.3569336E-4 -7.8105927E-4 -7.6293945E-4l7.8105927E-4 -36.377182l0 0c0 -20.090988 16.286964 -36.377945 36.377953 -36.377945z" fill-rule="evenodd"/><path fill="#b6d7a8" d="m163.73753 203.98163l20.97638 0l0 0c9.6480255 0 18.90091 3.832672 25.723099 10.654861c6.8221893 6.8221893 10.654846 16.075058 10.654846 25.723083l0 36.377945c0 4.5776367E-4 -3.5095215E-4 7.9345703E-4 -7.7819824E-4 7.9345703E-4l-93.7315 -7.9345703E-4l0 0c-4.348755E-4 0 -7.8582764E-4 -3.3569336E-4 -7.8582764E-4 -7.6293945E-4l7.8582764E-4 -36.377182l0 0c0 -20.090988 16.286964 -36.377945 36.377953 -36.377945z" fill-rule="evenodd"/><path stroke="#000000" stroke-width="3.0" stroke-linejoin="round" stroke-linecap="butt" d="m163.73753 203.98163l20.97638 0l0 0c9.6480255 0 18.90091 3.832672 25.723099 10.654861c6.8221893 6.8221893 10.654846 16.075058 10.654846 25.723083l0 36.377945c0 4.5776367E-4 -3.5095215E-4 7.9345703E-4 -7.7819824E-4 7.9345703E-4l-93.7315 -7.9345703E-4l0 0c-4.348755E-4 0 -7.8582764E-4 -3.3569336E-4 -7.8582764E-4 -7.6293945E-4l7.8582764E-4 -36.377182l0 0c0 -20.090988 16.286964 -36.377945 36.377953 -36.377945z" fill-rule="evenodd"/><path fill="#b6d7a8" d="m27.574802 189.09186l0 0c0 -15.524857 12.585381 -28.11023 28.110237 -28.11023l0 0c7.4552994 0 14.605244 2.961609 19.876942 8.233292c5.2716904 5.271698 8.233292 12.421646 8.233292 19.876938l0 0c0 15.524857 -12.585381 28.110245 -28.110233 28.110245l0 0c-15.524857 0 -28.110237 -12.585388 -28.110237 -28.110245z" fill-rule="evenodd"/><path stroke="#000000" stroke-width="3.0" stroke-linejoin="round" stroke-linecap="butt" d="m27.574802 189.09186l0 0c0 -15.524857 12.585381 -28.11023 28.110237 -28.11023l0 0c7.4552994 0 14.605244 2.961609 19.876942 8.233292c5.2716904 5.271698 8.233292 12.421646 8.233292 19.876938l0 0c0 15.524857 -12.585381 28.110245 -28.110233 28.110245l0 0c-15.524857 0 -28.110237 -12.585388 -28.110237 -28.110245z" fill-rule="evenodd"/><path fill="#b6d7a8" d="m146.11548 189.09186l0 0c0 -15.524857 12.585388 -28.11023 28.110245 -28.11023l0 0c7.4552917 0 14.60524 2.961609 19.876938 8.233292c5.271698 5.271698 8.233292 12.421646 8.233292 19.876938l0 0c0 15.524857 -12.585373 28.110245 -28.11023 28.110245l0 0c-15.524857 0 -28.110245 -12.585388 -28.110245 -28.110245z" fill-rule="evenodd"/><path stroke="#000000" stroke-width="3.0" stroke-linejoin="round" stroke-linecap="butt" d="m146.11548 189.09186l0 0c0 -15.524857 12.585388 -28.11023 28.110245 -28.11023l0 0c7.4552917 0 14.60524 2.961609 19.876938 8.233292c5.271698 5.271698 8.233292 12.421646 8.233292 19.876938l0 0c0 15.524857 -12.585373 28.110245 -28.11023 28.110245l0 0c-15.524857 0 -28.110245 -12.585388 -28.110245 -28.110245z" fill-rule="evenodd"/><path fill="#b6d7a8" d="m554.6247 203.98032l20.97638 0l0 0c9.64801 0 18.900879 3.832672 25.723083 10.654861c6.8222046 6.8221893 10.654846 16.075058 10.654846 25.723083l0 36.377945c0 4.5776367E-4 -3.6621094E-4 7.9345703E-4 -7.9345703E-4 7.9345703E-4l-93.73151 -7.9345703E-4l0 0c-4.272461E-4 0 -7.9345703E-4 -3.3569336E-4 -7.9345703E-4 -7.6293945E-4l7.9345703E-4 -36.377182l0 0c0 -20.090988 16.286987 -36.377945 36.37799 -36.377945z" fill-rule="evenodd"/><path stroke="#000000" stroke-width="3.0" stroke-linejoin="round" stroke-linecap="butt" stroke-dasharray="12.0,9.0" d="m554.6247 203.98032l20.97638 0l0 0c9.64801 0 18.900879 3.832672 25.723083 10.654861c6.8222046 6.8221893 10.654846 16.075058 10.654846 25.723083l0 36.377945c0 4.5776367E-4 -3.6621094E-4 7.9345703E-4 -7.9345703E-4 7.9345703E-4l-93.73151 -7.9345703E-4l0 0c-4.272461E-4 0 -7.9345703E-4 -3.3569336E-4 -7.9345703E-4 -7.6293945E-4l7.9345703E-4 -36.377182l0 0c0 -20.090988 16.286987 -36.377945 36.37799 -36.377945z" fill-rule="evenodd"/><path fill="#b6d7a8" d="m537.0026 189.09055l0 0c0 -15.524857 12.585388 -28.11023 28.11023 -28.11023l0 0c7.4553223 0 14.605225 2.961609 19.876953 8.233292c5.2716675 5.271698 8.233276 12.421646 8.233276 19.876938l0 0c0 15.524857 -12.585388 28.110245 -28.11023 28.110245l0 0c-15.524841 0 -28.11023 -12.585388 -28.11023 -28.110245z" fill-rule="evenodd"/><path stroke="#000000" stroke-width="3.0" stroke-linejoin="round" stroke-linecap="butt" stroke-dasharray="12.0,9.0" d="m537.0026 189.09055l0 0c0 -15.524857 12.585388 -28.11023 28.11023 -28.11023l0 0c7.4553223 0 14.605225 2.961609 19.876953 8.233292c5.2716675 5.271698 8.233276 12.421646 8.233276 19.876938l0 0c0 15.524857 -12.585388 28.110245 -28.11023 28.110245l0 0c-15.524841 0 -28.11023 -12.585388 -28.11023 -28.110245z" fill-rule="evenodd"/><path fill="#cfe2f3" d="m303.8009 103.55976l0 0c-1.5291138 -9.338341 3.4912415 -18.582733 12.930695 -23.81044c9.439453 -5.227707 21.642548 -5.5218964 31.431091 -0.75774384l0 0c3.4673767 -5.429695 9.813721 -9.178528 17.119385 -10.112549c7.3056335 -0.93401337 14.712524 1.056488 19.980164 5.369423l0 0c2.9537964 -4.9229126 8.753571 -8.230484 15.341309 -8.749016c6.587738 -0.51852417 13.031097 1.8253784 17.04361 6.1999664l0 0c5.336426 -5.218277 13.826813 -7.41539 21.797333 -5.6406326c7.9704895 1.7747574 13.989563 7.2026215 15.452698 13.934921l0 0c6.538025 1.4820099 11.984039 5.249481 14.93103 10.329025c2.9469604 5.0795364 3.105774 10.972847 0.4353943 16.157295l0 0c6.438019 6.963272 7.9440613 16.241753 3.9560242 24.372879c-3.9880066 8.131119 -12.870941 13.893265 -23.333801 15.136124c-0.07373047 7.6313477 -5.110016 14.633774 -13.167633 18.308243c-8.057587 3.6744843 -17.878296 3.4472198 -25.676788 -0.5941925c-3.3217468 9.139862 -12.671326 15.864883 -24.0094 17.269608c-11.338074 1.4047241 -22.63205 -2.76268 -29.002533 -10.701721c-7.8088684 3.9131775 -17.178833 5.040451 -25.996277 3.1275024c-8.817444 -1.9129333 -16.33957 -6.704956 -20.869568 -13.295044l0 0c-7.979706 0.776001 -15.694946 -2.6596985 -19.316711 -8.6019745c-3.6217651 -5.942276 -2.3790588 -13.12616 3.1113586 -17.986313l0 0c-7.1180725 -3.4815826 -10.750153 -10.390198 -9.002228 -17.123276c1.7479248 -6.7330704 8.479736 -11.76487 16.68509 -12.471504z" fill-rule="evenodd"/><path fill="#000000" fill-opacity="0.0" d="m295.9603 133.51445l0 0c3.3590393 1.6429749 7.2395325 2.38826 11.120453 2.1358032m5.08313 24.45308c1.6689453 -0.16229248 3.3048096 -0.50598145 4.865448 -1.0222015m41.998108 11.189331c-1.1738281 -1.4628448 -2.1566162 -3.0260162 -2.93161 -4.6628876m55.945557 -1.9052887l0 0c0.6055908 -1.6663208 0.99798584 -3.3813477 1.1705933 -5.11644m37.672363 -12.59697c0.07852173 -8.124741 -5.4744873 -15.563843 -14.273804 -19.121986m33.651367 -20.386154c-1.4250183 2.766632 -3.6004639 5.220871 -6.3558044 7.170288m-9.009277 -33.657333l0 0c0.24279785 1.1172256 0.35516357 2.2512436 0.33554077 3.3863373m-37.58493 -11.68029l0 0c-1.3311462 1.3017044 -2.4278564 2.75634 -3.2559814 4.318611m-29.129242 -1.7701263l0 0c-0.7093811 1.1823196 -1.2391357 2.433426 -1.5769958 3.7244873m-35.5231 1.0187378l0 0c2.0712585 1.0080948 3.9874268 2.2214432 5.7064514 3.613388m-50.067657 20.954926l0 0c0.21072388 1.2870712 0.5437317 2.5582657 0.9958496 3.8016968" fill-rule="evenodd"/><path stroke="#000000" stroke-width="3.0" stroke-linejoin="round" stroke-linecap="butt" d="m303.8009 103.55976l0 0c-1.5291138 -9.338341 3.4912415 -18.582733 12.930695 -23.81044c9.439453 -5.227707 21.642548 -5.5218964 31.431091 -0.75774384l0 0c3.4673767 -5.429695 9.813721 -9.178528 17.119385 -10.112549c7.3056335 -0.93401337 14.712524 1.056488 19.980164 5.369423l0 0c2.9537964 -4.9229126 8.753571 -8.230484 15.341309 -8.749016c6.587738 -0.51852417 13.031097 1.8253784 17.04361 6.1999664l0 0c5.336426 -5.218277 13.826813 -7.41539 21.797333 -5.6406326c7.9704895 1.7747574 13.989563 7.2026215 15.452698 13.934921l0 0c6.538025 1.4820099 11.984039 5.249481 14.93103 10.329025c2.9469604 5.0795364 3.105774 10.972847 0.4353943 16.157295l0 0c6.438019 6.963272 7.9440613 16.241753 3.9560242 24.372879c-3.9880066 8.131119 -12.870941 13.893265 -23.333801 15.136124c-0.07373047 7.6313477 -5.110016 14.633774 -13.167633 18.308243c-8.057587 3.6744843 -17.878296 3.4472198 -25.676788 -0.5941925c-3.3217468 9.139862 -12.671326 15.864883 -24.0094 17.269608c-11.338074 1.4047241 -22.63205 -2.76268 -29.002533 -10.701721c-7.8088684 3.9131775 -17.178833 5.040451 -25.996277 3.1275024c-8.817444 -1.9129333 -16.33957 -6.704956 -20.869568 -13.295044l0 0c-7.979706 0.776001 -15.694946 -2.6596985 -19.316711 -8.6019745c-3.6217651 -5.942276 -2.3790588 -13.12616 3.1113586 -17.986313l0 0c-7.1180725 -3.4815826 -10.750153 -10.390198 -9.002228 -17.123276c1.7479248 -6.7330704 8.479736 -11.76487 16.68509 -12.471504z" fill-rule="evenodd"/><path stroke="#000000" stroke-width="3.0" stroke-linejoin="round" stroke-linecap="butt" d="m295.9603 133.51445l0 0c3.3590393 1.6429749 7.2395325 2.38826 11.120453 2.1358032m5.08313 24.45308c1.6689453 -0.16229248 3.3048096 -0.50598145 4.865448 -1.0222015m41.998108 11.189331c-1.1738281 -1.4628448 -2.1566162 -3.0260162 -2.93161 -4.6628876m55.945557 -1.9052887l0 0c0.6055908 -1.6663208 0.99798584 -3.3813477 1.1705933 -5.11644m37.672363 -12.59697c0.07852173 -8.124741 -5.4744873 -15.563843 -14.273804 -19.121986m33.651367 -20.386154c-1.4250183 2.766632 -3.6004639 5.220871 -6.3558044 7.170288m-9.009277 -33.657333l0 0c0.24279785 1.1172256 0.35516357 2.2512436 0.33554077 3.3863373m-37.58493 -11.68029l0 0c-1.3311462 1.3017044 -2.4278564 2.75634 -3.2559814 4.318611m-29.129242 -1.7701263l0 0c-0.7093811 1.1823196 -1.2391357 2.433426 -1.5769958 3.7244873m-35.5231 1.0187378l0 0c2.0712585 1.0080948 3.9874268 2.2214432 5.7064514 3.613388m-50.067657 20.954926l0 0c0.21072388 1.2870712 0.5437317 2.5582657 0.9958496 3.8016968" fill-rule="evenodd"/><path fill="#d9d9d9" d="m218.93643 179.3105l33.253494 -33.253494l0 0c69.50255 -69.50255 182.18279 -69.496895 251.67836 0.012634277l0 0l9.247498 -9.247467l16.837524 45.077744l-45.071533 -16.843765l9.247467 -9.247467l0 0l0 0c-64.11737 -64.130264 -168.07742 -64.13548 -232.20126 -0.011657715l-33.25348 33.253494z" fill-rule="evenodd"/><path stroke="#000000" stroke-width="1.0" stroke-linejoin="round" stroke-linecap="butt" d="m218.93643 179.3105l33.253494 -33.253494l0 0c69.50255 -69.50255 182.18279 -69.496895 251.67836 0.012634277l0 0l9.247498 -9.247467l16.837524 45.077744l-45.071533 -16.843765l9.247467 -9.247467l0 0l0 0c-64.11737 -64.130264 -168.07742 -64.13548 -232.20126 -0.011657715l-33.25348 33.253494z" fill-rule="evenodd"/><path fill="#000000" fill-opacity="0.0" d="m503.0866 251.39633l-266.83466 0" fill-rule="evenodd"/><path stroke="#000000" stroke-width="3.0" stroke-linejoin="round" stroke-linecap="butt" stroke-dasharray="12.0,9.0" d="m503.0866 251.39633l-248.83464 0" fill-rule="evenodd"/><path stroke="#000000" stroke-width="3.0" stroke-linecap="butt" d="m254.25197 246.44113l-13.614288 4.9552l13.614288 4.9552z" fill-rule="evenodd"/><path fill="#000000" fill-opacity="0.0" d="m57.889763 105.850395l122.3937 0l0 49.6063l-122.3937 0z" fill-rule="evenodd"/><path fill="#000000" d="m70.53486 129.45665l1.78125 -0.15625q0.125 1.0625 0.578125 1.75q0.46875 0.6875 1.4375 1.125q0.984375 0.421875 2.21875 0.421875q1.078125 0 1.90625 -0.3125q0.828125 -0.328125 1.234375 -0.890625q0.40625 -0.5625 0.40625 -1.234375q0 -0.671875 -0.390625 -1.171875q-0.390625 -0.5 -1.28125 -0.84375q-0.578125 -0.23438263 -2.5625 -0.7031326q-1.96875 -0.46875 -2.75 -0.890625q-1.03125 -0.53125 -1.53125 -1.328125q-0.5 -0.796875 -0.5 -1.78125q0 -1.09375 0.609375 -2.03125q0.609375 -0.9375 1.796875 -1.421875q1.1875 -0.5 2.625 -0.5q1.59375 0 2.8125 0.515625q1.21875 0.515625 1.859375 1.515625q0.65625 0.984375 0.703125 2.25l-1.8125 0.140625q-0.140625 -1.359375 -0.984375 -2.046875q-0.84375 -0.703125 -2.5 -0.703125q-1.71875 0 -2.515625 0.640625q-0.78125 0.625 -0.78125 1.5q0 0.78125 0.5625 1.28125q0.546875 0.5 2.859375 1.015625q2.3125 0.515625 3.171875 0.90625q1.25 0.578125 1.84375 1.46875q0.59375 0.8750076 0.59375 2.0312576q0 1.140625 -0.65625 2.15625q-0.65625 1.015625 -1.890625 1.578125q-1.21875 0.5625 -2.75 0.5625q-1.9375 0 -3.25 -0.5625q-1.3125 -0.578125 -2.0625 -1.71875q-0.75 -1.140625 -0.78125 -2.5625zm18.011719 4.59375l0 -6.0625076l-5.515625 -8.25l2.296875 0l2.828125 4.3125q0.78125 1.203125 1.453125 2.421875q0.640625 -1.125 1.5625 -2.53125l2.78125 -4.203125l2.203125 0l-5.71875 8.25l0 6.0625076l-1.890625 0zm8.667969 -4.59375l1.78125 -0.15625q0.125 1.0625 0.578125 1.75q0.46875 0.6875 1.4375 1.125q0.984375 0.421875 2.21875 0.421875q1.078125 0 1.90625 -0.3125q0.828125 -0.328125 1.234375 -0.890625q0.40625 -0.5625 0.40625 -1.234375q0 -0.671875 -0.390625 -1.171875q-0.390625 -0.5 -1.28125 -0.84375q-0.578125 -0.23438263 -2.5625 -0.7031326q-1.96875 -0.46875 -2.75 -0.890625q-1.03125 -0.53125 -1.53125 -1.328125q-0.5 -0.796875 -0.5 -1.78125q0 -1.09375 0.609375 -2.03125q0.609375 -0.9375 1.796875 -1.421875q1.1875 -0.5 2.625 -0.5q1.59375 0 2.8125 0.515625q1.21875 0.515625 1.859375 1.515625q0.65625 0.984375 0.703125 2.25l-1.8125 0.140625q-0.140625 -1.359375 -0.984375 -2.046875q-0.84375 -0.703125 -2.5 -0.703125q-1.71875 0 -2.515625 0.640625q-0.78125 0.625 -0.78125 1.5q0 0.78125 0.5625 1.28125q0.546875 0.5 2.859375 1.015625q2.3125 0.515625 3.171875 0.90625q1.25 0.578125 1.84375 1.46875q0.59375 0.8750076 0.59375 2.0312576q0 1.140625 -0.65625 2.15625q-0.65625 1.015625 -1.890625 1.578125q-1.21875 0.5625 -2.75 0.5625q-1.9375 0 -3.25 -0.5625q-1.3125 -0.578125 -2.0625 -1.71875q-0.75 -1.140625 -0.78125 -2.5625zm17.621094 4.59375l0 -12.625008l-4.71875 0l0 -1.6875l11.34375 0l0 1.6875l-4.734375 0l0 12.625008l-1.890625 0zm8.607422 0l0 -14.312508l10.359383 0l0 1.6875l-8.453133 0l0 4.375l7.9062576 0l0 1.6875l-7.9062576 0l0 4.8750076l8.781258 0l0 1.6875l-10.687508 0zm13.246101 0l0 -14.312508l2.859375 0l3.375 10.125008q0.46875 1.421875 0.6875 2.125q0.25 -0.78125 0.765625 -2.296875l3.421875 -9.953133l2.546875 0l0 14.312508l-1.8125 0l0 -11.984383l-4.171875 11.984383l-1.703125 0l-4.140625 -12.187508l0 12.187508l-1.828125 0zm28.185547 0l-1.765625 0l0 -11.203133q-0.625 0.609375 -1.65625 1.21875q-1.03125 0.59375 -1.859375 0.90625l0 -1.703125q1.484375 -0.6875 2.578125 -1.671875q1.109375 -1.0 1.5625 -1.921875l1.140625 0l0 14.375008z" fill-rule="nonzero"/><path fill="#000000" fill-opacity="0.0" d="m582.7244 105.850395l122.39368 0l0 49.6063l-122.39368 0z" fill-rule="evenodd"/><path fill="#000000" d="m595.3695 129.45665l1.78125 -0.15625q0.125 1.0625 0.578125 1.75q0.46875 0.6875 1.4375 1.125q0.984375 0.421875 2.21875 0.421875q1.078125 0 1.90625 -0.3125q0.828125 -0.328125 1.234375 -0.890625q0.40625 -0.5625 0.40625 -1.234375q0 -0.671875 -0.390625 -1.171875q-0.390625 -0.5 -1.28125 -0.84375q-0.578125 -0.23438263 -2.5625 -0.7031326q-1.96875 -0.46875 -2.75 -0.890625q-1.03125 -0.53125 -1.53125 -1.328125q-0.5 -0.796875 -0.5 -1.78125q0 -1.09375 0.609375 -2.03125q0.609375 -0.9375 1.796875 -1.421875q1.1875 -0.5 2.625 -0.5q1.59375 0 2.8125 0.515625q1.21875 0.515625 1.859375 1.515625q0.65625 0.984375 0.703125 2.25l-1.8125 0.140625q-0.140625 -1.359375 -0.984375 -2.046875q-0.84375 -0.703125 -2.5 -0.703125q-1.71875 0 -2.515625 0.640625q-0.78125 0.625 -0.78125 1.5q0 0.78125 0.5625 1.28125q0.546875 0.5 2.859375 1.015625q2.3125 0.515625 3.171875 0.90625q1.25 0.578125 1.84375 1.46875q0.59375 0.8750076 0.59375 2.0312576q0 1.140625 -0.65625 2.15625q-0.65625 1.015625 -1.890625 1.578125q-1.21875 0.5625 -2.75 0.5625q-1.9375 0 -3.25 -0.5625q-1.3125 -0.578125 -2.0625 -1.71875q-0.75 -1.140625 -0.78125 -2.5625zm18.011719 4.59375l0 -6.0625076l-5.515625 -8.25l2.296875 0l2.828125 4.3125q0.78125 1.203125 1.453125 2.421875q0.640625 -1.125 1.5625 -2.53125l2.78125 -4.203125l2.203125 0l-5.71875 8.25l0 6.0625076l-1.890625 0zm8.667969 -4.59375l1.78125 -0.15625q0.125 1.0625 0.578125 1.75q0.46875 0.6875 1.4375 1.125q0.984375 0.421875 2.21875 0.421875q1.078125 0 1.90625 -0.3125q0.828125 -0.328125 1.234375 -0.890625q0.40625 -0.5625 0.40625 -1.234375q0 -0.671875 -0.390625 -1.171875q-0.390625 -0.5 -1.28125 -0.84375q-0.578125 -0.23438263 -2.5625 -0.7031326q-1.96875 -0.46875 -2.75 -0.890625q-1.03125 -0.53125 -1.53125 -1.328125q-0.5 -0.796875 -0.5 -1.78125q0 -1.09375 0.609375 -2.03125q0.609375 -0.9375 1.796875 -1.421875q1.1875 -0.5 2.625 -0.5q1.59375 0 2.8125 0.515625q1.21875 0.515625 1.859375 1.515625q0.65625 0.984375 0.703125 2.25l-1.8125 0.140625q-0.140625 -1.359375 -0.984375 -2.046875q-0.84375 -0.703125 -2.5 -0.703125q-1.71875 0 -2.515625 0.640625q-0.78125 0.625 -0.78125 1.5q0 0.78125 0.5625 1.28125q0.546875 0.5 2.859375 1.015625q2.3125 0.515625 3.171875 0.90625q1.25 0.578125 1.84375 1.46875q0.59375 0.8750076 0.59375 2.0312576q0 1.140625 -0.65625 2.15625q-0.65625 1.015625 -1.890625 1.578125q-1.21875 0.5625 -2.75 0.5625q-1.9375 0 -3.25 -0.5625q-1.3125 -0.578125 -2.0625 -1.71875q-0.75 -1.140625 -0.78125 -2.5625zm17.621094 4.59375l0 -12.625008l-4.71875 0l0 -1.6875l11.34375 0l0 1.6875l-4.734375 0l0 12.625008l-1.890625 0zm8.607422 0l0 -14.312508l10.359375 0l0 1.6875l-8.453125 0l0 4.375l7.90625 0l0 1.6875l-7.90625 0l0 4.8750076l8.78125 0l0 1.6875l-10.6875 0zm13.246094 0l0 -14.312508l2.859375 0l3.375 10.125008q0.46875 1.421875 0.6875 2.125q0.25 -0.78125 0.765625 -2.296875l3.421875 -9.953133l2.546875 0l0 14.312508l-1.8125 0l0 -11.984383l-4.171875 11.984383l-1.703125 0l-4.140625 -12.187508l0 12.187508l-1.828125 0zm30.794922 -1.6875l0 1.6875l-9.453125 0q-0.015625 -0.640625 0.203125 -1.21875q0.359375 -0.96875 1.15625 -1.90625q0.796875 -0.9375 2.296875 -2.171875q2.34375 -1.9062576 3.15625 -3.0156326q0.828125 -1.125 0.828125 -2.125q0 -1.046875 -0.75 -1.765625q-0.75 -0.71875 -1.953125 -0.71875q-1.265625 0 -2.03125 0.765625q-0.765625 0.765625 -0.765625 2.109375l-1.8125 -0.1875q0.1875 -2.015625 1.390625 -3.078125q1.21875 -1.0625 3.265625 -1.0625q2.046875 0 3.25 1.140625q1.203125 1.140625 1.203125 2.828125q0 0.859375 -0.359375 1.703125q-0.34375 0.828125 -1.15625 1.75q-0.8125 0.9062576 -2.703125 2.5156326q-1.59375 1.328125 -2.046875 1.796875q-0.4375 0.46875 -0.734375 0.953125l7.015625 0z" fill-rule="nonzero"/></g></svg>