<svg version="1.2" baseProfile="tiny-ps" xmlns="http://www.w3.org/2000/svg" viewBox="0 0 1390 336" width="414" height="100">
	<title>Adpulse</title>
	<style>
		tspan { white-space:pre }
		.shp0 { fill: #186061 } 
		.shp1 { fill: #955daf } 
		.shp2 { fill: #f04a8e } 
		.shp3 { fill: #14423e } 
		.shp4 { fill: #3c9391 } 
		.shp5 { fill: #166460 } 
		.shp6 { fill: #c093c9 } 
		.shp7 { fill: #3ebe81 } 
		.shp8 { fill: #fc78b9 } 
	</style>
	<g id="Layer 1">
		<path id="&lt;Path&gt;" class="shp0" d="M1148.45 102.82L1184.85 102.82L1184.85 238.04L1148.45 238.04L1148.45 102.82Z" />
		<path id="&lt;Compound Path&gt;" fill-rule="evenodd" class="shp0" d="M310.65 234.04C279.78 251.34 242.17 239.84 224.75 220.79C202.87 196.86 199.33 157.83 217.5 130.06C228.05 113.92 243.1 104.11 261.94 100.4C280.42 96.76 298.07 99.16 314.74 110.17L314.74 54.01L351.19 54.01L351.19 238.5C342.59 238.5 334.11 238.56 325.64 238.4C324.88 238.4 311.58 234.26 310.65 234.04ZM243.42 170.78C243.47 192.13 259.5 208.19 280.57 208.02C301.84 207.84 317.47 191.87 317.36 170.45C317.26 149.17 301.6 133.51 280.43 133.49C259.15 133.47 243.37 149.38 243.42 170.78Z" />
		<path id="&lt;Compound Path&gt;" fill-rule="evenodd" class="shp0" d="M957.38 180.7C959.64 195.59 968.28 205.47 981.31 208.67C995.56 212.17 1009.66 207.35 1017.94 196.31C1018.8 195.17 1020.49 193.96 1021.82 193.94C1033.18 193.75 1044.54 193.83 1055.9 193.85C1056.38 193.85 1056.87 194 1057.74 194.15C1054.18 205.18 1048.56 214.76 1040.25 222.49C1018.82 242.42 993.59 247.52 966.36 238.09C939.28 228.72 924.23 208.33 920.64 180.12C916.68 148.99 930.48 120.91 956.13 107.39C1000.91 83.78 1059.53 110.08 1060.87 168.93C1061.15 180.7 1060.99 180.7 1049.41 180.7L957.38 180.7ZM1023.58 155.57C1019.4 138.5 1005.3 130.02 989.95 130.21C974.27 130.4 960.33 141.67 958.75 155.57L1023.58 155.57Z" />
		<path id="&lt;Path&gt;" class="shp0" d="M555.45 102.8L592.1 102.8L592.1 107.48C592.1 130.04 592.01 152.6 592.18 175.15C592.21 179.86 592.59 184.74 593.86 189.24C597.57 202.36 607.73 208.55 622.77 207.49C634.61 206.65 643.83 197.88 645.67 185.49C646.18 182.07 646.45 178.58 646.46 175.11C646.53 152.55 646.5 130 646.5 107.44L646.5 102.9L682.9 102.9C682.99 104.1 683.15 105.32 683.15 106.55C683.17 131.17 683.11 155.79 683.18 180.41C683.22 195.73 679.43 209.73 669.32 221.57C658.2 234.58 643.52 240.61 626.89 242.02C608.62 243.57 591.34 240.41 576.57 228.61C562.08 217.02 555.63 201.32 555.33 183.26C554.9 156.98 555.2 130.68 555.2 104.39C555.2 104.01 555.32 103.63 555.45 102.8Z" />
		<path id="&lt;Path&gt;" class="shp0" d="M784.19 194.04L819.54 194.04C823.1 210.59 842.74 217.91 856.63 208.03C860.51 205.28 862.43 201.52 861.81 196.72C861.22 192.16 858 189.48 854.1 188.38C846.19 186.14 838.06 184.71 830.09 182.68C823.12 180.92 815.94 179.49 809.36 176.71C785.19 166.49 778.53 136.54 795.73 116.61C804.72 106.19 816.62 101.37 829.92 99.69C846.04 97.65 861.68 99.08 875.78 107.99C888.75 116.19 895.04 128.31 895.78 143.88L860.99 143.88C860.8 143.16 860.51 142.44 860.42 141.69C859.62 135.51 855.95 131.65 850.25 129.76C843.97 127.68 837.52 127.69 831.21 129.6C829.07 130.25 826.93 131.56 825.29 133.09C820 138.05 820.87 146.19 827.39 149.21C832.35 151.51 837.85 152.74 843.2 154.04C852.44 156.3 861.92 157.72 871.03 160.44C884.42 164.44 894.56 172.44 897.29 186.99C900.35 203.3 896.62 217.75 883.65 228.92C874.01 237.23 862.34 240.75 849.92 241.91C834.03 243.39 818.67 241.55 804.96 232.65C791.16 223.7 784.44 210.77 784.19 194.04Z" />
		<path id="&lt;Path&gt;" class="shp0" d="M753.28 54.09L753.28 111.06L753.28 111.13L753.28 238.21L717.16 238.21L717.16 134.86L717.16 134.79L717.16 54.09L753.28 54.09Z" />
		<path id="&lt;Compound Path&gt;" fill-rule="evenodd" class="shp0" d="M420.33 231.22L420.33 287.02L384.03 287.02L384.03 102.61C391.64 102.61 399.1 102.54 406.55 102.69C407.1 102.71 413.65 104.02 426.21 106.63C427.8 105.97 429.64 105.19 431.72 104.29C468.06 88.52 520.12 107.02 527.99 157.88C532.08 184.29 525.29 207.55 504.83 225.66C482.56 245.37 448.45 248.07 423 232.66C422.37 232.28 421.72 231.97 420.33 231.22ZM491.78 170.3C491.68 148.93 475.78 133.14 454.51 133.26C433.37 133.37 417.76 149.42 417.88 170.9C418 192.21 433.59 207.65 454.92 207.6C476.37 207.55 491.89 191.84 491.78 170.3Z" />
		<path id="&lt;Path&gt;" class="shp0" d="M1186.96 66.83C1186.96 78.05 1177.86 87.14 1166.65 87.14C1155.43 87.14 1146.34 78.05 1146.34 66.83C1146.34 55.61 1155.43 46.53 1166.65 46.53C1177.86 46.53 1186.96 55.61 1186.96 66.83Z" />
		<path id="&lt;Path&gt;" class="shp0" d="M1122.11 221.31C1122.11 232.53 1113.02 241.62 1101.81 241.62C1090.59 241.62 1081.5 232.53 1081.5 221.31C1081.5 210.09 1090.59 201 1101.81 201C1113.02 201 1122.11 210.09 1122.11 221.31Z" />
		<path id="&lt;Path&gt;" class="shp0" d="M1311.18 199.32L1333.59 221.74C1320.49 234.34 1302.69 242.09 1283.07 242.09C1242.77 242.09 1210.1 209.43 1210.1 169.13C1210.1 128.83 1242.77 96.16 1283.07 96.16C1283.3 96.16 1283.53 96.18 1283.76 96.18L1283.76 127.89C1283.53 127.88 1283.3 127.87 1283.07 127.87C1260.28 127.87 1241.81 146.34 1241.81 169.13C1241.81 191.92 1260.28 210.39 1283.07 210.39C1293.94 210.39 1303.81 206.18 1311.18 199.32Z" />
		<path id="&lt;Path&gt;" class="shp1" d="M1283.76 127.89L1283.76 96.18C1323.61 96.55 1355.81 128.85 1356.03 168.73L1324.32 168.73C1324.1 146.36 1306.09 128.26 1283.76 127.89Z" />
		<path id="&lt;Path&gt;" class="shp2" d="M1356.03 169.13C1356.03 189.81 1347.42 208.46 1333.59 221.74L1311.18 199.32C1319.26 191.79 1324.33 181.05 1324.33 169.13L1324.31 168.73L1356.03 168.73L1356.03 169.13Z" />
		<path id="&lt;Path&gt;" class="shp3" d="M1304 192.14L1311.18 199.32C1303.81 206.18 1293.94 210.39 1283.07 210.39C1260.28 210.39 1241.81 191.92 1241.81 169.13C1241.81 146.34 1260.28 127.87 1283.07 127.87C1283.3 127.87 1283.53 127.88 1283.76 127.89L1283.76 138.03C1283.53 138.02 1283.3 137.99 1283.07 137.99C1265.87 137.99 1251.93 151.94 1251.93 169.13C1251.93 186.33 1265.87 200.27 1283.07 200.27C1291.14 200.27 1298.46 197.18 1304 192.14Z" />
		<path id="&lt;Path&gt;" class="shp4" d="M1283.76 127.89L1283.76 138.03C1283.53 138.02 1283.3 137.99 1283.07 137.99C1265.87 137.99 1251.93 151.93 1251.93 169.13C1251.93 186.32 1265.87 200.27 1283.07 200.27C1291.14 200.27 1298.46 197.17 1304 192.14L1311.18 199.32C1303.81 206.19 1293.94 210.39 1283.07 210.39C1260.28 210.39 1241.81 191.92 1241.81 169.13C1241.81 146.34 1260.28 127.87 1283.07 127.87C1283.3 127.87 1283.53 127.88 1283.76 127.89Z" />
		<path id="&lt;Path&gt;" class="shp5" d="M1324.31 168.73L1314.18 168.73C1313.97 151.96 1300.5 138.4 1283.76 138.03L1283.76 127.89C1306.09 128.26 1324.11 146.36 1324.31 168.73Z" />
		<path id="&lt;Path&gt;" class="shp6" d="M1324.31 168.73L1314.18 168.73C1313.97 151.96 1300.5 138.4 1283.76 138.03L1283.76 127.89C1306.09 128.26 1324.11 146.36 1324.31 168.73Z" />
		<path id="&lt;Path&gt;" class="shp7" d="M1314.18 168.73L1324.31 168.73L1324.33 169.13C1324.33 181.05 1319.26 191.79 1311.18 199.32L1304 192.13C1310.25 186.45 1314.21 178.26 1314.21 169.13L1314.18 168.73Z" />
		<path id="&lt;Path&gt;" class="shp8" d="M1324.33 169.13C1324.33 181.05 1319.27 191.79 1311.18 199.32L1304 192.13C1310.25 186.45 1314.21 178.26 1314.21 169.13L1314.19 168.73L1324.32 168.73L1324.33 169.13Z" />
		<path id="&lt;Compound Path&gt;" fill-rule="evenodd" class="shp0" d="M144.12 112.27C145.8 110.46 148.62 107.16 152.58 102.38C163.91 102.37 172.04 102.37 176.96 102.36C177.24 102.36 177.71 102.36 178.38 102.36L178.38 238.06L153.07 238.06C147.98 234.11 144.53 231.46 142.7 230.11C141.57 230.77 140.63 231.3 139.72 231.87C124.38 241.6 107.69 244.39 89.96 241.39C78.16 239.39 67.31 234.94 57.73 227.68C44.11 217.35 36.29 203.35 32.6 186.93C28.71 169.68 30.37 152.89 38.39 137.07C48.89 116.34 65.79 103.88 88.72 99.77C108.06 96.31 125.94 99.85 142.19 111.06C142.56 111.31 143.51 111.99 144.12 112.27ZM105.61 132.62C83.63 132.83 68.04 148.81 67.72 169.52C67.38 191.63 83.62 208.28 105.18 208.1C127.34 207.9 142.92 192.46 142.98 170.95C143.04 146.72 125.54 132.89 105.61 132.62Z" />
	</g>
</svg>