<svg width="374" height="97" viewBox="0 0 374 97" xmlns="http://www.w3.org/2000/svg" fill="none"><g clip-path="url(#a)"><path d="M40.2 21.2c.3-.1.5-.3.6-.5l4-9.2 5.6 8.3c.2.2.4.4.7.4.3 0 .5-.1.8-.3l7.2-7 2 9.9c.1.3.2.5.5.6.2.1.5.2.8.1l9.4-3.7-1.9 9.9c0 .3 0 .6.2.8.2.2.4.3.7.4l10 .1-5.6 8.4c-.2.2-.2.5-.1.8.1.3.3.5.5.6l9.2 4-8.4 5.6c-.2.2-.4.4-.4.7 0 .3.1.5.3.7l7 7.2-9.9 2c-.3.1-.5.2-.6.5-.1.2-.1.5 0 .8l3.7 9.4-9.9-1.9c-.3 0-.6 0-.8.2-.2.2-.3.4-.4.7l-.2 10.1-8.2-5.6c-.2-.2-.5-.2-.8-.1-.3.1-.5.3-.6.5l-4 9.2-5.6-8.4c-.2-.2-.4-.4-.7-.4-.3 0-.5.1-.8.3l-7.2 7-2-9.9c-.1-.3-.2-.5-.5-.6-.2-.1-.5-.1-.8 0l-9.4 3.7 1.9-9.9c.1-.3 0-.6-.2-.8-.2-.2-.4-.3-.7-.3l-10.1-.2 5.6-8.4c.1-.2.2-.5.1-.8-.1-.3-.3-.5-.5-.6l-9.2-4 8.4-5.6c.2-.2.4-.4.4-.7 0-.3-.1-.5-.3-.8l-7-7.2 9.9-2c.3-.1.5-.2.6-.5.1-.2.2-.5 0-.8l-3.7-9.4 9.9 1.9c.3 0 .6 0 .8-.2.2-.2.3-.4.3-.7l.2-10 8.4 5.6c.2.1.3.2.5.2l.3-.1zm7.8-21.2c-.3.1-.5.3-.6.5l-3 7-4.3-6.3c-.3-.4-.9-.5-1.3-.2s-.5.9-.3 1.3l4.9 7.3-4 9.3-8.4-5.6.1-8.8c0-.5-.4-.9-.9-1-.2 0-.4.1-.6.2-.2.2-.3.4-.3.7l-.1 7.6-6.4-4.2c-.4-.3-1-.2-1.3.3-.3.4-.2 1 .3 1.3l7.4 4.9-.2 10.2-10-1.9-3.2-8.2c-.2-.5-.7-.7-1.2-.5-.2.1-.4.2-.5.4-.1.2-.2.5 0 .8l2.8 7.1-7.5-1.5c-.5-.1-1 .2-1.1.7-.1.5.2 1 .7 1.1l8.7 1.7 3.7 9.4-9.9 2-6.1-6.3c-.4-.4-1-.4-1.3 0-.2.2-.3.4-.3.6 0 .3.1.5.3.8l5.3 5.5-7.5 1.5c-.5.1-.8.6-.7 1.1.1.5.6.8 1.1.7l8.6-1.8 7.1 7.3-8.4 5.7-8.1-3.5c-.5-.2-1 0-1.2.5-.1.2-.1.4 0 .6.1.3.3.5.5.6l7 3-6.3 4.3c-.7.3-.8.8-.5 1.3.3.4.9.5 1.3.3l7.3-4.9 9.3 4-5.6 8.5-8.8-.1c-.5 0-.9.4-1 .9 0 .2.1.4.2.6.2.1.5.2.8.2l7.6.1-4.2 6.4c-.3.4-.2 1 .3 1.3.4.3 1 .2 1.3-.3l4.9-7.4 10.2.2-1.9 10-8.2 3.2c-.5.2-.7.7-.5 1.2.2.5.7.7 1.2.5l7.1-2.8-1.6 7.6c-.1.5.2 1 .7 1.1.5.1 1-.2 1.1-.7l1.7-8.7 9.4-3.7 2 9.9-6.3 6.1c-.4.4-.4 1 0 1.3.4.4 1 .4 1.3 0l5.5-5.3 1.5 7.5c.1.5.6.8 1.1.7.5-.1.8-.6.7-1.1l-1.8-8.7 7.3-7.1 5.7 8.4-3.4 8.3c-.2.5 0 1 .5 1.2.5.2 1 0 1.2-.5l3-7 4.3 6.3c.3.4.9.5 1.3.3.4-.3.5-.9.3-1.3l-4.9-7.3 4-9.3 8.5 5.6-.1 8.8c0 .5.4.9.9 1 .5 0 .9-.4 1-.9l.1-7.6 6.4 4.2c.4.3 1 .2 1.3-.3.3-.4.2-1-.3-1.3l-7.5-4.9.2-10.2 10 1.9 3.2 8.2c.2.5.7.7 1.2.5.5-.2.7-.7.5-1.2l-2.8-7.1 7.5 1.5c.5.1 1-.2 1.1-.7.1-.5-.2-1-.7-1.1l-8.7-1.7-3.7-9.4 9.9-2 6.1 6.3c.4.4 1 .4 1.3 0 .4-.4.4-1 0-1.3l-5.3-5.5 7.5-1.5c.5-.1.8-.6.7-1.1-.1-.5-.6-.8-1.1-.7l-8.6 1.8-7.1-7.3 8.4-5.7 8.1 3.5c.5.2 1 0 1.2-.5.2-.5 0-1-.5-1.2l-7-3 6.3-4.3c.4-.3.5-.9.3-1.3-.3-.4-.9-.5-1.3-.3l-7.3 4.9-9.3-4 5.7-8.5 8.8.1c.5 0 .9-.4 1-.9 0-.5-.4-.9-.9-1l-7.6-.1 4.2-6.4c.3-.4.2-1-.3-1.3-.4-.3-1-.2-1.3.3l-4.9 7.4-10.2-.2 1.9-10 8.2-3.2c.5-.2.7-.7.5-1.2-.1-.2-.2-.4-.4-.5-.2-.1-.5-.2-.8 0l-7.1 2.8 1.5-7.5c.1-.5-.2-1-.7-1.1-.5-.1-1 .2-1.1.7l-1.7 8.7-9.4 3.7-2-10 6.3-6c.4-.4.4-1 0-1.3-.2-.2-.4-.3-.6-.3-.3 0-.5.1-.7.3l-5.5 5.3-1.5-7.5c-.1-.5-.6-.8-1.1-.7-.5.1-.8.6-.7 1.1l1.8 8.6-7.3 7.1-5.7-8.4 3.5-8.1c.2-.5 0-1-.5-1.2-.1-.2-.3-.2-.4-.2h-.3z" fill="url(#b)"/><path d="M194.3 29.9c-1.7 0-3 1.4-3 3v18.9c-.2 8.2-5 12.1-11.6 12.3-6.6-.2-11.4-4.1-11.6-12.3v-18.9c0-1.7-1.4-3-3-3-1.7 0-3 1.4-3 3v18.9c0 5.5 1.9 10.2 5.2 13.4 3.3 3.2 7.7 4.9 12.5 4.9 4.7 0 9.2-1.7 12.4-4.9 3.3-3.2 5.2-7.9 5.2-13.4v-18.9c0-1.7-1.4-3-3.1-3zm47.3 0c-1.7 0-3 1.4-3 3v33.5c0 1.7 1.4 3 3 3 1.7 0 3-1.4 3-3v-33.5c0-1.7-1.4-3-3-3zm29.7-.8c-4.7 0-9.2 1.7-12.5 4.9-3.3 3.2-5.2 7.9-5.2 13.4v18.9c0 1.7 1.4 3 3 3 1.7 0 3-1.4 3-3v-18.8c.1-8.2 4.9-12.1 11.6-12.3 6.6.2 11.4 4.1 11.6 12.3v18.9c0 1.7 1.4 3 3 3 1.7 0 3-1.4 3-3v-19c0-5.5-1.9-10.2-5.2-13.4-3.1-3.2-7.6-4.9-12.3-4.9zm-44.3.2c-.6-.1-1.9-.2-2.8-.2-4.3 0-8.4 1.4-11.6 4.1v-.4c0-1.7-1.4-3-3-3-1.7 0-3 1.4-3 3v33.5c0 1.4 1 2.6 2.3 2.9.2.1.5.1.7.1h.3c1.1-.1 2.1-.8 2.5-1.8.2-.4.2-.8.2-1.2v-18.8c.1-8.2 4.9-12.1 11.6-12.3.7 0 1.3.1 2 .2.1 0 .3 0 .4.1h.3c1.7 0 3.1-1.4 3.1-3.1-.1-2.3-2.4-2.9-3-3.1zm100.3 1.5c-1.2-1.2-3.1-1.2-4.3-.1l-19 16.2v.1-14.1c0-1.7-1.4-3-3-3-1.7 0-3 1.4-3 3v33.5c0 1.7 1.4 3 3 3 1.7 0 3-1.4 3-3v-14.1l19 16.2c1.2 1.2 3.1 1.1 4.3-.1 1.2-1.2 1.2-3.1 0-4.3l-17.3-14.5 17.3-14.6c1.2-1.1 1.2-3 0-4.2zm25.8-1.7c-11.3 0-20.5 9.2-20.5 20.5s9.2 20.5 20.5 20.5 20.5-9.2 20.5-20.5-9.2-20.5-20.5-20.5zm0 35c-8 0-14.5-6.5-14.5-14.5s6.5-14.5 14.5-14.5 14.4 6.5 14.5 14.5c-.1 8-6.6 14.5-14.5 14.5zm-203.2-34.2c-1.7 0-3 1.4-3 3v2.2c-3.7-3.7-8.8-6-14.5-6-11.3 0-20.5 9.2-20.5 20.5s9.2 20.5 20.5 20.5c5.6 0 10.7-2.3 14.5-6v2.2c0 1.7 1.4 3 3 3 1.7 0 3-1.4 3-3v-33.4c0-1.7-1.3-3-3-3zm-17.5 34.2c-8 0-14.5-6.5-14.5-14.5s6.5-14.5 14.5-14.5 14.4 6.5 14.5 14.5c0 8-6.5 14.5-14.5 14.5z" fill="#754C29"/></g><defs><linearGradient id="b" x1=".225" y1="48.138" x2="96.177" y2="48.138" gradientUnits="userSpaceOnUse"><stop stop-color="#EF4223"/><stop offset="0" stop-color="#EF4323"/><stop offset="1" stop-color="#F7931E"/></linearGradient><clipPath id="a"><path d="M0 0h373.6v96.4h-373.6v-96.4z" fill="#fff"/></clipPath></defs></svg>