<svg xmlns="http://www.w3.org/2000/svg" width="720" height="72" viewBox="0 0 720 72"><title>Bank of America</title><path d="M664.58 69a3 3 0 1 1 3 3 3 3 0 0 1-3-3m.57 0a2.44 2.44 0 1 0 2.45-2.33 2.4 2.4 0 0 0-2.45 2.33" fill="#e31837" fill-rule="evenodd"/><path d="M669.1 70.71h-.57l-1-1.52H667v1.52h-.49v-3.29h1.45a1.59 1.59 0 0 1 .82.16.78.78 0 0 1 .37.7c0 .65-.46.88-1.07.91zm-1.57-1.92c.48 0 1.13.09 1.13-.51 0-.43-.38-.47-.82-.47H667v1z" fill="#e31837" fill-rule="evenodd"/><path d="M653.32 72c21-18 50.5-35.5 66.68-41.77-2.52-1.61-6.42-3.91-10.79-6.41C688.35 30.7 664 46 642.13 63.37c3.72 2.69 7.55 5.63 11.19 8.63z" fill="#e31837"/><path d="M643.69 23.12c-3.12-1.45-6.46-2.9-9.15-4.09a229.83 229.83 0 0 0-31.2 19.1c2.84 1.49 5.83 3.28 9 5.09 10.06-7.42 20.17-14.45 31.35-20.1z" fill="#012169"/><path d="M662.38 14.45c-3.77-2.15-17-7-26.13-9.07-2.68 1-6.49 2.49-9.09 3.58 3.25.92 15.59 4.18 26.09 9.49 2.75-1.25 6.5-2.88 9.13-4z" fill="#e31837"/><path d="M617.68 13.16A282.06 282.06 0 0 0 587 30.23c2.37 1.07 4.78 2 8.09 3.62 14.77-10 26.36-16.07 31-18.11-3.27-1.1-6.42-1.98-8.41-2.58z" fill="#012169"/><path d="M671.17 11.43c2.66-.86 5.84-1.72 8.52-2.48a193.7 193.7 0 0 0-26.36-9c-1.37.37-5.56 1.53-8.54 2.43a147.61 147.61 0 0 1 26.38 9.05zM621.86 49c3.17 1.93 6.63 4.54 9.92 6.71 21.89-17 43.48-30.13 67.25-37.55-3.3-1.67-6.2-3.16-9.86-5-14.29 3.65-38.52 13.37-67.31 35.84z" fill="#e31837"/><path d="M0 66.82h16c8.1 0 11.92-4.18 11.92-10.09 0-4.76-2.51-8-7.74-9 4.6-1.15 6.69-3.92 6.69-8 0-5.23-3.82-9.41-11.92-9.41H0zM13.9 51.3c3 0 5.07 1.46 5.07 4.55 0 3.24-2 4.55-5.07 4.55H8.73v-9.1zm-1-14.64c3 0 5.07 1.31 5.07 4.29s-2 4.29-5.07 4.29H8.73v-8.58zm47.26-6.43h-9L37.43 66.82h9.1L49 59.24h13.21l2.46 7.58h9.2zM55.68 39L60 52.45h-8.77zm63.88-8.73h-8.26V54.7L95.72 30.23h-9.3v36.59h8.26V42.41l15.58 24.41h9.3zm38.36 36.59l-12-18.61v18.57H137V30.23h8.89v17.62l11.45-17.61h9.93l-12 17.56 13.12 19zm41.91-18.29c0 7.32 4.39 11.81 10.09 11.81S220 55.85 220 48.53s-4.39-11.81-10.09-11.81-10.09 4.49-10.09 11.81zm-9.41 0c.05-10.72 7.63-19.08 19.5-19.08s19.45 8.36 19.5 19.08-7.63 19.08-19.5 19.08-19.44-8.36-19.5-19.08zm51.22 18.29h8.89V52.4h11.55v-7h-11.56v-8.16h14l1.57-7h-24.45zm65.92-36.59h-9l-13.7 36.59h9.1l2.46-7.58h13.23l2.35 7.54h9.2zm-4.5 8.73l4.34 13.49h-8.78zm71.15-8.73h-10.4L354.3 50l-9.46-19.76h-10.4v36.58h8V42.36l11.76 24.46L366 42.36v24.46h8.26zm17.25 36.59h25v-7h-16.1v-8.19h12.7v-6.8h-12.7v-7.63h14.74l1.57-7h-25.21zm58.91 0H460l-9.1-15.56c5-1.36 7.37-4.86 7.37-10 0-6.64-4-11-13-11h-14.03v36.52H440V52.4h2.35zM443.74 37c3.66 0 5.59 1.62 5.59 4.65s-1.93 4.71-5.59 4.71H440V37zm29.64 29.85h8.89V30.23h-8.89zM526.12 57a16.14 16.14 0 0 1-9.46 3.19c-6.85 0-11.55-4.65-11.55-11.66s4.7-11.66 11.34-11.66a15.25 15.25 0 0 1 9.25 3.19V31.8a21.06 21.06 0 0 0-10.4-2.35c-12.13 0-19.71 8.36-19.76 19.08s7.53 19.08 19.81 19.08a22.38 22.38 0 0 0 10.77-2.35zm32.57-26.76h-9l-13.7 36.59H545l2.46-7.58h13.22l2.46 7.58h9.2zm-4.5 8.76l4.34 13.49h-8.78z" fill="#012169"/></svg>