<svg width="1540" height="157" viewBox="0 0 1540 157" fill="none" stroke="none" vector-effect="non-scaling-stroke"  xmlns="http://www.w3.org/2000/svg">
<path d="M 50.1 0 L 50.1 9.9 Q 44.625 9.9 40.162 10.988 Q 35.7 12.075 33.262 14.7 Q 30.825 17.325 31.2 21.9 L 34.35 52.65 A 35.991 35.991 0 0 1 34.567 56.476 A 20.245 20.245 0 0 1 33.6 63.075 Q 32.175 67.2 28.838 69.525 Q 25.5 71.85 20.325 72.825 Q 25.575 73.725 28.95 75.938 Q 32.325 78.15 33.675 82.238 Q 35.025 86.325 34.35 93 L 31.2 123.75 A 15.181 15.181 0 0 0 31.149 124.97 A 8.626 8.626 0 0 0 33.225 131.025 Q 35.625 133.65 40.125 134.7 Q 44.625 135.75 50.1 135.75 L 50.1 145.65 Q 43.8 145.65 38.025 144.563 Q 32.25 143.475 27.825 140.85 Q 23.4 138.225 21.15 133.688 Q 18.9 129.15 19.65 122.25 L 22.65 93.75 A 24.127 24.127 0 0 0 22.818 90.975 A 14.718 14.718 0 0 0 21.713 85.05 Q 20.175 81.525 15.112 79.688 Q 10.05 77.85 0 77.85 L 0 67.8 Q 10.05 67.8 15.112 66 Q 20.175 64.2 21.713 60.675 A 14.613 14.613 0 0 0 22.818 54.789 A 23.468 23.468 0 0 0 22.65 52.05 L 19.65 23.4 Q 18.9 16.5 21.15 11.963 Q 23.4 7.425 27.788 4.8 Q 32.175 2.175 37.988 1.088 Q 43.8 0 50.1 0 Z" id="0" fill="url(#paint0_linear)" />
<path d="M 123.75 38.55 L 111 38.55 L 111.975 68.925 L 83.475 58.8 L 79.65 70.65 L 108.675 79.2 L 90.15 103.2 L 100.2 110.55 L 117.375 85.5 L 134.55 110.55 L 144.6 103.2 L 126.075 79.2 L 155.1 70.65 L 151.275 58.8 L 122.775 68.925 L 123.75 38.55 Z" id="1" transform="translate(-40)" fill="url(#paint0_linear)" />
<path d="M 184.65 9.9 L 184.65 0 Q 190.95 0 196.725 1.088 Q 202.5 2.175 206.925 4.8 Q 211.35 7.425 213.638 11.963 A 17.464 17.464 0 0 1 215.319 19.909 A 29.45 29.45 0 0 1 215.1 23.4 L 212.1 52.05 A 20.091 20.091 0 0 0 211.957 54.396 A 12.968 12.968 0 0 0 213.413 60.675 Q 215.325 64.2 220.425 66 Q 225.525 67.8 234.75 67.8 L 234.75 77.85 Q 225.6 77.85 220.463 79.688 Q 215.325 81.525 213.413 85.05 A 13.064 13.064 0 0 0 211.957 91.373 A 20.658 20.658 0 0 0 212.1 93.75 L 215.1 122.25 Q 215.85 129.15 213.6 133.688 Q 211.35 138.225 206.963 140.85 Q 202.575 143.475 196.763 144.563 Q 190.95 145.65 184.65 145.65 L 184.65 135.75 Q 190.125 135.75 194.588 134.7 Q 199.05 133.65 201.525 131.025 A 8.238 8.238 0 0 0 203.619 125.133 A 14.364 14.364 0 0 0 203.55 123.75 L 200.4 93 A 40.119 40.119 0 0 1 200.183 88.977 A 20.595 20.595 0 0 1 201.15 82.238 Q 202.575 78.15 206.288 75.975 Q 210 73.8 216.075 72.975 Q 210.225 72 206.513 69.6 Q 202.8 67.2 201.3 63.075 Q 199.8 58.95 200.4 52.65 L 203.55 21.9 A 13.916 13.916 0 0 0 203.619 20.539 A 8.163 8.163 0 0 0 201.525 14.7 Q 199.05 12.075 194.625 10.988 Q 190.2 9.9 184.65 9.9 Z" id="2" transform="translate(-80)" fill="url(#paint0_linear)" />
<path fill="#000" d="M 426 30.45 L 418.725 38.925 Q 413.85 34.8 408.413 33.038 Q 402.975 31.275 397.05 31.275 Q 388.575 31.275 381.375 35.288 Q 374.175 39.3 369.788 48.563 Q 365.4 57.825 365.4 73.65 Q 365.4 89.025 369.563 98.325 Q 373.725 107.625 380.85 111.75 Q 387.975 115.875 396.75 115.875 Q 405.45 115.875 411.038 113.25 Q 416.625 110.625 420.75 107.25 L 427.5 115.8 Q 422.775 120.375 415.2 123.713 Q 407.625 127.05 396.6 127.05 Q 384.075 127.05 373.913 120.9 Q 363.75 114.75 357.825 102.863 Q 351.9 90.975 351.9 73.65 Q 351.9 56.25 357.938 44.4 Q 363.975 32.55 374.063 26.475 Q 384.15 20.4 396.075 20.4 Q 406.2 20.4 413.025 22.95 Q 419.85 25.5 426 30.45 Z" id="4" transform="translate(-160)" />
<path fill="#000" d="M 477.525 44.7 Q 488.7 44.7 496.237 49.763 Q 503.775 54.825 507.563 64.05 Q 511.35 73.275 511.35 85.8 Q 511.35 97.875 507.45 107.175 Q 503.55 116.475 496.013 121.763 Q 488.475 127.05 477.375 127.05 Q 466.275 127.05 458.7 121.95 Q 451.125 116.85 447.263 107.588 Q 443.4 98.325 443.4 85.95 Q 443.4 73.725 447.3 64.425 Q 451.2 55.125 458.813 49.913 Q 466.425 44.7 477.525 44.7 Z M 477.525 54.975 Q 467.325 54.975 462.113 62.513 Q 456.9 70.05 456.9 85.95 Q 456.9 101.55 462.038 109.125 Q 467.175 116.7 477.375 116.7 Q 487.575 116.7 492.713 109.125 Q 497.85 101.55 497.85 85.8 Q 497.85 70.05 492.75 62.513 Q 487.65 54.975 477.525 54.975 Z" id="5" transform="translate(-170)"/>
<path fill="#000" d="M 584.7 54 L 584.7 12.975 L 597.3 14.55 L 597.3 125.325 L 586.275 125.325 L 585.075 114.9 Q 580.65 121.2 574.913 124.125 Q 569.175 127.05 562.65 127.05 Q 552.375 127.05 545.7 121.875 Q 539.025 116.7 535.8 107.438 Q 532.575 98.175 532.575 85.95 Q 532.575 74.1 536.25 64.763 Q 539.925 55.425 546.863 50.063 Q 553.8 44.7 563.55 44.7 Q 570.375 44.7 575.55 47.063 Q 580.725 49.425 584.7 54 Z M 584.7 104.4 L 584.7 64.95 Q 581.475 60.15 576.9 57.488 Q 572.325 54.825 566.85 54.825 Q 556.95 54.825 551.625 62.55 Q 546.3 70.275 546.3 85.95 Q 546.3 96.15 548.475 103.05 Q 550.65 109.95 554.888 113.4 Q 559.125 116.85 565.275 116.85 Q 572.025 116.85 576.788 113.025 Q 581.55 109.2 584.7 104.4 Z" id="6" transform="translate(-180)"/>
<path fill="#000" d="M 690.45 90.3 L 637.35 90.3 Q 637.725 99.45 640.875 105.263 Q 644.025 111.075 649.2 113.813 Q 654.375 116.55 660.45 116.55 Q 666.525 116.55 671.438 114.75 Q 676.35 112.95 681.525 109.425 L 687.45 117.75 Q 681.9 122.1 674.813 124.575 Q 667.725 127.05 660.3 127.05 Q 648.825 127.05 640.725 121.875 Q 632.625 116.7 628.388 107.438 Q 624.15 98.175 624.15 85.95 Q 624.15 73.95 628.425 64.65 Q 632.7 55.35 640.425 50.025 Q 648.15 44.7 658.65 44.7 Q 668.625 44.7 675.825 49.388 Q 683.025 54.075 686.888 62.738 Q 690.75 71.4 690.75 83.4 Q 690.75 85.425 690.675 87.188 Q 690.6 88.95 690.45 90.3 Z M 637.425 80.55 L 678.6 80.55 Q 678.375 67.875 673.05 61.463 Q 667.725 55.05 658.8 55.05 Q 650.025 55.05 644.138 61.275 Q 638.25 67.5 637.425 80.55 Z" id="7" transform="translate(-190)"/>
<path fill="#000" d="M 786 30.45 L 778.725 38.925 Q 773.85 34.8 768.413 33.038 Q 762.975 31.275 757.05 31.275 Q 748.575 31.275 741.375 35.288 Q 734.175 39.3 729.788 48.563 Q 725.4 57.825 725.4 73.65 Q 725.4 89.025 729.563 98.325 Q 733.725 107.625 740.85 111.75 Q 747.975 115.875 756.75 115.875 Q 765.45 115.875 771.038 113.25 Q 776.625 110.625 780.75 107.25 L 787.5 115.8 Q 782.775 120.375 775.2 123.713 Q 767.625 127.05 756.6 127.05 Q 744.075 127.05 733.913 120.9 Q 723.75 114.75 717.825 102.863 Q 711.9 90.975 711.9 73.65 Q 711.9 56.25 717.938 44.4 Q 723.975 32.55 734.063 26.475 Q 744.15 20.4 756.075 20.4 Q 766.2 20.4 773.025 22.95 Q 779.85 25.5 786 30.45 Z" id="8" transform="translate(-200)"/>
<path fill="#000" d="M 837.525 44.7 Q 848.7 44.7 856.238 49.763 Q 863.775 54.825 867.563 64.05 Q 871.35 73.275 871.35 85.8 Q 871.35 97.875 867.45 107.175 Q 863.55 116.475 856.013 121.763 Q 848.475 127.05 837.375 127.05 Q 826.275 127.05 818.7 121.95 Q 811.125 116.85 807.263 107.588 Q 803.4 98.325 803.4 85.95 Q 803.4 73.725 807.3 64.425 Q 811.2 55.125 818.813 49.913 Q 826.425 44.7 837.525 44.7 Z M 837.525 54.975 Q 827.325 54.975 822.113 62.513 Q 816.9 70.05 816.9 85.95 Q 816.9 101.55 822.038 109.125 Q 827.175 116.7 837.375 116.7 Q 847.575 116.7 852.713 109.125 Q 857.85 101.55 857.85 85.8 Q 857.85 70.05 852.75 62.513 Q 847.65 54.975 837.525 54.975 Z" id="9" transform="translate(-210)"/>
<path fill="#000" d="M 964.8 66.525 L 964.8 125.325 L 953.1 125.325 L 953.1 68.55 Q 953.1 61.125 952.2 57.825 Q 951.3 54.525 947.025 54.525 Q 943.5 54.525 940.013 56.738 Q 936.525 58.95 933.225 63.975 L 933.225 125.325 L 921.45 125.325 L 921.45 68.55 Q 921.45 61.125 920.55 57.825 Q 919.65 54.525 915.375 54.525 Q 911.7 54.525 908.288 56.738 Q 904.875 58.95 901.575 63.975 L 901.575 125.325 L 889.95 125.325 L 889.95 46.35 L 899.85 46.35 L 900.6 55.5 Q 903.825 50.925 907.838 47.813 Q 911.85 44.7 917.775 44.7 Q 922.275 44.7 926.25 46.838 Q 930.225 48.975 932.1 55.125 Q 935.325 50.475 939.375 47.588 Q 943.425 44.7 949.5 44.7 Q 953.325 44.7 956.813 46.35 Q 960.3 48 962.55 52.725 Q 964.8 57.45 964.8 66.525 Z" id="10" transform="translate(-220)"/>
<path fill="#000" d="M 1000.05 117.9 L 1000.05 155.55 L 987.45 157.125 L 987.45 46.35 L 998.175 46.35 L 999.225 57.375 Q 1003.575 51.3 1009.613 48 Q 1015.65 44.7 1022.775 44.7 Q 1033.275 44.7 1039.538 49.8 Q 1045.8 54.9 1048.575 64.163 Q 1051.35 73.425 1051.35 85.8 Q 1051.35 97.725 1048.013 107.063 Q 1044.675 116.4 1037.925 121.725 Q 1031.175 127.05 1020.9 127.05 Q 1007.925 127.05 1000.05 117.9 Z M 1000.05 67.5 L 1000.05 106.65 Q 1003.125 111.225 1007.813 113.888 Q 1012.5 116.55 1018.125 116.55 Q 1027.95 116.55 1032.9 109.05 Q 1037.85 101.55 1037.85 85.725 Q 1037.85 75.375 1035.9 68.513 Q 1033.95 61.65 1029.975 58.238 Q 1026 54.825 1019.775 54.825 Q 1013.25 54.825 1008.263 58.763 Q 1003.275 62.7 1000.05 67.5 Z" id="11" transform="translate(-230)"/>
<path fill="#000" d="M 1119.15 125.325 L 1078.2 125.325 L 1078.2 115.65 L 1090.5 115.65 L 1090.5 56.025 L 1078.2 56.025 L 1078.2 46.35 L 1100.1 46.35 L 1102.425 65.025 Q 1107 55.275 1113.525 49.95 Q 1120.05 44.625 1130.775 44.625 Q 1134.075 44.625 1136.663 45.113 Q 1139.25 45.6 1141.95 46.35 L 1138.275 57.6 Q 1135.8 56.925 1133.775 56.588 Q 1131.75 56.25 1129.125 56.25 Q 1120.05 56.25 1113.525 62.7 Q 1107 69.15 1103.1 82.2 L 1103.1 115.65 L 1119.15 115.65 L 1119.15 125.325 Z" id="12" transform="translate(-240)"/>
<path fill="#000" d="M 1230.45 90.3 L 1177.35 90.3 Q 1177.725 99.45 1180.875 105.263 Q 1184.025 111.075 1189.2 113.813 Q 1194.375 116.55 1200.45 116.55 Q 1206.525 116.55 1211.438 114.75 Q 1216.35 112.95 1221.525 109.425 L 1227.45 117.75 Q 1221.9 122.1 1214.813 124.575 Q 1207.725 127.05 1200.3 127.05 Q 1188.825 127.05 1180.725 121.875 Q 1172.625 116.7 1168.388 107.438 Q 1164.15 98.175 1164.15 85.95 Q 1164.15 73.95 1168.425 64.65 Q 1172.7 55.35 1180.425 50.025 Q 1188.15 44.7 1198.65 44.7 Q 1208.625 44.7 1215.825 49.388 Q 1223.025 54.075 1226.888 62.738 Q 1230.75 71.4 1230.75 83.4 Q 1230.75 85.425 1230.675 87.188 Q 1230.6 88.95 1230.45 90.3 Z M 1177.425 80.55 L 1218.6 80.55 Q 1218.375 67.875 1213.05 61.463 Q 1207.725 55.05 1198.8 55.05 Q 1190.025 55.05 1184.138 61.275 Q 1178.25 67.5 1177.425 80.55 Z" id="13" transform="translate(-250)"/>
<path fill="#000" d="M 1257.45 14.7 L 1270.05 13.35 L 1270.05 57.15 Q 1274.7 50.925 1281.488 47.813 Q 1288.275 44.7 1295.25 44.7 Q 1306.8 44.7 1312.125 50.85 Q 1317.45 57 1317.45 67.95 L 1317.45 125.325 L 1304.85 125.325 L 1304.85 68.25 Q 1304.85 61.125 1301.55 57.863 Q 1298.25 54.6 1291.2 54.6 Q 1286.7 54.6 1282.65 56.625 Q 1278.6 58.65 1275.375 61.65 Q 1272.15 64.65 1270.05 67.8 L 1270.05 125.325 L 1257.45 125.325 L 1257.45 14.7 Z" id="14" transform="translate(-260)"/>
<path fill="#000" d="M 1410.45 90.3 L 1357.35 90.3 Q 1357.725 99.45 1360.875 105.263 Q 1364.025 111.075 1369.2 113.813 Q 1374.375 116.55 1380.45 116.55 Q 1386.525 116.55 1391.438 114.75 Q 1396.35 112.95 1401.525 109.425 L 1407.45 117.75 Q 1401.9 122.1 1394.813 124.575 Q 1387.725 127.05 1380.3 127.05 Q 1368.825 127.05 1360.725 121.875 Q 1352.625 116.7 1348.388 107.438 Q 1344.15 98.175 1344.15 85.95 Q 1344.15 73.95 1348.425 64.65 Q 1352.7 55.35 1360.425 50.025 Q 1368.15 44.7 1378.65 44.7 Q 1388.625 44.7 1395.825 49.388 Q 1403.025 54.075 1406.888 62.738 Q 1410.75 71.4 1410.75 83.4 Q 1410.75 85.425 1410.675 87.188 Q 1410.6 88.95 1410.45 90.3 Z M 1357.425 80.55 L 1398.6 80.55 Q 1398.375 67.875 1393.05 61.463 Q 1387.725 55.05 1378.8 55.05 Q 1370.025 55.05 1364.138 61.275 Q 1358.25 67.5 1357.425 80.55 Z" id="15" transform="translate(-270)"/>
<path fill="#000" d="M 1450.05 125.325 L 1437.45 125.325 L 1437.45 46.35 L 1448.175 46.35 L 1449.15 57.3 Q 1453.95 51.225 1461.188 47.963 Q 1468.425 44.7 1475.25 44.7 Q 1486.875 44.7 1492.163 50.85 Q 1497.45 57 1497.45 67.95 L 1497.45 125.325 L 1484.85 125.325 L 1484.85 77.25 Q 1484.85 69.15 1483.95 64.163 Q 1483.05 59.175 1480.2 56.888 Q 1477.35 54.6 1471.35 54.6 Q 1466.7 54.6 1462.613 56.625 Q 1458.525 58.65 1455.338 61.688 Q 1452.15 64.725 1450.05 67.8 L 1450.05 125.325 Z" id="16" transform="translate(-280)"/>
<path fill="#000" d="M 1586.55 53.4 L 1581 61.95 Q 1576.5 58.875 1571.1 56.888 Q 1565.7 54.9 1558.05 54.9 Q 1548.75 54.9 1544.85 57.788 Q 1540.95 60.675 1540.95 65.25 Q 1540.95 68.7 1542.863 70.988 Q 1544.775 73.275 1549.35 75.113 Q 1553.925 76.95 1561.95 79.125 Q 1569.675 81.15 1575.413 84 Q 1581.15 86.85 1584.375 91.5 Q 1587.6 96.15 1587.6 103.5 Q 1587.6 111.9 1582.8 117.113 Q 1578 122.325 1570.388 124.688 Q 1562.775 127.05 1554.3 127.05 Q 1543.575 127.05 1536.038 123.938 Q 1528.5 120.825 1523.4 116.4 L 1530.6 108.075 Q 1535.25 111.9 1541.288 114.263 Q 1547.325 116.625 1554.3 116.625 Q 1563.375 116.625 1568.663 113.213 Q 1573.95 109.8 1573.95 104.1 Q 1573.95 100.5 1572.638 97.875 Q 1571.325 95.25 1567.275 93.15 Q 1563.225 91.05 1554.825 88.95 Q 1546.65 86.925 1540.613 84.263 Q 1534.575 81.6 1531.238 77.325 Q 1527.9 73.05 1527.9 66.225 Q 1527.9 59.55 1531.688 54.713 Q 1535.475 49.875 1542.225 47.288 Q 1548.975 44.7 1557.9 44.7 Q 1567.425 44.7 1574.513 47.213 Q 1581.6 49.725 1586.55 53.4 Z" id="17" transform="translate(-290)"/>
<path fill="#000" d="M 1621.2 46.35 L 1657.425 46.35 L 1657.425 115.35 L 1679.7 115.35 L 1679.7 125.325 L 1620.45 125.325 L 1620.45 115.35 L 1644.825 115.35 L 1644.825 56.325 L 1621.2 56.325 L 1621.2 46.35 Z M 1647.375 9.375 Q 1651.575 9.375 1654.088 11.925 Q 1656.6 14.475 1656.6 18.15 Q 1656.6 21.975 1654.088 24.563 Q 1651.575 27.15 1647.375 27.15 Q 1643.4 27.15 1640.85 24.563 Q 1638.3 21.975 1638.3 18.15 Q 1638.3 14.475 1640.85 11.925 Q 1643.4 9.375 1647.375 9.375 Z" id="18" transform="translate(-300)"/>
<path fill="#000" d="M 1737.525 44.7 Q 1748.7 44.7 1756.238 49.763 Q 1763.775 54.825 1767.563 64.05 Q 1771.35 73.275 1771.35 85.8 Q 1771.35 97.875 1767.45 107.175 Q 1763.55 116.475 1756.013 121.763 Q 1748.475 127.05 1737.375 127.05 Q 1726.275 127.05 1718.7 121.95 Q 1711.125 116.85 1707.263 107.588 Q 1703.4 98.325 1703.4 85.95 Q 1703.4 73.725 1707.3 64.425 Q 1711.2 55.125 1718.813 49.913 Q 1726.425 44.7 1737.525 44.7 Z M 1737.525 54.975 Q 1727.325 54.975 1722.113 62.513 Q 1716.9 70.05 1716.9 85.95 Q 1716.9 101.55 1722.038 109.125 Q 1727.175 116.7 1737.375 116.7 Q 1747.575 116.7 1752.713 109.125 Q 1757.85 101.55 1757.85 85.8 Q 1757.85 70.05 1752.75 62.513 Q 1747.65 54.975 1737.525 54.975 Z" id="19" transform="translate(-310)"/>
<path fill="#000" d="M 1810.05 125.325 L 1797.45 125.325 L 1797.45 46.35 L 1808.175 46.35 L 1809.15 57.3 Q 1813.95 51.225 1821.188 47.963 Q 1828.425 44.7 1835.25 44.7 Q 1846.875 44.7 1852.163 50.85 Q 1857.45 57 1857.45 67.95 L 1857.45 125.325 L 1844.85 125.325 L 1844.85 77.25 Q 1844.85 69.15 1843.95 64.163 Q 1843.05 59.175 1840.2 56.888 Q 1837.35 54.6 1831.35 54.6 Q 1826.7 54.6 1822.613 56.625 Q 1818.525 58.65 1815.338 61.688 Q 1812.15 64.725 1810.05 67.8 L 1810.05 125.325 Z" id="20" transform="translate(-320)"/>
<defs>
<linearGradient id="paint0_linear" x1="6.00017" y1="32.9999" x2="235" y2="344" gradientUnits="userSpaceOnUse">
<stop stop-color="#41D1FF"/>
<stop offset="1" stop-color="#BD34FE"/>
</linearGradient>
</defs>
</svg>