<svg xmlns="http://www.w3.org/2000/svg" width="138.319" height="33.123" viewBox="0 0 138.319 33.123">
  <g id="Logo" transform="translate(0.964 0.957)">
    <circle id="Ellipse_1" data-name="Ellipse 1" cx="1.324" cy="1.324" r="1.324" transform="translate(14.026 -0.349) rotate(-13.28)" fill="#72bf00"/>
    <circle id="Ellipse_2" data-name="Ellipse 2" cx="1.324" cy="1.324" r="1.324" transform="translate(14.023 29.589) rotate(-13.28)" fill="#72bf00"/>
    <circle id="Ellipse_3" data-name="Ellipse 3" cx="1.324" cy="1.324" r="1.324" transform="translate(24.34 5.039) rotate(-45)" fill="#72bf00"/>
    <circle id="Ellipse_4" data-name="Ellipse 4" cx="1.324" cy="1.324" r="1.324" transform="translate(24.617 25.198) rotate(-13.28)" fill="#72bf00"/>
    <circle id="Ellipse_5" data-name="Ellipse 5" cx="1.324" cy="1.324" r="1.324" transform="translate(3.158 26.18) rotate(-45)" fill="#72bf00"/>
    <circle id="Ellipse_6" data-name="Ellipse 6" cx="1.324" cy="1.324" r="1.324" transform="translate(-0.964 14.642) rotate(-13.28)" fill="#72bf00"/>
    <circle id="Ellipse_7" data-name="Ellipse 7" cx="1.324" cy="1.324" r="1.324" transform="translate(28.738 15.628) rotate(-45)" fill="#72bf00"/>
    <circle id="Ellipse_8" data-name="Ellipse 8" cx="1.324" cy="1.324" r="1.324" transform="translate(3.158 5.002) rotate(-45)" fill="#72bf00"/>
    <path id="Path_2878" data-name="Path 2878" d="M66.134,25.15a1.324,1.324,0,0,0-1.324,1.326v5.273h0v.019a1.324,1.324,0,1,0,2.647,0v-.036h0V26.46A1.324,1.324,0,0,0,66.134,25.15Z" transform="translate(-50.516 -21.438)" fill="#72bf00"/>
    <path id="Path_2879" data-name="Path 2879" d="M66.134,82.4a1.321,1.321,0,0,0-1.324,1.324V89h0v.036a1.324,1.324,0,1,0,2.647,0V89h0V83.724A1.321,1.321,0,0,0,66.134,82.4Z" transform="translate(-50.516 -62.801)" fill="#72bf00"/>
    <path id="Path_2880" data-name="Path 2880" d="M35.926,63.32H27.984a1.324,1.324,0,1,0,0,2.647h7.942a1.324,1.324,0,0,0,0-2.647Z" transform="translate(-22.952 -49.016)" fill="#72bf00"/>
    <path id="Path_2881" data-name="Path 2881" d="M83.626,65.967a1.324,1.324,0,1,0,0-2.647H75.684a1.324,1.324,0,1,0,0,2.647Z" transform="translate(-57.415 -49.016)" fill="#72bf00"/>
    <path id="Path_2882" data-name="Path 2882" d="M85.213,23.942a1.321,1.321,0,0,0,1.324-1.326v-.036h0V13.869a1.326,1.326,0,1,0-2.65,0v8.714h0v.036a1.324,1.324,0,0,0,1.326,1.324Z" transform="translate(-64.297 -12.285)" fill="#72bf00"/>
    <path id="Path_2883" data-name="Path 2883" d="M46.93,82.4a1.321,1.321,0,0,0-1.324,1.324V92.44h0v.033a1.326,1.326,0,1,0,2.65,0V92.44h0V83.724A1.324,1.324,0,0,0,46.93,82.4Z" transform="translate(-36.64 -62.801)" fill="#72bf00"/>
    <path id="Path_2884" data-name="Path 2884" d="M15.389,46.757h8.744a1.326,1.326,0,0,0,0-2.65H15.389a1.326,1.326,0,1,0,0,2.65Z" transform="translate(-13.806 -35.133)" fill="#72bf00"/>
    <path id="Path_2885" data-name="Path 2885" d="M93.973,82.4h-8.75a1.324,1.324,0,1,0,0,2.647h8.75a1.324,1.324,0,1,0,0-2.647Z" transform="translate(-64.308 -62.801)" fill="#72bf00"/>
    <path id="Path_2886" data-name="Path 2886" d="M47.053,18.647a1.321,1.321,0,0,0,1.324-1.324v-.036h0V13.869a1.326,1.326,0,1,0-2.65,0v3.419h0v.036a1.324,1.324,0,0,0,1.326,1.324Z" transform="translate(-36.727 -12.285)" fill="#72bf00"/>
    <path id="Path_2887" data-name="Path 2887" d="M18.835,85.037a1.326,1.326,0,0,0,0-2.65H15.389a1.326,1.326,0,1,0,0,2.65Z" transform="translate(-13.806 -62.79)" fill="#72bf00"/>
    <path id="Path_2888" data-name="Path 2888" d="M104.3,46.887h3.455a1.324,1.324,0,0,0,0-2.647H104.3a1.324,1.324,0,1,0,0,2.647Z" transform="translate(-78.093 -35.23)" fill="#72bf00"/>
    <path id="Path_2889" data-name="Path 2889" d="M85.216,101.35a1.326,1.326,0,0,0-1.326,1.324v.036h0v3.422a1.326,1.326,0,0,0,2.65,0V102.71h0v-.036A1.324,1.324,0,0,0,85.216,101.35Z" transform="translate(-64.301 -76.492)" fill="#72bf00"/>
    <path id="Path_2890" data-name="Path 2890" d="M182.053,35.88a5.958,5.958,0,0,1,5.8,4.44l.055.239,2.742-.361-.078-.294a8.745,8.745,0,0,0-8.528-6.543c-5.392,0-9.3,4.038-9.3,9.6a9.769,9.769,0,0,0,2.706,6.99,9.2,9.2,0,0,0,6.6,2.636,8.667,8.667,0,0,0,8.5-6.244l.069-.278-2.678-.524-.067.241a6.079,6.079,0,0,1-5.828,4.282c-3.774,0-6.513-2.989-6.513-7.1S178.279,35.88,182.053,35.88Z" transform="translate(-128.495 -27.369)" fill="#002b3f"/>
    <path id="Path_2891" data-name="Path 2891" d="M251.756,51.66a6.689,6.689,0,0,0-6.976,7,6.706,6.706,0,0,0,6.976,7.026,7.015,7.015,0,0,0,0-14.03Zm0,11.633a4.624,4.624,0,1,1,4.385-4.629A4.373,4.373,0,0,1,251.756,63.293Z" transform="translate(-180.544 -40.591)" fill="#002b3f"/>
    <path id="Path_2892" data-name="Path 2892" d="M352.89,34.065a1.482,1.482,0,0,0-1.554,1.51,1.543,1.543,0,1,0,3.083,0,1.471,1.471,0,0,0-1.529-1.51Z" transform="translate(-257.529 -27.878)" fill="#002b3f"/>
    <rect id="Rectangle_235" data-name="Rectangle 235" width="2.617" height="13.159" transform="translate(94.046 11.629)" fill="#002b3f"/>
    <path id="Path_2893" data-name="Path 2893" d="M380.122,39.551a5.6,5.6,0,0,0-4.6,2.087V34.8H372.91V53.2h2.617V51.533a5.46,5.46,0,0,0,4.571,2.153,6.792,6.792,0,0,0,6.785-7.087A6.747,6.747,0,0,0,380.122,39.551Zm-.25,2.417a4.427,4.427,0,0,1,4.393,4.643,4.414,4.414,0,1,1-8.813,0,4.42,4.42,0,0,1,4.421-4.643Z" transform="translate(-273.117 -28.41)" fill="#002b3f"/>
    <path id="Path_2894" data-name="Path 2894" d="M302.57,50.717V34.8h2.617V50.063c0,.766.469.894,1.085.894h.832v2.22h-1.418C304.038,53.2,302.57,52.635,302.57,50.717Z" transform="translate(-222.297 -28.41)" fill="#002b3f"/>
    <path id="Path_2895" data-name="Path 2895" d="M326.45,50.717V34.8h2.611V50.063c0,.766.472.894,1.088.894h.832v2.22h-1.418C327.918,53.2,326.45,52.635,326.45,50.717Z" transform="translate(-239.55 -28.41)" fill="#002b3f"/>
    <path id="Path_2896" data-name="Path 2896" d="M436.483,53.206a3.68,3.68,0,0,0-3.086,1.515V53.333H430.83V66.5h2.617V59.433c0-2.345.946-3.719,2.914-3.719a4.323,4.323,0,0,1,1.865.314v-2.5A3.559,3.559,0,0,0,436.483,53.206Z" transform="translate(-314.965 -41.707)" fill="#002b3f"/>
    <path id="Path_2897" data-name="Path 2897" d="M473.815,63.487c-.6,0-1.055-.125-1.079-.832V57.085c0-3.033-2.2-5-5.614-5-3.352,0-5.514,1.823-5.514,4.643v.278h2.645v-.278a1.926,1.926,0,0,1,.555-1.446,3.2,3.2,0,0,1,2.306-.771c1.89,0,3.022.941,3.022,2.522v.255l-3.252.4c-3.741.425-5.883,2.087-5.883,4.562,0,2.314,1.923,3.868,4.79,3.868a5.2,5.2,0,0,0,4.346-1.967h.139c.4,1.188,1.626,1.565,2.972,1.565h.871V63.5Zm-7.742.364c-1.548,0-2.473-.616-2.473-1.648,0-1.493,1.809-2.034,3.33-2.22l3.191-.366v.833C470.119,62.444,468.454,63.851,466.073,63.851Z" transform="translate(-336.762 -40.902)" fill="#002b3f"/>
  </g>
</svg>
