<svg width="200" height="40" viewBox="0 0 200 40" fill="none" xmlns="http://www.w3.org/2000/svg">
<g clip-path="url(#clip0_356_140842)">
<path d="M13.8511 20.0148L-0.00927734 12.0074V28.0222L13.8511 36.0274L20.7914 32.026L6.91299 24.0185L13.8511 20.0148L27.7137 28.0222V12.0074L13.8511 4L6.92204 8.01501L20.8005 16.0224L13.8511 20.0148Z" fill="#0285FE"/>
<path d="M44.3713 28.0762C38.0572 28.0762 35.9683 26.0733 35.9683 20.0168C35.9683 13.9604 38.0413 11.98 44.3713 11.98C48.2665 11.98 50.3102 13.1805 51.7186 15.3846L49.277 17.0101C48.314 15.3191 46.9756 14.5844 44.3713 14.5617C40.3337 14.5844 38.9953 15.5632 38.9953 20.0168C38.9953 24.4704 40.3337 25.4719 44.3713 25.4945C47.0842 25.4719 48.479 24.6694 49.3946 22.7998L51.8362 24.4478C50.4413 26.8283 48.375 28.0762 44.3713 28.0762Z" fill="#101828"/>
<path d="M54.103 20.0168C54.103 13.983 56.1941 11.98 62.5083 11.98C68.8224 11.98 70.9113 13.983 70.9113 20.0168C70.9113 26.0507 68.8224 28.0762 62.5083 28.0762C56.1941 28.0762 54.103 26.0733 54.103 20.0168ZM67.8933 20.0168C67.8933 15.5632 66.555 14.5911 62.5173 14.5617C58.4797 14.5844 57.1414 15.5632 57.1414 20.0168C57.1414 24.4704 58.4797 25.4719 62.5173 25.4945C66.5459 25.4719 67.882 24.4908 67.882 20.0168H67.8933Z" fill="#101828"/>
<path d="M89.1759 12.2466V27.8319H86.2166L76.699 16.6053V27.8274H73.7285V12.2466H76.699L86.2279 23.2223V12.2466H89.1759Z" fill="#101828"/>
<path d="M107.978 20.0171C107.978 26.2296 105.772 27.9296 99.0599 27.8324H92.4858V12.2471H99.0599C105.772 12.1567 107.978 13.8273 107.978 20.0171ZM104.951 20.0171C104.951 15.385 103.518 14.7406 99.0599 14.8175H95.4428V25.2371H99.0599C103.495 25.271 104.958 24.6697 104.958 20.0171H104.951Z" fill="#101828"/>
<path d="M118.45 28.0761C111.971 28.0761 110.585 25.9601 110.655 19.5035V12.2466H113.614V19.5035C113.567 24.3572 114.224 25.4944 118.332 25.4944C122.65 25.4944 123.378 24.4476 123.306 19.5035V12.2466H126.263V19.5035C126.335 25.9601 124.927 28.0761 118.45 28.0761Z" fill="#101828"/>
<path d="M134.835 21.3301L132.538 23.2902V27.8319H129.576V12.2466H132.538V19.6165L141.129 12.2466H145.471L137.138 19.3701L146.407 27.8319H141.97L134.835 21.3301Z" fill="#101828"/>
<path d="M162.871 14.8284H156.557V27.8319H153.6V14.8284H147.286V12.2466H162.871V14.8284Z" fill="#101828"/>
<path d="M164.635 20.0168C164.635 13.983 166.724 11.98 173.038 11.98C179.352 11.98 181.441 13.983 181.441 20.0168C181.441 26.0507 179.352 28.0762 173.038 28.0762C166.724 28.0762 164.635 26.0733 164.635 20.0168ZM178.414 20.0168C178.414 15.5632 177.076 14.5911 173.038 14.5617C169 14.5844 167.662 15.5632 167.662 20.0168C167.662 24.4704 169 25.4719 173.038 25.4945C177.076 25.4719 178.414 24.4908 178.414 20.0168Z" fill="#101828"/>
<path d="M191.042 22.2435H187.217V27.8093H184.258V12.2466H187.217V12.2692H193.884C197.076 12.2692 198.577 13.7816 198.577 16.3385V18.1629C198.577 20.5005 197.334 21.9699 194.657 22.2163L199 27.8274H195.338L191.042 22.2435ZM187.217 19.6595H193.649C195.338 19.6595 195.62 19.3045 195.62 18.1674V16.343C195.62 15.2127 195.338 14.851 193.649 14.851H187.217V19.6595Z" fill="#101828"/>
</g>
<defs>
<clipPath id="clip0_356_140842">
<rect width="200" height="40" fill="white"/>
</clipPath>
</defs>
</svg>