<svg version="1.1" id="Layer_1" xmlns="http://www.w3.org/2000/svg" xmlns:xlink="http://www.w3.org/1999/xlink" x="0px" y="0px"
	 viewBox="0 0 710 105" style="enable-background:new 0 0 710 105;" xml:space="preserve">
<title>Credit Karma Logo</title>
<g>
	<path fill="#008600" d="M442,30.5c-16.8,0-23.3,4.5-23.3,9.7c0,3.9,2.3,6.4,2.9,7c2.2-1.4,8.5-5,18.5-5c12.7,0,17.2,6,17.2,12.5v1.9
		c-29.4,3.1-44.4,8.6-44.4,26.2c0,12,9,21,21.6,21c12.7,0,19.9-6.6,23.1-9.5v8.1h12.8V54.2C470.5,38.6,459.2,30.5,442,30.5z
		 M457.3,83c-5.9,6.1-11.9,9.1-19.6,9.1c-7.4,0-11.4-4.8-11.4-9.8c0-7.2,5.8-13.3,30.9-15.7V83z M672.6,30.5
		c-16.8,0-23.3,4.5-23.3,9.7c0,3.9,2.3,6.4,2.9,7c2.2-1.4,8.5-5,18.5-5c12.7,0,17.2,6,17.2,12.5v1.9c-29.4,3.1-44.4,8.6-44.4,26.2
		c0,12,9,21,21.6,21c12.7,0,19.9-6.6,23.1-9.5v8.1H701V54.2C701,38.6,689.7,30.5,672.6,30.5z M687.9,83c-5.9,6.1-11.9,9.1-19.6,9.1
		c-7.4,0-11.4-4.8-11.4-9.8c0-7.2,5.8-13.3,30.9-15.7V83z M258.5,17.8c-4.6,0-8.4-3.7-8.4-8.3c0-4.6,3.8-8.4,8.4-8.4
		c4.6,0,8.3,3.8,8.3,8.4C266.7,14.1,263.1,17.8,258.5,17.8z M251.8,102.4V32H265v70.4H251.8z M120.4,72.9c19.6,0,45.4-3,45.4-23.6
		c0-10.3-8.6-18.8-23.1-18.8c-24.4,0-36.1,17.1-36.1,37.8c0,19.8,12.8,35.6,35.6,35.6c12.7,0,22.2-3.5,22.2-10.7
		c0-3.4-2.2-6.1-2.7-6.5c-1.3,0.8-8.1,5.5-18.7,5.5C128.1,92.1,121.9,82.5,120.4,72.9z M120.3,62.7c0.6-10.4,7.3-21,21.8-21
		c6.5,0,10.4,3.7,10.4,8.2C152.5,60,134.2,62.7,120.3,62.7z M235.8,100.3c-2.7,0.7-11.2,3.6-23.6,3.6c-27.1,0-37.6-15.1-37.6-35.4
		c0-25.7,14.6-38,31.1-38c9.2,0,15.3,2.9,17,3.7V2.8h13V100.3z M222.8,46.1c-1.6-1-7.3-3.9-14.6-3.9c-12.1,0-20.5,8.4-20.5,25.8
		c0,15.5,7.8,24.1,24.5,24.1c3.9,0,7.5-0.6,10.6-1.5V46.1z M14.7,67.1c0-16.4,8.5-24.9,21.5-24.9c9.8,0,16.2,3.7,18.3,5
		c1.6-1.5,2.9-4.2,2.9-7c0-4.7-5.5-9.7-21.7-9.7C16.8,30.5,1,43.2,1,67.3c0,23.5,14.3,36.6,33.2,36.6c11.3,0,20.4-3.6,23-5V85.8
		c-2.9,2-12.2,6.3-20.8,6.3C24,92.1,14.7,83.7,14.7,67.1z M386.4,66.5c8.5-9.6,16.1-21,21.5-35L395.7,27
		c-7.7,20.3-19.3,34-33.3,45.3V2.8h-13.1v99.6h13.1V87.7c5.1-3.6,9.6-7.3,14.5-11.8l12,20.3c3,5,7,7.7,13,7.7c3.4,0,5.3-1.1,6.1-1.5
		L386.4,66.5z M81.5,40.9c0-6.9-3.9-10.4-9.1-10.4c-1.2,0-2.5,0.2-3.8,0.7v71.2h13.1V60.8c3.7-8.8,12.6-17,24.2-17V30.5
		c-12.5,0-19.6,6-24.4,15V40.9z M499.6,40.9c0-6.9-3.9-10.4-9.1-10.4c-1.2,0-2.5,0.2-3.8,0.7v71.2h13.1V60.8
		c3.7-8.8,12.6-17,24.2-17V30.5c-12.5,0-19.6,6-24.4,15V40.9z M545.5,41.2v-0.3c0-6.9-3.7-10.4-8.9-10.4c-1.2,0-2.5,0.2-3.8,0.7
		v71.2h13.1V53.7c3.9-5.3,11.8-11.5,18.8-11.5c7.7,0,11.5,5,11.5,12.2v48h13.1V53.7c4.5-6.1,11.8-11.5,18.8-11.5
		c7.7,0,11.5,5,11.5,12.2v48h13.1V53.7c0-13.3-6-23.2-22.2-23.2c-9.9,0-17.2,5.3-23.1,11.8c-2-4.7-6.5-11.8-20.3-11.8
		C557.6,30.5,550.8,35.5,545.5,41.2z M281.2,15v68.2c0,13.5,8.4,20.7,20.8,20.7c5.9,0,11.2-1.5,12.4-1.9V90.7
		c-1.1,0.3-4.7,1.4-9.5,1.4c-7.3,0-10.6-4.5-10.6-10.5V43h18.2V32h-18.2v-7.2c0-6.9-4.1-10.4-9.4-10.4
		C283.7,14.3,282.4,14.5,281.2,15z"/>
	<g>
		<path fill="#008600" d="M691.8,17.1h6.5v1.3h-2.4v7.4h-1.7v-7.4h-2.4V17.1z M707.1,25.9c0-2.2-0.2-4.9-0.7-7.1
			c-1.1,1.6-1.8,3.5-2.1,5.3h-1c-0.3-1.8-1.1-3.7-2.1-5.3c-0.5,2.2-0.7,4.9-0.7,7.1h-1.7c0-2.8,0.3-6,1-8.7h1.5
			c0.9,1.1,1.9,2.8,2.4,4.4c0.6-1.6,1.5-3.4,2.4-4.4h1.5c0.7,2.7,1,6,1,8.7H707.1z"/>
	</g>
</g>
</svg>
