<?xml version="1.0" encoding="utf-8"?>
<!-- Generator: Adobe Illustrator 25.0.0, SVG Export Plug-In . SVG Version: 6.00 Build 0)  -->
<svg version="1.1" xmlns="http://www.w3.org/2000/svg" xmlns:xlink="http://www.w3.org/1999/xlink" x="0px" y="0px"
	 viewBox="0 0 1143.2 145.7" style="enable-background:new 0 0 1143.2 145.7;" xml:space="preserve">
<style type="text/css">
	.st0{display:none;}
	.st1{display:inline;fill:#005288;}
	.st2{display:inline;fill:#F5842D;}
	.st3{display:inline;fill:#54BCEB;}
	.st4{fill:#00508C;}
	.st5{fill:#FF8426;}
	.st6{fill:#FFBA4E;}
</style>
<g id="Layer_1" class="st0">
	<path class="st1" d="M42.5,29.8H0v19.1h21.6l0,0h18.7c14.6,0,18.5,5.8,18.5,16.8v42.5c0,11-4,16.8-18.5,16.8H21.6V66.2L0,78.9V144
		h42.5c28.1,0,37.9-14.4,37.9-30.7V60.5C80.5,44,70.7,29.8,42.5,29.8z"/>
	<path class="st1" d="M690.9,29.8h-42.5v19.1H670l0,0h18.7c14.6,0,18.5,5.8,18.5,16.8v42.5c0,11-4,16.8-18.5,16.8H670V66.2
		l-21.6,12.8V144h42.5c28.1,0,37.9-14.4,37.9-30.7V60.5C728.8,44,719,29.8,690.9,29.8z"/>
	<polygon class="st2" points="266.9,0 286.4,46.9 305.9,0 	"/>
	<polygon class="st1" points="315.9,29.8 286.4,104.5 256.9,29.8 232.7,29.8 227.6,144 249.7,144 251.6,70.1 272.7,122.9 
		300.1,122.9 321.2,70.1 323.1,144 345.3,144 340.1,29.8 	"/>
	<path class="st1" d="M120,29.8h70v19h-48.3v27.7h44.6v19h-44.6V125H190v19h-70V29.8z"/>
	<path class="st1" d="M449.4,120.3H407l-7.2,23.7h-22.6l36-114.3h30.2l36,114.3h-22.6L449.4,120.3z M412.3,101.6h31.6l-15.6-54
		L412.3,101.6z"/>
	<path class="st1" d="M534.8,57.4V144h-21.1V29.8h28.8l43.4,86.8V29.8H607V144h-28.8L534.8,57.4z"/>
	<path class="st3" d="M768.4,144V29.8h45c21.6,0,30.4,8.9,30.4,24.4V66c0,9.4-3.9,14.8-12.7,18.5c10.5,2.2,16.6,9.9,16.6,21.1v12.2
		c0,16.1-10.5,26.2-31.2,26.2L768.4,144z M822.1,56.8c0-6.3-3.4-9.3-11.3-9.3H790v30h20.6c8.4,0,11.5-3.9,11.5-10.6L822.1,56.8z
		 M826,106.5c0-7.7-3.4-11.5-12-11.5h-24v31.2h22.1c9.8,0,13.9-2.8,13.9-11.2L826,106.5z"/>
	<path class="st3" d="M947.9,120.3h-42.4l-7.2,23.7h-22.6l36-114.3h30.2l36,114.3h-22.6L947.9,120.3z M910.9,101.6h31.6l-15.6-54
		L910.9,101.6z"/>
	<path class="st3" d="M1041.9,145.7c-13,0-28.1-3.3-35.7-6.9l3.8-17c10.6,3.3,20.9,5.3,32.2,5.3c15.6,0,18.2-3.3,18.2-14.2
		c0-12.7-0.3-13.7-20.9-18.2c-27.6-6.2-31.4-11.5-31.4-35.7c0-20.8,9.4-31,38.4-31c11.2,0.1,22.4,1.3,33.3,3.8l-2.4,18.2
		c-10-2.2-20.3-3.3-30.5-3.4c-14.6,0-17.2,3.1-17.2,13c0,13,0.3,13.4,20.1,18.2c30.7,7.4,32.3,12.4,32.3,35.2
		C1082,134.6,1075.7,145.7,1041.9,145.7z"/>
	<path class="st3" d="M1119.9,29.8h70v19h-48.4v27.7h44.6v19h-44.6V125h48.4v19h-70V29.8z"/>
</g>
<g id="Layer_2">
	<g>
		<g>
			<polygon class="st4" points="323.8,30.2 321.8,30.2 321,32.1 283.2,118.2 243.6,32 242.8,30.2 240.9,30.2 225.1,30.2 222.1,30.2 
				222.1,33.3 222.1,142.2 222.1,145.2 225.1,145.2 239.7,145.2 242.8,145.2 242.8,142.2 242.8,74.7 274.3,143.5 275.1,145.2 
				277.1,145.2 290.8,145.2 291.3,146.1 291.7,145.2 293.6,140.8 293.7,140.5 321.8,75.7 321.8,142.4 321.8,145.4 324.9,145.4 
				339.5,145.4 342.5,145.4 342.5,142.4 342.5,33.4 342.5,30.4 339.5,30.4 			"/>
			<path class="st4" d="M431.3,31.4l-0.7-2h-2.1h-17.1h-2.1l-0.7,2l-41,109.7l-1.5,4.1h4.4H386h2.1l0.7-2l10.1-27.4H440h0.7
				l10.1,27.4l0.7,2h2.1h15.6h4.4l-1.5-4.1L431.3,31.4z M405.5,98h-3h-0.2l16-43.5l1.6,4.4L434.2,98H405.5z"/>
			<path class="st4" d="M39.5,29.4H4.4H0l1.5,4.1l4.3,11.6l0.7,2h2.1h30.7c27.1,0,41.7,14.7,41.7,40.4c0,25.6-14.5,39.8-41.7,39.8
				H22.1V69.4v-4.6l-4.2,1.8L3.2,72.9l-1.8,0.8v2V142v3h3h35.1c38.7,0,62.9-22,62.9-57.6C102.3,51.8,78.1,29.4,39.5,29.4z"/>
			<polygon class="st4" points="186.5,47.1 188.6,47.1 189.3,45.1 193.7,33.4 195.2,29.3 190.8,29.3 130.3,29.3 127.3,29.3 
				127.3,32.3 127.1,77.9 127.1,77.9 127.1,80.9 127.1,83.9 127.1,83.9 127.1,142.4 127.1,145.4 130.2,145.4 186.5,145.4 
				188.6,145.4 189.3,143.4 193.5,131.8 193.7,131.3 193.7,130.8 193.7,130.5 193.7,127.4 190.7,127.4 148,127.4 148,95.7 
				180.7,95.7 182.8,95.7 183.5,93.7 187.9,82 189.4,77.9 185,77.9 148,77.9 148,47.1 			"/>
			<path class="st4" d="M910.6,31.4l-0.7-2h-2.1h-17.1h-2.1l-0.7,2l-41,109.7l-1.5,4.1h4.4h15.6h2.1l0.7-2l10.1-27.4h41.4h0.3
				l10.1,27.4l0.7,2h2.1h15.6h4.4l-1.5-4.1L910.6,31.4z M884.8,98L899.1,59L913.5,98H884.8z"/>
			<polygon class="st4" points="1095.2,127.4 1095.2,95.7 1130,95.7 1136.6,77.9 1095.2,77.9 1095.2,47.1 1135.8,47.1 1142.4,29.3 
				1074.3,29.3 1074.3,145.4 1135.8,145.4 1140.9,127.4 			"/>
			<polygon class="st4" points="574.1,29.3 571.1,29.3 571.1,32.3 571.1,109.4 517.4,30.6 516.5,29.3 514.9,29.3 500.3,29.3 
				497.2,29.3 497.2,32.3 497.2,142.2 497.2,145.2 500.3,145.2 514.9,145.2 518,145.2 518,142.2 518,64.8 569.1,141 571.1,144 
				571.8,145.1 574,145.1 574.1,145.1 588.7,145.2 591.8,145.3 591.8,142.2 591.8,32.3 591.8,29.3 588.8,29.3 			"/>
			<path class="st4" d="M658.1,29.4h-35.1h-4.4l1.5,4.1l4.3,11.6l0.7,2h2.1h30.7c27.1,0,41.7,14.7,41.7,40.4
				c0,25.6-14.5,39.8-41.7,39.8h-17.4V69.4v-4.6l-4.2,1.8l-14.6,6.3l-1.8,0.8v2V142v3h3h35.1c38.7,0,62.9-22,62.9-57.6
				C721,51.8,696.7,29.4,658.1,29.4z"/>
			<path class="st4" d="M813.6,85.1c7-5.1,10.8-13.6,10.8-24c0-7.7-3.6-15.6-9.9-21.5c-7-6.5-16.9-10.2-28.9-10.2h-36.4h-3v3v109.7
				v3h3h42c24,0,39.7-13.3,39.7-32.5C831,100.7,823.8,90,813.6,85.1z M767.1,47.4h17.4c12.4,0,18.8,5.4,18.8,14.8
				c0,9.3-6.5,14.7-18.5,14.7h-17.7V47.4z M790.1,127.3h-3v0.2h-20V94.7h22.5c12.8,0,20.6,6.4,20.6,16.6
				C810.2,121.4,803,127.3,790.1,127.3z"/>
			<path class="st4" d="M1012.7,78.8c-14.9-4-24.1-6.9-24.1-16.9v-0.2c0-4,1.3-7.3,3.8-9.8c3.3-3.2,8.4-4.8,14.6-4.7
				c11.7,0.1,17.9,7,18.7,13.3l0.5,3.8l21.2-7.7l-0.8-2.7c-4.5-15.3-19.5-24.8-39.1-24.8c-24.1,0-40.3,13.4-40.3,33.4
				c0,24.3,20.2,29.5,36.3,33.8c15.2,4,24.6,6.9,24.6,17.7c0,9.3-7.6,15.3-19.5,15.3c-16.7,0-19.6-10.9-20.1-15.6l-0.4-3.9
				l-21.2,7.7l0.6,2.6c3.5,16.5,19.8,27.1,41.4,27.1c26.6,0,40.5-17.1,40.5-34C1049.3,88.6,1029,83.2,1012.7,78.8z"/>
		</g>
		<g>
			<polygon class="st5" points="282.5,1 255.9,1 282.5,59.1 			"/>
			<polygon class="st6" points="282.4,1 309,1 282.4,59.1 			"/>
		</g>
	</g>
</g>
</svg>
