<svg width="360" height="172" viewBox="0 0 360 172" fill="none" xmlns="http://www.w3.org/2000/svg">
<path d="M100.719 102.921C113.393 102.921 121.174 95.5838 121.174 83.3552C121.174 71.1265 113.393 63.567 100.719 63.567H87.1566V102.699L100.719 102.921ZM100.275 56.6746C118.062 56.6746 128.734 66.6798 128.734 83.1328C128.734 99.8082 118.062 109.591 100.275 109.591H83.8215C81.3758 109.591 79.8195 108.035 79.8195 105.589V60.6766C79.8195 58.2309 81.3758 56.6746 83.8215 56.6746H100.275V56.6746Z" fill="#17009A"/>
<path d="M142.741 87.3572H168.088C166.754 81.3541 162.085 77.352 155.414 77.352C148.744 77.352 144.075 81.3541 142.741 87.3572ZM174.536 89.1359C174.536 91.804 172.979 93.5827 170.089 93.5827H142.519C143.631 100.031 148.522 104.477 155.637 104.477C160.306 104.477 163.863 102.699 166.309 100.031C166.976 99.1412 167.865 98.6965 168.977 98.6965C170.978 98.6965 172.312 100.031 172.312 102.032C172.312 102.699 172.09 103.366 171.645 104.033C168.088 108.257 162.529 110.925 155.859 110.925C143.631 110.925 135.404 102.921 135.404 91.137C135.404 79.3531 143.631 71.3489 155.414 71.3489C166.531 71.1265 174.536 78.9084 174.536 89.1359Z" fill="#17009A"/>
<path d="M240.125 87.8018V106.478C240.125 108.702 238.791 110.258 236.79 110.258C234.567 110.258 233.233 108.702 233.233 106.478V88.6911C233.233 81.354 230.12 77.3519 224.339 77.3519C218.336 77.3519 214.556 82.021 214.556 89.8028V106.478C214.556 108.702 213.222 110.258 210.999 110.258C208.998 110.258 207.664 108.702 207.664 106.478V88.6911C207.664 81.354 204.551 77.3519 198.77 77.3519C192.767 77.3519 188.988 82.021 188.988 89.8028V106.478C188.988 108.702 187.653 110.258 185.43 110.258C183.207 110.258 182.095 108.702 182.095 106.478V75.3508C182.095 72.9051 183.429 71.5711 185.43 71.5711C187.653 71.5711 188.988 72.9051 188.988 75.3508V76.2402C191.433 72.9051 195.435 70.9041 200.327 70.9041C205.885 70.9041 209.887 73.1274 212.111 77.3519H212.333C215.001 73.1274 219.448 70.9041 225.673 70.9041C235.456 70.9041 240.125 76.9072 240.125 87.8018Z" fill="#17009A"/>
<path d="M284.593 75.1286V106.478C284.593 118.262 277.478 125.155 265.694 125.155C258.579 125.155 252.799 123.154 249.686 119.152C249.241 118.707 249.019 117.817 249.019 116.928C249.019 114.927 250.353 113.593 252.354 113.593C253.466 113.593 254.133 114.038 254.8 114.705C257.468 117.373 260.803 118.707 265.472 118.707C273.031 118.707 277.7 114.038 277.7 106.701V103.366H277.478C274.588 107.368 270.141 109.369 264.138 109.369C253.688 109.369 247.907 103.143 247.907 91.8039V74.9062C247.907 72.4605 249.241 71.1265 251.465 71.1265C253.688 71.1265 254.8 72.4605 254.8 74.9062V91.1369C254.8 98.9187 258.579 103.143 265.694 103.143C273.031 103.143 277.478 98.0294 277.478 89.8029V75.1286C277.478 72.6828 278.812 71.3488 280.813 71.3488C283.481 71.3488 284.593 72.9052 284.593 75.1286Z" fill="#17009A"/>
<path d="M309.717 87.3568C322.168 87.5791 326.615 90.9142 326.615 98.696C326.615 106.256 320.389 110.702 309.939 110.702C301.935 110.702 296.822 109.146 293.042 105.588C292.375 104.921 291.93 104.032 291.93 103.143C291.93 101.142 293.264 99.8077 295.043 99.8077C295.932 99.8077 296.822 100.252 297.489 100.697C300.157 103.143 304.381 104.254 309.273 104.254C315.72 104.254 319.5 102.031 319.5 98.2513C319.5 94.9163 317.054 93.5822 308.828 93.5822C296.822 93.5822 292.375 90.2472 292.375 82.6877C292.375 75.3505 298.823 70.6814 308.828 70.6814C315.276 70.6814 319.722 72.0154 323.502 75.1282C324.391 76.0175 324.836 76.6845 324.836 77.7962C324.836 80.0196 323.502 81.3536 321.501 81.3536C320.612 81.3536 319.945 81.1313 319.5 80.6866C316.61 78.2409 313.052 77.1292 309.495 77.1292C303.269 77.1292 299.49 79.3526 299.49 82.91C299.49 86.0227 301.713 87.1344 309.717 87.3568Z" fill="#17009A"/>
<path d="M359.743 103.81C357.52 108.479 353.073 110.703 347.07 110.703C338.176 110.703 332.84 105.144 332.84 95.5838V62.6777C332.84 60.4543 334.174 58.8979 336.398 58.8979C338.621 58.8979 339.733 60.232 339.733 62.6777V71.7936H354.629C356.853 71.7936 357.965 73.1276 357.965 75.1286C357.965 77.1297 356.631 78.2414 354.629 78.2414H339.51V95.8061C339.51 101.142 342.401 104.255 347.07 104.255C350.405 104.255 352.406 102.699 353.962 100.253C354.407 99.3635 355.296 98.6965 356.631 98.6965C358.409 98.6965 359.743 100.031 359.743 102.032C360.188 102.699 359.966 103.366 359.743 103.81Z" fill="#17009A"/>
<path d="M53.5835 86.4676C53.3612 90.0251 52.0271 94.0271 45.5793 96.0282C34.6848 99.3633 28.4593 106.923 26.2359 109.368C23.3455 112.259 21.1221 116.261 19.3434 121.819C17.3424 128.49 15.5637 130.935 9.3382 130.935C4.22443 130.935 0 126.711 0 121.597C0 116.483 3.11273 112.926 9.3382 112.259C24.2349 110.703 34.9071 100.92 34.9071 86.69V86.2453C34.9071 72.0157 24.2349 62.2328 9.3382 60.6764C3.11273 60.0094 0 56.452 0 51.3382C0 46.2244 4.22443 42 9.3382 42C15.5637 42 18.4541 45.5574 19.5658 51.3382C20.4551 56.0073 23.3455 60.8988 26.2359 63.7891C28.6816 66.0125 34.6848 73.572 45.5793 77.1294C52.0271 79.1305 53.3612 83.1326 53.5835 86.4676Z" fill="#17009A"/>
<path d="M6.89247 95.8057H8.89351C14.0073 95.8057 18.2317 92.026 18.6764 86.9122C18.8987 81.5761 14.6743 76.907 9.33819 76.907C9.33819 76.907 7.33714 76.907 6.67013 76.907C4.44675 77.1293 2.89038 78.6857 2.66804 80.6867C2.22336 83.5771 2.22336 88.9132 2.66804 91.5813C2.89038 94.027 4.44675 95.5834 6.89247 95.8057Z" fill="#17009A"/>
</svg>
