<svg width="123" height="31" viewBox="0 0 123 31" fill="none" xmlns="http://www.w3.org/2000/svg">
<g clip-path="url(#clip0)">
<path d="M113.727 18.3096L111.13 15.7076L120.403 6.41535L123 9.01735L113.727 18.3096Z" fill="#461E7D"/>
<path d="M101.08 30.9829L98.4834 28.3809L107.756 19.0887L110.353 21.6907L101.08 30.9829Z" fill="#461E7D"/>
<path d="M111.129 21.6897L113.726 19.0877L122.999 28.3799L120.402 30.9819L111.129 21.6897Z" fill="#461E7D"/>
<path d="M98.4824 9.01881L101.079 6.41682L110.352 15.709L107.755 18.311L98.4824 9.01881Z" fill="#461E7D"/>
<path d="M75.0561 17.1036C74.0896 11.5318 69.2166 7.29535 63.3799 7.29535C56.8479 7.29535 51.5522 12.6018 51.5522 19.1477C51.5522 25.6936 56.8479 31 63.3799 31C67.2026 31 70.6014 29.1828 72.7637 26.3633L69.9632 24.21C68.4462 26.1878 66.0616 27.4626 63.3799 27.4626C58.7974 27.4626 55.0823 23.7398 55.0823 19.1477C55.0823 14.5553 58.7974 10.8327 63.3799 10.8327C67.2589 10.8327 70.54 13.4996 71.449 17.1036H62.7014V20.6409H75.0561V17.1036Z" fill="#461E7D"/>
<path d="M23.5039 17.1036C22.5373 11.5318 17.6643 7.29535 11.8277 7.29535C5.29562 7.29535 0 12.6018 0 19.1477C0 25.6936 5.29562 31 11.8277 31C15.6503 31 19.0494 29.1828 21.2115 26.3633L18.411 24.21C16.894 26.1878 14.5096 27.4626 11.8277 27.4626C7.24512 27.4626 3.53001 23.7398 3.53001 19.1477C3.53001 14.5553 7.24512 10.8327 11.8277 10.8327C15.7066 10.8327 18.9877 13.4996 19.8968 17.1036H11.1492V20.6409H23.5039V17.1036Z" fill="#461E7D"/>
<path d="M82.1169 23.019V0.000125885H78.5869V23.019C78.5869 26.7521 80.3235 29.0005 83.3352 30.9829L85.3509 28.0824C83.2905 26.6743 82.1169 25.5721 82.1169 23.019Z" fill="#461E7D"/>
<path d="M48.2324 17.0963C48.2324 11.6259 43.8231 7.29918 38.4235 7.29918C35.3495 7.29918 32.584 8.53165 30.5635 10.5285V8.2607H27.0337V20.6411H30.5635V17.7113C31.096 14.8715 33.6068 10.8365 38.4204 10.8365C41.8704 10.8365 44.7024 13.5664 44.7024 17.0963V30.6406H48.2324V17.0963Z" fill="#461E7D"/>
</g>
<defs>
<clipPath id="clip0">
<rect width="123" height="31" fill="white" transform="matrix(1 0 0 -1 0 31)"/>
</clipPath>
</defs>
</svg>
