<svg xmlns="http://www.w3.org/2000/svg" width="30" height="32" fill="none" viewBox="0 0 30 32">
    <path fill="#fff" d="M23.906 0c1.363 0 2.468 1.097 2.468 2.45 0 1.353-1.105 2.45-2.468 2.45-1.163 0-2.139-.8-2.4-1.875-1.311.156-2.173.644-2.63 1.437-.303.528-.451 1.22-.435 2.075h6.6c3.444 0 5.83 3.551 4.656 6.91L25.74 24.765c-.618 1.767-2.1 3.02-3.844 3.321.407.314.739.72.966 1.193.186.407.282.85.282 1.299 0 1.897-7.557 1.897-7.557 0 0-.942.421-1.8 1.103-2.423h-3.344c.367.304.668.686.879 1.124.186.407.282.85.282 1.299 0 1.897-7.557 1.897-7.557 0 0-.976.452-1.862 1.177-2.488-1.753-.293-3.246-1.55-3.866-3.325L.304 13.448C-.87 10.085 1.521 6.537 4.958 6.537h5.577c.016-.855-.132-1.547-.436-2.075-.382-.663-1.046-1.113-2.02-1.334C7.781 4.151 6.831 4.9 5.705 4.9 4.343 4.9 3.24 3.803 3.24 2.45 3.239 1.097 4.343 0 5.706 0c1.108 0 2.045.724 2.357 1.722 2.589.456 3.884 2.105 3.848 4.815h5.154c-.04-2.934 1.482-4.624 4.514-4.904C21.918.682 22.832 0 23.906 0z"/>
    <path fill="url(#paint0_linear)" fill-rule="evenodd" d="M25.98 6.622h.002c-5.613.205-8.714 6.258-9.367 8.364-.82 2.645-2.948 12.02-12.438 8.757l-.287-.102.037.016c1.4.588 9.34 3.595 13.47-5.266 2.756-5.914 6.9-8.158 12.433-6.729l.168.044c0-.062 0-.125-.002-.187v.027c0-.035-.001-.069-.003-.103l.003.076-.001-.045-.002-.031-.005-.1.005.087-.003-.057-.002-.03-.006-.091.004.064-.003-.046-.004-.045c-.005-.067-.012-.133-.02-.2l.003.028-.012-.093.008.065-.011-.088.003.023c-.005-.037-.01-.074-.017-.111l.014.088-.008-.05-.006-.038-.014-.085.013.074-.017-.098.004.024-.018-.096.014.072-.008-.043-.006-.03-.02-.099.018.085-.022-.105.004.02-.019-.085.015.065-.01-.046-.011-.046c-.015-.063-.032-.126-.049-.189l.006.022-.025-.09.02.068-.026-.086.006.018-.03-.099.024.08-.03-.1.006.02-.027-.085.02.065-.013-.043-.008-.022c-.01-.032-.02-.063-.032-.094l.025.072-.014-.041-.01-.031-.033-.09.029.08-.038-.104.009.024-.031-.081.022.057-.016-.042-.016-.041c-.025-.061-.05-.122-.077-.182l-.024-.055-.047-.1.036.076-.021-.045-.015-.03-.037-.076.03.061-.043-.087.013.026-.044-.086.031.06-.039-.075.008.015-.047-.089.04.074-.05-.093.01.02-.044-.079.033.06-.022-.04-.022-.039c-.032-.056-.066-.112-.1-.168l.013.023-.049-.078.035.055-.023-.036-.012-.019-.056-.086.045.069-.058-.088.013.02-.05-.074.037.054-.025-.037-.012-.017-.057-.08.043.06-.024-.034-.02-.026c-.017-.025-.036-.05-.054-.074l.049.066-.066-.089.017.023-.055-.072.038.049-.052-.067.014.018-.067-.084.053.066-.03-.037-.023-.03-.054-.064.048.057-.064-.076.016.02-.06-.072.044.052-.028-.033-.017-.019-.068-.077.057.064-.035-.04-.022-.024-.058-.062.045.048-.03-.033-.014-.015-.066-.068.048.05-.03-.03-.018-.02-.07-.07.059.059-.075-.075.016.016-.06-.059.044.042-.033-.03-.032-.032c-.047-.044-.094-.087-.143-.129l.02.018-.071-.062.051.044-.031-.027-.02-.017-.077-.064.065.054-.08-.067.015.013-.068-.055.053.042-.071-.056.018.014-.072-.056.054.042-.035-.027-.02-.015-.081-.06.066.049-.04-.03-.026-.02-.075-.052.06.041-.037-.025-.037-.026-.164-.11.022.015-.074-.047.052.033-.037-.023-.015-.01-.093-.055.072.042-.087-.051.015.009-.073-.042.058.033-.04-.024-.018-.01-.096-.052.072.04-.036-.02-.036-.02-.078-.04.077.04-.095-.05.018.01-.079-.04.06.03-.08-.04.02.01-.098-.046.079.037-.042-.02-.037-.017-.075-.034.07.031-.098-.043-.04-.017-.015-.007-.101-.04.076.03-.048-.02-.028-.01-.081-.031.06.023-.043-.017-.017-.006-.098-.035.07.025-.039-.014-.031-.011-.091-.03.082.027-.102-.034.02.007-.086-.027.066.02-.044-.013-.022-.007-.104-.03.081.023-.049-.014-.032-.009-.085-.023.068.018-.095-.024.027.006-.096-.023.069.017-.085-.02.016.003-.102-.023.086.02-.051-.012-.052-.011-.048-.01z" clip-rule="evenodd"/>
    <path fill="url(#paint1_linear)" d="M17.396 18.391c-4.196 9.003-12.324 5.755-13.531 5.24 2.68 1.437 10.687 2.858 15.1-2.885 2.642-3.438 5.802-4.795 9.48-4.071l.112.023 1.139-3.256c.202-.58.299-1.164.302-1.736-5.617-1.518-9.817.71-12.602 6.685z"/>
    <path fill="url(#paint2_linear)" fill-rule="evenodd" d="M18.965 20.746c-4.413 5.744-12.42 4.322-15.1 2.885l.394 1.128c.713 2.035 2.572 3.39 4.656 3.39h12.17c2.082 0 3.943-1.355 4.654-3.39l2.819-8.061c-3.727-.775-6.925.575-9.593 4.048z" clip-rule="evenodd"/>
    <path fill="url(#paint3_linear)" fill-rule="evenodd" d="M1.55 7.946l.03-.03.03-.028.028-.027.094-.086.04-.036.014-.012.046-.04.02-.016.049-.04.026-.022.046-.037.026-.02.05-.039.023-.017.059-.043.02-.015.049-.034.02-.014c.035-.025.072-.05.108-.073l.06-.039.048-.03.028-.017.064-.038.022-.013.052-.03.053-.029.044-.023.07-.037.033-.016.047-.024.034-.017.07-.032.067-.03.035-.016.04-.017.016-.006.03-.013.07-.028.027-.01.055-.02.034-.013.064-.023.013-.004.067-.023.038-.012.059-.018.031-.009.073-.02.027-.008.066-.017.026-.007.065-.016.023-.005.065-.014.028-.006.047-.01.165.008c5.507.318 8.553 6.271 9.2 8.356.82 2.646 2.947 12.02 12.437 8.758l.288-.102.025-.011c-1.188.637-1.205.646 0 0l-.395 1.128c-.713 2.035-2.572 3.39-4.656 3.39H8.913c-2.082 0-3.942-1.355-4.654-3.39L.303 13.448c-.203-.58-.3-1.165-.303-1.736l.168-.045-.168.045v-.126l.003-.07.002-.068.004-.07.001-.03.004-.046.003-.039.002-.033.013-.133.007-.055.002-.02.008-.062.004-.027.012-.079.004-.022.009-.055.003-.019.004-.021.012-.064.012-.06-.01.045.017-.078.008-.036.01-.049.009-.033.031-.127.015-.054.004-.016.02-.066.006-.023.019-.062.011-.036.019-.058.01-.032.022-.062.006-.015.024-.067.014-.039.017-.043.013-.033c.024-.061.05-.122.076-.182l.025-.054.014-.031.032-.07.019-.037.015-.031.02-.038.027-.054.015-.028.027-.05.02-.039.027-.047.013-.022.067-.113.03-.048.008-.014.031-.048.014-.022.037-.056.02-.03.036-.051.017-.025.04-.056.01-.013.041-.057.026-.034.031-.04.021-.027.048-.059.011-.014.04-.047.025-.03.038-.045.019-.02.05-.056.02-.022.037-.04.023-.025.043-.044.018-.019.046-.045z" clip-rule="evenodd" opacity=".637"/>
    <defs>
        <linearGradient id="paint0_linear" x1="24.944" x2="18.195" y1="12.008" y2="21.014" gradientUnits="userSpaceOnUse">
            <stop stop-color="#4E25C3"/>
            <stop offset="1" stop-color="#351285"/>
        </linearGradient>
        <linearGradient id="paint1_linear" x1="32.268" x2="20.936" y1="15.759" y2="24.247" gradientUnits="userSpaceOnUse">
            <stop stop-color="#4363EC"/>
            <stop offset="1" stop-color="#2342C0"/>
        </linearGradient>
        <linearGradient id="paint2_linear" x1="34.272" x2="12.069" y1="21.451" y2="28.473" gradientUnits="userSpaceOnUse">
            <stop stop-color="#99F3F1"/>
            <stop offset="1" stop-color="#00D7D7"/>
        </linearGradient>
        <linearGradient id="paint3_linear" x1="2.712" x2="15.11" y1="11.664" y2="26.433" gradientUnits="userSpaceOnUse">
            <stop stop-color="#99F3F1" stop-opacity="0"/>
            <stop offset="1" stop-color="#00D7D7"/>
        </linearGradient>
    </defs>
</svg>
