<?xml version="1.0" encoding="utf-8"?>
<!-- Generator: Adobe Illustrator 25.2.2, SVG Export Plug-In . SVG Version: 6.00 Build 0)  -->
<svg version="1.1" id="Layer_1" xmlns="http://www.w3.org/2000/svg" xmlns:xlink="http://www.w3.org/1999/xlink" x="0px" y="0px"
	 viewBox="0 0 274.5 47.7" style="enable-background:new 0 0 274.5 47.7;" xml:space="preserve">
<style type="text/css">
	.st0{fill:#FA5C59;}
	.st1{fill:#FFFFFF;}
</style>
<g>
	<rect y="17.4" class="st0" width="16.3" height="13.1"/>
	<g>
		<rect x="16.3" y="1.1" class="st1" width="13.1" height="16.3"/>
		<rect x="16.3" y="30.5" class="st1" width="13.1" height="16.3"/>
		<polygon class="st1" points="45.7,17.4 29.3,17.4 29.3,30.5 45.7,30.5 45.7,46.8 58.7,46.8 58.7,1.2 45.7,1.2 		"/>
		<path class="st1" d="M87.5,33.5c-1.3,1.7-3.3,2.7-5.5,2.7c-3.1,0-5-1.4-5-4.9V12.1h-13v24.8c0,6,3.5,10.8,11.5,10.8
			c6.1,0,9.9-2.5,11.9-4.8v3.9h13V12.1h-13V33.5z"/>
		<path class="st1" d="M130.5,11.2c-6.1,0-9.9,2.5-12,4.8v-4h-13v34.8h13V25.4c1.3-1.7,3.4-2.8,5.5-2.7c3.1,0,5,1.4,5,5v19.2h13
			V22.2C142.1,16.1,138.5,11.2,130.5,11.2z"/>
		<path class="st1" d="M259.3,24c-3.5-0.5-4.5-0.9-4.5-1.9c0-1,1.4-1.5,3.2-1.5c3.9,0.1,7.8,1.4,11,3.6l3.3-8.9
			c-4.3-2.6-9.3-4-14.3-4c-10.1,0-15.6,5.6-15.6,11.9c0,9.4,9,10.5,14.8,11.3c3.3,0.4,4.9,0.9,4.9,2c0,0.9-0.8,1.7-3.5,1.7
			c-4.5-0.3-8.8-1.8-12.5-4.4l-5.2,8.7c3.8,3.1,10.7,5.3,17.1,5.3c10.3,0,16.5-5,16.5-11.9C274.5,26.1,265.1,24.8,259.3,24z"/>
		<path class="st1" d="M167.8,36.3c-1.7-0.1-3-1.5-2.9-3.1l0-0.1v-9.7h7V12.1h-6.8V1.1h-13.3v10.9h-5.6v11.2h5.8v13.5
			c0,7.3,4.2,10.9,11.9,10.9c4.4,0,7.4-1.1,8.8-2.3l-2.3-9.8C169.6,36.1,168.7,36.3,167.8,36.3z"/>
		<path class="st1" d="M193.3,11.2c-11.2,0-18.9,8.1-18.9,18.2c0,11.5,8.5,18.3,19.4,18.3c5.2,0,11.4-1.4,14.8-4.3l-5.3-8
			c-2.3,1.6-5,2.5-7.8,2.5c-4.4,0-6.9-2.2-7.6-4.4h23.6l0-2.6C211.4,18.5,203.5,11.2,193.3,11.2z M187.6,25.3c0.6-2.6,3-4.4,5.7-4.2
			c4.2,0,5.4,2.7,5.8,4.2H187.6z"/>
		<path class="st1" d="M228.8,12.1h-12.9v34.8h12.9V25.7c1.4-1.7,5-2.5,7.7-2.5c1,0,2,0.1,3,0.4V11.2c-4,0.2-7.9,1.9-10.7,4.8V12.1z
			"/>
	</g>
</g>
</svg>
