<svg width="104" height="16" xmlns="http://www.w3.org/2000/svg"><path d="M96.493 10.991h7.183l.216-.111c.108-.245.108-.445.108-.557 0-3.005-1.834-5.453-4.53-5.453-3.128 0-5.177 2.448-5.177 5.475 0 3.095 2.48 5.655 5.608 5.655 1.618 0 3.128-.78 4.099-1.447v-2.338l-.108-.11c-1.079 1.112-2.588 1.78-3.99 1.78-1.834 0-3.128-1.224-3.409-2.894zm-.12-1.948c.319-1.148 1.455-2.086 3.046-2.086 1.251 0 2.388.938 2.501 2.086h-5.547zM90.433 16c.72 0 1.867-.306 2.474-.656V13.27l-.113-.11a4.09 4.09 0 0 1-2.36.765c-.9 0-1.687-.655-1.687-2.403V7.59h4.047l.113-.11V5.514l-.113-.109h-4.047v-2.49l-.113-.131H86.61l-.112.109v2.512h-1.799l-.112.11V7.48l.112.109h1.799v4.041c0 2.84 1.462 4.37 3.935 4.37zM81.227 3.478l1.28-1.284V1.98L81.227.696h-.213l-1.28 1.284v.214l1.28 1.284h.213zm-3.682 12.2l.108-.108V5.673l-.108-.108h-1.94l-.109.108v7.207c-.539.646-1.618 1.076-2.696 1.076-1.834 0-2.696-1.076-2.696-2.797V5.673l-.108-.108h-1.942l-.107.108v5.594C67.947 14.17 69.564 16 72.8 16c.97 0 1.941-.323 2.696-.753v.323l.108.107h1.941zM59.061 3.944c0-.96.637-1.604 1.495-1.637v-.004c1.314.016 2.088.779 2.75 2.19h.224l1.673-1.316C64.423 1.205 62.75 0 60.517 0v.006c-2.269.053-4.022 1.781-4.022 3.94 0 4.273 6.806 4.054 6.806 7.122 0 1.534-1.005 2.63-2.455 2.63-1.339 0-2.12-.767-2.79-2.191h-.223l-1.673 1.315C56.94 14.795 58.615 16 60.846 16c2.79 0 5.02-2.192 5.02-4.932 0-5.04-6.805-4.931-6.805-7.123zM52.3 16c.718 0 1.865-.306 2.472-.656V13.27l-.112-.11c-.877.612-1.732.765-2.36.765-.9 0-1.688-.655-1.688-2.403V7.59h4.048l.112-.11V5.514l-.112-.109h-4.048v-2.49l-.112-.131h-2.024l-.112.109v2.512h-1.8l-.112.11V7.48l.113.109h1.799v4.041c0 2.84 1.461 4.37 3.935 4.37zm-6.541-3.34c0-4.34-6.02-2.782-6.02-4.674 0-.556.547-1.002 1.532-1.002 1.094 0 2.189.334 3.284 1.113l.11-.111V5.76c-.876-.557-2.08-.89-3.394-.89-2.3 0-3.832 1.335-3.832 3.116 0 4.118 6.02 2.56 6.02 4.675 0 .779-.437 1.224-1.97 1.224-1.203 0-2.627-.445-3.83-1.224l-.11.111v2.226c.985.668 2.627 1.002 3.94 1.002 2.628 0 4.27-1.447 4.27-3.34zM31.261 16c1.619 0 3.128-.78 4.099-1.447v-2.338l-.108-.11c-1.078 1.112-2.588 1.78-3.99 1.78-1.834 0-3.128-1.224-3.408-2.894h7.182l.216-.111c.108-.245.108-.445.108-.557 0-3.005-1.833-5.453-4.53-5.453-3.128 0-5.177 2.448-5.177 5.475 0 3.095 2.481 5.655 5.608 5.655zm-3.528-6.957c.319-1.148 1.455-2.086 3.046-2.086 1.25 0 2.387.938 2.501 2.086h-5.547zm-6.196 6.846l4.116-10.213-.108-.11h-2.167l-.108.11-2.817 7.327-2.816-7.327-.109-.11h-2.166l-.109.11L19.37 15.89l.108.111h1.95l.109-.11zm-7.085-.585l.108-.107V9.603c0-2.905-1.618-4.733-4.853-4.733-.971 0-1.942.322-2.697.753V5.3l-.107-.108H4.96l-.108.108v9.897l.108.107h1.942l.107-.107V7.989c.54-.645 1.618-1.075 2.697-1.075 1.833 0 2.696 1.075 2.696 2.796v5.487l.108.107h1.941zM2.075 4.767h.005V.696h-.297L0 2.575V15.89l.104.11H1.97l.104-.11V4.768zm78.456.798l-.104.111V15.89l.104.111h1.872l.104-.11V5.675l-.104-.11H80.53z" fill="#E7285D" fill-rule="evenodd"/></svg>