<svg width="273" height="65" viewBox="0 0 273 65" fill="none" xmlns="http://www.w3.org/2000/svg">
<path d="M88.354 52.2828C87.9543 52.2828 87.6145 52.1452 87.3347 51.8701C87.0549 51.595 86.915 51.2609 86.915 50.8679V11.8404C86.915 11.4081 87.0549 11.074 87.3347 10.8382C87.6145 10.5631 87.9543 10.4255 88.354 10.4255H93.2106C93.6503 10.4255 93.9901 10.5631 94.2299 10.8382C94.5097 11.074 94.6496 11.4081 94.6496 11.8404V32.0027L104.723 22.629C104.842 22.5504 105.042 22.3932 105.322 22.1574C105.562 21.9609 105.802 21.8233 106.042 21.7447C106.281 21.6661 106.581 21.6268 106.941 21.6268H112.517C112.917 21.6268 113.237 21.7447 113.476 21.9805C113.716 22.2163 113.836 22.5307 113.836 22.9238C113.836 23.2775 113.636 23.6312 113.237 23.9849L100.885 35.363L114.735 49.9836C115.135 50.3766 115.335 50.7107 115.335 50.9858C115.335 51.3788 115.195 51.6933 114.915 51.9291C114.676 52.1649 114.376 52.2828 114.016 52.2828H108.32C107.76 52.2828 107.341 52.2239 107.061 52.1059C106.821 51.9487 106.501 51.6736 106.102 51.2806L94.6496 39.4309V50.8679C94.6496 51.2609 94.5097 51.595 94.2299 51.8701C93.9901 52.1452 93.6503 52.2828 93.2106 52.2828H88.354Z" fill="#28293D"/>
<path d="M128.288 52.8723C126.25 52.8723 124.371 52.4793 122.652 51.6933C120.973 50.8679 119.634 49.7674 118.635 48.3918C117.676 47.0163 117.196 45.5031 117.196 43.8524C117.196 41.1798 118.295 39.0182 120.494 37.3675C122.692 35.7168 125.71 34.5966 129.547 34.0071L137.762 32.828V31.59C137.762 29.8607 137.322 28.5637 136.443 27.699C135.563 26.8344 134.144 26.402 132.186 26.402C130.866 26.402 129.787 26.6575 128.948 27.1684C128.148 27.6401 127.509 28.1117 127.029 28.5833C126.55 29.0943 126.23 29.4283 126.07 29.5856C125.91 30.0572 125.61 30.293 125.17 30.293H120.554C120.194 30.293 119.874 30.1751 119.594 29.9393C119.355 29.7035 119.235 29.389 119.235 28.996C119.275 28.0135 119.754 26.8933 120.674 25.6356C121.633 24.378 123.092 23.2971 125.051 22.3932C127.009 21.4892 129.408 21.0372 132.246 21.0372C136.962 21.0372 140.4 22.0788 142.558 24.1618C144.717 26.2448 145.796 28.9764 145.796 32.3564V50.8679C145.796 51.2609 145.656 51.595 145.376 51.8701C145.136 52.1452 144.797 52.2828 144.357 52.2828H139.5C139.101 52.2828 138.761 52.1452 138.481 51.8701C138.201 51.595 138.061 51.2609 138.061 50.8679V48.5687C137.182 49.8264 135.923 50.8679 134.284 51.6933C132.685 52.4793 130.687 52.8723 128.288 52.8723ZM130.327 47.2717C132.525 47.2717 134.324 46.5643 135.723 45.1494C137.122 43.7345 137.822 41.6711 137.822 38.9592V37.7212L131.826 38.6645C129.507 39.0182 127.749 39.5881 126.55 40.3741C125.39 41.1602 124.811 42.1231 124.811 43.2629C124.811 44.5205 125.35 45.5031 126.43 46.2106C127.509 46.918 128.808 47.2717 130.327 47.2717Z" fill="#28293D"/>
<path d="M154.927 52.2828C154.527 52.2828 154.187 52.1452 153.908 51.8701C153.628 51.595 153.488 51.2609 153.488 50.8679V23.0417C153.488 22.6486 153.628 22.3146 153.908 22.0395C154.187 21.7643 154.527 21.6268 154.927 21.6268H159.604C160.003 21.6268 160.343 21.7643 160.623 22.0395C160.903 22.3146 161.043 22.6486 161.043 23.0417V25.0461C163.121 22.3735 166.019 21.0372 169.737 21.0372C174.173 21.0372 177.271 22.7862 179.03 26.2841C179.989 24.712 181.348 23.4543 183.107 22.5111C184.866 21.5285 186.765 21.0372 188.803 21.0372C192.081 21.0372 194.759 22.1377 196.837 24.3387C198.916 26.5396 199.955 29.7428 199.955 33.9481V50.8679C199.955 51.2609 199.815 51.595 199.536 51.8701C199.296 52.1452 198.956 52.2828 198.516 52.2828H193.6C193.2 52.2828 192.86 52.1452 192.58 51.8701C192.301 51.595 192.161 51.2609 192.161 50.8679V34.4198C192.161 31.9437 191.621 30.1554 190.542 29.055C189.503 27.9152 188.104 27.3453 186.345 27.3453C184.786 27.3453 183.447 27.9152 182.328 29.055C181.248 30.1947 180.709 31.983 180.709 34.4198V50.8679C180.709 51.2609 180.569 51.595 180.289 51.8701C180.009 52.1452 179.67 52.2828 179.27 52.2828H174.353C173.954 52.2828 173.614 52.1452 173.334 51.8701C173.054 51.595 172.914 51.2609 172.914 50.8679V34.4198C172.914 31.9437 172.355 30.1554 171.235 29.055C170.156 27.9152 168.777 27.3453 167.098 27.3453C165.499 27.3453 164.14 27.9152 163.021 29.055C161.942 30.1947 161.402 31.983 161.402 34.4198V50.8679C161.402 51.2609 161.262 51.595 160.983 51.8701C160.703 52.1452 160.363 52.2828 159.963 52.2828H154.927Z" fill="#28293D"/>
<path d="M221.381 52.8723C216.704 52.8723 213.087 51.6933 210.528 49.3351C207.97 46.9377 206.591 43.6755 206.391 39.5488L206.331 36.9548L206.391 34.3608C206.591 30.2733 207.99 27.0309 210.588 24.6334C213.187 22.236 216.784 21.0372 221.381 21.0372C225.978 21.0372 229.575 22.236 232.173 24.6334C234.771 27.0309 236.17 30.2733 236.37 34.3608C236.41 34.8325 236.43 35.6971 236.43 36.9548C236.43 38.2125 236.41 39.0771 236.37 39.5488C236.17 43.6755 234.791 46.9377 232.233 49.3351C229.675 51.6933 226.058 52.8723 221.381 52.8723ZM221.381 47.0359C223.499 47.0359 225.138 46.3874 226.297 45.0904C227.457 43.7541 228.096 41.8087 228.216 39.254C228.256 38.861 228.276 38.0946 228.276 36.9548C228.276 35.815 228.256 35.0486 228.216 34.6556C228.096 32.1009 227.457 30.1751 226.297 28.8781C225.138 27.5418 223.499 26.8737 221.381 26.8737C219.262 26.8737 217.623 27.5418 216.464 28.8781C215.305 30.1751 214.666 32.1009 214.546 34.6556L214.486 36.9548L214.546 39.254C214.666 41.8087 215.305 43.7541 216.464 45.0904C217.623 46.3874 219.262 47.0359 221.381 47.0359Z" fill="#28293D"/>
<path d="M244.512 52.2828C244.113 52.2828 243.773 52.1452 243.493 51.8701C243.213 51.595 243.073 51.2609 243.073 50.8679V23.0417C243.073 22.6486 243.213 22.3146 243.493 22.0395C243.773 21.7643 244.113 21.6268 244.512 21.6268H249.429C249.829 21.6268 250.168 21.7643 250.448 22.0395C250.728 22.3146 250.868 22.6486 250.868 23.0417V25.4588C253.226 22.5111 256.564 21.0372 260.881 21.0372C264.558 21.0372 267.476 22.236 269.635 24.6334C271.793 26.9916 272.872 30.2144 272.872 34.3019V50.8679C272.872 51.2609 272.733 51.595 272.453 51.8701C272.213 52.1452 271.873 52.2828 271.433 52.2828H266.157C265.757 52.2828 265.418 52.1452 265.138 51.8701C264.858 51.595 264.718 51.2609 264.718 50.8679V34.6556C264.718 32.3367 264.139 30.5485 262.979 29.2908C261.86 27.9938 260.221 27.3453 258.063 27.3453C255.944 27.3453 254.266 27.9938 253.026 29.2908C251.827 30.5878 251.228 32.376 251.228 34.6556V50.8679C251.228 51.2609 251.088 51.595 250.808 51.8701C250.568 52.1452 250.228 52.2828 249.789 52.2828H244.512Z" fill="#28293D"/>
<path d="M0 2.34428C0 1.22583 0.91052 0.319153 2.0337 0.319153L17.678 0.319153C18.5367 0.319153 19.0088 1.31342 18.4639 1.97426L1.80274 22.1812C1.19689 22.9159 0 22.4893 0 21.5386L0 2.34428Z" fill="#223C37"/>
<path d="M12.6309 30.6383C10.9614 30.6383 10.0158 32.5576 11.0301 33.8876L34.1533 64.2067C34.5347 64.7067 35.1265 65 35.7542 65H54.5767C56.2501 65 57.1946 63.073 56.1725 61.7441L32.8511 31.425C32.4695 30.9289 31.8801 30.6383 31.2553 30.6383L12.6309 30.6383Z" fill="#376C66"/>
<path d="M10.7074 33.6078L21.8265 47.8191L38.1352 26.7326L56.1698 3.5578C57.1984 2.236 56.2479 0.319153 54.5638 0.319153L35.6034 0.319154C34.9824 0.319154 34.3957 0.601129 34.011 1.08439L10.6561 30.4291C9.84826 31.4441 9.98699 32.7524 10.7074 33.6078Z" fill="#39D98A"/>
</svg>
