<svg width="124" height="30" viewBox="0 0 124 30" fill="none" xmlns="http://www.w3.org/2000/svg">
<path d="M33.0341 24.9688C32.8508 24.9688 32.6951 24.9031 32.5668 24.7719C32.4385 24.6406 32.3744 24.4812 32.3744 24.2937V5.675C32.3744 5.46875 32.4385 5.30938 32.5668 5.19688C32.6951 5.06563 32.8508 5 33.0341 5H35.2606C35.4622 5 35.6179 5.06563 35.7279 5.19688C35.8562 5.30938 35.9203 5.46875 35.9203 5.675V15.2938L40.5382 10.8219C40.5932 10.7844 40.6848 10.7094 40.8131 10.5969C40.9231 10.5031 41.033 10.4375 41.143 10.4C41.2529 10.3625 41.3904 10.3438 41.5553 10.3438H44.1116C44.2949 10.3438 44.4415 10.4 44.5514 10.5125C44.6614 10.625 44.7164 10.775 44.7164 10.9625C44.7164 11.1312 44.6247 11.3 44.4415 11.4688L38.779 16.8969L45.1287 23.8719C45.3119 24.0594 45.4036 24.2188 45.4036 24.35C45.4036 24.5375 45.3394 24.6875 45.2111 24.8C45.1012 24.9125 44.9637 24.9688 44.7988 24.9688H42.1875C41.9309 24.9688 41.7385 24.9406 41.6103 24.8844C41.5003 24.8094 41.3537 24.6781 41.1704 24.4906L35.9203 18.8375V24.2937C35.9203 24.4812 35.8562 24.6406 35.7279 24.7719C35.6179 24.9031 35.4622 24.9688 35.2606 24.9688H33.0341Z" fill="white"/>
<path d="M51.342 25.25C50.4074 25.25 49.5461 25.0625 48.7581 24.6875C47.9885 24.2938 47.3746 23.7687 46.9164 23.1125C46.4766 22.4562 46.2567 21.7344 46.2567 20.9469C46.2567 19.6719 46.7607 18.6406 47.7686 17.8531C48.7764 17.0656 50.16 16.5312 51.9192 16.25L55.685 15.6875V15.0969C55.685 14.2719 55.4834 13.6531 55.0803 13.2406C54.6771 12.8281 54.0266 12.6219 53.1287 12.6219C52.5239 12.6219 52.0292 12.7438 51.6443 12.9875C51.2778 13.2125 50.9846 13.4375 50.7647 13.6625C50.5448 13.9063 50.3982 14.0656 50.3249 14.1406C50.2516 14.3656 50.1142 14.4781 49.9126 14.4781H47.7961C47.6311 14.4781 47.4845 14.4219 47.3563 14.3094C47.2463 14.1969 47.1913 14.0469 47.1913 13.8594C47.2097 13.3906 47.4296 12.8563 47.851 12.2563C48.2908 11.6563 48.9597 11.1406 49.8576 10.7094C50.7556 10.2781 51.8551 10.0625 53.1562 10.0625C55.3185 10.0625 56.8945 10.5594 57.884 11.5531C58.8736 12.5469 59.3684 13.85 59.3684 15.4625V24.2937C59.3684 24.4812 59.3042 24.6406 59.176 24.7719C59.066 24.9031 58.9102 24.9688 58.7087 24.9688H56.4822C56.2989 24.9688 56.1431 24.9031 56.0149 24.7719C55.8866 24.6406 55.8225 24.4812 55.8225 24.2937V23.1969C55.4193 23.7969 54.8421 24.2938 54.0907 24.6875C53.3577 25.0625 52.4415 25.25 51.342 25.25ZM52.2765 22.5781C53.2844 22.5781 54.1091 22.2406 54.7504 21.5656C55.3918 20.8906 55.7125 19.9063 55.7125 18.6125V18.0219L52.9637 18.4719C51.9009 18.6406 51.0946 18.9125 50.5448 19.2875C50.0134 19.6625 49.7477 20.1219 49.7477 20.6656C49.7477 21.2656 49.9951 21.7344 50.4898 22.0719C50.9846 22.4094 51.5802 22.5781 52.2765 22.5781Z" fill="white"/>
<path d="M63.5544 24.9688C63.3712 24.9688 63.2154 24.9031 63.0872 24.7719C62.9589 24.6406 62.8947 24.4812 62.8947 24.2937V11.0188C62.8947 10.8312 62.9589 10.6719 63.0872 10.5406C63.2154 10.4094 63.3712 10.3438 63.5544 10.3438H65.6985C65.8817 10.3438 66.0375 10.4094 66.1658 10.5406C66.294 10.6719 66.3582 10.8312 66.3582 11.0188V11.975C67.3111 10.7 68.6397 10.0625 70.3439 10.0625C72.378 10.0625 73.7982 10.8969 74.6045 12.5656C75.0443 11.8156 75.6673 11.2156 76.4737 10.7656C77.28 10.2969 78.1504 10.0625 79.085 10.0625C80.5876 10.0625 81.8154 10.5875 82.7683 11.6375C83.7212 12.6875 84.1977 14.2156 84.1977 16.2219V24.2937C84.1977 24.4812 84.1336 24.6406 84.0053 24.7719C83.8953 24.9031 83.7396 24.9688 83.538 24.9688H81.284C81.1007 24.9688 80.945 24.9031 80.8167 24.7719C80.6884 24.6406 80.6243 24.4812 80.6243 24.2937V16.4469C80.6243 15.2656 80.3769 14.4125 79.8821 13.8875C79.4057 13.3438 78.7643 13.0719 77.958 13.0719C77.2433 13.0719 76.6294 13.3438 76.1163 13.8875C75.6215 14.4313 75.3741 15.2844 75.3741 16.4469V24.2937C75.3741 24.4812 75.31 24.6406 75.1817 24.7719C75.0535 24.9031 74.8977 24.9688 74.7144 24.9688H72.4605C72.2772 24.9688 72.1214 24.9031 71.9932 24.7719C71.8649 24.6406 71.8007 24.4812 71.8007 24.2937V16.4469C71.8007 15.2656 71.5442 14.4125 71.0311 13.8875C70.5363 13.3438 69.9041 13.0719 69.1344 13.0719C68.4014 13.0719 67.7784 13.3438 67.2653 13.8875C66.7705 14.4313 66.5231 15.2844 66.5231 16.4469V24.2937C66.5231 24.4812 66.459 24.6406 66.3307 24.7719C66.2024 24.9031 66.0467 24.9688 65.8634 24.9688H63.5544Z" fill="white"/>
<path d="M94.0202 25.25C91.8762 25.25 90.2178 24.6875 89.045 23.5625C87.8722 22.4188 87.2399 20.8625 87.1483 18.8937L87.1208 17.6562L87.1483 16.4188C87.2399 14.4688 87.8813 12.9219 89.0725 11.7781C90.2636 10.6344 91.9129 10.0625 94.0202 10.0625C96.1276 10.0625 97.7769 10.6344 98.968 11.7781C100.159 12.9219 100.801 14.4688 100.892 16.4188C100.91 16.6438 100.92 17.0562 100.92 17.6562C100.92 18.2563 100.91 18.6687 100.892 18.8937C100.801 20.8625 100.168 22.4188 98.9955 23.5625C97.8227 24.6875 96.1643 25.25 94.0202 25.25ZM94.0202 22.4656C94.9915 22.4656 95.7428 22.1562 96.2742 21.5375C96.8057 20.9 97.0989 19.9719 97.1538 18.7531C97.1722 18.5656 97.1813 18.2 97.1813 17.6562C97.1813 17.1125 97.1722 16.7469 97.1538 16.5594C97.0989 15.3406 96.8057 14.4219 96.2742 13.8031C95.7428 13.1656 94.9915 12.8469 94.0202 12.8469C93.049 12.8469 92.2977 13.1656 91.7663 13.8031C91.2348 14.4219 90.9416 15.3406 90.8867 16.5594L90.8592 17.6562L90.8867 18.7531C90.9416 19.9719 91.2348 20.9 91.7663 21.5375C92.2977 22.1562 93.049 22.4656 94.0202 22.4656Z" fill="white"/>
<path d="M104.625 24.9688C104.442 24.9688 104.286 24.9031 104.158 24.7719C104.029 24.6406 103.965 24.4812 103.965 24.2937V11.0188C103.965 10.8312 104.029 10.6719 104.158 10.5406C104.286 10.4094 104.442 10.3438 104.625 10.3438H106.879C107.062 10.3438 107.218 10.4094 107.346 10.5406C107.474 10.6719 107.539 10.8312 107.539 11.0188V12.1719C108.62 10.7656 110.15 10.0625 112.129 10.0625C113.815 10.0625 115.153 10.6344 116.142 11.7781C117.132 12.9031 117.627 14.4406 117.627 16.3906V24.2937C117.627 24.4812 117.562 24.6406 117.434 24.7719C117.324 24.9031 117.168 24.9688 116.967 24.9688H114.548C114.365 24.9688 114.209 24.9031 114.081 24.7719C113.952 24.6406 113.888 24.4812 113.888 24.2937V16.5594C113.888 15.4531 113.623 14.6 113.091 14C112.578 13.3813 111.827 13.0719 110.837 13.0719C109.866 13.0719 109.096 13.3813 108.528 14C107.978 14.6188 107.704 15.4719 107.704 16.5594V24.2937C107.704 24.4812 107.639 24.6406 107.511 24.7719C107.401 24.9031 107.245 24.9688 107.044 24.9688H104.625Z" fill="white"/>
<path d="M6.1084 5.62619C6.1084 5.28036 6.38356 5 6.72299 5L11.4508 5C11.7103 5 11.8529 5.30744 11.6883 5.51178L6.65319 11.76C6.4701 11.9872 6.1084 11.8553 6.1084 11.5613L6.1084 5.62619Z" fill="#FAFAFC"/>
<path d="M9.92544 14.375C9.42088 14.375 9.13512 14.9685 9.44165 15.3797L16.4296 24.7547C16.5448 24.9093 16.7237 25 16.9134 25H22.6016C23.1073 25 23.3928 24.4041 23.0839 23.9932L16.036 14.6182C15.9207 14.4648 15.7426 14.375 15.5538 14.375L9.92544 14.375Z" fill="#376C66"/>
<path d="M9.34414 15.2932L12.7044 19.6875L17.6329 13.1673L23.083 6.00143C23.3939 5.59271 23.1067 5 22.5977 5L16.8678 5C16.6801 5 16.5028 5.08719 16.3866 5.23662L9.32863 14.3103C9.08451 14.6242 9.12644 15.0287 9.34414 15.2932Z" fill="#39D98A"/>
</svg>
