<?xml version="1.0" encoding="utf-8"?>
<!-- Generator: Adobe Illustrator 19.2.1, SVG Export Plug-In . SVG Version: 6.00 Build 0)  -->
<svg version="1.1" id="layer" xmlns="http://www.w3.org/2000/svg" xmlns:xlink="http://www.w3.org/1999/xlink" x="0px" y="0px"
	 viewBox="0 0 652 652" style="enable-background:new 0 0 652 652;" xml:space="preserve">
<style type="text/css">
	.st0{fill:#FAA429;}
	.st1{opacity:0.6;fill:#FAA429;enable-background:new    ;}
</style>
<g id="Page-1">
	<g id="Desktop-HD" transform="translate(-36.000000, -35.000000)">
		<g id="LI-Logo-Horiz-White" transform="translate(36.000000, 35.000000)">
			<g id="Group" transform="translate(35.000000, 4.000000)">
				<polygon id="Shape" class="st0" points="133.1,280.7 117.7,280.7 117.7,358 170.1,358 170.1,344.1 133.1,344.1 				"/>
				<rect id="Rectangle-path" x="179.1" y="280.3" class="st0" width="14.5" height="13.8"/>
				<rect id="Rectangle-path_1_" x="179.1" y="300.9" class="st0" width="14.5" height="57.1"/>
				<polygon id="Shape_1_" class="st0" points="227.4,343 216,300.9 199.9,300.9 219.5,358 234.6,358 254.4,300.9 239,300.9 				"/>
				<path id="Shape_2_" class="st0" d="M304.1,310.5c-2.5-3.8-5.6-6.7-9.5-8.5c-3.8-1.8-8.1-2.7-12.9-2.7c-8,0-14.6,2.6-19.6,7.9
					s-7.5,12.9-7.5,22.8c0,10.6,2.8,18.2,8.4,22.9c5.6,4.7,12,7,19.3,7c8.8,0,15.7-2.8,20.6-8.3c3.1-3.5,4.9-6.9,5.3-10.3h-14.6
					c-0.9,1.7-1.8,3-2.9,3.9c-2,1.7-4.7,2.6-7.9,2.6c-3.1,0-5.7-0.7-7.9-2.2c-3.6-2.3-5.5-6.3-5.7-12.1H309
					c0.1-4.9-0.1-8.7-0.5-11.3C307.8,317.8,306.4,313.9,304.1,310.5z M269.4,323.8c0.5-3.7,1.8-6.7,3.8-8.8c2-2.2,4.9-3.3,8.5-3.3
					c3.4,0,6.2,1,8.5,3.1c2.3,2.1,3.6,5.1,3.8,9H269.4z"/>
				<rect id="Rectangle-path_2_" x="317.6" y="280.7" class="st0" width="15.4" height="77.3"/>
				<path id="Shape_3_" class="st0" d="M387.8,304.1c-3.6-3.1-8.2-4.6-13.8-4.6c-4.5,0-8.2,1.2-11.2,3.5c-1.6,1.3-3.4,3.4-5.2,6.3
					V301h-13.9v57h14.3v-30.9c0-3.5,0.5-6.4,1.4-8.7c1.8-4.3,5.1-6.4,9.9-6.4c3.9,0,6.6,1.5,8,4.4c0.8,1.6,1.1,3.9,1.1,6.9V358h14.7
					v-38.5C393.2,312.4,391.4,307.2,387.8,304.1z"/>
				<path id="Shape_4_" class="st0" d="M421.2,285.5h-14.2v15.9h-7.6V312h7.6v35.2c0,3.6,0.8,6.2,2.4,7.9c2.5,2.7,7.1,3.9,13.9,3.7
					l6.8-0.3v-11.2c-0.5,0-0.9,0.1-1.4,0.1c-0.5,0-0.9,0-1.4,0c-2.9,0-4.7-0.3-5.2-0.9c-0.6-0.6-0.9-2-0.9-4.4V312h8.9v-10.6h-8.9
					V285.5L421.2,285.5z"/>
				<path id="Shape_5_" class="st0" d="M485.3,310.5c-2.5-3.8-5.6-6.7-9.5-8.5c-3.8-1.8-8.1-2.7-12.9-2.7c-8,0-14.6,2.6-19.6,7.9
					s-7.5,12.9-7.5,22.8c0,10.6,2.8,18.2,8.4,22.9c5.6,4.7,12,7,19.3,7c8.8,0,15.7-2.8,20.6-8.3c3.2-3.5,4.9-6.9,5.3-10.3h-14.6
					c-0.9,1.7-1.8,3-2.9,3.9c-2,1.7-4.7,2.6-7.9,2.6c-3.1,0-5.7-0.7-7.9-2.2c-3.6-2.3-5.5-6.3-5.7-12.1h39.9
					c0.1-4.9-0.1-8.7-0.5-11.3C489,317.8,487.6,313.9,485.3,310.5z M450.6,323.8c0.5-3.7,1.8-6.7,3.8-8.8c2-2.2,4.9-3.3,8.6-3.3
					c3.4,0,6.2,1,8.5,3.1c2.3,2.1,3.6,5.1,3.8,9H450.6z"/>
				<path id="Shape_6_" class="st0" d="M543,304.1c-3.6-3.1-8.2-4.6-13.8-4.6c-4.5,0-8.2,1.2-11.2,3.5c-1.6,1.3-3.4,3.4-5.2,6.3V301
					H499v57h14.3v-30.9c0-3.5,0.5-6.4,1.4-8.7c1.8-4.3,5.1-6.4,9.9-6.4c3.9,0,6.6,1.5,8,4.4c0.8,1.6,1.1,3.9,1.1,6.9V358h14.7v-38.5
					C548.4,312.4,546.6,307.2,543,304.1z"/>
				<path id="Shape_7_" class="st0" d="M585.3,312v-10.6h-8.9v-15.9h-14.2v15.9h-7.6V312h7.6v35.2c0,3.6,0.8,6.2,2.4,7.9
					c2.5,2.7,7.1,3.9,13.9,3.7l6.8-0.3v-11.2c-0.5,0-0.9,0.1-1.4,0.1c-0.5,0-0.9,0-1.4,0c-2.9,0-4.7-0.3-5.2-0.9
					c-0.6-0.6-0.9-2-0.9-4.4V312H585.3z"/>
			</g>
			<g id="Group_1_">
				<path id="Shape_8_" class="st0" d="M65.6,375h36.8c13.1,0,23.8-10.7,23.8-23.8v-10.3C103.9,340.8,75,357.7,65.6,375z"/>
				<path id="Shape_9_" class="st0" d="M102.3,269H91.6c-2.2,4.8-3.5,10.2-3.5,15.9c0,20.6,16.8,37.4,37.4,37.4c0.2,0,0.5,0,0.7,0
					v-29.6C126.1,279.7,115.5,269,102.3,269z"/>
				<path id="Shape_10_" class="st1" d="M72,285c0-5.5,0.8-10.9,2.5-15.9H44.1c-13.1,0-23.8,10.7-23.8,23.8v58.3
					c0,13.1,10.7,23.8,23.8,23.8h1.6c0.2-0.6,0.5-1.1,0.7-1.6c7.3-17.1,27.9-34.3,50.3-43.4C81.8,320.4,72,303.9,72,285z"/>
			</g>
		</g>
	</g>
</g>
</svg>
