<svg width="213" height="24" viewBox="0 0 213 24" fill="none" xmlns="http://www.w3.org/2000/svg">
<path d="M0 0H5.66761L14.0597 20.2914L22.392 0H28V24H24.2415V9.83526C24.2415 9.34513 24.2547 8.5337 24.2812 7.40095C24.3078 6.26821 24.321 5.05378 24.321 3.75766L15.9886 24H12.071L3.67898 3.75766V4.49285C3.67898 5.08101 3.69223 5.97958 3.71875 7.18856C3.75852 8.38666 3.77841 9.26889 3.77841 9.83526V24H0V0Z" fill="black"/>
<path d="M50.7948 14.1647L46.032 3.56161L40.9703 14.1647H50.7948ZM43.8108 0H48.6163L60 24H55.344L52.1617 16.8114H39.7529L36.357 24H32L43.8108 0Z" fill="black"/>
<path d="M87 0V3.71875H75.8571V24H72.1429V3.71875H61V0H87Z" fill="black"/>
<path d="M99 0H121V3.63636H99V0Z" fill="black"/>
<path d="M93 10.101H115V13.7374H93V10.101Z" fill="black"/>
<path d="M99 20.3636H121V24H99V20.3636Z" fill="black"/>
<path d="M140.668 0C144.38 0 147.26 0.760181 149.309 2.28054C151.357 3.80091 152.774 6.06593 153 8H149.309C148.87 6.53135 147.533 4.82999 146.216 3.97156C144.912 3.11312 143.076 2.6839 140.708 2.6839C137.822 2.6839 135.487 3.47511 133.705 5.05753C131.935 6.62961 131.051 9.0446 131.051 12.3025C131.051 14.9709 131.849 17.1377 133.445 18.8028C135.055 20.4577 137.449 21.2851 140.629 21.2851C143.555 21.2851 146.363 20.2479 147.893 18.5C148.721 17.5541 148.821 17.5 149.309 16H153C152.654 18.3995 151.51 19.4441 149.568 21.0679C147.24 23.0226 144.101 24 140.15 24C136.744 24 133.884 23.1985 131.569 21.5953C128.523 19.4751 127 16.2017 127 11.7751C127 8.41371 128.144 5.6574 130.432 3.50614C132.906 1.16871 136.319 0 140.668 0Z" fill="black"/>
<path d="M159 0H162.556L162.5 10.5H179.5L179.444 0H183V24H179.444V13.5H162.556V24H159V0Z" fill="black"/>
<path d="M192.834 15.9897C192.929 17.2808 193.332 18.3292 194.043 19.1349C195.395 20.643 197.78 21.397 201.195 21.397C202.726 21.397 204.119 21.2318 205.376 20.9012C207.808 20.2608 209.024 19.1143 209.024 17.4616C209.024 16.2221 208.512 15.3389 207.487 14.8121C206.449 14.2957 204.823 13.8464 202.609 13.4642L198.531 12.7669C195.867 12.3125 193.981 11.8115 192.875 11.264C190.962 10.3138 190.005 8.89348 190.005 7.00323C190.005 4.95804 190.941 3.27954 192.813 1.96772C194.685 0.655907 197.336 0 200.765 0C203.921 0 206.599 0.578438 208.799 1.73531C211.012 2.88186 212.119 4.72047 212.119 7.25113H208.286C208.081 6.03228 207.644 5.09748 206.975 4.44674C205.731 3.25888 203.62 2.66495 200.642 2.66495C198.237 2.66495 196.509 3.04713 195.457 3.81149C194.405 4.57586 193.879 5.46417 193.879 6.47644C193.879 7.592 194.494 8.40801 195.723 8.92447C196.529 9.255 198.353 9.66817 201.195 10.164L205.417 10.8922C207.453 11.2434 209.024 11.7237 210.131 12.3331C212.044 13.397 213 14.9413 213 16.9658C213 19.4861 211.784 21.2886 209.352 22.3731C206.934 23.4577 204.119 24 200.908 24C197.165 24 194.234 23.277 192.116 21.8309C189.999 20.3951 188.96 18.448 189.001 15.9897H192.834Z" fill="black"/>
</svg>
