<svg xmlns="http://www.w3.org/2000/svg" xmlns:xlink="http://www.w3.org/1999/xlink" viewBox="0 0 2158.23 396.12" xmlns:v="https://vecta.io/nano"><path d="M580.26 58.02c-16.82 0-35 6.17-47.35 21.26h-.7V62.14h-41.85V235.7h41.85v-91.6c0-31.88 16.82-45.6 37.07-45.6 21.62 0 28.8 15.42 28.8 31.2v106h41.86V117.03c0-38.1-18.5-59-59.68-59zm169.8 181.82c47.33 0 72.4-22.64 85.43-42.56l-35.34-20.55c-4.1 5.8-17.18 24.68-50.1 24.68-22.64 0-44.23-16.8-44.93-42.54h128.3c0-62.08-25.38-100.85-83.36-100.85-56.25 0-88.84 39.1-88.84 90.9s32.6 90.9 88.84 90.9zm0-147.52c28.14 0 39.45 25 39.45 34.33h-84.38c4.44-18.56 20.58-34.33 44.93-34.33zm334.48-30.18h-43.2l-29.16 118h-.7l-32.56-118H941.2l-32.6 118h-.67l-29.16-118H835.5l50.1 173.57h41.16l32.9-116.27h.68L993.3 235.7h41.16l50.06-173.57zm214.5-4.12c-23.32 0-40.8 9.27-53.5 26.1-8.6-19.22-30.54-26.1-51.13-26.1-22.3 0-37.4 8.23-50.08 21.28V62.14h-41.85v173.6h41.85v-91.6c0-24.68 14.07-47.68 36.7-47.68 20.26 0 29.16 14.07 29.16 34v105.3h41.85v-91.62c0-24.68 14.07-47.68 37.4-47.68 19.55 0 28.47 14.07 28.47 34v105.3h41.87V113.6c0-37.4-23-55.58-60.73-55.58zM1631.32.7h-41.88v61.43h-25.38V92.3h25.38v103.6c0 26.4 11.68 41.87 46 41.87 13.06 0 23.33-2.08 33.28-4.13v-34.3c-6.2.7-12.7 2.06-18.53 2.06-16.1 0-18.86-7.55-18.86-21.28v-87.8h37.4V62.14h-37.4zm68.33 0h41.84v42.54h-41.84zm0 61.44h41.84V235.7h-41.84zm355.03-4.12c-16.8 0-35 6.17-47.32 21.28h-.7V62.14h-41.84v173.6h41.84v-91.6c0-31.88 16.8-45.6 37.07-45.6 21.6 0 28.8 15.42 28.8 31.2v106h41.88v-118.7c0-38.1-18.57-59-59.73-59zm-582.18 0c-36.77-.004-69.924 22.144-83.998 56.116s-6.296 73.076 19.705 99.077a90.91 90.91 0 0 0 99.077 19.705c33.97-14.075 56.12-47.226 56.116-83.998-.01-50.198-40.702-90.9-90.9-90.9zm53.1 98.54l-41.45 41.48a30.31 30.31 0 0 1-21.44 8.88h0c-16.753-.01-30.337-13.577-30.37-30.33v-.07a30.19 30.19 0 0 1 8.92-21.41l6.15-6.2-6.15-6.13a30.35 30.35 0 0 1-8.92-21.45v-.08c.06-16.68 13.54-30.2 30.22-30.3h.2a30.33 30.33 0 0 1 21.41 8.9l13.75 13.8 27.66 27.64c.08.08.13.2.24.22a11 11 0 0 1 2.94 7.42 11.12 11.12 0 0 1-3.17 7.63zm328.05-98.54a90.91 90.91 0 0 0-83.99 56.123c-14.07 33.973-6.3 73.075 19.7 99.074s65.106 33.775 99.076 19.7 56.117-47.226 56.113-83.997c-.006-50.204-40.706-90.9-90.9-90.9zm53.1 98.54l-41.45 41.48a30.33 30.33 0 0 1-21.44 8.88h0c-16.757-.005-30.347-13.573-30.38-30.33v-.07a30.19 30.19 0 0 1 8.92-21.41l6.16-6.2-6.16-6.13a30.35 30.35 0 0 1-8.92-21.45v-.08c.06-16.68 13.54-30.2 30.22-30.3h.2a30.37 30.37 0 0 1 21.42 8.9l13.78 13.82 27.67 27.64c.08.08.13.2.24.22a11 11 0 0 1 2.94 7.42 11.12 11.12 0 0 1-3.21 7.62zm236.72-94.42c-8.152 0-14.76 6.608-14.76 14.76s6.608 14.76 14.76 14.76 14.76-6.608 14.76-14.76a14.75 14.75 0 0 0-14.76-14.76zm0 26.75c-6.627 0-12-5.373-12-12s5.373-12 12-12 12 5.373 12 12-5.373 12-12 12zm6-14.96a4.76 4.76 0 0 0-1.74-3.86c-1.37-1.1-2.77-1.1-4.86-1.13h-5V84.6h2.9v-5.8h2.62l3.1 5.8h3.34l-3.48-6.36a4.3 4.3 0 0 0 3.11-4.31zm-5.73 2.4l-1.92.05h-1v-4.9h1.36a7.22 7.22 0 0 1 3.1.33 2.22 2.22 0 0 1 1.24 2.11c-.03 2.28-2.13 2.4-2.78 2.4zM501.6 358.92l-7.1 16.66h-7.16l27.1-61.5 26.4 61.5h-7.24l-6.93-16.66zm12.68-29.58l-10 23.5h19.85zm64.18-15.8l21.33 49.27 21.4-49.27 11.9 62h-6.7l-7.55-39.7h-.16l-18.9 42.1-18.85-42.07h-.15l-7.55 39.7h-6.7zm65.64 45.06c.07 6.77 4.9 12.22 12 12.22 5.3 0 8.72-3.2 11.13-7.55l5.3 3c-3.5 6.54-9.42 10.28-16.9 10.28-10.9 0-17.9-8.33-17.9-18.84 0-10.82 6.3-19.77 17.75-19.77 11.75 0 18 9.73 17.36 20.63zm22.18-5.3a11.16 11.16 0 0 0-10.74-9.58 11.56 11.56 0 0 0-11.13 9.58zm20.52-10.34h.15a10.35 10.35 0 0 1 8.8-5 11.23 11.23 0 0 1 10.12 6.07 12.2 12.2 0 0 1 11-6.07c9.34 0 11.68 7.63 11.68 15.34v22.26h-6.23v-21.23c0-4.75-.3-10.6-6.7-10.6-7.16 0-7.94 6.93-7.94 12.46v19.38h-6.23V354.8c0-4.52-.54-11.06-6.54-11.06-7.32 0-8.1 7.4-8.1 12.92v18.92h-6.23V339h6.23zm52.04-31.6h6.23v32.85h.16a15.7 15.7 0 0 1 12.53-6.23c10.9 0 17.6 9 17.6 19.3 0 10.2-6.77 19.3-17.5 19.3a15.37 15.37 0 0 1-12.61-6.07h-.16v5.06h-6.23zm5.92 45.54c0 7.16 4.2 13.93 12 13.93 8 0 12.22-6.46 12.22-13.86s-4.6-13.23-12.3-13.23c-7.25 0-11.92 6.3-11.92 13.16zm42.4 1.7c.08 6.77 4.9 12.22 12 12.22 5.3 0 8.72-3.2 11.13-7.55l5.3 3c-3.5 6.54-9.42 10.28-16.9 10.28-10.9 0-17.9-8.33-17.9-18.84 0-10.82 6.3-19.77 17.74-19.77 11.75 0 18 9.73 17.36 20.63zm22.18-5.3a11.15 11.15 0 0 0-10.74-9.58 11.57 11.57 0 0 0-11.13 9.58zm20.4-10.34h.15c2.18-2.88 4-5 8.1-5a11 11 0 0 1 5.6 1.71l-3 5.7c-1.25-.86-2.1-1.64-3.74-1.64-6.85 0-7.16 8.8-7.16 13.55v18.3h-6.23V339h6.23z"/><use xlink:href="#B"/><path d="M922.94 375.58h-6.23v-30.82h-3.42V339h3.42v-14.58c0-3 0-6.85 1.64-9.5 2-3.27 5.68-4.6 9.42-4.6a14.77 14.77 0 0 1 4.44.78v6.3a12.88 12.88 0 0 0-4.21-.85c-5.06 0-5.06 3.58-5.06 10v12.38h9.27v5.76h-9.27zm44.76 0h-6.23v-30.82h-3.8V339h3.8v-13.16h6.23V339h6.53v5.76h-6.53zm18.04-64.22v31.9l.15.16a12.29 12.29 0 0 1 10.44-5.45c10.1 0 12.45 7.32 12.45 15.88v21.72h-6.23v-20.63c0-5.92-.47-11.2-7.7-11.2-8.56 0-9.1 7.94-9.1 14.48v17.36h-6.23v-64.22zm37.2 47.24c.08 6.77 4.9 12.22 12 12.22 5.3 0 8.72-3.2 11.13-7.55l5.3 3a18.47 18.47 0 0 1-16.89 10.28c-10.9 0-17.9-8.33-17.9-18.84 0-10.82 6.3-19.77 17.74-19.77 11.75 0 18 9.73 17.36 20.63zm22.18-5.3a11.16 11.16 0 0 0-10.74-9.58 11.57 11.57 0 0 0-11.13 9.58zm65.33-24.97c-2.34-4-5.14-6.38-10.12-6.38-5.22 0-9.73 3.74-9.73 9.1 0 5.06 5.2 7.4 9.18 9.18l3.9 1.7c7.63 3.35 14.1 7.16 14.1 16.5a18.12 18.12 0 0 1-18.44 18.13c-9.42 0-16.43-6.07-18.3-15.18l6.38-1.8c.85 6 5.45 10.9 11.75 10.9s12.06-4.83 12.06-11.45c0-6.84-5.36-9.18-10.82-11.67l-3.57-1.55c-6.85-3.12-12.77-6.62-12.77-15 0-9.1 7.7-14.94 16.43-14.94a16.83 16.83 0 0 1 15.17 9.1zm22.3-16.97v31.9l.16.16a12.28 12.28 0 0 1 10.43-5.45c10.1 0 12.45 7.32 12.45 15.88v21.72h-6.23v-20.63c0-5.92-.46-11.2-7.7-11.2-8.56 0-9.1 7.94-9.1 14.48v17.36h-6.22v-64.22zm37.2 47.24c.07 6.77 4.9 12.22 12 12.22 5.3 0 8.72-3.2 11.13-7.55l5.3 3a18.44 18.44 0 0 1-16.88 10.28c-10.9 0-17.9-8.33-17.9-18.84 0-10.82 6.3-19.77 17.75-19.77 11.75 0 18 9.73 17.36 20.63zm22.18-5.3a11.16 11.16 0 0 0-10.74-9.58 11.57 11.57 0 0 0-11.13 9.58zm20.55 22.28h-6.23v-64.22h6.23zm16.43 0h-6.17v-64.22h6.22zm89.84-29.5c.16 7.94-.7 14.48-6.07 20.7a29 29 0 0 1-21.71 9.81 30.36 30.36 0 1 1 .39-60.71c10.27 0 18.6 4.6 24.83 12.7l-4.75 4.43c-4.9-6.92-11.52-11.05-20.16-11.05-13.4 0-24 11.28-24 24.52a23.7 23.7 0 0 0 6.84 16.58c4.3 4.28 10.5 7.47 16.66 7.47 10.2 0 20.94-7.47 20.94-18.37h-17.43v-6.07zm14.64-3.12h.16c2.17-2.88 4-5 8.1-5a11.08 11.08 0 0 1 5.61 1.71l-3 5.7c-1.25-.86-2.1-1.64-3.74-1.64-6.85 0-7.16 8.8-7.16 13.55v18.3h-6.23V339h6.23z"/><use xlink:href="#B" x="477.96"/><path d="M1400.28 359.42c0 6.15.7 11.44 8.25 11.44s8.25-5.3 8.25-11.44V339h6.23v21.1c0 9.73-3.66 16.5-14.48 16.5s-14.48-6.77-14.48-16.5V339h6.23zm38.98-15.22h.15a15.42 15.42 0 0 1 12.62-6.23c10.73 0 17.5 9.27 17.5 19.38 0 10.43-6.62 19.23-17.6 19.23a15.42 15.42 0 0 1-12.53-6.15h-.15v25.7h-6.23V339h6.23zm-.32 12.7c0 7.16 4.2 13.93 12 13.93 8 0 12.22-6.46 12.22-13.86s-4.6-13.23-12.3-13.23c-7.25 0-11.93 6.3-11.93 13.16z"/><use xlink:href="#C" fill="none" stroke="#fff" stroke-miterlimit="40" stroke-width="11.31"/><use xlink:href="#C" fill="#fbce07"/><path d="M148.23 296.48h-82l-7.6-60.77-49.7-36.17a162.31 162.31 0 0 1-3.26-32.31c0-89.2 72.4-161.57 161.57-161.57s161.57 72.38 161.57 161.57a161.57 161.57 0 0 1-3.26 32.31l-49.73 36.17-7.6 60.77h-82l-4.73 3.44a24.23 24.23 0 0 1-28.52 0zm2.57-28.27H91.2l-6-48.16-49.1-35.7a68.82 68.82 0 0 1 3.8-45.12l86.9 87.88-84.5-104.3a68.65 68.65 0 0 1 21.1-35l75.74 130.73L72.04 75.42a68.67 68.67 0 0 1 34.59-24.34l46.3 162.28L119.1 44.42a68.6 68.6 0 0 1 41.21-8.45l6.9 175.7 6.9-175.7a68.6 68.6 0 0 1 41.21 8.45l-33.83 169 46.3-162.26a68.67 68.67 0 0 1 34.59 24.26l-67.1 143.14 75.74-130.73a68.65 68.65 0 0 1 21.1 35l-84.5 104.28 86.9-87.88a68.7 68.7 0 0 1 3.79 45.12l-49.08 35.7-6 48.16h-59.62l-8.8 6.4a12.94 12.94 0 0 1-15.21 0z" fill="#dd1d21" fill-rule="evenodd"/><defs ><path id="B" d="M870.27 357.36a19.23 19.23 0 0 1 32.831-13.594 19.23 19.23 0 0 1-13.611 32.824 19.2 19.2 0 0 1-19.22-19.23zm6.23-.07c0 7.47 5.3 13.54 13 13.54s13-6.07 13-13.54-5.3-13.55-13-13.55-13 6.15-13 13.55z"/><path id="C" d="M148.23 296.48h-82l-7.6-60.77-49.7-36.17a162.31 162.31 0 0 1-3.26-32.31c0-89.2 72.4-161.57 161.57-161.57s161.57 72.38 161.57 161.57a161.57 161.57 0 0 1-3.26 32.31l-49.73 36.17-7.6 60.77h-82l-4.73 3.44a24.23 24.23 0 0 1-28.52 0z"/></defs></svg>