<svg width="391" height="226" viewBox="0 0 391 226" version="1.1" xmlns="http://www.w3.org/2000/svg" xmlns:xlink="http://www.w3.org/1999/xlink" xmlns:figma="http://www.figma.com/figma/ns">
<title>logo</title>
<desc>Created using Figma</desc>
<g id="Canvas" transform="translate(-757 181)" figma:type="canvas">
<g id="logo" figma:type="frame">
<g id="Ellipse" figma:type="ellipse">
<use xlink:href="#path0_fill" transform="translate(838 -181)" fill="#3B5772"/>
</g>
<g id="OLYRO" figma:type="text">
<use xlink:href="#path1_fill" transform="translate(753 -126)" fill="#FFFFFF"/>
<use xlink:href="#path2_fill" transform="translate(753 -126)" fill="#111111"/>
</g>
</g>
</g>
<defs>
<path id="path0_fill" d="M 226 113C 226 175.408 175.408 226 113 226C 50.5918 226 0 175.408 0 113C 0 50.5918 50.5918 0 113 0C 175.408 0 226 50.5918 226 113Z"/>
<path id="path1_fill" d="M 113.67 84.28L 113.67 25.72L 106.95 25.72L 106.95 91L 110.31 91L 113.67 91L 136.998 91L 136.998 84.28L 113.67 84.28ZM 196.826 60.28L 221.498 25.72L 212.954 25.72L 193.466 53.656L 173.978 25.72L 165.338 25.72L 190.106 60.376L 190.106 91L 196.826 91L 196.826 60.28ZM 260.423 58.744L 260.423 32.152L 275.591 32.152C 279.527 32.152 282.695 33.4 285.095 35.896C 287.399 38.392 288.647 41.464 288.647 45.304C 288.647 49.144 287.399 52.312 284.903 54.904C 282.407 57.496 279.335 58.744 275.591 58.744L 260.423 58.744ZM 295.367 45.4C 295.367 39.832 293.255 35.032 289.223 31.288C 285.287 27.64 280.391 25.72 274.631 25.72L 253.703 25.72L 253.703 91L 260.423 91L 260.423 65.176L 268.199 65.176L 287.399 91L 296.423 91L 276.263 65.176C 281.351 64.888 285.671 63.064 289.223 59.704C 293.255 55.96 295.367 51.16 295.367 45.4Z"/>
<path id="path2_fill" d="M 64.704 58.168C 64.704 65.656 62.016 71.992 56.832 77.176C 51.552 82.456 45.216 85.048 37.824 85.048C 30.432 85.048 24.096 82.456 18.912 77.176C 13.632 71.992 11.04 65.656 11.04 58.168C 11.04 50.872 13.632 44.536 18.912 39.256C 24.096 34.072 30.432 31.384 37.824 31.384C 45.216 31.384 51.552 34.072 56.832 39.256C 62.016 44.536 64.704 50.872 64.704 58.168ZM 71.424 58.168C 71.424 53.56 70.464 49.24 68.736 45.112C 67.008 41.08 64.608 37.528 61.536 34.456C 58.464 31.48 54.912 29.08 50.88 27.352C 46.752 25.624 42.432 24.664 37.824 24.664C 33.216 24.664 28.8 25.624 24.768 27.352C 20.736 29.08 17.184 31.48 14.112 34.456C 11.04 37.528 8.64 41.08 6.912 45.112C 5.184 49.24 4.32 53.56 4.32 58.168C 4.32 62.776 5.184 67.192 6.912 71.224C 8.64 75.352 11.04 78.904 14.112 81.976C 17.184 85.048 20.736 87.448 24.768 89.176C 28.8 90.904 33.216 91.768 37.824 91.768C 42.432 91.768 46.752 90.904 50.88 89.176C 54.912 87.448 58.464 85.048 61.536 81.976C 64.608 78.904 67.008 75.352 68.736 71.224C 70.464 67.192 71.424 62.776 71.424 58.168ZM 387.425 58.168C 387.425 65.656 384.737 71.992 379.553 77.176C 374.273 82.456 367.937 85.048 360.545 85.048C 353.153 85.048 346.817 82.456 341.633 77.176C 336.353 71.992 333.761 65.656 333.761 58.168C 333.761 50.872 336.353 44.536 341.633 39.256C 346.817 34.072 353.153 31.384 360.545 31.384C 367.937 31.384 374.273 34.072 379.553 39.256C 384.737 44.536 387.425 50.872 387.425 58.168ZM 394.145 58.168C 394.145 53.56 393.185 49.24 391.457 45.112C 389.729 41.08 387.329 37.528 384.257 34.456C 381.185 31.48 377.633 29.08 373.601 27.352C 369.473 25.624 365.153 24.664 360.545 24.664C 355.937 24.664 351.521 25.624 347.489 27.352C 343.457 29.08 339.905 31.48 336.833 34.456C 333.761 37.528 331.361 41.08 329.633 45.112C 327.905 49.24 327.041 53.56 327.041 58.168C 327.041 62.776 327.905 67.192 329.633 71.224C 331.361 75.352 333.761 78.904 336.833 81.976C 339.905 85.048 343.457 87.448 347.489 89.176C 351.521 90.904 355.937 91.768 360.545 91.768C 365.153 91.768 369.473 90.904 373.601 89.176C 377.633 87.448 381.185 85.048 384.257 81.976C 387.329 78.904 389.729 75.352 391.457 71.224C 393.185 67.192 394.145 62.776 394.145 58.168Z"/>
</defs>
</svg>
