<svg xmlns="http://www.w3.org/2000/svg" width="218" height="39.057" viewBox="0 0 218 39.057">
    <g id="Gruppe_337" data-name="Gruppe 337" transform="translate(-38.072 -24.509)">
        <path id="Pfad_2515" data-name="Pfad 2515" d="M45.834,31.211v6.162h2.215c2.62,0,3.545-1.284,3.545-3.286,0-2.159-1.183-2.877-3.6-2.877Zm6.735,23.846-3.185-8.429c-1.184-3.136-1.851-3.551-3.551-3.551v11.98H38.072V24.834H48.458c8.9,0,11.773,3.6,11.773,8.637,0,5.186-2.727,7.862-6.27,8.429,1.027.308,2.26,1.693,3.035,3.286.975,2,3.543,7.605,4.519,9.871Z" transform="translate(0 -0.124)" fill="#fff"/>
        <path id="Pfad_2516" data-name="Pfad 2516" d="M81.143,55.058V24.834H98.109v6.377h-9.2V36.3h7.51v6.163h-7.51v6.118H99.242v6.478Z" transform="translate(-16.385 -0.124)" fill="#fff"/>
        <path id="Pfad_2517" data-name="Pfad 2517" d="M142.329,55.074h-8.3l-1.554-8.764c-.669-3.662-1.339-7.627-1.49-9.533h-.051c-.058,1.489-.726,5.563-1.445,9.533l-1.6,8.764h-8.51L112,24.763h8.251l1.7,8.2a72.211,72.211,0,0,1,1.755,10.878c.208-2.424.72-6.188,1.546-10.67l1.548-8.4h8.663l1.963,10.159a59.273,59.273,0,0,1,1.239,8.914h.049c.152-2.734,1.081-8.605,1.649-11.548l1.546-7.525h8.3Z" transform="translate(-28.125 -0.097)" fill="#fff"/>
        <path id="Pfad_2518" data-name="Pfad 2518" d="M142.329,55.074h-8.3l-1.554-8.764c-.669-3.662-1.339-7.627-1.49-9.533h-.051c-.058,1.489-.726,5.563-1.445,9.533l-1.6,8.764h-8.51L112,24.763h8.251l1.7,8.2a72.211,72.211,0,0,1,1.755,10.878c.208-2.424.72-6.188,1.546-10.67l1.548-8.4h8.663l1.963,10.159a59.273,59.273,0,0,1,1.239,8.914h.049c.152-2.734,1.081-8.605,1.649-11.548l1.546-7.525h8.3Z" transform="translate(-28.125 -0.097)" fill="#fff"/>
        <path id="Pfad_2519" data-name="Pfad 2519" d="M177.071,55.058V24.834h17.015v6.377h-9.254V36.3h7.561v6.163h-7.561v6.118H195.22v6.478Z" transform="translate(-52.879 -0.124)" fill="#fff"/>
        <rect id="Rechteck_333" data-name="Rechteck 333" width="2.876" height="30.223" transform="translate(253.196 24.71)" fill="#fff"/>
        <path id="Pfad_2520" data-name="Pfad 2520" d="M354.034,35.717a11.967,11.967,0,1,0,9.08,19.758V59.24H366V47.683a11.974,11.974,0,0,0-11.966-11.966m0,21.046a9.08,9.08,0,1,1,9.08-9.08,9.094,9.094,0,0,1-9.08,9.08" transform="translate(-115.645 -4.264)" fill="#fff"/>
        <path id="Pfad_2521" data-name="Pfad 2521" d="M354.034,35.717a11.967,11.967,0,1,0,9.08,19.758V59.24H366V47.683A11.974,11.974,0,0,0,354.034,35.717Zm0,21.046a9.08,9.08,0,1,1,9.08-9.08A9.094,9.094,0,0,1,354.034,56.763Z" transform="translate(-115.645 -4.264)" fill="#fff"/>
        <path id="Pfad_2522" data-name="Pfad 2522" d="M316.161,31.98V55.074h2.9V34.864h6.2v20.21h2.891V34.864H334.1V31.98h-5.947V24.763h-2.891V31.98Z" transform="translate(-105.792 -0.097)" fill="#fff"/>
        <path id="Pfad_2523" data-name="Pfad 2523" d="M316.161,31.98V55.074h2.9V34.864h6.2v20.21h2.891V34.864H334.1V31.98h-5.947V24.763h-2.891V31.98Z" transform="translate(-105.792 -0.097)" fill="#fff"/>
        <path id="Pfad_2524" data-name="Pfad 2524" d="M296.942,55.932h0a11.935,11.935,0,0,1-23.652,2.261h2.985a9.037,9.037,0,0,0,17.79-2.261v-.46a11.919,11.919,0,1,1,2.877-7.762ZM285.013,38.664a9.046,9.046,0,1,0,9.052,9.046,9.06,9.06,0,0,0-9.052-9.046" transform="translate(-89.407 -4.291)" fill="#fff"/>
        <rect id="Rechteck_334" data-name="Rechteck 334" width="2.877" height="23.028" transform="translate(178.231 31.906)" fill="#fff"/>
        <path id="Pfad_2525" data-name="Pfad 2525" d="M244.661,43.543a11.94,11.94,0,1,1-2.882-7.761V24.834h2.882ZM232.733,34.5a9.046,9.046,0,1,0,9.046,9.046,9.059,9.059,0,0,0-9.046-9.046" transform="translate(-69.515 -0.124)" fill="#fff"/>
        <path id="Pfad_2526" data-name="Pfad 2526" d="M265.6,24.509a1.643,1.643,0,1,1-1.65,1.643,1.624,1.624,0,0,1,1.65-1.643" transform="translate(-85.931 0)" fill="#fff"/>
        <path id="Pfad_2527" data-name="Pfad 2527" d="M317.55,24.509a1.643,1.643,0,1,1-1.642,1.643,1.625,1.625,0,0,1,1.642-1.643" transform="translate(-105.696 0)" fill="#fff"/>
    </g>
</svg>
