<?xml version="1.0" encoding="utf-8"?>
<!-- Generator: Adobe Illustrator 17.1.0, SVG Export Plug-In . SVG Version: 6.00 Build 0)  -->
<!DOCTYPE svg PUBLIC "-//W3C//DTD SVG 1.1//EN" "http://www.w3.org/Graphics/SVG/1.1/DTD/svg11.dtd">
<svg version="1.1" id="Layer_1" xmlns="http://www.w3.org/2000/svg" xmlns:xlink="http://www.w3.org/1999/xlink" x="0px" y="0px"
	 viewBox="0 0 239 26" enable-background="new 0 0 239 26" xml:space="preserve">
<g>
	<rect x="9.7" y="-0.1" fill="#3966AA" width="6.9" height="22"/>
	<rect x="57.8" y="-0.1" fill="#54AF25" width="6.9" height="22"/>
	<rect x="28.9" y="-0.1" fill="#8D3798" width="6.9" height="22"/>
	<rect x="38.6" y="4.1" fill="#F448A2" width="6.9" height="22"/>
	<rect x="48.2" y="-0.1" fill="#B04FA4" width="6.9" height="22"/>
	<circle fill="#74C1C9" cx="22.7" cy="3.4" r="3.4"/>
	<circle fill="#252884" cx="3.5" cy="18.5" r="3.4"/>
	<circle fill="#A6D514" cx="70.9" cy="18.5" r="3.4"/>
	<g>
		<path d="M82.1,15.1l0.8-1c1.2,1.1,2.4,1.7,4.1,1.7c1.6,0,2.6-0.8,2.6-2v0c0-1.1-0.6-1.7-3.1-2.3c-2.7-0.6-4-1.5-4-3.4v0
			c0-1.9,1.6-3.2,3.9-3.2c1.7,0,3,0.5,4.2,1.5l-0.8,1C88.8,6.4,87.7,6,86.5,6c-1.5,0-2.5,0.8-2.5,1.9v0c0,1.1,0.6,1.7,3.2,2.3
			c2.6,0.6,3.9,1.5,3.9,3.4v0c0,2-1.7,3.4-4,3.4C85.1,17,83.6,16.4,82.1,15.1z"/>
		<path d="M94.6,11L94.6,11c0-3.3,2.5-6.2,6.1-6.2c3.6,0,6,2.8,6,6.1v0c0,3.3-2.5,6.1-6.1,6.1C97,17.1,94.6,14.2,94.6,11z M105.3,11
			L105.3,11c0-2.7-2-4.9-4.7-4.9C97.9,6,96,8.2,96,10.9v0c0,2.7,2,4.9,4.7,4.9C103.4,15.8,105.3,13.7,105.3,11z"/>
		<path d="M110.9,5h8.5v1.2h-7.2v4.2h6.4v1.2h-6.4v5.2h-1.3V5z"/>
		<path d="M127.1,6.2h-4V5h9.3v1.2h-4v10.6h-1.4V6.2z"/>
		<path d="M135.4,5h1.5l3.4,9.9l3.3-9.9h1.1l3.3,9.9l3.4-9.9h1.4l-4.2,11.9h-1.1L144,7.3l-3.3,9.6h-1.1L135.4,5z"/>
		<path d="M159.3,4.9h1.3l5.4,11.9h-1.4l-1.4-3.1h-6.5l-1.4,3.1h-1.4L159.3,4.9z M162.6,12.5l-2.7-6l-2.7,6H162.6z"/>
		<path d="M169.2,5h5.1c1.5,0,2.6,0.4,3.4,1.2c0.6,0.6,0.9,1.4,0.9,2.3v0c0,2-1.4,3.1-3.2,3.5l3.6,4.8h-1.6l-3.4-4.6h-3.4v4.6h-1.3
			V5z M174.2,11.1c1.8,0,3-0.9,3-2.4v0c0-1.5-1.1-2.3-3-2.3h-3.7v4.8H174.2z"/>
		<path d="M183.9,5h8.6v1.2h-7.2v4h6.5v1.2h-6.5v4.1h7.3v1.2h-8.7V5z"/>
		<path d="M197.5,5h2.8l3.1,5l3.1-5h2.8v11.9h-2.6V9.1l-3.3,5.1h-0.1l-3.3-5v7.7h-2.6V5z"/>
		<path d="M213.8,5h2.6v11.9h-2.6V5z"/>
		<path d="M232.1,5h2.6v9.5h4.3v2.4h-6.9V5z"/>
		<path d="M221.2,5h2.6v9.5h4.3v2.4h-6.9V5z"/>
	</g>
</g>
</svg>
