<svg width="372" height="51" viewBox="0 0 372 51" fill="none" xmlns="http://www.w3.org/2000/svg">
<path d="M99 18.75C99 14.5728 97.3406 10.5668 94.3869 7.61307C91.4332 4.65937 87.4271 3 83.25 3H60V27.78C58.8556 28.6243 57.8444 29.6356 57 30.78V3H54V48H63V39C63 37.8065 63.4741 36.6619 64.318 35.818C65.1619 34.9741 66.3065 34.5 67.5 34.5H82.5L88.29 46.32C88.5351 46.8203 88.9148 47.2425 89.3863 47.5392C89.8579 47.836 90.4028 47.9955 90.96 48H99L91.29 32.22C93.6308 30.8338 95.5718 28.8639 96.9233 26.5028C98.2747 24.1418 98.9902 21.4704 99 18.75ZM63 12H83.25C85.0402 12 86.7571 12.7112 88.023 13.977C89.2888 15.2429 90 16.9598 90 18.75C90 20.5402 89.2888 22.2571 88.023 23.523C86.7571 24.7888 85.0402 25.5 83.25 25.5H67.5C65.9625 25.5152 64.4395 25.7994 63 26.34V12ZM94.2 45H90.84L85.62 34.26C86.6412 34.1041 87.6456 33.853 88.62 33.51L94.2 45ZM83.25 31.5H67.5C65.5109 31.5 63.6032 32.2902 62.1967 33.6967C60.7902 35.1032 60 37.0109 60 39V45H57V39C57 36.2152 58.1062 33.5445 60.0754 31.5754C62.0445 29.6062 64.7152 28.5 67.5 28.5H83.25C85.8358 28.5 88.3158 27.4728 90.1443 25.6443C91.9728 23.8158 93 21.3358 93 18.75C93 16.1641 91.9728 13.6842 90.1443 11.8557C88.3158 10.0272 85.8358 9 83.25 9H63V6H83.25C86.6315 6 89.8745 7.3433 92.2656 9.73439C94.6567 12.1255 96 15.3685 96 18.75C96 22.1315 94.6567 25.3745 92.2656 27.7656C89.8745 30.1567 86.6315 31.5 83.25 31.5Z" fill="#0000DC"/>
<path d="M0 6H23.13C21.9784 6.83601 20.966 7.84846 20.13 9H0V12H18.84C18.2994 13.4395 18.0152 14.9625 18 16.5V48H27V16.5C27 15.3065 27.4741 14.1619 28.318 13.318C29.1619 12.4741 30.3065 12 31.5 12H42C42.7956 12 43.5587 11.6839 44.1213 11.1213C44.6839 10.5587 45 9.79565 45 9V3H0V6ZM31.5 6H42V9H31.5C29.5109 9 27.6032 9.79017 26.1967 11.1967C24.7902 12.6032 24 14.5109 24 16.5V45H21V16.5C21 13.7152 22.1062 11.0445 24.0754 9.07538C26.0445 7.10624 28.7152 6 31.5 6Z" fill="#0000DC"/>
<path d="M346.5 1.82176e-05C339.766 -0.00803064 333.302 2.6513 328.523 7.39631C323.745 12.1413 321.04 18.5858 321 25.32V25.5C321 30.5434 322.496 35.4736 325.298 39.667C328.1 43.8605 332.082 47.1289 336.742 49.0589C341.401 50.989 346.528 51.4939 351.475 50.51C356.421 49.5261 360.965 47.0975 364.531 43.5312C368.097 39.965 370.526 35.4213 371.51 30.4748C372.494 25.5283 371.989 20.4011 370.059 15.7416C368.129 11.0821 364.86 7.09952 360.667 4.29754C356.474 1.49557 351.543 1.82176e-05 346.5 1.82176e-05ZM346.5 48C340.535 47.9921 334.817 45.619 330.599 41.4011C326.381 37.1833 324.008 31.4649 324 25.5C324 24.8 324 24.14 324 23.52C324.499 18.7013 326.77 14.2399 330.374 11.0022C333.977 7.76456 338.656 5.98173 343.5 6.00001C343.999 5.96873 344.5 5.96873 345 6.00001C341.226 6.2975 337.621 7.6887 334.625 10.0034C331.63 12.318 329.374 15.4557 328.134 19.0325C326.894 22.6093 326.724 26.4699 327.644 30.142C328.564 33.8141 330.535 37.1383 333.315 39.7078C336.095 42.2773 339.563 43.9806 343.296 44.6094C347.029 45.2381 350.865 44.7649 354.333 43.2478C357.801 41.7306 360.752 39.2353 362.824 36.0672C364.896 32.8991 366 29.1956 366 25.41C366.004 19.705 363.835 14.2126 359.934 10.0498C356.033 5.8869 350.693 3.36611 345 3.00002C345.51 2.97016 346.02 2.97016 346.53 3.00002C352.497 3.00002 358.22 5.37054 362.44 9.59011C366.659 13.8097 369.03 19.5326 369.03 25.5C369.03 31.4674 366.659 37.1903 362.44 41.4099C358.22 45.6295 352.497 48 346.53 48H346.5ZM346.5 9.00001C349.763 9.00001 352.953 9.96772 355.667 11.7808C358.38 13.5938 360.495 16.1708 361.744 19.1857C362.993 22.2007 363.32 25.5183 362.683 28.719C362.046 31.9197 360.475 34.8597 358.167 37.1673C355.86 39.4748 352.92 41.0463 349.719 41.6829C346.518 42.3196 343.201 41.9929 340.186 40.744C337.171 39.4952 334.594 37.3803 332.781 34.6669C330.968 31.9535 330 28.7634 330 25.5C330 21.1239 331.738 16.9271 334.833 13.8327C337.927 10.7384 342.124 9.00001 346.5 9.00001Z" fill="#0000DC"/>
<path d="M132.15 3L152.7 45H149.34L128.82 3H125.49L110.82 33H140.13L141.6 36H111.24C110.678 35.9989 110.126 36.1558 109.649 36.4528C109.172 36.7499 108.787 37.1751 108.54 37.68L103.5 48H111.66C112.217 47.9955 112.762 47.836 113.234 47.5392C113.705 47.2425 114.085 46.8203 114.33 46.32L116.67 41.52C117.044 40.7648 117.621 40.1289 118.336 39.6837C119.052 39.2386 119.877 39.0018 120.72 39H143.07L146.64 46.32C146.887 46.8249 147.272 47.2501 147.749 47.5471C148.226 47.8442 148.778 48.0011 149.34 48H157.5L135.51 3H132.15ZM115.65 30L127.17 6.42L129.99 12.24C129.238 12.31 128.517 12.5733 127.896 13.0043C127.276 13.4354 126.778 14.0195 126.45 14.7L118.98 30H115.65ZM122.31 30L129.15 15.99C129.274 15.7375 129.466 15.5249 129.705 15.3764C129.943 15.2279 130.219 15.1494 130.5 15.15C130.777 15.1515 131.048 15.2312 131.281 15.3798C131.515 15.5284 131.701 15.7399 131.82 15.99L138.69 30H122.31ZM114 40.2L111.66 45H108.3L111.3 39H114.87C114.546 39.3741 114.255 39.7756 114 40.2Z" fill="#0000DC"/>
<path d="M198 6V31.5C198.011 31.8192 197.912 32.1325 197.722 32.3887C197.531 32.6448 197.259 32.8286 196.95 32.91C196.659 33.0132 196.344 33.0223 196.048 32.9362C195.751 32.85 195.49 32.673 195.3 32.43L173.25 3H169.5L203.25 48H207V3H201C200.204 3 199.441 3.31607 198.879 3.87868C198.316 4.44129 198 5.20435 198 6ZM204 6V44.01L197.82 35.79C198.708 35.4906 199.477 34.9163 200.016 34.1504C200.556 33.3845 200.837 32.4666 200.82 31.53V6H204Z" fill="#0000DC"/>
<path d="M162 3V48H168C168.796 48 169.559 47.6839 170.121 47.1213C170.684 46.5587 171 45.7956 171 45V19.5C170.978 19.1719 171.066 18.8458 171.251 18.5739C171.436 18.302 171.707 18.0999 172.02 18C172.321 17.9009 172.646 17.8998 172.948 17.9968C173.25 18.0938 173.513 18.284 173.7 18.54L195.75 48H199.5L165.75 3H162ZM171 15.24C170.11 15.5353 169.338 16.1085 168.798 16.8754C168.258 17.6423 167.978 18.5623 168 19.5V45H165V6.99L171 15.21V15.24Z" fill="#0000DC"/>
<path d="M258 39H232.5C232.182 39.0087 231.87 38.914 231.61 38.7301C231.35 38.5462 231.157 38.283 231.06 37.98C230.961 37.6788 230.96 37.354 231.057 37.0522C231.154 36.7503 231.344 36.487 231.6 36.3L261 14.25V10.5L216 44.25V48H261V42C261 41.2043 260.684 40.4413 260.121 39.8787C259.559 39.3161 258.796 39 258 39ZM258 45H219.99L228.21 38.82C228.515 39.7101 229.095 40.4803 229.866 41.0195C230.637 41.5587 231.559 41.839 232.5 41.82H258V45Z" fill="#0000DC"/>
<path d="M216 9C216 9.79565 216.316 10.5587 216.879 11.1213C217.441 11.6839 218.204 12 219 12H244.5C244.807 12.0078 245.105 12.1099 245.352 12.2924C245.6 12.4749 245.785 12.729 245.883 13.0204C245.982 13.3117 245.988 13.6262 245.901 13.9213C245.815 14.2164 245.64 14.4777 245.4 14.67L216 36.75V40.5L261 6.75V3H216V9ZM219 6H257.01L248.79 12.15V12C248.489 11.1073 247.91 10.3345 247.138 9.7946C246.366 9.25475 245.442 8.97628 244.5 9H219V6Z" fill="#0000DC"/>
<path d="M312 39H286.5C286.182 39.0087 285.87 38.914 285.61 38.7301C285.35 38.5462 285.157 38.283 285.06 37.98C284.951 37.6797 284.945 37.3517 285.042 37.0476C285.14 36.7434 285.336 36.4804 285.6 36.3L315 14.25V10.5L270 44.25V48H315V42C315 41.2043 314.684 40.4413 314.121 39.8787C313.559 39.3161 312.796 39 312 39ZM312 45H273.99L282.21 38.82C282.515 39.7101 283.095 40.4803 283.866 41.0195C284.637 41.5587 285.559 41.839 286.5 41.82H312V45Z" fill="#0000DC"/>
<path d="M270 9C270 9.79565 270.316 10.5587 270.879 11.1213C271.441 11.6839 272.204 12 273 12H298.5C298.807 12.0078 299.105 12.1099 299.352 12.2924C299.6 12.4749 299.785 12.729 299.883 13.0204C299.982 13.3117 299.988 13.6262 299.901 13.9213C299.815 14.2164 299.64 14.4777 299.4 14.67L270 36.75V40.5L315 6.75V3H270V9ZM273 6H310.98L302.79 12.15V12C302.485 11.1099 301.905 10.3397 301.134 9.80051C300.363 9.26131 299.441 8.98099 298.5 9H273V6Z" fill="#0000DC"/>
</svg>
