<svg id="Layer_1" data-name="Layer 1" xmlns="http://www.w3.org/2000/svg" viewBox="0 0 218.5 73.41"><defs><style>.cls-1,.cls-3{fill:#fff;}.cls-2{fill:none;stroke:#fff;stroke-width:0.75px;}.cls-3{font-size:7.09px;font-family:AvantGarde-Demi, ITC Avant Garde Gothic;font-weight:300;}</style></defs><path class="cls-1" d="M23.05,14.62c-5.71,0-6.21,1.05-6.95,4l-.31,1.24H14.54l.38-7.63H41l.43,7.63H40.5l-.64-1.23c-1-2.89-1.55-4-7.26-4H30.18v16c0,6.21.81,7.27,5,7.27v1.24H20.87V37.84c4.16,0,5-1.06,5-7.27V14.62Z"/><path class="cls-1" d="M62.07,30.82l4.28-12.66c1.24-3.67.68-4.72-3.29-4.72V12.2H74.73v1.24c-3.91,0-4.84.93-6.39,5.46L61.26,40.13h-.81L54.12,20.7,47.67,40.13h-.81L40,18.9c-1.49-4.53-2.48-5.46-6.08-5.46V12.2H47.67v1.24c-3.66,0-4.66.87-3.35,4.72l4.15,12.66L54.74,12.2h1.18Z"/><path class="cls-1" d="M93,32.81l.3-1.25h1.25l-.5,7.52H70.86V37.84c4.16,0,4.9-1.06,4.9-7.27V20.64c0-6.21-.74-7.2-4.9-7.2V12.2H92.58l.5,7.45H91.77l-.3-1.24c-.69-2.86-1.5-4-7.14-4H80.17v9.25h.37c6.21,0,6.7-.74,6.7-4.9h1.24v12.1H87.24c0-4.1-.49-4.9-6.7-4.9h-.37v3.6c0,6.2.74,7.2,4.9,7.2h.74C91.47,36.78,92.27,35.72,93,32.81Z"/><path class="cls-1" d="M145.9,13.44V12.2h14.22v1.24c-4.16,0-4.91,1-4.91,7.2v8.94c0,6.2.75,7.2,4.91,7.2h2.17c5.71,0,6.45-1.06,7.2-4l.31-1.25h1.3l-.43,7.52H145.9V37.84c4.16,0,4.91-1.06,4.91-7.27V20.64C150.81,14.43,150.06,13.44,145.9,13.44Z"/><path class="cls-1" d="M106.55,12.2h-14v1.24c4.16,0,5.71,1,5.71,7.2V39.08h8.26c10.55,0,15.15-6.09,15.15-13.48S117.1,12.2,106.55,12.2Zm.19,24.58h-.5c-3.1,0-3.54-.69-3.54-4.72V14.43h4c8.19,0,9.81,6.27,9.81,11.17S114.93,36.78,106.74,36.78Z"/><path class="cls-1" d="M132.89,12.2H119.73v1.24c4.16,0,4.9,1,4.9,7.2V39.08h8.26C143.44,39.08,148,33,148,25.6S143.44,12.2,132.89,12.2Zm.18,24.58h-.49c-3.11,0-3.54-.69-3.54-4.72V14.43h4c8.2,0,9.81,6.27,9.81,11.17S141.27,36.78,133.07,36.78Z"/><path class="cls-1" d="M191.11,31.56l-.31,1.25c-.74,2.91-1.55,4-7.2,4h-.74c-4.16,0-4.91-1-4.91-7.2V26h.38c6.21,0,6.7.8,6.7,4.9h1.24V18.78H185c0,4.16-.49,4.9-6.7,4.9H178V14.43h4.16c5.65,0,6.46,1.12,7.14,4l.31,1.24h1.31l-.5-7.45H168.64v1.24c4.16,0,4.91,1,4.91,7.2V39.08h18.31l.5-7.52Z"/><path class="cls-1" d="M47.09,56.12v-.73h7.39v.73c-2.08,0-2.38.4-2.38,2.91v1.7c-3,0-4,1.31-6.52,1.31a8,8,0,0,1,0-15.9,6.39,6.39,0,0,1,4.67,2.14,2.73,2.73,0,0,0,.65-1.43h.7v5.51h-.73c-.67-3.26-2.71-5-5.19-5-3.43,0-4.41,3.63-4.41,6.74s1,6.75,4.41,6.75c2,0,3.76-.81,3.76-3.11C49.44,56.65,48.82,56.12,47.09,56.12Z"/><path class="cls-1" d="M66.39,57.68c2.21,2.43,3.16,3,4.69,3.21v.72H65.64L61.17,55h-.72V58c0,2.51.32,2.94,2.4,2.94v.72H54.93v-.72c2.08,0,2.38-.43,2.38-2.94V50.23c0-2.51-.3-2.93-2.38-2.93v-.73h8.4c3.11,0,5.06,1.91,5.06,4.24,0,2.18-1.7,4-4.43,4.21ZM65,50.81a2.93,2.93,0,0,0-3.21-3.11H60.45v6.19h1.38A2.92,2.92,0,0,0,65,50.81Z"/><path class="cls-1" d="M80.8,62a8,8,0,1,1,8.38-7.95A8.19,8.19,0,0,1,80.8,62Zm0-14.69c-3.53,0-5,3.71-5,6.74s1.46,6.75,5,6.75,5-3.71,5-6.75S84.36,47.35,80.8,47.35Z"/><path class="cls-1" d="M101.49,47.3v-.73h6.14v.73c-2.08,0-2.38.42-2.38,2.93V56a6,6,0,0,1-12.06,0V50.23c0-2.51-.33-2.93-2.41-2.93v-.73h8v.73c-2.11,0-2.41.42-2.41,2.93v5.52c0,3.23,1.73,4.73,3.89,4.73s3.68-1.5,3.68-4.73V50.23C103.89,47.72,103.59,47.3,101.49,47.3Z"/><path class="cls-1" d="M122.49,50.81c0,2.33-1.95,4.21-5.06,4.21h-2.88V58c0,2.51.32,2.94,2.4,2.94v.72H109v-.72c2.08,0,2.38-.43,2.38-2.94V50.23c0-2.51-.3-2.93-2.38-2.93v-.73h8.4C120.54,46.57,122.49,48.48,122.49,50.81Zm-3.36,0a2.93,2.93,0,0,0-3.21-3.11h-1.37v6.19h1.37A2.91,2.91,0,0,0,119.13,50.81Z"/><line class="cls-2" x1="14.54" y1="54.12" x2="32.8" y2="54.12"/><line class="cls-2" x1="127.57" y1="54.12" x2="191.73" y2="54.12"/><path class="cls-1" d="M198.08,12.67v4.58h-.56V12.67H196V12.2h3.58v.47Z"/><path class="cls-1" d="M204.32,17.25V12.63h0l-1.42,4.62h-.43L201,12.63h0v4.62h-.51V12.2h.87l1.29,4.09h0l1.27-4.09h.88v5.05Z"/><text class="cls-3" transform="translate(151.95 62.38)">CJK GROUP</text></svg>