<?xml version="1.0" encoding="utf-8"?>
<!-- Generator: Adobe Illustrator 22.1.0, SVG Export Plug-In . SVG Version: 6.00 Build 0)  -->
<svg version="1.1" id="Layer_1" xmlns="http://www.w3.org/2000/svg" xmlns:xlink="http://www.w3.org/1999/xlink" x="0px" y="0px"
	 viewBox="0 0 526 265" style="enable-background:new 0 0 526 265;" xml:space="preserve">
<style type="text/css">
	.st0{fill:#ce0f69;}
</style>
<g>
	<path class="st0" d="M301.2,162.4c-9.5-5.9-22.3-10.9-28.6-19.5c-5.2-6.9-7.1-19.3-2.9-27.9c6.3-13,20.8-21,40.8-18.1
		c11.4,1.5,17.4,11.1,12,16.6c-2.9,3.1-5.2,5.7-5.3,9.9c-0.8,11.3,10.9,15.5,17.4,15.1c11.3-0.6,17.6-7.6,18.7-14.3
		c1.5-9.2-6.9-18.1-15.6-24.2c-7.6-5.3-23.3-10.7-42.3-8.6c-26.3,3.1-50.6,21.7-54,44.6c-3.6,23.7,19.8,43.9,33.8,53.6
		c9.2,6.3,20.6,11.8,25.9,21c4.2,7.2,7.1,17.4,1.5,27.5c-5.7,10.5-25,16.2-36.2,13.4c-9.9-2.5-11.1-11.3-9.3-20.4
		c2.5-13.5-12-17.4-18.3-16.6c-11.1,1.3-17,8.2-18.1,14.9c-1.5,9.2,3.1,15.3,11.8,21.4c7.6,5.3,30.9,10.3,55.3,7.2
		c26.3-3.4,43.9-18.1,47.3-41C338.4,193.3,328.1,179,301.2,162.4"/>
	<path class="st0" d="M215.2,105.8c0.6,0.8,1,1.3,1.1,1.7C216.1,106.9,215.7,106.3,215.2,105.8"/>
	<path class="st0" d="M213.6,103.7c-1.3-1.9-2.1-2.9-2.3-3.2C211.7,101,212.7,102.1,213.6,103.7"/>
	<path class="st0" d="M202.4,194.8c10.9-25.4,30.5-65.2,11.6-91c-5.9-8.2-13.5-11.8-22.3-11.8c-6.7,0-16,3.6-18.3,10.7l1,1
		c5.5-2.7,9.5,0,10.9,5.5c1.1,5.2,0.2,12.2-1.1,18.3c-5,21.2-16.4,39.9-22.5,60.5c-5.5,18.7-13,47.9,4.2,62.6
		c9.9,8.4,29.8,10.5,38.2-4l-0.8-0.8C178.2,252.1,198.6,203.8,202.4,194.8"/>
	<path class="st0" d="M213.6,103.7c0,0,0,0.2,0.2,0.2c0,0.2,0.2,0.2,0.2,0.4C214,104,213.8,103.8,213.6,103.7"/>
	<path class="st0" d="M157.4,120.1c-1-13.7-5.9-24.4-17.2-28c-11.4-3.6-23.8,1.9-27.3,14.9c-3.4,12.8,6.9,24.6,19.5,24.4
		c7.8,0,14.1,6.1,11.8,12.8c-4.2,11.8-11.8,25.2-19.8,39.3c-11.3,20-33.6,47.5-33.6,47.5l-29-135.2H12v1.1
		c4.8,1.7,8.4,5.5,10.1,10.3c0.4,1,0.8,2.1,1,3.4c1,5.2,34.5,145.2,34.5,145.2h25.2c0,0,30.5-37.6,47.9-65.8
		C144.2,167.7,158.7,136.5,157.4,120.1"/>
	<path class="st0" d="M194.6,59c2.7,4.2,4.8,9.9-0.2,17l0.6,1c14.7,1.7,25.2-4.6,32.4-11.6c5.3-5.3,8.6-13,8.6-20
		c0-12.8-10.3-23.1-23.1-23.1c-12.8,0-23.1,10.3-23.1,23.1c0,3.2,0.6,6.3,1.9,9.2C192.3,55.6,194,58.3,194.6,59"/>
	<path class="st0" d="M490.6,194.8c10.9-25.4,30.5-65.2,11.6-91c-5.9-8.2-16-11.3-22.3-11.8c-25.9-2.7-47.3,16.4-64.3,40.3l2.1-6.9
		l20.4-66.2c3.8-13.2,4.6-24,1-33.4c-6.5-16.4-28.2-27.1-43.7-17.7l0.4,1.7c9.2,2.3,8.8,19.6,6.3,29.4l-63.7,216.3h39.3l26.7-87.4
		c12-33.2,35.7-60.9,55.3-60.9c12,0,13.7,13.9,12.2,20.2c-5,21.2-16.4,39.9-22.5,60.5c-5.5,18.7-13,47.9,4.2,62.6
		c9.9,8.4,29.8,10.5,38.2-4l-0.8-0.8C466.4,252.1,486.8,203.8,490.6,194.8"/>
</g>
</svg>
