<svg width="99" height="20" xmlns="http://www.w3.org/2000/svg"><g fill="none" fill-rule="evenodd"><path d="M43.21 4.94c-.71-.4-1.78-.59-3.25-.59-2.01 0-3.88.43-4.58.7a.46.46 0 0 0-.34.42v.06l.2 1.01v.02c.07.2.24.3.4.3l.12-.02.33-.08c.88-.22 2.2-.56 3.68-.56.9 0 1.5.08 1.9.25.66.26.67.69.68 1.4v1.07h-.4c-.73 0-2.15.03-3.55.26-2.14.33-3.9.85-3.9 3.84 0 3.8 3.47 3.8 5.14 3.81 1.13 0 2.17-.17 2.86-.31 1.55-.37 1.95-.87 1.93-2.44V7.76c0-.96 0-2.16-1.22-2.82zm-.85 9.76a8.6 8.6 0 0 1-2.7.4v.1-.1c-1.53 0-3.03-.18-3.03-2.17 0-1.58.84-1.77 1.89-2l.07-.02c.93-.2 3.28-.24 3.77-.25v4.04zm19.4-6.94v6.32c.03 1.57-.37 2.07-1.93 2.43-.68.15-1.72.32-2.85.32-1.67 0-5.14-.01-5.14-3.81-.01-2.99 1.75-3.51 3.9-3.84 1.4-.23 2.82-.27 3.54-.27h.4V7.86c0-.71-.01-1.14-.67-1.4-.4-.17-1-.25-1.9-.25-1.48 0-2.8.34-3.68.56l-.34.08a.4.4 0 0 1-.51-.28v-.02l-.2-1.01v-.06c0-.23.17-.38.33-.43.71-.26 2.58-.69 4.59-.69 1.47 0 2.53.2 3.25.6 1.22.65 1.22 1.85 1.21 2.81zm-2.06 2.9c-.5 0-2.84.05-3.77.25l-.08.02c-1.05.23-1.88.42-1.89 2 0 1.99 1.5 2.17 3.04 2.18v.09-.1a8.6 8.6 0 0 0 2.7-.4v-4.04zm33.47-6.31c-4.83 0-5.24 3.23-5.24 6.25 0 3.01.41 6.22 5.24 6.23 4.83-.01 5.24-3.21 5.25-6.23 0-3.16-.42-6.24-5.25-6.25zm0 10.71c-2.93 0-3.08-1.54-3.1-4.46.03-2.94.17-4.47 3.1-4.49 2.93.02 3.08 1.55 3.1 4.49-.02 2.92-.17 4.45-3.1 4.46zm-8.67 1.32l-.12.04c-.68.17-1.6.4-3.23.4-4.47 0-5.35-2.29-5.35-6.24 0-4.54 1.42-6.22 5.22-6.23 1.34 0 2.27.18 2.93.34V1.04c-.01-.16.06-.37.43-.44l1.19-.31h.07c.27 0 .37.25.37.46v13.72c.01.87-.09 1.61-1.5 1.91zm-.56-9.93c-.4-.1-1.5-.36-2.75-.36-2.28.02-3.25.65-3.27 4.51.03 4.24 1.27 4.47 3.3 4.49v.09-.1c1.26 0 2.34-.26 2.72-.37V6.45zM73.28 16.54h-1.06a.5.5 0 0 1-.5-.5V7.88c-.02-1.37-.43-1.76-1.9-1.78-1.64 0-3.32.42-3.87.58v9.34c0 .3-.2.51-.47.51h-1.09a.5.5 0 0 1-.5-.5V6.9c-.01-.84.06-1.42 1.25-1.81 1.13-.4 3.3-.74 4.73-.74 2.73 0 3.9 1 3.9 3.35v8.34a.5.5 0 0 1-.5.5zm-24.06.22c.62-.01 1.07-.13 1.24-.34a.31.31 0 0 0 .09-.23c0-.07 0-.07-.17-.87v-.02c-.05-.2-.19-.3-.31-.3h-.32c-.44-.01-.8-.08-.8-.72V.75c0-.22-.14-.46-.4-.46h-.07l-1.2.31c-.2.02-.4.17-.4.44v13.28c0 1.57.84 2.44 2.34 2.44zm-16.8-.22H23.9a.5.5 0 0 1-.5-.5v-1.06c0-.26.08-.38.24-.58l6.78-8h-6.65a.5.5 0 0 1-.5-.5v-.76c0-.29.22-.5.5-.5h8.61c.29 0 .5.22.5.5v1.08c0 .2-.06.36-.21.54l-6.8 8.02h6.56c.28 0 .5.22.5.5v.76a.5.5 0 0 1-.5.5z" fill="#1D1D1B"/><path d="M3.97 19.9c-.73 0-1.13-.18-1.34-.3-.3-.18-.85-.62-1.34-1.93A22.35 22.35 0 0 1 .02 10v-.01c.02-3.02.49-5.59 1.27-7.69C1.8 1 2.33.54 2.63.37c.21-.13.61-.3 1.33-.3.28 0 .6.03.98.09 2.19.36 4.6 1.23 7.2 2.72a21.81 21.81 0 0 1 5.92 4.96c.87 1.1.97 1.8.97 2.14 0 .35-.1 1.05-.97 2.14a21.8 21.8 0 0 1-5.92 4.96h-.01a21.5 21.5 0 0 1-7.19 2.73c-.38.06-.7.08-.97.08" fill="#FF6900"/></g></svg>