<?xml version="1.0" encoding="utf-8"?>
<!-- Generator: Adobe Illustrator 19.2.1, SVG Export Plug-In . SVG Version: 6.00 Build 0)  -->
<svg version="1.1" id="layer" xmlns="http://www.w3.org/2000/svg" xmlns:xlink="http://www.w3.org/1999/xlink" x="0px" y="0px"
	 viewBox="0 0 652 652" style="enable-background:new 0 0 652 652;" xml:space="preserve">
<style type="text/css">
	.st0{fill:#19191D;}
</style>
<path class="st0" d="M81.2,360.4h58.4v30.7h-119l66-108.6H31.7v-30.7H147L81.2,360.4z M157.9,321.4c-0.3-30,17.9-57,45.9-68
	c9.8-3.9,20.5-5.9,31.1-5.7c11.2,0,21.6,2,31.1,5.7c28.4,10.4,47,37.7,46.2,68c0,19.5-7.8,38.5-21.6,52.4
	c-7,6.8-15.4,12.1-24.6,15.6c-9.8,3.9-20.5,5.9-31.1,5.7c-11.4,0-21.6-2-31.1-5.7C175.6,378.8,157.2,351.5,157.9,321.4L157.9,321.4z
	 M195.8,321.4c0,15.6,9.6,29.8,24.1,35.4c19.8,8.1,42.4-0.7,51.4-20.2c2.1-4.7,3.1-9.8,3.1-15.3c0.2-10.4-4.1-20.3-11.7-27.5
	c-7.4-7.1-17.4-11-27.6-10.9c-15.4,0-29.6,8.9-36.1,23.1C196.8,310.7,195.8,315.9,195.8,321.4z M328.8,321.4
	c-0.3-30,17.9-57,45.9-68c9.8-3.9,20.5-5.9,31.1-5.7c11.2,0,21.6,2,31.1,5.7c28.4,10.4,47,37.7,46.2,68c0,19.5-7.8,38.5-21.6,52.4
	c-7,6.8-15.4,12.1-24.6,15.6c-9.8,3.9-20.5,5.9-31.1,5.7c-11.4,0-21.6-2-31.1-5.7C346.5,378.8,328,351.5,328.8,321.4L328.8,321.4z
	 M366.7,321.4c0,15.6,9.6,29.8,24.1,35.4c19.8,8.1,42.4-0.7,51.4-20.2c2.1-4.7,3.1-9.8,3.1-15.3c0.2-10.4-4.1-20.3-11.7-27.5
	c-7.4-7.1-17.4-11-27.6-10.9c-15.4,0-29.6,8.9-36.1,23.1C367.7,310.7,366.7,315.9,366.7,321.4L366.7,321.4z M554.8,360.4h58.4v30.7
	H494l66-108.6h-54.8v-30.7h115.3L554.8,360.4z"/>
</svg>
