<svg xmlns="http://www.w3.org/2000/svg" xmlns:xlink="http://www.w3.org/1999/xlink" width="235.197" height="89.913" viewBox="0 0 235.197 89.913"><defs><path id="a" d="M.786 7.071c0 3.03 1.421 5.649 5.536 8.867l1.721 1.346c3.106 2.433 3.667 4.154 3.667 5.987 0 1.983-1.646 4.265-5.013 4.265-2.32 0-4.527-1.011-5.351-3.779-.187-.635-.336-1.421-.336-1.908 0-.3-.038-.636-.375-.636-.299 0-.411.412-.449.972C.149 22.784 0 25.03 0 27.087c0 .823.111 1.01.71 1.272 1.609.711 3.293.973 5.463.973 1.983 0 4.078-.337 5.948-1.534 2.695-1.759 3.517-4.341 3.517-6.51 0-3.555-1.608-6.136-6.135-9.541l-1.048-.785C5.35 8.605 4.489 7.295 4.489 5.574c0-2.244 1.684-3.854 4.452-3.854 2.432 0 3.517 1.123 4.078 1.834.786.973.973 2.133.973 2.469 0 .448.113.674.374.674.299 0 .412-.299.412-1.123 0-2.918.15-4.003.15-4.49 0-.262-.188-.374-.524-.448C13.431.374 11.86 0 9.427 0 4.227 0 .786 2.955.786 7.071"/></defs><clipPath id="b"><use xlink:href="#a" overflow="visible"/></clipPath><linearGradient id="c" gradientUnits="userSpaceOnUse" x1="-500.721" y1="258.414" x2="-499.721" y2="258.414" gradientTransform="matrix(0 -29.3328 -29.3328 0 7587.835 -14658.225)"><stop offset="0" stop-color="#6bb3da"/><stop offset="1" stop-color="#22679b"/></linearGradient><path clip-path="url(#b)" fill="url(#c)" d="M0 0h15.638v29.332H0z"/><defs><path id="d" d="M43.546.374c-.299.075-.898.149-1.61.224-.71.038-8.156.038-9.353.038-.523 0-1.384-.038-2.357-.076-.936 0-2.02-.037-3.03-.037-.561 0-.824.075-.824.337s.225.337.637.337c.524 0 1.16.037 1.459.112 1.234.262 1.534.861 1.609 2.132.075 1.197.075 2.246.075 7.933v6.584c0 3.442 0 6.398-.188 7.97-.149 1.084-.336 1.907-1.084 2.057-.338.075-.787.15-1.347.15-.45 0-.599.111-.599.299 0 .262.262.375.748.375.748 0 1.722-.076 2.582-.076.897-.037 1.721-.037 2.132-.037 1.122 0 2.283.037 3.891.113 1.609.037 3.667.111 6.473.111 1.422 0 1.758 0 2.02-.972.187-.75.487-3.293.487-4.154 0-.374 0-.672-.3-.672-.262 0-.336.149-.411.56-.262 1.535-.711 2.32-1.684 2.769-.973.449-2.544.449-3.517.449-3.816 0-4.415-.562-4.489-3.143-.037-1.085 0-4.526 0-5.799v-2.955c0-.224.037-.375.224-.375.898 0 4.602.038 5.313.113 1.385.149 1.909.71 2.095 1.459.112.487.112.972.15 1.347 0 .186.075.336.337.336.336 0 .336-.412.336-.711 0-.261.113-1.758.15-2.506.149-1.908.299-2.507.299-2.731 0-.225-.112-.3-.262-.3-.187 0-.336.187-.598.487-.338.373-.898.486-1.796.56-.861.076-5.164.076-5.986.076-.225 0-.262-.15-.262-.412V2.881c0-.262.074-.375.262-.375.748 0 4.676.075 5.312.15 1.872.225 2.246.674 2.507 1.347.187.448.225 1.084.225 1.346 0 .338.075.524.336.524.262 0 .337-.224.375-.411.074-.449.149-2.095.187-2.469.112-1.721.299-2.171.299-2.433 0-.186-.038-.336-.225-.336s-.411.112-.598.15"/></defs><clipPath id="e"><use xlink:href="#d" overflow="visible"/></clipPath><linearGradient id="f" gradientUnits="userSpaceOnUse" x1="-500.728" y1="258.428" x2="-499.728" y2="258.428" gradientTransform="matrix(0 -28.696 -28.696 0 7451.653 -14339.951)"><stop offset="0" stop-color="#6bb3da"/><stop offset="1" stop-color="#22679b"/></linearGradient><path clip-path="url(#e)" fill="url(#f)" d="M26.372.224h18.895V28.92H26.372z"/><defs><path id="g" d="M62.211.636c-1.046 0-3.403-.113-5.387-.113-.561 0-.824.075-.824.337s.226.337.638.337c.523 0 1.159.037 1.459.112 1.234.262 1.533.861 1.608 2.132.075 1.197.075 2.246.075 7.933v6.584c0 3.442 0 6.398-.188 7.97-.149 1.084-.336 1.907-1.084 2.057-.337.075-.786.15-1.347.15-.449 0-.599.111-.599.299 0 .262.262.375.749.375 1.497 0 3.854-.113 4.714-.113.972 0 3.33.113 5.799.113.412 0 .711-.113.711-.375 0-.188-.187-.299-.599-.299-.56 0-1.384-.075-1.908-.15-1.123-.15-1.347-.973-1.459-2.02-.188-1.609-.188-4.565-.188-8.007V2.993c0-.412.113-.636.3-.711.337-.112.898-.149 1.459-.149a5.56 5.56 0 013.742 1.458c2.095 1.871 2.207 4.378 2.207 5.612 0 3.816-2.919 6.173-5.013 6.173-.786 0-1.048.113-1.048.412 0 .262.262.299.449.337.187.038.599.038.786.038 5.312 0 9.203-3.743 9.203-9.054 0-1.984-1.047-3.668-1.87-4.453-.599-.561-2.282-2.133-6.959-2.133-1.721 0-3.891.113-5.426.113"/></defs><clipPath id="h"><use xlink:href="#g" overflow="visible"/></clipPath><linearGradient id="i" gradientUnits="userSpaceOnUse" x1="-500.749" y1="258.417" x2="-499.749" y2="258.417" gradientTransform="matrix(0 -28.2854 -28.2854 0 7375.655 -14135.057)"><stop offset="0" stop-color="#6bb3da"/><stop offset="1" stop-color="#22679b"/></linearGradient><path clip-path="url(#h)" fill="url(#i)" d="M56 .523h20.466v28.286H56z"/><defs><path id="j" d="M85.069.71c-.075.299-.786 3.704-.786 4.303 0 .412.075.598.337.598.225 0 .336-.149.411-.448.075-.3.262-.749.636-1.31.562-.823 1.459-1.01 3.63-1.085l5.575-.149v15.339c0 3.442 0 6.398-.188 7.97-.112 1.084-.336 1.907-1.085 2.057-.337.075-.786.15-1.347.15-.449 0-.598.111-.598.299 0 .262.261.375.748.375 1.497 0 3.854-.113 4.714-.113 1.048 0 3.405.113 5.873.113.412 0 .711-.113.711-.375 0-.188-.187-.299-.598-.299-.562 0-1.384-.075-1.908-.15-1.122-.15-1.347-.973-1.459-2.02-.187-1.609-.187-4.565-.187-8.007V2.619l4.714.111c3.33.076 4.34 1.123 4.415 2.096l.037.412c.037.56.112.748.412.748.224 0 .298-.225.336-.599 0-.973.113-3.554.113-4.341 0-.56-.038-.784-.299-.784-.15 0-.45.074-1.011.187-.561.074-1.384.187-2.581.187H90.867c-1.234 0-2.656-.076-3.741-.187C86.191.374 85.817 0 85.518 0c-.225 0-.337.224-.449.71"/></defs><clipPath id="k"><use xlink:href="#j" overflow="visible"/></clipPath><linearGradient id="l" gradientUnits="userSpaceOnUse" x1="-500.735" y1="258.415" x2="-499.735" y2="258.415" gradientTransform="matrix(0 -28.8091 -28.8091 0 7541.627 -14396.922)"><stop offset="0" stop-color="#6bb3da"/><stop offset="1" stop-color="#22679b"/></linearGradient><path clip-path="url(#k)" fill="url(#l)" d="M84.283 0h25.292v28.809H84.283z"/><defs><path id="m" d="M124.536.636c-1.084 0-3.442-.113-4.863-.113-.599 0-.898.075-.898.299 0 .3.225.375.598.375.45 0 .936.037 1.347.149.824.187 1.197.824 1.272 2.095.076 1.197.076 2.246.076 7.933v6.584c0 3.629 0 6.586-.188 8.156-.112 1.084-.336 1.721-1.085 1.871-.337.075-.786.15-1.347.15-.448 0-.599.111-.599.299 0 .262.262.375.749.375 1.496 0 3.854-.113 4.714-.113 1.01 0 3.367.113 5.837.113.411 0 .71-.113.71-.375 0-.188-.186-.299-.598-.299-.561 0-1.384-.075-1.909-.15-1.122-.15-1.384-.823-1.495-1.833-.151-1.608-.151-4.565-.151-8.194v-6.584c0-5.687 0-6.736.075-7.933.076-1.308.374-1.945 1.384-2.132.449-.075.749-.112 1.123-.112s.599-.075.599-.375c0-.224-.3-.299-.786-.299-1.422 0-3.629.113-4.565.113"/></defs><clipPath id="n"><use xlink:href="#m" overflow="visible"/></clipPath><linearGradient id="o" gradientUnits="userSpaceOnUse" x1="-500.749" y1="258.417" x2="-499.749" y2="258.417" gradientTransform="matrix(0 -28.2854 -28.2854 0 7434.264 -14135.057)"><stop offset="0" stop-color="#6bb3da"/><stop offset="1" stop-color="#22679b"/></linearGradient><path clip-path="url(#n)" fill="url(#o)" d="M118.775.523h12.084v28.286h-12.084z"/><defs><path id="p" d="M167.261.898l-10.177 21.063L146.87 1.159C146.384.186 146.16 0 145.86 0c-.3 0-.524.336-.636.973l-3.705 24.093c-.186 1.272-.486 2.732-1.533 2.956-.561.113-.823.113-1.122.113-.375 0-.599.074-.599.261 0 .337.3.413.673.413 1.197 0 2.994-.113 3.705-.113.673 0 2.357.113 3.928.113.561 0 .897-.076.897-.413 0-.187-.262-.261-.56-.261-.375 0-.898-.038-1.572-.187-.636-.15-1.122-.487-1.122-1.198 0-.598.037-1.085.112-1.758l1.945-14.592h.151c1.308 2.806 3.554 7.221 3.89 8.007.449 1.048 3.405 6.772 4.303 8.493.599 1.122.972 1.871 1.309 1.871.337 0 .524-.337 1.384-2.095l8.157-16.686h.149l2.245 16.274c.15 1.048.038 1.534-.188 1.609-.261.112-.411.224-.411.411 0 .225.224.336 1.085.412 1.496.113 6.659.186 7.595.186.524 0 .972-.111.972-.411 0-.225-.261-.262-.598-.262-.487 0-1.235-.037-2.32-.374-1.122-.337-1.497-1.421-1.833-3.778l-3.405-22.898C168.645.374 168.42 0 168.084 0c-.337 0-.524.298-.823.898"/></defs><clipPath id="q"><use xlink:href="#p" overflow="visible"/></clipPath><linearGradient id="r" gradientUnits="userSpaceOnUse" x1="-500.735" y1="258.414" x2="-499.735" y2="258.414" gradientTransform="matrix(0 -28.8835 -28.8835 0 7621.499 -14434.074)"><stop offset="0" stop-color="#6bb3da"/><stop offset="1" stop-color="#22679b"/></linearGradient><path clip-path="url(#q)" fill="url(#r)" d="M138.265 0h38.648v28.882h-38.648z"/><defs><path id="s" d="M190.939 17.135l3.442-9.166c.038-.15.113-.337.224-.337.113 0 .15.187.188.337l3.367 9.203c.037.112 0 .225-.187.225h-6.884c-.15 0-.187-.113-.15-.262m3.555-15.639l-9.391 23.196c-.748 1.871-1.46 3.143-3.181 3.368a11.44 11.44 0 01-1.159.075c-.3 0-.449.074-.449.299 0 .299.224.375.711.375 1.945 0 4.002-.113 4.414-.113 1.16 0 2.769.113 3.967.113.41 0 .635-.076.635-.375 0-.225-.112-.299-.562-.299h-.56c-1.16 0-1.497-.487-1.497-1.161 0-.449.188-1.346.563-2.282l2.02-5.125c.075-.225.15-.299.337-.299h8.343c.187 0 .3.074.373.262l2.995 7.706c.186.449-.076.786-.338.861-.373.038-.522.112-.522.337 0 .262.448.262 1.122.299 2.993.076 5.724.076 7.072.076 1.384 0 1.721-.076 1.721-.375 0-.262-.188-.299-.487-.299a8.24 8.24 0 01-1.572-.15c-.785-.187-1.87-.711-3.292-4.078-2.395-5.687-8.381-20.653-9.279-22.71-.375-.861-.6-1.197-.937-1.197-.374 0-.599.412-1.047 1.496"/></defs><clipPath id="t"><use xlink:href="#s" overflow="visible"/></clipPath><linearGradient id="u" gradientUnits="userSpaceOnUse" x1="-500.735" y1="258.415" x2="-499.735" y2="258.415" gradientTransform="matrix(0 -28.8091 -28.8091 0 7640.424 -14396.922)"><stop offset="0" stop-color="#6bb3da"/><stop offset="1" stop-color="#22679b"/></linearGradient><path clip-path="url(#t)" fill="url(#u)" d="M180.314 0h30.792v28.809h-30.792z"/><defs><path id="v" d="M221.54.636c-1.01 0-3.367-.113-5.125-.113-.561 0-.823.075-.823.337s.224.337.635.337c.487 0 .936.037 1.235.112 1.235.262 1.535.861 1.609 2.132.075 1.197.075 2.246.075 7.933v6.584c0 3.442 0 6.398-.187 7.97-.149 1.084-.337 1.907-1.085 2.057-.337.075-.786.15-1.347.15-.449 0-.598.111-.598.299 0 .262.261.375.748.375.747 0 1.72-.076 2.581-.076.898-.037 1.721-.037 2.133-.037 1.534 0 2.881.037 4.565.113 1.683.037 3.628.111 6.322.111 1.946 0 2.133-.187 2.357-1.01.3-1.085.562-3.89.562-4.303 0-.449-.038-.636-.3-.636-.299 0-.374.225-.412.562-.074.711-.523 1.758-.972 2.244-.935 1.011-2.395 1.048-4.378 1.048-2.917 0-3.89-.262-4.527-.823-.785-.674-.785-3.255-.785-8.044v-6.584c0-5.687 0-6.736.074-7.933.076-1.308.375-1.945 1.384-2.132a9.953 9.953 0 011.46-.112c.449 0 .673-.075.673-.337s-.261-.337-.785-.337c-1.459 0-4.191.113-5.089.113"/></defs><clipPath id="w"><use xlink:href="#v" overflow="visible"/></clipPath><linearGradient id="x" gradientUnits="userSpaceOnUse" x1="-500.722" y1="258.444" x2="-499.722" y2="258.444" gradientTransform="matrix(0 -28.3969 -28.3969 0 7564.39 -14190.042)"><stop offset="0" stop-color="#6bb3da"/><stop offset="1" stop-color="#22679b"/></linearGradient><path clip-path="url(#w)" fill="url(#x)" d="M215.592.523h19.605V28.92h-19.605z"/><defs><path id="y" d="M78.563 61.553L68.387 82.616 58.173 61.814c-.486-.973-.711-1.16-1.01-1.16s-.523.337-.636.972l-3.704 24.095c-.187 1.272-.486 2.732-1.534 2.956-.561.112-.823.112-1.122.112-.375 0-.599.075-.599.261 0 .338.3.412.673.412 1.197 0 2.994-.111 3.705-.111.673 0 2.357.111 3.927.111.562 0 .899-.074.899-.412 0-.186-.262-.261-.562-.261-.374 0-.897-.037-1.57-.187-.637-.149-1.123-.486-1.123-1.197 0-.6.037-1.084.112-1.758l1.946-14.593h.149c1.309 2.808 3.554 7.222 3.891 8.007.449 1.048 3.405 6.772 4.303 8.493.599 1.122.972 1.871 1.309 1.871.338 0 .524-.337 1.384-2.096l8.157-16.687h.149l2.245 16.274c.15 1.048.038 1.535-.187 1.609-.262.112-.412.225-.412.412 0 .224.225.337 1.086.411 1.497.111 6.659.187 7.595.187.524 0 .972-.111.972-.411 0-.224-.262-.262-.599-.262-.485 0-1.233-.038-2.319-.374-1.122-.337-1.497-1.421-1.833-3.779L80.06 61.814c-.112-.785-.336-1.16-.673-1.16s-.524.299-.824.899"/></defs><clipPath id="z"><use xlink:href="#y" overflow="visible"/></clipPath><linearGradient id="A" gradientUnits="userSpaceOnUse" x1="-500.731" y1="258.416" x2="-499.731" y2="258.416" gradientTransform="matrix(0 -28.883 -28.883 0 7532.73 -14373.075)"><stop offset="0" stop-color="#6bb3da"/><stop offset="1" stop-color="#22679b"/></linearGradient><path clip-path="url(#z)" fill="url(#A)" d="M49.568 60.654h38.648v28.883H49.568z"/><defs><path id="B" d="M102.616 61.29c-1.085 0-3.442-.112-4.864-.112-.598 0-.897.075-.897.3 0 .3.224.374.599.374.449 0 .935.037 1.346.149.823.188 1.197.823 1.272 2.095.075 1.197.075 2.245.075 7.933v6.584c0 3.63 0 6.585-.187 8.157-.112 1.084-.337 1.721-1.085 1.87a6.105 6.105 0 01-1.347.149c-.449 0-.599.113-.599.3 0 .262.262.373.749.373 1.496 0 3.853-.111 4.714-.111 1.01 0 3.367.111 5.836.111.412 0 .711-.111.711-.373 0-.187-.187-.3-.598-.3-.562 0-1.384-.074-1.908-.149-1.123-.149-1.385-.823-1.497-1.834-.15-1.608-.15-4.563-.15-8.193v-6.584c0-5.688 0-6.735.075-7.933.075-1.309.375-1.945 1.385-2.132.449-.075.748-.112 1.122-.112s.598-.074.598-.374c0-.225-.299-.3-.785-.3-1.422 0-3.629.112-4.565.112"/></defs><clipPath id="C"><use xlink:href="#B" overflow="visible"/></clipPath><linearGradient id="D" gradientUnits="userSpaceOnUse" x1="-500.745" y1="258.419" x2="-499.745" y2="258.419" gradientTransform="matrix(0 -28.2849 -28.2849 0 7412.276 -14074.057)"><stop offset="0" stop-color="#6bb3da"/><stop offset="1" stop-color="#22679b"/></linearGradient><path clip-path="url(#C)" fill="url(#D)" d="M96.855 61.178h12.084v28.284H96.855z"/><defs><path id="E" d="M122.443 61.926l-.337 22.038c-.037 3.254-.187 4.338-1.16 4.639-.524.149-1.197.187-1.684.187-.373 0-.598.075-.598.3 0 .337.336.373.823.373 1.946 0 3.704-.111 4.041-.111.711 0 2.207.111 4.639.111.525 0 .861-.074.861-.373 0-.225-.225-.3-.636-.3-.599 0-1.309-.037-1.946-.262-.748-.261-1.235-1.234-1.309-4.153l-.412-15.601h.113c.673.71 4.826 5.274 8.904 9.314 3.891 3.855 8.68 8.756 11.037 11.001.411.411.861.824 1.272.824.337 0 .486-.338.486-1.161l.412-23.606c.038-2.098.337-2.883 1.384-3.182.449-.112.748-.112 1.123-.112.449 0 .673-.112.673-.337 0-.299-.374-.337-.861-.337-1.833 0-3.254.112-3.666.112-.786 0-2.581-.112-4.527-.112-.561 0-.973.038-.973.337 0 .225.15.337.599.337.523 0 1.421 0 1.983.225.898.374 1.235 1.085 1.272 3.367l.374 16.799h-.187c-.636-.599-5.687-5.986-8.231-8.53a590.31 590.31 0 01-11.599-11.897c-.635-.675-.972-1.16-1.384-1.16-.374-.002-.486.522-.486 1.27"/></defs><clipPath id="F"><use xlink:href="#E" overflow="visible"/></clipPath><linearGradient id="G" gradientUnits="userSpaceOnUse" x1="-500.718" y1="258.419" x2="-499.718" y2="258.419" gradientTransform="matrix(0 -29.2579 -29.2579 0 7695.21 -14560.055)"><stop offset="0" stop-color="#6bb3da"/><stop offset="1" stop-color="#22679b"/></linearGradient><path clip-path="url(#F)" fill="url(#G)" d="M118.664 60.654h31.465v29.259h-31.465z"/><defs><path id="H" d="M165.876 86.545c-.299-.413-.373-1.908-.411-2.844-.038-.711-.075-3.592-.075-7.558v-4.715c0-2.954 0-6.211.037-7.481 0-.413.112-.6.449-.749.3-.15 1.684-.261 2.432-.261 2.919 0 7.184.447 10.625 3.74 1.609 1.534 3.592 4.603 3.592 9.354 0 3.854-.748 7.258-3.143 9.316-2.244 1.945-4.789 2.693-8.604 2.693-2.956.001-4.415-.784-4.902-1.495m-2.731-25.255c-1.048 0-3.404-.112-5.388-.112-.56 0-.822.075-.822.337 0 .263.224.337.635.337.524 0 1.16.037 1.46.112 1.235.263 1.533.86 1.608 2.132.075 1.197.075 2.245.075 7.933v6.584c0 3.443 0 6.397-.187 7.97-.15 1.084-.336 1.908-1.085 2.058a6.105 6.105 0 01-1.347.149c-.448 0-.599.113-.599.3 0 .262.262.373.749.373.748 0 1.721-.074 2.581-.074.898-.037 1.721-.037 2.133-.037.935 0 2.245.111 3.667.225 1.422.112 2.955.224 4.302.224 6.922 0 10.812-2.656 12.534-4.414 2.095-2.132 4.078-5.724 4.078-10.438 0-4.452-1.759-7.558-3.63-9.503-4.078-4.266-10.325-4.266-15.002-4.266-2.244-.002-4.602.11-5.762.11"/></defs><clipPath id="I"><use xlink:href="#H" overflow="visible"/></clipPath><linearGradient id="J" gradientUnits="userSpaceOnUse" x1="-500.728" y1="258.433" x2="-499.728" y2="258.433" gradientTransform="matrix(0 -28.6216 -28.6216 0 7568.984 -14241.828)"><stop offset="0" stop-color="#6bb3da"/><stop offset="1" stop-color="#22679b"/></linearGradient><path clip-path="url(#I)" fill="url(#J)" d="M156.935 61.178h30.604v28.621h-30.604z"/><defs><path id="K" d="M107.939 38.445c-.738 1.7.503 7.547 3.886 8.534 3.365.98 5.862.563 6.171.506-.406.181-11.072 6.141-6.574 7.678 3.768 1.286 6.533-7.563 6.591-7.681l.017-.004S113.126 36.8 109.789 36.8c-.708 0-1.345.481-1.85 1.645"/></defs><clipPath id="L"><use xlink:href="#K" overflow="visible"/></clipPath><linearGradient id="M" gradientUnits="userSpaceOnUse" x1="-500.919" y1="258.745" x2="-499.919" y2="258.745" gradientTransform="matrix(0 -18.5041 -18.5041 0 4900.326 -9213.765)"><stop offset="0" stop-color="#6bb3da"/><stop offset=".224" stop-color="#67afd7"/><stop offset=".457" stop-color="#5ba2cc"/><stop offset=".694" stop-color="#478ebb"/><stop offset=".931" stop-color="#2b71a3"/><stop offset="1" stop-color="#22679b"/></linearGradient><path clip-path="url(#L)" fill="url(#M)" d="M106.924 36.8h11.106v19.649h-11.106z"/><defs><path id="N" d="M118.03 47.479l.017.004c.059.117 2.824 8.967 6.591 7.681 4.498-1.537-6.168-7.497-6.574-7.678.309.058 2.807.475 6.171-.506 3.383-.987 4.624-6.834 3.887-8.534-.505-1.164-1.142-1.646-1.851-1.645-3.337 0-8.241 10.678-8.241 10.678"/></defs><clipPath id="O"><use xlink:href="#N" overflow="visible"/></clipPath><linearGradient id="P" gradientUnits="userSpaceOnUse" x1="-500.919" y1="256.966" x2="-499.919" y2="256.966" gradientTransform="rotate(-90 -6922.547 -2291.218) scale(18.5041)"><stop offset="0" stop-color="#6bb3da"/><stop offset=".224" stop-color="#67afd7"/><stop offset=".457" stop-color="#5ba2cc"/><stop offset=".694" stop-color="#478ebb"/><stop offset=".931" stop-color="#2b71a3"/><stop offset="1" stop-color="#22679b"/></linearGradient><path clip-path="url(#O)" fill="url(#P)" d="M118.03 36.8h11.106v19.649H118.03z"/><linearGradient id="Q" gradientUnits="userSpaceOnUse" x1="138.334" y1="44.982" x2="234.026" y2="44.982"><stop offset="0" stop-color="#22679b"/><stop offset="1" stop-color="#6bb3da"/></linearGradient><path fill="url(#Q)" d="M233.076 45.932h-93.792a.95.95 0 010-1.898h93.792a.949.949 0 110 1.898z"/><linearGradient id="R" gradientUnits="userSpaceOnUse" x1="-764.736" y1="26.79" x2="-669.043" y2="26.79" gradientTransform="rotate(180 -333.354 35.886)"><stop offset="0" stop-color="#22679b"/><stop offset="1" stop-color="#6bb3da"/></linearGradient><path fill="url(#R)" d="M97.076 45.932H3.284a.95.95 0 010-1.898h93.792a.949.949 0 110 1.898z"/></svg>