<svg xmlns="http://www.w3.org/2000/svg" viewBox="0 0 239 26"><path fill="#3966AA" d="M9.7-.1h6.9v22H9.7z"/><path fill="#54AF25" d="M57.8-.1h6.9v22h-6.9z"/><path fill="#8D3798" d="M28.9-.1h6.9v22h-6.9z"/><path fill="#F448A2" d="M38.6 4.1h6.9v22h-6.9z"/><path fill="#B04FA4" d="M48.2-.1h6.9v22h-6.9z"/><circle fill="#74C1C9" cx="22.7" cy="3.4" r="3.4"/><circle fill="#252884" cx="3.5" cy="18.5" r="3.4"/><circle fill="#A6D514" cx="70.9" cy="18.5" r="3.4"/><path d="M82.1 15.1l.8-1c1.2 1.1 2.4 1.7 4.1 1.7 1.6 0 2.6-.8 2.6-2 0-1.1-.6-1.7-3.1-2.3-2.7-.6-4-1.5-4-3.4s1.6-3.2 3.9-3.2c1.7 0 3 .5 4.2 1.5l-.8 1c-1-1-2.1-1.4-3.3-1.4C85 6 84 6.8 84 7.9c0 1.1.6 1.7 3.2 2.3 2.6.6 3.9 1.5 3.9 3.4 0 2-1.7 3.4-4 3.4-2 0-3.5-.6-5-1.9zM94.6 11c0-3.3 2.5-6.2 6.1-6.2 3.6 0 6 2.8 6 6.1s-2.5 6.1-6.1 6.1c-3.6.1-6-2.8-6-6zm10.7 0c0-2.7-2-4.9-4.7-4.9C97.9 6 96 8.2 96 10.9c0 2.7 2 4.9 4.7 4.9s4.6-2.1 4.6-4.8zm5.6-6h8.5v1.2h-7.2v4.2h6.4v1.2h-6.4v5.2h-1.3V5zm16.2 1.2h-4V5h9.3v1.2h-4v10.6H127V6.2zm8.3-1.2h1.5l3.4 9.9 3.3-9.9h1.1l3.3 9.9 3.4-9.9h1.4l-4.2 11.9h-1.1L144 7.3l-3.3 9.6h-1.1L135.4 5zm23.9-.1h1.3l5.4 11.9h-1.4l-1.4-3.1h-6.5l-1.4 3.1h-1.4l5.4-11.9zm3.3 7.6l-2.7-6-2.7 6h5.4zm6.6-7.5h5.1c1.5 0 2.6.4 3.4 1.2.6.6.9 1.4.9 2.3 0 2-1.4 3.1-3.2 3.5l3.6 4.8h-1.6l-3.4-4.6h-3.4v4.6h-1.3V5zm5 6.1c1.8 0 3-.9 3-2.4s-1.1-2.3-3-2.3h-3.7v4.8h3.7zm9.7-6.1h8.6v1.2h-7.2v4h6.5v1.2h-6.5v4.1h7.3v1.2h-8.7V5zm13.6 0h2.8l3.1 5 3.1-5h2.8v11.9h-2.6V9.1l-3.3 5.1h-.1l-3.3-5v7.7h-2.6V5zm16.3 0h2.6v11.9h-2.6V5zm18.3 0h2.6v9.5h4.3v2.4h-6.9V5zm-10.9 0h2.6v9.5h4.3v2.4h-6.9V5z"/></svg>